<svg xmlns="http://www.w3.org/2000/svg" width="50" height="50" viewBox="0 0 50 50" fill="none">
  <path fill-rule="evenodd" clip-rule="evenodd" d="M40.8 31.4C47.9 33.8 49.6 33.9 49.6 33.9V8C49.6 3.6 46 0 41.7 0H7.9C3.6 0 0 3.6 0 8V42C0 46.4 3.6 50 7.9 50H41.6C46 50 49.5 46.4 49.5 42V41.7C49.5 41.7 36.6 36.3 30.1 33.1C25.7 38.5 20.1 41.8 14.3 41.8C4.4 41.8 1 33.1 5.7 27.3C6.7 26 8.5 24.9 11.2 24.2C15.4 23.2 22.1 24.9 28.4 26.9C29.5 24.8 30.5 22.5 31.2 20H11.8V18H21.8V14.5H9.7V12.5H21.8V7.5C21.8 7.5 21.8 6.6 22.7 6.6H27.6V12.5H39.6V14.5H27.6V18H37.4C36.5 21.9 35 25.4 33.3 28.5C36.2 29.7 38.8 30.7 40.8 31.4Z" fill="#1677FF"/>
  <path fill-rule="evenodd" clip-rule="evenodd" d="M12 27.2C10.8 27.3 8.4 27.9 7.2 29C3.4 32.4 5.7 38.5 13.4 38.5C17.9 38.5 22.4 35.6 25.9 31C20.9 28.5 16.6 26.7 12 27.2Z" fill="#1677FF"/>
</svg>
