<svg xmlns="http://www.w3.org/2000/svg" width="167" height="107" viewBox="0 0 167 107" fill="none">
  <path d="M152.625 95.3496L144.978 87.0716L137.332 95.3496H90.2289V57.0258H74.9359L93.8993 13.7966H112.251L118.98 28.5129V13.7966H141.614L145.59 25.1404L149.566 13.7966H167V7.05158C167 3.06591 163.636 0 159.965 0H7.0348C3.05861 0 0 3.3725 0 7.05158V99.9484C0 103.934 3.36447 107 7.0348 107H159.965C163.941 107 167 103.628 167 99.9484V95.3496H152.625Z" fill="#0071CE"/>
  <path d="M154.766 91.0573H167L151.095 74.1948L167 57.3324H155.071L145.284 68.063L135.496 57.3324H123.568L139.473 74.1948L123.568 91.0573H135.19L144.978 80.3266L154.766 91.0573Z" fill="#0071CE"/>
  <path d="M104.299 83.3925V78.1805H123.262V70.5158H104.299V64.9971H123.568V57.3324H95.1227V91.0573H123.568V83.3925H104.299Z" fill="#0071CE"/>
  <path d="M157.824 52.7335H166.694V19.0086H152.93L145.284 39.8567L137.943 19.0086H123.568V52.7335H132.744V29.1261L141.308 52.7335H149.26L157.824 29.1261V52.7335Z" fill="#0071CE"/>
  <path d="M108.886 19.0086H97.2637L82.5824 52.4269H92.6758L95.4286 45.6819H110.722L113.474 52.4269H123.874L108.886 19.0086ZM98.1813 38.3238L102.769 27.2865L107.357 38.3238H98.1813Z" fill="#0071CE"/>
  <path d="M158.436 73.3885L167 82.5862V64.1908L158.436 73.3885Z" fill="#0071CE"/>
</svg>
