<svg width="20" height="20" viewBox="0 0 20 20" fill="none" xmlns="http://www.w3.org/2000/svg">
<g clip-path="url(#clip0_541_240)">
<path d="M17.2348 17.8223L15.8056 16.2751L14.3763 17.8223H5.57209V10.659H2.71358L6.25814 2.5788H9.68835L10.9461 5.32951V2.5788H15.1767L15.9199 4.69914L16.6631 2.5788H19.9218V1.31805C19.9218 0.573067 19.2929 0 18.6069 0H1.31494C0.571728 0 2.63453e-05 0.630373 2.63453e-05 1.31805V10V18.6819C2.63453e-05 19.4269 0.628899 20 1.31494 20H18.6069C19.3501 20 19.9218 19.3696 19.9218 18.6819V17.8223H17.2348Z" fill="#0071CE"/>
<path d="M17.635 17.0201H19.9218L16.949 13.8682L19.9218 10.7163H17.6922L15.8627 12.7221L14.0333 10.7163H11.8036L14.7765 13.8682L11.8036 17.0201H13.9761L15.8056 15.0143L17.635 17.0201Z" fill="#0071CE"/>
<path d="M8.20192 15.5874V14.6132H11.7465V13.1805H8.20192V12.149H11.8036V10.7163H6.48682V17.0201H11.8036V15.5874H8.20192Z" fill="#0071CE"/>
<path d="M18.2067 9.85673H19.8647V3.55301H17.292L15.8627 7.44986L14.4906 3.55301H11.8036V9.85673H13.5188V5.44413L15.1195 9.85673H16.6059L18.2067 5.44413V9.85673Z" fill="#0071CE"/>
<path d="M9.05947 3.55301H6.88701L4.14284 9.79943H6.02946L6.54399 8.53868H9.4025L9.91703 9.79943H11.8608L9.05947 3.55301ZM7.05852 7.16332L7.91607 5.10029L8.77362 7.16332H7.05852Z" fill="#0071CE"/>
<path d="M18.3211 13.7175L19.9218 15.4367V11.9983L18.3211 13.7175Z" fill="#0071CE"/>
</g>
<defs>
<clipPath id="clip0_541_240">
<rect width="19.9218" height="20" rx="4" fill="white"/>
</clipPath>
</defs>
</svg>
