<svg width="20" height="20" viewBox="0 0 20 20" fill="none" xmlns="http://www.w3.org/2000/svg">
<rect width="20" height="20" rx="4" fill="black"/>
<path d="M14.5765 8.09412C13.7765 8.58823 13.2824 9.43529 13.2824 10.3765C13.2824 11.4353 13.9177 12.4 14.8824 12.8C14.6941 13.4118 14.4118 13.9765 14.0589 14.4941C13.5412 15.2235 13 15.9765 12.2 15.9765C11.4 15.9765 11.1647 15.5059 10.2236 15.5059C9.30591 15.5059 8.9765 16 8.22356 16C7.47062 16 6.95297 15.3176 6.36473 14.4706C5.58826 13.2941 5.14121 11.9294 5.11768 10.4941C5.11768 8.16471 6.62356 6.91765 8.12944 6.91765C8.92944 6.91765 9.58826 7.43529 10.0824 7.43529C10.553 7.43529 11.3059 6.89412 12.2 6.89412C13.1412 6.87059 14.0353 7.31765 14.5765 8.09412ZM11.7765 5.90588C12.1765 5.43529 12.3883 4.84706 12.4118 4.23529C12.4118 4.16471 12.4118 4.07059 12.3883 4C11.7059 4.07059 11.0706 4.4 10.6236 4.91765C10.2236 5.36471 9.98826 5.92941 9.96473 6.54118C9.96473 6.61176 9.96473 6.68235 9.98826 6.75294C10.0353 6.75294 10.1059 6.77647 10.153 6.77647C10.7883 6.72941 11.3765 6.4 11.7765 5.90588Z" fill="white"/>
</svg>
