<svg xmlns="http://www.w3.org/2000/svg" width="83" height="35" viewBox="0 0 83 35" fill="none">
  <path d="M15.5939 4.51354C16.5653 3.29852 17.2245 1.66711 17.0506 0C15.6286 0.0707081 13.8933 0.938143 12.8887 2.15412C11.9866 3.19541 11.1882 4.89513 11.3964 6.49236C12.9926 6.63082 14.5874 5.69447 15.5939 4.51354Z" fill="black"/>
  <path d="M17.0325 6.80423C14.7143 6.66614 12.7433 8.1199 11.6363 8.1199C10.5286 8.1199 8.83335 6.87381 6.9998 6.9074C4.61332 6.94245 2.39894 8.29178 1.1879 10.4379C-1.30299 14.7311 0.530558 21.0994 2.95282 24.596C4.12913 26.3258 5.54678 28.2306 7.41475 28.1621C9.17967 28.0929 9.87145 27.0193 12.0168 27.0193C14.1605 27.0193 14.7837 28.1621 16.652 28.1275C18.5894 28.0929 19.8007 26.3968 20.977 24.6652C22.3264 22.6933 22.8788 20.7892 22.9136 20.6847C22.8788 20.65 19.1776 19.2302 19.1433 14.9726C19.1084 11.4078 22.0491 9.71209 22.1876 9.60694C20.5269 7.15076 17.9321 6.87381 17.0325 6.80423Z" fill="black"/>
  <path d="M37.2173 1.97963C42.2559 1.97963 45.7643 5.45272 45.7643 10.5093C45.7643 15.5839 42.1837 19.075 37.091 19.075H31.5124V27.9466H27.4819V1.97962L37.2173 1.97963ZM31.5124 15.6918H36.1372C39.6464 15.6918 41.6436 13.8026 41.6436 10.5273C41.6436 7.25243 39.6464 5.38086 36.1552 5.38086H31.5124V15.6918Z" fill="black"/>
  <path d="M46.8175 22.5657C46.8175 19.2543 49.3548 17.221 53.8539 16.969L59.0361 16.6632V15.2057C59.0361 13.1002 57.6144 11.8406 55.2395 11.8406C52.9896 11.8406 51.586 12.9201 51.2444 14.6119H47.5735C47.7894 11.1926 50.7043 8.67332 55.3832 8.67332C59.9719 8.67332 62.9049 11.1027 62.9049 14.8996V27.9461H59.1798V24.8329H59.0903C57.9927 26.9384 55.5991 28.2699 53.116 28.2699C49.4089 28.2699 46.8175 25.9666 46.8175 22.5657ZM59.0361 20.8562V19.3626L54.3753 19.6504C52.0539 19.8125 50.7404 20.8382 50.7404 22.4577C50.7404 24.113 52.108 25.1929 54.1955 25.1929C56.9126 25.1929 59.0361 23.3213 59.0361 20.8562Z" fill="black"/>
  <path d="M66.4218 34.9101V31.7609C66.7092 31.8327 67.3568 31.8327 67.681 31.8327C69.4804 31.8327 70.4523 31.0771 71.0458 29.1337C71.0458 29.0976 71.3881 27.982 71.3881 27.9639L64.5502 9.01502H68.7605L73.5477 24.419H73.6192L78.4064 9.01502H82.5092L75.4186 28.9355C73.7997 33.5245 71.9281 35 68.0052 35C67.681 35 66.7092 34.9639 66.4218 34.9101Z" fill="black"/>
</svg>
