<svg xmlns="http://www.w3.org/2000/svg" width="186" height="73" viewBox="0 0 186 73" fill="none">
  <path d="M86.6685 56.915H79.8515V3.87008H97.9237C102.504 3.87008 106.409 5.39682 109.605 8.45028C112.871 11.5037 114.505 15.2318 114.505 19.6344C114.505 24.1436 112.871 27.8717 109.605 30.8896C106.445 33.9076 102.539 35.3988 97.9237 35.3988H86.6685V56.915ZM86.6685 10.4031V28.9013H98.0657C100.764 28.9013 103.036 27.9782 104.812 26.1674C106.622 24.3567 107.546 22.1553 107.546 19.6699C107.546 17.2201 106.622 15.0543 104.812 13.2435C103.036 11.3617 100.8 10.4386 98.0657 10.4386H86.6685V10.4031Z" fill="#3C4043"/>
  <path d="M132.328 19.4214C137.37 19.4214 141.347 20.7706 144.258 23.469C147.17 26.1674 148.625 29.86 148.625 34.5467V56.915H142.128V51.8733H141.844C139.039 56.0274 135.275 58.0867 130.589 58.0867C126.576 58.0867 123.239 56.915 120.541 54.5362C117.842 52.1573 116.493 49.2104 116.493 45.6598C116.493 41.8963 117.913 38.9138 120.754 36.7125C123.594 34.4757 127.393 33.375 132.115 33.375C136.163 33.375 139.5 34.1206 142.092 35.6118V34.0496C142.092 31.6707 141.169 29.6824 139.287 28.0137C137.406 26.3449 135.204 25.5283 132.683 25.5283C128.884 25.5283 125.866 27.1261 123.665 30.3571L117.665 26.5935C120.967 21.8003 125.866 19.4214 132.328 19.4214ZM123.523 45.7664C123.523 47.5416 124.269 49.0328 125.795 50.2045C127.287 51.3762 129.062 51.9798 131.086 51.9798C133.962 51.9798 136.518 50.9146 138.755 48.7843C140.992 46.654 142.128 44.1686 142.128 41.2927C139.997 39.6239 137.051 38.7718 133.251 38.7718C130.482 38.7718 128.174 39.4464 126.328 40.7601C124.446 42.1448 123.523 43.8136 123.523 45.7664Z" fill="#3C4043"/>
  <path d="M185.693 20.5931L162.969 72.8569H155.939L164.39 54.5717L149.406 20.5931H156.827L167.621 46.654H167.763L178.272 20.5931H185.693Z" fill="#3C4043"/>
  <path d="M59.5531 31.1027C59.5531 28.88 59.3542 26.7533 58.985 24.7081H30.4103V36.4249L46.867 36.4285C46.1995 40.3269 44.0514 43.6502 40.7601 45.8658V53.4675H50.556C56.2759 48.1736 59.5531 40.3483 59.5531 31.1027Z" fill="#4285F4"/>
  <path d="M40.7637 45.8658C38.0368 47.7049 34.5254 48.7808 30.4174 48.7808C22.482 48.7808 15.7502 43.4337 13.3393 36.2261H3.23453V44.0657C8.24078 54 18.5302 60.8171 30.4174 60.8171C38.6333 60.8171 45.5356 58.1151 50.5596 53.4639L40.7637 45.8658Z" fill="#34A853"/>
  <path d="M12.3878 30.4103C12.3878 28.3865 12.7251 26.4302 13.3393 24.591V16.7514H3.23453C1.16457 20.8594 0 25.4964 0 30.4103C0 35.3242 1.16812 39.9612 3.23453 44.0692L13.3393 36.2296C12.7251 34.3905 12.3878 32.4341 12.3878 30.4103Z" fill="#FABB05"/>
  <path d="M30.4174 12.0363C34.9017 12.0363 38.9174 13.5808 42.088 16.5987L50.769 7.92479C45.4965 3.0144 38.6227 0 30.4174 0C18.5338 0 8.24078 6.81702 3.23453 16.7514L13.3393 24.591C15.7502 17.3834 22.482 12.0363 30.4174 12.0363Z" fill="#E94235"/>
</svg>
