<svg width="20" height="20" viewBox="0 0 20 20" fill="none" xmlns="http://www.w3.org/2000/svg">
<rect width="20" height="20" rx="4" fill="black"/>
<path d="M16 10.1403C16 9.6924 15.9599 9.26385 15.8855 8.85176H10.1277V11.2127L13.4437 11.2134C13.3092 11.999 12.8764 12.6686 12.2132 13.115V14.6468H14.1871C15.3397 13.5801 16 12.0033 16 10.1403Z" fill="#4285F4"/>
<path d="M12.2132 13.115C11.6637 13.4856 10.9569 13.7024 10.1291 13.7024C8.53014 13.7024 7.17367 12.625 6.68789 11.1726H4.65176V12.7523C5.66052 14.7541 7.73386 16.1277 10.1291 16.1277C11.7847 16.1277 13.1755 15.5833 14.1878 14.6461L12.2132 13.115Z" fill="#34A853"/>
<path d="M6.49615 10.0008C6.49615 9.59296 6.56412 9.19875 6.68789 8.82816V7.24847H4.65176C4.23466 8.07623 4 9.01059 4 10.0008C4 10.9909 4.23538 11.9246 4.65176 12.7523L6.68789 11.1726C6.56412 10.802 6.49615 10.4086 6.49615 10.0008Z" fill="#FABB05"/>
<path d="M10.1291 6.29837C11.0327 6.29837 11.8419 6.60959 12.4808 7.21771L14.23 5.4699C13.1676 4.48045 11.7825 3.87305 10.1291 3.87305C7.73457 3.87305 5.66052 5.24668 4.65176 7.24847L6.68789 8.82816C7.17367 7.37582 8.53014 6.29837 10.1291 6.29837Z" fill="#E94235"/>
</svg>
