<svg width="20" height="20" viewBox="0 0 20 20" fill="none" xmlns="http://www.w3.org/2000/svg">
<rect width="20" height="20" rx="4" fill="#00B14F"/>
<path fill-rule="evenodd" clip-rule="evenodd" d="M4.65192 12.2104C3.5267 12.2104 2.6577 11.3269 2.6577 10.1726C2.6577 9.0474 3.56368 8.15595 4.71663 8.15595C5.39546 8.15595 5.96203 8.38178 6.29352 8.61554V9.01175L6.26579 9.03288C5.82072 8.7212 5.33867 8.57328 4.73116 8.57328C3.79744 8.57328 3.11861 9.22437 3.11861 10.1713C3.11861 11.1182 3.74858 11.7918 4.65324 11.7918C5.47338 11.7918 5.85506 11.3031 5.84845 10.8858H4.7021V10.4618H6.27899V10.7379C6.27899 11.5091 5.77714 12.2091 4.65192 12.2091V12.2104ZM4.65192 12.8404C3.13182 12.8404 2 11.702 2 10.1739C2 8.64592 3.18069 7.52863 4.71663 7.52863C5.3598 7.52863 5.89071 7.67654 6.29352 7.96709V8.38442C5.87619 8.09387 5.32414 7.94596 4.71663 7.94596C3.43558 7.94464 2.44507 8.89288 2.44507 10.1739C2.44507 11.455 3.38539 12.4231 4.65192 12.4231C5.80487 12.4231 6.49162 11.7376 6.49162 10.6335V10.2519H4.7021V9.84113H6.88782V10.5622C6.88782 11.9701 6.03863 12.8404 4.65192 12.8404ZM7.78589 12.7202V10.5345C7.78589 9.79887 8.28774 9.28248 9.00223 9.28248C9.21486 9.28248 9.43409 9.34588 9.58201 9.44493C9.51201 9.55058 9.45522 9.66416 9.39843 9.79887C9.26372 9.74208 9.13694 9.70642 8.99563 9.70642C8.5215 9.70642 8.20322 10.0524 8.20322 10.5411V12.7202H7.78589ZM7.58778 12.7202H7.17045V10.5424C7.17045 9.43172 7.87833 8.68158 8.9877 8.68158C9.36938 8.68158 9.72332 8.78723 9.98481 8.97212C9.87123 9.06457 9.78671 9.16362 9.70879 9.25475C9.58201 9.17683 9.29146 9.0857 9.00883 9.0857C8.16756 9.0857 7.58646 9.67208 7.58646 10.5358V12.7215L7.58778 12.7202ZM13.7144 10.8884V10.273C13.7355 10.2439 13.7567 10.2136 13.7778 10.1845C14.2863 9.47398 14.8779 8.64592 15.9913 8.64592C17.1046 8.64592 18 9.55851 18 10.7392C18 11.9199 17.1587 12.8404 16.0124 12.8404C15.1209 12.8404 14.4355 12.3095 14.2017 11.6373L14.4989 11.2344C14.6468 11.9199 15.2834 12.4231 16.019 12.4231C16.925 12.4231 17.5827 11.7152 17.5827 10.7392C17.5827 9.76321 16.9104 9.06985 15.9913 9.06985C15.3124 9.06985 14.874 9.40927 14.3708 10.0247C14.2004 10.2307 14.0208 10.4737 13.8161 10.7484C13.7818 10.7933 13.7474 10.8396 13.7131 10.8871L13.7144 10.8884ZM14.9941 10.5834H15.0087V10.6467C15.0087 11.2556 15.426 11.7997 16.0203 11.7997C16.6146 11.7997 16.9606 11.3256 16.9606 10.7313C16.9606 10.137 16.579 9.69189 15.9846 9.69189C15.4498 9.69189 15.1671 10.0353 14.7762 10.512C14.7326 10.5649 14.6877 10.6203 14.6402 10.6758C14.3642 11.0086 13.9891 11.4893 13.7131 11.9001V11.2212C13.9284 10.9188 14.1291 10.6613 14.2823 10.4632C14.3404 10.3879 14.3919 10.3219 14.4342 10.2664C14.7525 9.84245 15.1843 9.26928 15.9899 9.26928C16.7955 9.26928 17.3832 9.89132 17.3832 10.7339C17.3832 11.5765 16.7969 12.2197 16.0177 12.2197C15.2385 12.2197 14.7234 11.5408 14.6666 11.0311L14.9915 10.586L14.9941 10.5834ZM14.5913 8.92194V7.16016H15.0087V8.64592C14.8792 8.69478 14.7551 8.79383 14.6402 8.88364C14.623 8.89685 14.6072 8.91005 14.5913 8.92194ZM14.3853 9.07646C14.2374 9.22437 14.0948 9.40134 13.968 9.56511V7.16016H14.3853V9.07646ZM12.2643 11.5739L12.2709 11.5805V11.9978C12.1296 12.0968 11.8179 12.2104 11.5142 12.217C10.7072 12.2382 10.0997 11.6227 10.0997 10.7458C10.0997 9.86886 10.7085 9.26796 11.5142 9.26796C12.3198 9.26796 12.8929 9.86886 12.8929 10.6903V12.7202H12.4756V10.7115C12.4756 10.1238 12.1071 9.68529 11.5062 9.68529C10.9476 9.68529 10.5303 10.1172 10.5303 10.7458C10.5303 11.3744 10.9542 11.7997 11.5208 11.7997C11.7968 11.7997 12.0873 11.7152 12.263 11.5739H12.2643ZM11.5142 12.8404C10.3401 12.8404 9.46975 11.9701 9.46975 10.7392C9.46975 9.55058 10.3401 8.63799 11.5142 8.63799C12.6882 8.63799 13.5163 9.5004 13.5163 10.6745V12.7189H13.0924V10.6811C13.0924 9.74076 12.4347 9.06853 11.5155 9.06853C10.5963 9.06853 9.90293 9.73283 9.90293 10.7379C9.90293 11.7429 10.554 12.4217 11.5155 12.4217C11.8338 12.4217 12.1454 12.3016 12.2722 12.1959V12.6132C12.0807 12.7611 11.777 12.8391 11.5155 12.8391L11.5142 12.8404Z" fill="white"/>
</svg>
