<svg xmlns="http://www.w3.org/2000/svg" width="152" height="94" viewBox="0 0 152 94" fill="none">
  <path d="M96.5626 10.059H55.4736V83.9193H96.5626V10.059Z" fill="#FF5F00"/>
  <path d="M58.0824 46.9891C58.0824 32.6347 64.7349 18.9327 75.9529 10.059C55.6041 -5.99191 25.9939 -2.46855 9.94966 18.0192C-5.96415 38.3764 -2.44224 67.8683 18.037 83.9193C35.1248 97.3603 58.9955 97.3603 76.0833 83.9193C64.7349 75.0456 58.0824 61.3436 58.0824 46.9891Z" fill="#EB001B"/>
  <path d="M152 46.9891C152 72.9577 130.999 93.9674 105.041 93.9674C94.4755 93.9674 84.3011 90.444 76.0833 83.9193C96.4321 67.8683 99.954 38.3764 83.9098 17.8887C81.5618 15.0178 78.953 12.2774 76.0833 10.059C96.4321 -5.99191 126.042 -2.46855 141.956 18.0192C148.478 26.2404 152 36.419 152 46.9891Z" fill="#F79E1B"/>
</svg>
