<svg width="20" height="20" viewBox="0 0 20 20" fill="none" xmlns="http://www.w3.org/2000/svg">
<rect width="20" height="20" rx="4" fill="black"/>
<path d="M12.1645 6.11158H7.83933V13.8863H12.1645V6.11158Z" fill="#FF5F00"/>
<path d="M8.11394 9.99896C8.11394 8.48796 8.8142 7.04565 9.99504 6.11158C7.85306 4.42201 4.7362 4.79289 3.04733 6.94949C1.37219 9.09236 1.74292 12.1968 3.89863 13.8863C5.69735 15.3012 8.21005 15.3012 10.0088 13.8863C8.8142 12.9523 8.11394 11.51 8.11394 9.99896Z" fill="#EB001B"/>
<path d="M18 9.99896C18 12.7325 15.7894 14.944 13.057 14.944C11.9448 14.944 10.8738 14.5732 10.0088 13.8863C12.1507 12.1968 12.5215 9.09236 10.8326 6.93576C10.5855 6.63356 10.3108 6.34509 10.0088 6.11158C12.1507 4.42201 15.2676 4.79289 16.9427 6.94949C17.6293 7.81488 18 8.88631 18 9.99896Z" fill="#F79E1B"/>
</svg>
