<svg width="20" height="20" viewBox="0 0 20 20" fill="none" xmlns="http://www.w3.org/2000/svg">
<rect x="0.25" y="0.25" width="19.5" height="19.5" rx="3.75" stroke="#FFAFC2" stroke-width="0.5"/>
<path d="M16.6982 9.57523H14.5345C14.3166 9.57523 14.138 9.41108 14.138 9.2068C14.138 9.00251 14.3147 8.83836 14.5345 8.83836L16.3409 8.84018C16.7807 8.84018 16.981 8.93685 17.0085 9.23416C17.0202 9.35271 17.1125 9.44938 17.2421 9.44938H17.6426C17.7722 9.44938 17.8763 9.35271 17.8763 9.23416C17.8763 8.60489 17.5366 8.01758 16.3743 8.01758L8.94078 8.0194V8.83836H10.8806V11.7603C10.8806 11.8844 10.9886 11.9829 11.1202 11.9829H11.611C11.7445 11.9829 11.8506 11.8825 11.8506 11.7603V8.83836H13.3212C13.278 8.95874 13.2544 9.08642 13.2525 9.21956V9.22321C13.2525 9.96374 13.7924 10.3887 15.0235 10.3887H16.6924C16.9338 10.3887 17.1164 10.5583 17.1164 10.7827C17.1164 11.0089 16.9103 11.1694 16.6806 11.1694L14.8193 11.1675C14.3794 11.1675 14.1713 11.0636 14.1438 10.7645C14.1321 10.6459 14.0398 10.5492 13.9102 10.5492H13.5097C13.3801 10.5492 13.276 10.6459 13.276 10.7645C13.276 11.3937 13.6157 11.981 14.778 11.981L16.6943 11.9829C17.4149 11.9829 18 11.443 18 10.779C18.0039 10.1151 17.4188 9.57523 16.6982 9.57523Z" fill="#EA0029"/>
<path d="M9.16458 8.01981H5.97011V8.83876H9.16458C9.30006 8.83876 9.41002 8.73662 9.41002 8.61077V8.2478C9.41002 8.12195 9.30006 8.01981 9.16458 8.01981Z" fill="#003DA6"/>
<path d="M9.16451 9.59171H5.97003V10.4107H9.16451C9.29999 10.4107 9.40995 10.3085 9.40995 10.1827V9.8197C9.40995 9.69386 9.29999 9.59171 9.16451 9.59171Z" fill="#003DA6"/>
<path d="M9.16451 11.1638H5.97003V11.9827H9.16451C9.29999 11.9827 9.40995 11.8806 9.40995 11.7548V11.3918C9.40995 11.2659 9.29999 11.1638 9.16451 11.1638Z" fill="#003DA6"/>
<path d="M5.62643 8.01964C5.49292 8.01964 5.3869 8.11996 5.3869 8.24216V10.7082L3.23499 8.10719C3.18983 8.05247 3.11915 8.01964 3.04454 8.01964H2.23954C2.10799 8.01964 2 8.11996 2 8.24216V11.7606C2 11.8846 2.10799 11.9831 2.23954 11.9831H2.64007C2.77359 11.9831 2.87961 11.8828 2.87961 11.7606V9.00457L5.22196 11.8372C5.27498 11.901 5.35351 11.9831 5.47918 11.9831H6.02501C6.15852 11.9831 6.26454 11.8828 6.26454 11.7606V8.24216C6.26454 8.11996 6.15852 8.01964 6.02501 8.01964H5.62643Z" fill="#EA0029"/>
</svg>
