<svg width="20" height="20" viewBox="0 0 20 20" fill="none" xmlns="http://www.w3.org/2000/svg">
<rect width="20" height="20" rx="4" fill="#90137B"/>
<path d="M11.8453 10.7189C11.8394 10.7047 11.8331 10.691 11.8268 10.6768C11.8222 10.6663 11.8174 10.6559 11.8126 10.6458C11.6619 10.3294 11.4548 10.0371 11.1945 9.78544C10.9738 9.5722 10.9051 9.57722 10.7189 9.82469C10.6232 9.95333 10.5271 10.0822 10.4311 10.2108C10.1867 10.539 9.94162 10.8671 9.69698 11.1953C9.55155 11.39 9.40656 11.5849 9.26156 11.7796C9.117 11.9756 9.10217 11.9756 8.94301 11.7796C8.77839 11.5792 8.61529 11.3773 8.45024 11.1776C8.40183 11.1185 8.35278 11.0597 8.3035 11.0008C8.17878 10.8538 8.09789 10.856 7.98015 11.003C7.89925 11.1011 7.82578 11.2064 7.7499 11.3091C7.59051 11.525 7.59051 11.5786 7.75731 11.7846C7.80005 11.8374 7.843 11.8897 7.88574 11.9425C8.08524 12.1878 8.28497 12.4329 8.48425 12.6775C8.62423 12.8489 8.764 13.02 8.90376 13.191C9.11438 13.4483 9.17565 13.4483 9.36905 13.186C9.48985 13.0222 9.61042 12.8587 9.731 12.695C9.91917 12.4401 10.1073 12.1852 10.2957 11.9301C10.4896 11.6678 10.6836 11.4053 10.8783 11.1427C10.92 11.0865 10.9836 11.0494 11.0375 11.0008C11.0645 11.0383 11.0998 11.0725 11.128 11.1098C11.1461 11.1331 11.1611 11.1578 11.1701 11.1844C11.409 11.9157 11.3305 12.589 10.9115 13.1681L10.9084 13.1722C10.8341 13.2745 10.749 13.3739 10.6531 13.4701C10.5249 13.5987 10.3908 13.709 10.251 13.8002C10.251 13.8002 10.2482 13.8019 10.2464 13.803C9.84721 14.0629 9.4035 14.1698 8.93058 14.1198C8.74524 14.1006 8.55555 14.057 8.36215 13.9894C8.13539 13.9096 7.93065 13.7982 7.75033 13.6615C7.43745 13.4245 7.19957 13.1127 7.0537 12.763C6.86466 12.3101 6.82956 11.794 6.98524 11.2945C7.05174 11.0823 7.14659 10.8872 7.26498 10.7119C7.44312 10.4476 7.6738 10.2292 7.93916 10.0667C8.3192 9.8345 8.7701 9.71872 9.23867 9.75121C9.38323 9.76102 9.52909 9.78522 9.6754 9.82447C10.1754 9.95922 10.0921 10.0229 10.4717 9.49371C10.4815 9.48389 10.4863 9.47168 10.4913 9.45926C10.5103 9.39341 10.5452 9.35394 10.5914 9.33367C10.3367 9.19107 10.0587 9.08488 9.7637 9.02013C9.74801 9.01947 9.73056 9.01729 9.71225 9.01337C9.66384 9.00377 9.61457 8.99243 9.56529 8.98284L9.5642 8.98262C9.50424 8.97085 9.44428 8.96126 9.38475 8.96038C9.36731 8.96017 9.34987 8.9606 9.33264 8.96213C9.2681 8.96627 9.21316 8.96147 9.16584 8.9473C8.74415 8.93509 8.33795 9.00792 7.96597 9.15378C7.92542 9.18278 7.8659 9.19892 7.82098 9.21941C6.60083 9.79264 5.87804 11.0592 6.13292 12.4778C6.17457 12.712 6.24172 12.9341 6.33134 13.1424C6.33723 13.1568 6.34377 13.1707 6.35031 13.1851C6.61065 13.7668 7.04672 14.2354 7.59029 14.5387C7.84496 14.6813 8.12296 14.7875 8.41797 14.852C8.48142 14.8662 8.5453 14.8782 8.61006 14.888C8.67286 14.8978 8.7363 14.9061 8.80041 14.912C8.85078 14.9168 8.90158 14.9205 8.95282 14.9227C8.97331 14.9237 8.99403 14.9244 9.01452 14.9248C9.43686 14.9373 9.84329 14.8647 10.2157 14.7186C10.9431 14.4338 11.5401 13.8702 11.8682 13.1145C12.2007 12.3391 12.1787 11.4678 11.8453 10.7189Z" fill="white"/>
<path d="M12.3876 5.12574C12.3239 5.24566 12.2921 5.30932 12.2576 5.37081C11.8582 6.06417 11.4566 6.75514 11.0645 7.4509C11.0083 7.55621 10.9764 7.67112 10.9712 7.79126C10.9566 8.21992 10.954 8.6512 10.9566 9.08009C10.9592 9.24907 10.9027 9.33497 10.7239 9.31775C10.674 9.31317 10.6293 9.31666 10.5914 9.33367C10.3367 9.19107 10.0587 9.08488 9.7637 9.02013C9.84874 9.02405 9.89562 8.98197 9.89562 8.87666C9.89823 8.47241 9.90303 8.07078 9.89562 7.66392C9.893 7.57824 9.83936 7.48753 9.79532 7.40664C9.41048 6.72069 9.02346 6.03692 8.63884 5.35097C8.60439 5.2873 8.57736 5.22102 8.52612 5.11571C8.92055 5.11571 9.26331 5.10611 9.60388 5.12552C9.66755 5.13053 9.75084 5.23345 9.78791 5.30911C9.97389 5.68893 10.1479 6.07617 10.3293 6.45817C10.3561 6.51224 10.4102 6.55149 10.4516 6.59793C10.4885 6.55367 10.5349 6.51224 10.5595 6.46319C10.7484 6.07617 10.9368 5.68871 11.1155 5.29951C11.1744 5.16956 11.2577 5.12072 11.3973 5.1229C11.711 5.13053 12.025 5.12574 12.3876 5.12574Z" fill="white"/>
<path d="M8.9332 8.68565C8.55599 7.67853 8.16897 6.67665 7.78413 5.67454C7.51485 4.97638 7.63477 5.12094 6.96605 5.10633C6.63507 5.0987 6.63289 5.10851 6.51275 5.41246C6.06424 6.54909 5.61617 7.68573 5.16505 8.8228C4.98146 9.2881 4.92761 9.28591 5.469 9.2833C6.02979 9.2833 6.03241 9.28591 6.24063 8.77374C6.28729 8.65862 6.35336 8.60476 6.48091 8.60716C6.87753 8.61196 7.27697 8.61675 7.67402 8.61196C7.95573 8.60716 7.92389 8.84962 7.99497 9.00639C8.02812 9.08161 8.00697 9.12413 7.96597 9.15378C8.33795 9.00792 8.74415 8.93509 9.16584 8.9473C9.05377 8.9135 8.98509 8.82716 8.9332 8.68565ZM7.40692 7.73261C7.1915 7.74242 6.97564 7.74242 6.76022 7.73261C6.72577 7.72999 6.65731 7.6467 6.66472 7.61988C6.78726 7.25227 6.92201 6.88727 7.05436 6.52206C7.05654 6.51246 7.07638 6.50985 7.13525 6.47801C7.26258 6.86765 7.38512 7.24006 7.49785 7.61726C7.50766 7.6443 7.44137 7.73261 7.40692 7.73261Z" fill="white"/>
<path d="M17.7555 9.98408C18.0226 9.98647 18.0446 10.0183 17.9465 10.261C17.6181 11.0573 17.2873 11.8509 16.9616 12.6448C16.7828 13.0809 16.6064 13.5146 16.4348 13.953C16.3759 14.105 16.2855 14.1785 16.1163 14.1711C15.3224 14.1318 15.521 14.3058 15.2293 13.5586C15.1534 13.3626 15.0749 13.169 14.9966 12.9732L14.9181 12.9806C14.8104 13.2599 14.6977 13.5392 14.5924 13.8185C14.4651 14.1493 14.4576 14.1615 14.095 14.1541C13.512 14.1419 13.5929 14.257 13.36 13.6395C12.9216 12.483 12.4855 11.3292 12.0468 10.1729C11.9757 9.99171 11.9977 9.95726 12.1889 9.95486C12.4168 9.95246 12.647 9.96467 12.8749 9.95486C13.0489 9.94505 13.1298 10.0209 13.1812 10.1779C13.4237 10.9251 13.6712 11.67 13.921 12.4148C13.9383 12.4638 13.9823 12.5055 14.0142 12.5519C14.046 12.5079 14.0926 12.4662 14.1097 12.4172C14.3521 11.67 14.5924 10.9203 14.825 10.1705C14.8715 10.0235 14.9476 9.96227 15.0993 9.96707C15.3468 9.97448 15.5967 9.97187 15.8465 9.97187C16.0009 9.96947 16.0548 10.0257 15.9959 10.1825C15.8537 10.5647 15.7068 10.9493 15.5842 11.339C15.5474 11.4565 15.5548 11.601 15.5842 11.7236C15.6381 11.944 15.7214 12.1573 15.7975 12.3729C15.8219 12.4416 15.8564 12.5053 15.9102 12.6278C15.9715 12.4906 16.0179 12.4074 16.0498 12.3191C16.3118 11.6061 16.5741 10.8957 16.8288 10.1803C16.8827 10.0259 16.971 9.97208 17.1277 9.9795C17.336 9.98931 17.547 9.98168 17.7555 9.98408ZM5.53026 9.91539C5.66981 9.9106 5.74089 9.95944 5.74089 10.1114C5.73108 11.3804 5.72366 12.6496 5.71887 13.9186C5.71887 14.0435 5.66741 14.1048 5.53768 14.1024C5.2902 14.0976 5.04033 14.0926 4.79046 14.1C4.62867 14.1024 4.56741 13.9947 4.50134 13.8844C4.08728 13.1934 3.67323 12.5026 3.25678 11.8117C3.21753 11.748 3.17348 11.6843 3.12944 11.6207L3.07319 11.6305C3.06337 11.704 3.04375 11.775 3.04375 11.8461C3.03634 12.5101 3.02653 13.1764 3.02914 13.8403C3.02914 14.0313 2.97289 14.1098 2.77426 14.0952C2.58565 14.0806 2.39705 14.0854 2.20823 14.0904C2.06607 14.0928 2 14.0341 2 13.887C2.00981 12.6228 2.01723 11.361 2.02202 10.0994C2.02202 9.95246 2.08569 9.89599 2.23025 9.901C2.47271 9.90842 2.71538 9.91081 2.95784 9.9034C3.11222 9.8986 3.20532 9.95965 3.28359 10.0896C3.67803 10.7315 4.07747 11.3684 4.4743 12.0079C4.51115 12.0668 4.5552 12.123 4.59444 12.1795L4.6483 12.1697C4.66051 12.0962 4.68013 12.0251 4.68013 11.9517C4.68755 11.3538 4.69736 10.7562 4.69736 10.1583C4.69736 9.9771 4.75863 9.901 4.94483 9.91321C5.13845 9.92542 5.33447 9.92041 5.53026 9.91539ZM2.26928 9.26869C2.09768 9.2761 2.04884 9.20263 2.05604 9.03844C2.06345 8.41376 2.05843 7.78886 2.05843 7.16418H2.07806C2.07806 6.54669 2.08285 5.92943 2.07566 5.31194C2.07326 5.14035 2.12951 5.07188 2.30831 5.07428C2.88655 5.08649 3.46718 5.07668 4.04542 5.08649C4.74118 5.0963 5.2998 5.69155 5.31201 6.42416C5.32422 7.14434 4.79264 7.75201 4.10168 7.79366C3.8542 7.80827 3.60193 7.80587 3.35446 7.79606C3.18548 7.79126 3.12661 7.85972 3.129 8.02151C3.1338 8.36209 3.12159 8.70506 3.12421 9.04804C3.12421 9.20982 3.06534 9.28068 2.89636 9.27109C2.68813 9.26128 2.47772 9.25888 2.26928 9.26869ZM3.63878 6.93633H3.75892C3.95254 6.93153 4.08728 6.83342 4.17058 6.66444C4.33476 6.32887 4.11432 5.94905 3.73929 5.94905C3.05814 5.94905 3.14885 5.85835 3.13664 6.43179C3.13664 7.01722 3.08278 6.92892 3.63878 6.93633Z" fill="white"/>
</svg>
