<svg xmlns="http://www.w3.org/2000/svg" width="20" height="21" viewBox="0 0 20 21" fill="none">
  <path d="M15.9013 0H4.04454C2.97246 0.00158176 1.94473 0.431944 1.18658 1.19676C0.428443 1.96159 0.00174321 2.99848 0 4.08018L0.0548599 16.0645C0.0566031 17.1462 0.483303 18.1831 1.24144 18.9479C1.99959 19.7127 3.02732 20.1431 4.0994 20.1446H15.9561C17.0282 20.1434 18.0561 19.7131 18.8142 18.9482C19.5723 18.1833 19.9988 17.1462 20 16.0645L19.9451 4.08018C19.9434 2.99859 19.5168 1.9618 18.7588 1.197C18.0008 0.432195 16.9732 0.0017563 15.9013 0Z" fill="#005ABE"/>
  <path d="M7.75857 10.4254H6.75353C6.5911 10.4295 6.43264 10.477 6.29436 10.5631C6.15608 10.6492 6.04294 10.7708 5.96647 10.9155L6.06724 10.3785H4.83925L4.2936 13.4652H5.52323L5.86275 11.5112H7.18558C7.18558 11.5112 7.01662 12.4787 6.94122 12.912C6.8658 13.3453 7.15791 13.4506 7.30346 13.4506H7.94661L8.36515 11.0504C8.3621 10.8879 8.29774 10.7328 8.1852 10.6166C8.07267 10.5004 7.91945 10.4322 7.75857 10.4254Z" fill="white"/>
  <path d="M3.9531 10.3774L3.72258 11.7021L4.65682 10.3774H3.9531Z" fill="white"/>
  <path d="M5.41088 5.54287H1.29785L1.11902 6.56558H2.55479L1.97918 9.86124H3.21769L3.79596 6.56558H5.23174L5.41088 5.54287Z" fill="#FFDC00"/>
  <path d="M4.52565 9.86218C4.44814 9.86461 4.3711 9.84907 4.30046 9.81676C4.22983 9.78445 4.16748 9.73623 4.11817 9.67582C4.06889 9.61541 4.03398 9.54442 4.01613 9.46825C3.99829 9.39211 3.99798 9.31285 4.01524 9.23655L4.33137 7.43173C4.36558 7.26025 4.45595 7.10537 4.58794 6.99196C4.71994 6.87853 4.88588 6.81321 5.05913 6.80642H7.07547C7.15297 6.80383 7.23 6.81925 7.30063 6.8515C7.37127 6.88374 7.43358 6.93198 7.48278 6.99244C7.53196 7.0529 7.56671 7.12395 7.5843 7.20014C7.6019 7.27633 7.60188 7.35557 7.58425 7.43173L7.2701 9.23655C7.23554 9.40821 7.14487 9.56318 7.01262 9.67663C6.88034 9.79008 6.71415 9.85542 6.54068 9.86218H4.52565ZM6.2621 8.85047L6.44255 7.82047H5.34036L5.16122 8.85047H6.2621Z" fill="#FFDC00"/>
  <path d="M12.6401 8.85051L12.8209 7.82051H14.417L14.5942 6.80844H12.5406C12.3671 6.81499 12.2009 6.88018 12.0685 6.99352C11.9362 7.10686 11.8454 7.26179 11.8109 7.43342L11.4954 9.23824C11.4781 9.3146 11.4784 9.39396 11.4963 9.47016C11.5142 9.54637 11.5492 9.61743 11.5986 9.67784C11.648 9.73825 11.7105 9.78641 11.7813 9.81861C11.8521 9.85081 11.9292 9.86619 12.0068 9.86357H14.0034L14.1796 8.85216L12.6401 8.85051Z" fill="#FFDC00"/>
  <path d="M10.1288 8.85054H8.77866L9.13531 6.80713H8.0588L7.63533 9.23664C7.61794 9.31287 7.61813 9.39211 7.63589 9.46825C7.65365 9.5444 7.68849 9.61541 7.73776 9.67582C7.787 9.73624 7.84933 9.78443 7.91995 9.8167C7.99058 9.84897 8.06761 9.86446 8.14509 9.86195H9.19492C9.36055 9.85141 9.52179 9.80385 9.66696 9.72271C9.81213 9.64157 9.93762 9.52888 10.0343 9.39281C10.0343 9.39281 10.1545 9.74667 10.3271 9.82475C10.5559 9.87868 10.7912 9.89936 11.0259 9.88621L11.5649 6.80614H10.4878L10.1288 8.85054Z" fill="#FFDC00"/>
  <path d="M17.891 6.8214H16.8866C16.7367 6.8271 16.5916 6.87645 16.4689 6.96346C16.3462 7.05049 16.2511 7.17146 16.195 7.31184L16.4841 5.65217H15.352L14.6163 9.86133H15.7498L16.0906 7.90793H17.3186C17.3186 7.90793 17.15 8.87481 17.0746 9.30876C16.9992 9.7427 17.291 9.84703 17.4332 9.84703H17.9818L18.401 7.44673C18.4184 7.37046 18.4181 7.29117 18.4003 7.21501C18.3825 7.13885 18.3476 7.06783 18.2983 7.00742C18.249 6.94701 18.1866 6.89881 18.1159 6.86657C18.0452 6.83432 17.9685 6.81887 17.891 6.8214Z" fill="#FFDC00"/>
  <path d="M16.244 13.3566L16.5674 11.5148H14.749L14.4259 13.3566H16.244ZM13.8542 14.4906C13.75 14.4937 13.6464 14.4726 13.5515 14.4291C13.4565 14.3855 13.3727 14.3207 13.3064 14.2394C13.2401 14.1582 13.1931 14.0627 13.169 13.9603C13.1449 13.8579 13.1443 13.7513 13.1673 13.6487L13.5921 11.2231C13.6382 10.9918 13.7602 10.783 13.9384 10.6302C14.1165 10.4775 14.3405 10.3897 14.5741 10.3811H17.1391C17.2434 10.378 17.347 10.3989 17.442 10.4424C17.537 10.4859 17.6209 10.5508 17.6872 10.6321C17.7535 10.7134 17.8004 10.8089 17.8245 10.9114C17.8485 11.0138 17.8489 11.1205 17.8257 11.2231L17.4012 13.6487C17.3547 13.8795 17.2328 14.0879 17.055 14.2405C16.8772 14.3932 16.6538 14.4812 16.4205 14.4906H13.8542Z" fill="#FFDC00"/>
  <path d="M11.3685 13.3569H9.5487L9.87107 11.5148H12.8207L13.015 10.3808H9.69623C9.46285 10.3897 9.2392 10.4775 9.06134 10.6303C8.88349 10.783 8.76179 10.9917 8.71586 11.2228L8.29108 13.6483C8.26789 13.7508 8.2683 13.8574 8.29226 13.9598C8.31623 14.0622 8.36314 14.1576 8.42936 14.2389C8.4956 14.3201 8.57937 14.385 8.67432 14.4285C8.76925 14.472 8.8728 14.493 8.97702 14.4899H11.545C11.7783 14.4808 12.0018 14.3929 12.1797 14.2403C12.3576 14.0877 12.4796 13.8792 12.526 13.6483L12.7858 12.1594H11.5779L11.3685 13.3569Z" fill="#FFDC00"/>
</svg>
