<svg width="20" height="20" viewBox="0 0 20 20" fill="none" xmlns="http://www.w3.org/2000/svg">
<path fill-rule="evenodd" clip-rule="evenodd" d="M8.86541 0.000229779C8.88029 0.165534 8.87018 0.342329 8.83218 0.526187L6.01424 19.504C5.98412 19.6446 5.93912 19.781 5.88158 19.9114H2.42424C1.08537 19.9114 0 18.8121 0 17.4561V2.45547C0 1.09948 1.08537 0.000229779 2.42424 0.000229779H8.86541Z" fill="#E21836"/>
<path fill-rule="evenodd" clip-rule="evenodd" d="M4.30474 19.9111C4.303 19.7808 4.31649 19.6443 4.34663 19.5037L7.16454 0.525901C7.20395 0.342064 7.26872 0.165288 7.3539 0H16.404C16.4014 0.0100961 16.3988 0.020235 16.3962 0.0304158C16.3564 0.18691 16.3141 0.353292 16.2785 0.525901L13.4605 19.5037C13.4304 19.6443 13.4061 19.7808 13.3837 19.9111H4.30474Z" fill="#00447C"/>
<path fill-rule="evenodd" clip-rule="evenodd" d="M11.6952 19.9111C11.6935 19.7808 11.707 19.6443 11.7371 19.5037L14.5551 0.525901C14.5945 0.342064 14.6592 0.165288 14.7444 0H17.5758C18.9147 0 20 1.09925 20 2.45524V17.4559C20 18.8119 18.9147 19.9111 17.5758 19.9111H11.6952Z" fill="#007B84"/>
<path d="M4.71401 7.06703C4.21547 7.07227 4.06823 7.06703 4.0212 7.05559C4.00313 7.1441 3.66576 8.74425 3.66576 8.74425C3.59333 9.0677 3.54062 9.29829 3.3616 9.44717C3.25998 9.53376 3.14134 9.57547 3.00379 9.57547C2.78271 9.57547 2.65391 9.46241 2.63228 9.24788L2.62815 9.17423C2.62815 9.17423 2.6955 8.74096 2.6955 8.73853C2.6955 8.73853 3.04858 7.28154 3.1118 7.08895C3.1151 7.07799 3.11605 7.07227 3.11688 7.06703C2.42963 7.07324 2.3078 7.06703 2.2994 7.05559C2.2948 7.0713 2.27778 7.16162 2.27778 7.16162L1.91726 8.80378L1.8863 8.94305L1.82639 9.39858C1.82639 9.53376 1.85215 9.64405 1.90343 9.73729C2.06768 10.033 2.53621 10.0773 2.80126 10.0773C3.14276 10.0773 3.4631 10.0025 3.67959 9.86605C4.05535 9.63735 4.15367 9.27976 4.24135 8.96205L4.282 8.79903C4.282 8.79903 4.64571 7.2858 4.70751 7.08895C4.70988 7.07799 4.71082 7.07227 4.71401 7.06703ZM5.95153 8.28777C5.86385 8.28777 5.70362 8.30968 5.55969 8.38236C5.50746 8.41 5.45807 8.4419 5.40596 8.47367L5.45299 8.29873L5.42723 8.26927C5.122 8.33294 5.0537 8.34146 4.77176 8.38236L4.74813 8.39855C4.71539 8.67819 4.68633 8.88841 4.56497 9.43811C4.51877 9.64064 4.47079 9.84517 4.4227 10.0473L4.43569 10.073C4.72461 10.0573 4.81229 10.0573 5.06339 10.0615L5.08372 10.0388C5.11562 9.87041 5.11976 9.83094 5.19042 9.48994C5.22363 9.32829 5.29287 8.97305 5.32702 8.84658C5.38977 8.81661 5.45169 8.78715 5.51077 8.78715C5.6515 8.78715 5.63438 8.91364 5.62893 8.96405C5.62291 9.04864 5.57163 9.325 5.51904 9.56229L5.48395 9.71541C5.45949 9.82852 5.43266 9.93847 5.4082 10.0506L5.41884 10.073C5.70362 10.0573 5.79047 10.0573 6.03365 10.0615L6.06223 10.0388C6.10623 9.77582 6.11912 9.70541 6.19706 9.32258L6.23629 9.14664C6.31253 8.80237 6.35082 8.62779 6.29318 8.4856C6.23218 8.32624 6.08588 8.28777 5.95153 8.28777ZM7.334 8.64823C7.18259 8.67818 7.08606 8.69814 6.99012 8.71105C6.895 8.72675 6.80223 8.741 6.65594 8.76194L6.64435 8.77277L6.6337 8.78141C6.61847 8.89364 6.60782 8.9907 6.58765 9.10476C6.57053 9.2227 6.54418 9.35676 6.50123 9.54935C6.46806 9.69676 6.45094 9.74817 6.432 9.8C6.41359 9.85188 6.39323 9.90229 6.35594 10.0473L6.36465 10.0606L6.372 10.0729C6.50871 10.0663 6.59818 10.0615 6.69012 10.0606C6.78188 10.0572 6.87706 10.0606 7.02429 10.0615L7.03712 10.0507L7.051 10.0388C7.07223 9.908 7.07541 9.87282 7.08841 9.809C7.10129 9.74058 7.12353 9.64588 7.178 9.39294C7.20376 9.27411 7.23247 9.15564 7.25918 9.03441C7.28694 8.91364 7.316 8.79468 7.34365 8.67587L7.33953 8.6615L7.334 8.64823ZM7.33718 8.16222C7.19965 8.07858 6.95823 8.10513 6.79576 8.22065C6.63376 8.33387 6.61535 8.49457 6.75241 8.5793C6.88759 8.66063 7.12994 8.6364 7.291 8.5199C7.45265 8.40424 7.47288 8.245 7.33718 8.16222ZM8.16906 10.0992C8.44729 10.0992 8.73259 10.0202 8.94729 9.7857C9.11247 9.59553 9.18823 9.31258 9.21447 9.19611C9.29988 8.80994 9.23335 8.62964 9.14982 8.51983C9.02288 8.35244 8.79865 8.29875 8.56594 8.29875C8.42606 8.29875 8.09282 8.313 7.83247 8.56025C7.64559 8.7386 7.55918 8.98064 7.50706 9.21264C7.45447 9.44905 7.394 9.8747 7.77388 10.0331C7.89112 10.0849 8.06006 10.0992 8.16906 10.0992ZM8.14729 9.23029C8.21147 8.93788 8.28718 8.69246 8.48053 8.69246C8.632 8.69246 8.643 8.87505 8.57565 9.16847C8.56359 9.23358 8.50829 9.47576 8.43347 9.57888C8.38123 9.65494 8.31947 9.70105 8.25118 9.70105C8.23082 9.70105 8.10994 9.70105 8.10806 9.51617C8.10712 9.42482 8.12518 9.33158 8.14729 9.23029ZM9.91012 10.0616L9.93182 10.0388C9.9627 9.87041 9.96776 9.83088 10.0361 9.49C10.0702 9.32835 10.1409 8.97305 10.1741 8.84658C10.2369 8.81652 10.2978 8.78707 10.3588 8.78707C10.4986 8.78707 10.4815 8.91352 10.476 8.96394C10.4709 9.0487 10.4196 9.32494 10.3661 9.56217L10.3329 9.71535C10.3075 9.82852 10.2798 9.93835 10.2554 10.0506L10.266 10.073C10.5518 10.0573 10.6353 10.0573 10.8799 10.0616L10.9094 10.0388C10.9523 9.7757 10.9639 9.70535 11.0442 9.32258L11.0825 9.14658C11.1591 8.80228 11.1979 8.62782 11.1412 8.48564C11.0784 8.32628 10.9312 8.28781 10.7987 8.28781C10.7109 8.28781 10.5498 8.3096 10.4068 8.3824C10.3556 8.41004 10.3043 8.44181 10.2539 8.47371L10.2978 8.29877L10.2743 8.26918C9.96918 8.33297 9.89947 8.3415 9.61788 8.3824L9.59624 8.39859C9.56212 8.67823 9.53435 8.88835 9.41294 9.43811C9.36676 9.6407 9.31876 9.84523 9.27082 10.0473L9.2837 10.073C9.57306 10.0573 9.65947 10.0573 9.91012 10.0616ZM12.0094 10.0729C12.0274 9.98264 12.135 9.44717 12.135 9.44717C12.135 9.44717 12.2259 9.05435 12.2314 9.04011C12.2314 9.04011 12.26 8.99917 12.2886 8.983H12.3306C12.7276 8.983 13.1758 8.983 13.5271 8.71676C13.7662 8.53415 13.9296 8.2645 14.0025 7.93677C14.0214 7.85642 14.0354 7.76085 14.0354 7.66529C14.0354 7.53977 14.0109 7.4156 13.9402 7.31857C13.7611 7.06036 13.4043 7.05561 12.9925 7.05367L12.7895 7.05561C12.2624 7.06231 12.0509 7.06036 11.9641 7.04941C11.9568 7.08897 11.9429 7.15934 11.9429 7.15934L11.7541 8.06241C11.7541 8.06241 11.3023 9.97935 11.281 10.0696C11.7412 10.0639 11.9299 10.0639 12.0094 10.0729ZM12.3592 8.47133C12.3592 8.47133 12.56 7.57155 12.5591 7.57496L12.5656 7.52882L12.5684 7.49364L12.6486 7.50215C12.6486 7.50215 13.0627 7.5388 13.0724 7.53977C13.2358 7.60491 13.3032 7.77278 13.2561 7.99192C13.2132 8.19218 13.0872 8.36055 12.9252 8.44187C12.7918 8.51077 12.6284 8.5165 12.4599 8.5165H12.351L12.3592 8.47133ZM13.6093 9.247C13.5562 9.48 13.4952 9.90558 13.8732 10.0573C13.9938 10.1101 14.1018 10.1258 14.2116 10.1201C14.3275 10.1136 14.4349 10.0538 14.5344 9.96753C14.5254 10.003 14.5164 10.0384 14.5075 10.0739L14.5246 10.0967C14.7965 10.0849 14.8809 10.0849 15.1755 10.0872L15.2022 10.0663C15.2452 9.80576 15.2857 9.55276 15.3975 9.05441C15.4519 8.81565 15.5063 8.57923 15.5622 8.34147L15.5535 8.3153C15.2493 8.37337 15.168 8.38578 14.8754 8.42851L14.8532 8.44714C14.8502 8.47137 14.8472 8.49462 14.8444 8.51787C14.7988 8.44215 14.7329 8.37751 14.6312 8.33721C14.5011 8.2845 14.1955 8.35242 13.9328 8.59883C13.7482 8.77474 13.6596 9.01576 13.6093 9.247ZM14.2481 9.26123C14.3132 8.97406 14.388 8.73104 14.5818 8.73104C14.7043 8.73104 14.7688 8.84752 14.7557 9.04623C14.7453 9.09576 14.7341 9.14799 14.7208 9.20705C14.7014 9.29241 14.6804 9.377 14.6599 9.4617C14.6391 9.51964 14.6149 9.57435 14.5883 9.61076C14.5384 9.68353 14.4198 9.7287 14.3515 9.7287C14.3321 9.7287 14.2125 9.7287 14.2084 9.54705C14.2074 9.45658 14.2255 9.36347 14.2481 9.26123ZM17.5839 8.31297L17.5605 8.28534C17.2595 8.34815 17.205 8.35814 16.9285 8.39661L16.9082 8.41755C16.9072 8.42095 16.9064 8.42619 16.905 8.43094L16.9041 8.42619C16.6982 8.91547 16.7042 8.80991 16.5366 9.19511C16.5357 9.17758 16.5357 9.16658 16.5348 9.148L16.4928 8.31297L16.4665 8.28534C16.1512 8.34815 16.1438 8.35814 15.8526 8.39661L15.8299 8.41755C15.8267 8.42753 15.8267 8.43848 15.8248 8.45041L15.8267 8.45468C15.8631 8.6463 15.8544 8.60357 15.8909 8.906C15.9079 9.05435 15.9306 9.20364 15.9476 9.35017C15.9763 9.59552 15.9924 9.71629 16.0275 10.0906C15.8308 10.4249 15.7843 10.5514 15.595 10.8448L15.5963 10.8477L15.463 11.0649C15.4478 11.0878 15.4339 11.1035 15.4145 11.1102C15.3933 11.1211 15.3656 11.123 15.3272 11.123H15.2534L15.1436 11.4992L15.5202 11.5059C15.7413 11.5049 15.8802 11.3983 15.9551 11.2552L16.1918 10.8371H16.1881L16.213 10.8076C16.3723 10.4544 17.5839 8.31297 17.5839 8.31297ZM13.6092 13.2535H13.4495L14.0408 11.2386H14.2369L14.2992 11.031L14.3052 11.2618C14.2979 11.4045 14.4069 11.531 14.6931 11.5101H15.0241L15.138 11.1221H15.0134C14.9418 11.1221 14.9086 11.1035 14.9128 11.0635L14.9067 10.8286H14.2938V10.8299C14.0956 10.8342 13.5039 10.8495 13.3841 10.8823C13.2391 10.9208 13.0862 11.0341 13.0862 11.0341L13.1463 10.8262H12.5729L12.4535 11.2386L11.8542 13.2843H11.738L11.6239 13.6695H12.7659L12.7276 13.7979H13.2904L13.3276 13.6695H13.4855L13.6092 13.2535ZM13.1407 11.648C13.0489 11.6742 12.8781 11.7535 12.8781 11.7535L13.03 11.2386H13.4855L13.3756 11.6138C13.3756 11.6138 13.2349 11.6223 13.1407 11.648ZM13.1495 12.3836C13.1495 12.3836 13.0064 12.4022 12.9122 12.4241C12.8194 12.4531 12.6455 12.5443 12.6455 12.5443L12.8024 12.0085H13.2603L13.1495 12.3836ZM12.8942 13.2582H12.4373L12.5698 12.806H13.0253L12.8942 13.2582ZM13.9946 12.0085H14.6534L14.5586 12.3242H13.8913L13.7911 12.6695H14.3751L13.9329 13.3109C13.9019 13.3581 13.8741 13.3748 13.8433 13.388C13.8124 13.4042 13.7717 13.4232 13.7246 13.4232H13.5626L13.4514 13.8013H13.8751C14.0954 13.8013 14.2255 13.6981 14.3215 13.5626L14.6247 13.1351L14.6898 13.5692C14.7036 13.6505 14.7604 13.6981 14.7988 13.7166C14.8412 13.7385 14.8851 13.7761 14.9469 13.7817C15.0134 13.7846 15.0614 13.7869 15.0932 13.7869H15.3015L15.4265 13.3638H15.3444C15.2972 13.3638 15.2161 13.3556 15.2022 13.3404C15.1884 13.3219 15.1884 13.2934 15.1809 13.2501L15.1149 12.815H14.8444L14.9631 12.6695H15.6291L15.7316 12.3242H15.1149L15.2109 12.0085H15.8258L15.9398 11.619H14.1068L13.9946 12.0085ZM8.43165 13.3462L8.58535 12.8193H9.21718L9.33265 12.4274H8.70023L8.79676 12.1031H9.41476L9.52929 11.7236H7.98294L7.87082 12.1031H8.22212L8.12841 12.4274H7.77618L7.65941 12.826H8.01059L7.80571 13.5231C7.77806 13.6153 7.8187 13.6505 7.84447 13.6933C7.87082 13.7351 7.89753 13.7628 7.95753 13.7785C8.01947 13.7927 8.06188 13.8012 8.11953 13.8012H8.83182L8.95876 13.3671L8.643 13.4118C8.58206 13.4118 8.41318 13.4042 8.43165 13.3462ZM8.50412 10.8239L8.344 11.122C8.3097 11.1871 8.27888 11.2275 8.25112 11.2462C8.22665 11.2619 8.17817 11.2685 8.108 11.2685H8.02447L7.91276 11.6499H8.19023C8.32365 11.6499 8.42612 11.5995 8.475 11.5743C8.52759 11.5453 8.54141 11.5619 8.58206 11.5214L8.67576 11.4378H9.54218L9.65718 11.0407H9.02294L9.13371 10.8239H8.50412ZM9.78318 13.3538C9.76841 13.3319 9.77906 13.2933 9.80159 13.213L10.0384 12.4055H10.8808C11.0036 12.4036 11.0922 12.4022 11.1499 12.3979C11.2118 12.3912 11.2792 12.3685 11.3525 12.3276C11.4283 12.2847 11.4671 12.2395 11.4998 12.1877C11.5363 12.1359 11.5949 12.0227 11.6452 11.8482L11.9429 10.8263L11.0687 10.8315C11.0687 10.8315 10.7995 10.8724 10.681 10.9176C10.5614 10.9679 10.3905 11.1087 10.3905 11.1087L10.4695 10.8286H9.92947L9.17341 13.4118C9.14659 13.5121 9.12865 13.5849 9.12447 13.6286C9.12312 13.6757 9.18218 13.7223 9.22047 13.7575C9.26571 13.7927 9.33259 13.787 9.39676 13.7927C9.46423 13.7979 9.56018 13.8012 9.69265 13.8012H10.1076L10.2351 13.3581L9.86353 13.3942C9.82382 13.3942 9.79512 13.3723 9.78318 13.3538ZM10.1912 11.8601H11.076L11.0198 12.0417C11.0119 12.046 10.9929 12.0327 10.9029 12.0436H10.1367L10.1912 11.8601ZM10.3685 11.2509H11.2607L11.1965 11.4696C11.1965 11.4696 10.776 11.4654 10.7086 11.4782C10.4123 11.531 10.2392 11.6942 10.2392 11.6942L10.3685 11.2509ZM11.0396 12.6499C11.0322 12.6771 11.0207 12.6936 11.0045 12.7061C10.9865 12.718 10.9575 12.7223 10.9141 12.7223H10.788L10.7955 12.5011H10.2711L10.2498 13.5825C10.2489 13.6605 10.2562 13.7057 10.3117 13.7419C10.3671 13.787 10.5378 13.7928 10.7677 13.7928H11.0963L11.2149 13.3879L10.9289 13.4042L10.8338 13.4099C10.8208 13.4042 10.8084 13.3989 10.7945 13.3846C10.7825 13.3723 10.7621 13.3799 10.7654 13.3019L10.7677 13.0247L11.0677 13.0119C11.2297 13.0119 11.2989 12.9576 11.3581 12.9059C11.4144 12.8563 11.4328 12.7993 11.4541 12.7223L11.5045 12.4769H11.0922L11.0396 12.6499Z" fill="#FEFEFE"/>
</svg>
