<svg width="168" height="106" viewBox="0 0 168 106" fill="none" xmlns="http://www.w3.org/2000/svg">
<path d="M32.8835 0H74.7904C80.6399 0 84.2817 4.76984 82.9152 10.6419L63.404 94.4042C62.0246 100.26 56.1719 105.03 50.3192 105.03H8.41219C2.55946 105.03 -1.07915 100.26 0.28735 94.4042L19.8115 10.6419C21.1716 4.76662 27.0211 0 32.8867 0" fill="#ED171F"/>
<path d="M71.3033 0H119.498C125.348 0 122.711 4.76984 121.335 10.6419L101.824 94.4042C100.461 100.26 100.889 105.03 95.0237 105.03H46.8353C40.9761 105.03 37.3472 100.26 38.7233 94.4042L58.2281 10.6419C59.6075 4.76662 65.4538 0 71.3066 0" fill="#082F67"/>
<path d="M117.594 0H159.494C165.347 0 168.985 4.76984 167.616 10.6419L148.104 94.4042C146.735 100.26 140.882 105.03 135.01 105.03H93.1222C87.2598 105.03 83.6277 100.26 85.0006 94.4042L104.505 10.6419C105.878 4.76662 111.728 0 117.594 0Z" fill="#006A65"/>
<path fill-rule="evenodd" clip-rule="evenodd" d="M110.587 78.8023H114.538L115.679 75.0025H111.728L110.584 78.8023H110.587ZM113.752 68.3183L112.395 72.811C112.395 72.811 113.894 72.0407 114.703 71.8022C115.515 71.6153 116.743 71.4606 116.743 71.4606L117.703 68.3183H113.752ZM115.715 61.8532L114.403 66.1719C114.403 66.1719 115.869 65.5112 116.675 65.2888C117.487 65.0793 118.709 64.9955 118.709 64.9955L119.656 61.85L115.715 61.8532ZM124.452 61.8532L119.347 78.7507H120.716L119.656 82.2443H118.283L117.964 83.3272H113.104L113.436 82.2443H103.558L104.551 79.0086H105.546L110.729 61.85L111.763 58.3822H116.72L116.201 60.1354C116.201 60.1354 117.523 59.1815 118.773 58.856C120.027 58.5272 127.214 58.408 127.214 58.408L126.15 61.85L124.452 61.8532Z" fill="white"/>
<path d="M126.64 58.4113H131.932L131.993 60.3837C131.961 60.7157 132.248 60.8736 132.86 60.8736H133.936L132.953 64.1287H130.098C127.62 64.3124 126.685 63.2456 126.74 62.0499L126.646 58.4113H126.64Z" fill="white"/>
<path d="M127.336 73.8587H122.292L123.159 70.9549H128.925L129.75 68.3121H124.055L125.035 65.0409H140.879L139.886 68.3121H134.575L133.743 70.9549H139.067L138.191 73.8587H132.425L131.407 75.0801H133.743L134.31 78.7316C134.372 79.0926 134.381 79.3279 134.494 79.4858C134.613 79.6211 135.313 79.6824 135.719 79.6824H136.428L135.351 83.2372H133.553C133.276 83.2372 132.863 83.2146 132.299 83.1824C131.755 83.1341 131.368 82.8214 131.007 82.6474C130.675 82.483 130.182 82.0834 130.069 81.4034L129.505 77.7583L126.888 81.355C126.057 82.4863 124.929 83.35 123.03 83.35H119.356L120.317 80.1787H121.719C122.125 80.1787 122.483 80.0208 122.747 79.8822C123.018 79.7694 123.256 79.6308 123.527 79.2344L127.339 73.8554L127.336 73.8587Z" fill="white"/>
<path d="M72.0895 65.9204H85.4451L84.4589 69.111H79.1186L78.287 71.8215H83.7498L82.754 75.1153H77.2944L75.9698 79.5338C75.8054 80.0237 77.2589 80.0914 77.7875 80.0914L80.5237 79.7143L79.4279 83.3529H73.2659C72.7824 83.3529 72.4021 83.2852 71.8639 83.1627C71.345 83.0338 71.1162 82.8018 70.8841 82.4473C70.6617 82.0863 70.3201 81.793 70.5522 81.0228L72.3216 75.17H69.2888L70.2944 71.8215H73.3432L74.1521 69.111H71.1162L72.0895 65.9204Z" fill="white"/>
<path d="M81.0846 60.1935H86.5636L85.5612 63.5259H78.0777L77.2656 64.2253C76.9207 64.5637 76.7982 64.4219 76.347 64.6668C75.9248 64.8827 75.0322 65.3017 73.8816 65.3017H71.4805L72.457 62.095H73.1789C73.7881 62.095 74.2038 62.0434 74.4133 61.908C74.6518 61.7598 74.9161 61.4181 75.2255 60.867L76.5984 58.3661H82.0483L81.0943 60.1902L81.0846 60.1935Z" fill="white"/>
<path fill-rule="evenodd" clip-rule="evenodd" d="M91.5944 65.6757C91.5944 65.6757 93.0866 64.3124 95.6456 63.8676C96.2257 63.7548 99.8675 63.7903 99.8675 63.7903L100.419 61.9597H92.7063L91.5944 65.6757ZM98.8233 67.0712H91.169L90.7017 68.6181H97.3215C98.1046 68.5214 98.2658 68.631 98.3303 68.5956L98.8233 67.0712ZM88.913 58.4113H93.5798L92.8996 60.7608C92.8996 60.7608 94.3693 59.5877 95.4038 59.1655C96.4319 58.7787 98.7589 58.4339 98.7589 58.4339L106.31 58.3952L103.738 66.9648C103.306 68.4344 102.804 69.3852 102.488 69.817C102.201 70.2586 101.866 70.6292 101.205 70.9869C100.57 71.3286 99.99 71.5252 99.4582 71.5767C98.9554 71.6154 98.1917 71.6347 97.1313 71.6444H89.8605L87.8076 78.4253C87.6142 79.0957 87.5175 79.4115 87.6465 79.592C87.756 79.7564 88.001 79.9401 88.3426 79.9401L91.5493 79.6371L90.4567 83.3563H86.86C85.7191 83.3563 84.8844 83.3305 84.301 83.2886C83.7499 83.2467 83.1698 83.2886 82.7863 82.9889C82.4479 82.6956 81.9388 82.3121 81.9517 81.9125C81.9903 81.545 82.1385 80.9327 82.377 80.098L88.913 58.4178V58.4113Z" fill="white"/>
<path d="M102.52 72.2438L102.091 74.3032C101.901 74.9446 101.743 75.4344 101.257 75.847C100.754 76.2756 100.148 76.73 98.7461 76.73L96.1613 76.8332L96.1387 79.1633C96.1033 79.824 96.2805 79.7563 96.3901 79.8627C96.5093 79.9723 96.6125 80.027 96.7318 80.0625L97.5471 80.027L100.022 79.882L99.0039 83.2821H96.1645C94.176 83.2821 92.6999 83.2402 92.2133 82.8503C91.7395 82.5505 91.6751 82.167 91.688 81.516L91.8685 72.4436H96.3966L96.3386 74.2968H97.4311C97.8017 74.2968 98.0466 74.2581 98.2078 74.1614C98.3399 74.0518 98.4431 73.91 98.514 73.6844L98.9556 72.2374H102.52V72.2438Z" fill="white"/>
<path d="M37.8434 26.7626C37.6791 27.491 34.7721 40.9142 34.7624 40.9207C34.1339 43.6343 33.6891 45.5777 32.1389 46.8185C31.2591 47.5404 30.231 47.895 29.045 47.895C27.137 47.895 26.0187 46.9474 25.8286 45.1458L25.7931 44.5303C25.7931 44.5303 26.3732 40.8884 26.3797 40.8723C26.3797 40.8723 29.4317 28.6415 29.9764 27.0301C30.0022 26.9399 30.0119 26.8947 30.0248 26.8464C24.0818 26.9012 23.0246 26.8464 22.9569 26.7594C22.9215 26.8786 22.7636 27.6392 22.7636 27.6392L19.6471 41.4138L19.3764 42.5901L18.8672 46.4092C18.8672 47.5372 19.0895 48.4686 19.5311 49.2486C20.9524 51.7366 25.0067 52.104 27.295 52.104C30.2503 52.104 33.0123 51.4723 34.8816 50.3347C38.1302 48.4138 38.9843 45.4037 39.7417 42.7448L40.093 41.3815C40.093 41.3815 43.2385 28.6802 43.7767 27.0269C43.7929 26.9366 43.8025 26.8915 43.825 26.8432C39.5193 26.8915 38.2527 26.8432 37.8434 26.7562" fill="white"/>
<path d="M55.2341 51.9719C53.1232 51.9429 52.3851 51.9429 49.9196 52.0686L49.8229 51.8849C50.042 50.9471 50.2741 50.0253 50.4804 49.0714L50.7833 47.7919C51.241 45.7937 51.6889 43.4732 51.7405 42.7707C51.7824 42.342 51.9242 41.2817 50.7124 41.2817C50.2 41.2817 49.665 41.5331 49.1267 41.778C48.8302 42.8415 48.2276 45.8163 47.9504 47.1828C47.3349 50.0447 47.2962 50.3702 47.0255 51.7882L46.8483 51.9752C44.6728 51.9462 43.9251 51.9461 41.4241 52.0718L41.3049 51.8656C41.7239 50.1607 42.1396 48.4461 42.5393 46.7477C43.5867 42.1357 43.8348 40.3696 44.1281 38.0266L44.3247 37.888C46.7644 37.5464 47.3542 37.4787 49.9905 36.9373L50.2129 37.1854L49.8165 38.6518C50.2613 38.3908 50.6834 38.12 51.1443 37.888C52.3883 37.2757 53.7741 37.0952 54.5347 37.0952C55.6853 37.0952 56.9486 37.4207 57.4772 38.7517C57.98 39.9442 57.648 41.4138 56.9905 44.3047L56.649 45.7744C55.9722 48.994 55.8594 49.5806 55.4823 51.7882L55.2341 51.9719Z" fill="white"/>
<path d="M63.7941 51.9718C62.5275 51.9653 61.7121 51.9428 60.9128 51.9653C60.12 51.9718 59.3465 52.0137 58.167 52.0684L58.0961 51.9653L58.0155 51.8622C58.3378 50.6407 58.5214 50.2153 58.6761 49.7802C58.8373 49.3516 58.9952 48.9165 59.2724 47.6789C59.6398 46.0642 59.8687 44.9362 60.0298 43.95C60.1974 42.9929 60.294 42.1807 60.4133 41.2364L60.5132 41.1623L60.6163 41.072C61.8764 40.8915 62.6854 40.7755 63.4976 40.6498C64.3258 40.5306 65.1605 40.3694 66.4658 40.1213L66.5174 40.2373L66.5528 40.3533C66.3079 41.3524 66.063 42.3483 65.8245 43.3667C65.5925 44.3755 65.3443 45.3681 65.1251 46.3736C64.6481 48.4975 64.4612 49.2871 64.3484 49.8543C64.2453 50.3958 64.2098 50.6891 64.0229 51.7913L63.9069 51.8912L63.7909 51.9782L63.7941 51.9718Z" fill="white"/>
<path d="M77.2204 44.4821C77.1043 45.0268 76.6306 47.0604 75.9764 47.9274C75.5252 48.5623 74.9901 48.9458 74.3971 48.9458C74.2295 48.9458 73.1918 48.9458 73.1693 47.3988C73.1564 46.6382 73.3175 45.8454 73.5044 45.0042C74.0588 42.5484 74.7162 40.489 76.3824 40.489C77.6973 40.489 77.7843 42.0198 77.2171 44.4821M82.7283 44.7206C83.4696 41.4784 82.899 39.9636 82.1771 39.0355C81.0749 37.6335 79.138 37.1823 77.1269 37.1823C75.9184 37.1823 73.0403 37.3048 70.7875 39.3835C69.1793 40.8757 68.4252 42.9094 67.9707 44.8527C67.5163 46.8316 66.9942 50.4122 70.2783 51.74C71.2968 52.1686 72.7503 52.2879 73.6946 52.2879C76.102 52.2879 78.5708 51.624 80.4175 49.658C81.8581 48.0595 82.5091 45.6875 82.7314 44.7174" fill="white"/>
<path d="M134.259 52.1911C131.719 52.1685 130.987 52.1685 128.635 52.2684L128.477 52.0783C129.118 49.6611 129.763 47.2504 130.33 44.8075C131.065 41.6362 131.236 40.289 131.481 38.4327L131.671 38.2747C134.194 37.9138 134.894 37.8139 137.527 37.3272L137.607 37.5431C137.127 39.5317 136.644 41.5234 136.183 43.5183C135.213 47.7016 134.858 49.8255 134.488 52.0106L134.255 52.1911H134.259Z" fill="white"/>
<path d="M130.436 44.7625C130.314 45.2814 129.837 47.3376 129.183 48.1884C128.751 48.8008 127.726 49.1843 127.136 49.1843C126.969 49.1843 125.937 49.1843 125.899 47.6534C125.892 46.8993 126.05 46.1065 126.247 45.2556C126.801 42.8514 127.459 40.8016 129.125 40.8016C130.44 40.8016 131.004 42.2938 130.436 44.7593M135.467 45.0042C136.205 41.7781 133.234 44.7206 132.757 43.6538C132.025 41.9973 132.483 38.6262 129.553 37.5046C128.429 37.0663 125.783 37.6335 123.523 39.6962C121.925 41.1819 121.161 43.193 120.716 45.1364C120.262 47.0894 119.74 50.6604 123.005 51.9431C124.036 52.3814 124.983 52.5071 125.924 52.4684C129.212 52.2879 131.716 47.3311 133.566 45.3652C134.997 43.8118 135.248 45.9518 135.464 45.0042" fill="white"/>
<path d="M97.1249 51.9719C95.0107 51.9429 94.2953 51.9429 91.8104 52.0686L91.7202 51.8849C91.9296 50.9471 92.1682 50.0253 92.3905 49.0714L92.6871 47.7919C93.1447 45.7937 93.5927 43.4732 93.641 42.7707C93.6829 42.342 93.8248 41.2817 92.6194 41.2817C92.0973 41.2817 91.5719 41.5331 91.0273 41.778C90.734 42.8415 90.1281 45.8163 89.8381 47.1828C89.2354 50.0447 89.1967 50.3702 88.9228 51.7882L88.7423 51.9752C86.5701 51.9462 85.8224 51.9461 83.3279 52.0718L83.2151 51.8656C83.6308 50.1607 84.0401 48.4461 84.4397 46.7477C85.4871 42.1357 85.7353 40.3696 86.0254 38.0266L86.222 37.888C88.6585 37.5464 89.2515 37.4787 91.8878 36.9373L92.0972 37.1854L91.717 38.6518C92.1489 38.3908 92.5903 38.12 93.0415 37.888C94.2759 37.2757 95.6714 37.0952 96.4191 37.0952C97.5761 37.0952 98.8395 37.4207 99.3842 38.7517C99.8805 39.9442 99.5453 41.4138 98.8814 44.3047L98.5495 45.7744C97.8598 48.994 97.7535 49.5806 97.386 51.7882L97.1249 51.9719Z" fill="white"/>
<path d="M115.389 26.737L113.639 26.7596C109.082 26.8112 107.257 26.7886 106.507 26.6984C106.429 27.0303 106.313 27.6233 106.313 27.6233L104.686 35.1971C104.686 35.1971 100.783 51.2824 100.599 52.0398C104.573 51.9947 106.207 51.9947 106.887 52.0656C107.042 51.3114 107.973 46.8187 107.973 46.8187C107.973 46.8187 108.766 43.5185 108.814 43.396C108.814 43.396 109.059 43.0576 109.314 42.9223H109.675C113.101 42.9223 116.981 42.9223 120.014 40.6856C122.073 39.1547 123.498 36.8923 124.123 34.1496C124.29 33.4761 124.41 32.6671 124.41 31.8678C124.41 30.8172 124.197 29.7762 123.581 28.9576C122.034 26.7886 118.957 26.7596 115.389 26.737ZM117.671 34.6137C117.297 36.2832 116.214 37.7045 114.812 38.3877C113.652 38.9678 112.243 39.0129 110.783 39.0129H109.845L109.916 38.6391C109.916 38.6391 111.657 31.0879 111.647 31.1105L111.695 30.7237L111.728 30.424L112.42 30.4981C112.42 30.4981 115.995 30.8075 116.085 30.8172C117.5 31.3554 118.077 32.7735 117.671 34.6137Z" fill="white"/>
<path d="M155.082 37.3049L154.879 37.0793C152.284 37.5982 151.807 37.6884 149.416 38.0043L149.236 38.1783C149.226 38.2073 149.219 38.2556 149.213 38.2911L149.2 38.2556C147.421 42.3712 147.476 41.4817 146.026 44.7143C146.016 44.5596 146.013 44.4629 146.009 44.3114L145.648 37.3049L145.42 37.0793C142.7 37.5982 142.629 37.6884 140.112 38.0043L139.912 38.1783C139.892 38.2685 139.886 38.362 139.873 38.4587L139.892 38.4974C140.205 40.112 140.134 39.751 140.444 42.281C140.592 43.5218 140.782 44.7819 140.93 46.0099C141.182 48.066 141.32 49.0845 141.617 52.2203C139.925 55.0339 139.515 56.0942 137.894 58.5597L137.981 58.7821C140.44 58.6918 141.011 58.6918 142.828 58.6918L143.231 58.2439C144.604 55.2788 155.079 37.3081 155.079 37.3081" fill="white"/>
<path d="M66.1114 39.0451C67.5004 38.0751 67.6777 36.7343 66.5014 36.035C65.3089 35.3356 63.2333 35.5548 61.8282 36.5281C60.4165 37.4853 60.2586 38.8324 61.4382 39.5318C62.6178 40.2183 64.703 40.0152 66.1081 39.0451" fill="white"/>
<path d="M143.051 58.4852L141.001 61.9917C140.353 63.1874 139.151 64.0866 137.243 64.093L133.982 64.0382L134.929 60.8798H135.561C135.896 60.8798 136.141 60.8573 136.331 60.767C136.492 60.7155 136.612 60.5865 136.744 60.3996L137.946 58.4852H143.051Z" fill="white"/>
</svg>
