<svg xmlns="http://www.w3.org/2000/svg" width="100" height="32" viewBox="0 0 100 32" fill="none">
  <path d="M37.7998 0.565606L24.7659 31.5159H16.2622L9.84817 6.81615C9.45877 5.2948 9.12017 4.73745 7.93588 4.0965C6.00234 3.05251 2.80932 2.07302 0 1.4651L0.190813 0.565606H13.8791C15.6239 0.565606 17.1924 1.72158 17.5886 3.72133L20.976 21.6308L29.348 0.565089H37.7998V0.565606ZM71.1186 21.4109C71.1528 13.2422 59.7693 12.7922 59.8476 9.14308C59.872 8.03251 60.9344 6.85176 63.26 6.55038C64.4126 6.40021 67.5885 6.28564 71.1907 7.93549L72.6036 1.37221C70.668 0.672944 68.1776 0 65.0789 0C57.1275 0 51.5317 4.20694 51.4845 10.2309C51.4331 14.6866 55.4786 17.173 58.5264 18.6536C61.6619 20.1698 62.714 21.1441 62.702 22.5003C62.6797 24.5764 60.2012 25.493 57.885 25.5291C53.8416 25.591 51.4954 24.4402 49.6251 23.5748L48.167 30.3553C50.0466 31.2135 53.516 31.9623 57.113 32C65.5642 32 71.0927 27.8452 71.1186 21.4109ZM92.1154 31.5159H99.5556L93.0611 0.565606H86.1939C84.6498 0.565606 83.3473 1.46046 82.7707 2.83628L70.6991 31.5159H79.1462L80.8231 26.893H91.1442L92.1154 31.5159ZM83.1393 20.5496L87.3736 8.92891L89.8106 20.5496H83.1393ZM49.2937 0.565606L42.6417 31.5159H34.5975L41.2521 0.565606H49.2937Z" fill="black"/>
</svg>
