<svg width="20" height="20" viewBox="0 0 20 20" fill="none" xmlns="http://www.w3.org/2000/svg">
<rect width="20" height="20" rx="4" fill="#1434CB"/>
<path d="M12.4247 7.40723C11.2901 7.40723 10.2714 7.99892 10.2714 9.0847C10.2714 10.3352 12.0709 10.4206 12.0709 11.0428C12.0709 11.3051 11.7659 11.5429 11.2535 11.5429C10.5215 11.5429 9.97255 11.2136 9.97255 11.2136L9.74076 12.3115C9.74076 12.3115 10.369 12.5921 11.2108 12.5921C12.4552 12.5921 13.4312 11.976 13.4312 10.8659C13.4312 9.54829 11.6256 9.46289 11.6256 8.8834C11.6256 8.676 11.8757 8.45031 12.3881 8.45031C12.9676 8.45031 13.4434 8.6882 13.4434 8.6882L13.6752 7.62682C13.6691 7.62682 13.1506 7.40723 12.4247 7.40723ZM2.0305 7.48653L2 7.64512C2 7.64512 2.47579 7.73052 2.90888 7.90742C3.46397 8.10871 3.50057 8.22461 3.59817 8.5845L4.61685 12.5067H5.98323L8.07549 7.48653H6.71521L5.36714 10.9025L4.81815 8.00502C4.76935 7.67562 4.51315 7.48653 4.19596 7.48653H2.0305ZM8.62448 7.48653L7.557 12.5067H8.85627L9.91765 7.48653H8.62448ZM15.8589 7.48653C15.5478 7.48653 15.3831 7.65122 15.2612 7.94402L13.358 12.5067H14.7183L14.9806 11.7442H16.6397L16.7983 12.5067H18L16.9569 7.48653H15.8589ZM16.0358 8.8468L16.4384 10.7317H15.3587L16.0358 8.8468Z" fill="white"/>
</svg>
