<svg xmlns="http://www.w3.org/2000/svg" width="68" height="52" viewBox="0 0 68 52" fill="none">
  <path d="M62.702 0.00273272H55.0558C54.249 0.0142237 53.4795 0.344018 52.9148 0.920283L48.9388 4.89634L44.9627 0.920283C44.398 0.344018 43.6285 0.0142237 42.8218 0.00273272H4.59049C3.98226 -0.0186285 3.37615 0.0854278 2.80987 0.308424C2.24359 0.531421 1.72928 0.868585 1.29893 1.29893C0.868585 1.72928 0.531421 2.24359 0.308424 2.80987C0.0854274 3.37615 -0.0186285 3.98226 0.00273272 4.59049V47.4095C-0.0186285 48.0177 0.0854274 48.6239 0.308424 49.1901C0.531421 49.7564 0.868585 50.2707 1.29893 50.7011C1.72928 51.1314 2.24359 51.4686 2.80987 51.6916C3.37615 51.9146 3.98226 52.0186 4.59049 51.9973H42.8218C43.6285 51.9858 44.398 51.656 44.9627 51.0797L48.9388 47.1037L52.9148 51.0797C53.4795 51.656 54.249 51.9858 55.0558 51.9973H62.702C63.3102 52.0186 63.9164 51.9146 64.4826 51.6916C65.0489 51.4686 65.5632 51.1314 65.9936 50.7011C66.4239 50.2707 66.7611 49.7564 66.9841 49.1901C67.2071 48.6239 67.3111 48.0177 67.2898 47.4095V4.59049C67.3111 3.98226 67.2071 3.37615 66.9841 2.80987C66.7611 2.24359 66.4239 1.72928 65.9936 1.29893C65.5632 0.868585 65.0489 0.531421 64.4826 0.308424C63.9164 0.0854278 63.3102 -0.0186285 62.702 0.00273272ZM61.1728 45.8803H56.2792L51.0797 40.6808C50.8075 40.3842 50.4767 40.1473 50.1081 39.9853C49.7396 39.8233 49.3414 39.7396 48.9388 39.7396C48.5362 39.7396 48.138 39.8233 47.7694 39.9853C47.4009 40.1473 47.07 40.3842 46.7978 40.6808L41.5984 45.8803H6.11974V6.11974H41.5984L46.7978 11.3192C47.07 11.6158 47.4009 11.8527 47.7694 12.0147C48.138 12.1767 48.5362 12.2604 48.9388 12.2604C49.3414 12.2604 49.7396 12.1767 50.1081 12.0147C50.4767 11.8527 50.8075 11.6158 51.0797 11.3192L56.2792 6.11974H61.1728V45.8803Z" fill="#D1BF00"/>
  <path d="M48.9388 15.2952C48.1276 15.2952 47.3497 15.6175 46.7761 16.1911C46.2025 16.7646 45.8803 17.5426 45.8803 18.3537V21.4122C45.8803 22.2234 46.2025 23.0014 46.7761 23.5749C47.3497 24.1485 48.1276 24.4708 48.9388 24.4708C49.7499 24.4708 50.5279 24.1485 51.1015 23.5749C51.675 23.0014 51.9973 22.2234 51.9973 21.4122V18.3537C51.9973 17.5426 51.675 16.7646 51.1015 16.1911C50.5279 15.6175 49.7499 15.2952 48.9388 15.2952Z" fill="#D1BF00"/>
  <path d="M48.9388 27.5293C48.1276 27.5293 47.3497 27.8515 46.7761 28.4251C46.2025 28.9986 45.8803 29.7766 45.8803 30.5878V33.6463C45.8803 34.4574 46.2025 35.2354 46.7761 35.8089C47.3497 36.3825 48.1276 36.7048 48.9388 36.7048C49.7499 36.7048 50.5279 36.3825 51.1015 35.8089C51.675 35.2354 51.9973 34.4574 51.9973 33.6463V30.5878C51.9973 29.7766 51.675 28.9986 51.1015 28.4251C50.5279 27.8515 49.7499 27.5293 48.9388 27.5293Z" fill="#D1BF00"/>
  <path d="M18.3537 22.9415C20.0429 22.9415 21.4122 21.5722 21.4122 19.883C21.4122 18.1938 20.0429 16.8245 18.3537 16.8245C16.6646 16.8245 15.2952 18.1938 15.2952 19.883C15.2952 21.5722 16.6646 22.9415 18.3537 22.9415Z" fill="#D1BF00"/>
  <path d="M30.5878 35.1755C32.2769 35.1755 33.6463 33.8062 33.6463 32.117C33.6463 30.4278 32.2769 29.0585 30.5878 29.0585C28.8986 29.0585 27.5293 30.4278 27.5293 32.117C27.5293 33.8062 28.8986 35.1755 30.5878 35.1755Z" fill="#D1BF00"/>
  <path d="M29.9761 16.2128L14.6835 31.5053C14.3869 31.7775 14.15 32.1084 13.988 32.4769C13.826 32.8455 13.7423 33.2437 13.7423 33.6463C13.7423 34.0489 13.826 34.4471 13.988 34.8156C14.15 35.1842 14.3869 35.515 14.6835 35.7872C14.9557 36.0839 15.2866 36.3207 15.6551 36.4827C16.0237 36.6448 16.4219 36.7284 16.8245 36.7284C17.2271 36.7284 17.6253 36.6448 17.9939 36.4827C18.3624 36.3207 18.6933 36.0839 18.9654 35.7872L34.258 20.4947C34.6997 19.9057 34.9142 19.1772 34.862 18.4428C34.8098 17.7084 34.4944 17.0175 33.9738 16.4969C33.4533 15.9763 32.7623 15.661 32.028 15.6088C31.2936 15.5566 30.565 15.7711 29.9761 16.2128Z" fill="#D1BF00"/>
</svg>
