<svg width="199" height="50" viewBox="0 0 199 50" fill="none" xmlns="http://www.w3.org/2000/svg">
<path fill-rule="evenodd" clip-rule="evenodd" d="M40.8 31.4C47.9 33.8 49.6 33.9 49.6 33.9V8C49.6 3.6 46 0 41.7 0H7.9C3.6 0 0 3.6 0 8V42C0 46.4 3.6 50 7.9 50H41.6C46 50 49.5 46.4 49.5 42V41.7C49.5 41.7 36.6 36.3 30.1 33.1C25.7 38.5 20.1 41.8 14.3 41.8C4.4 41.8 1 33.1 5.7 27.3C6.7 26 8.5 24.9 11.2 24.2C15.4 23.2 22.1 24.9 28.4 26.9C29.5 24.8 30.5 22.5 31.2 20H11.8V18H21.8V14.5H9.7V12.5H21.8V7.5C21.8 7.5 21.8 6.6 22.7 6.6H27.6V12.5H39.6V14.5H27.6V18H37.4C36.5 21.9 35 25.4 33.3 28.5C36.2 29.7 38.8 30.7 40.8 31.4Z" fill="#1677FF"/>
<path fill-rule="evenodd" clip-rule="evenodd" d="M12 27.2C10.8 27.3 8.4 27.9 7.2 29C3.4 32.4 5.7 38.5 13.4 38.5C17.9 38.5 22.4 35.6 25.9 31C20.9 28.5 16.6 26.7 12 27.2Z" fill="#1677FF"/>
<path fill-rule="evenodd" clip-rule="evenodd" d="M107.6 7.3C107.6 9.9 109.5 11.6 112.1 11.6C114.7 11.6 116.6 9.9 116.6 7.3C116.6 4.8 114.7 3 112.1 3C109.5 3 107.6 4.8 107.6 7.3Z" fill="#1677FF"/>
<path fill-rule="evenodd" clip-rule="evenodd" d="M95 40.4H102.9V4.1H95V40.4Z" fill="black"/>
<path fill-rule="evenodd" clip-rule="evenodd" d="M69.8 27.8L74.5 11.6H74.7L79.1 27.8H69.8ZM81.2 5.3H70.7L58.9 40.4H66.2L68.2 33.5H80.7L82.6 40.4H91.9L81.2 5.3Z" fill="black"/>
<path fill-rule="evenodd" clip-rule="evenodd" d="M108.2 40.4H116.1V13.7H108.2V40.4Z" fill="black"/>
<path fill-rule="evenodd" clip-rule="evenodd" d="M198.2 13.8H190.8L186.2 30H186L180.6 13.8H171.8L182.4 40.6L178 48.8V49H184.9L198.2 13.8Z" fill="black"/>
<path fill-rule="evenodd" clip-rule="evenodd" d="M130.7 35.8C129.8 35.8 129 35.7 128 35.4V21C129.6 19.9 131 19.3 132.7 19.3C135.6 19.3 138 21.6 138 26.6C137.9 33 134.5 35.8 130.7 35.8ZM135.7 13.2C132.8 13.2 130.6 14.3 128 16.4V13.8H120.1V48.9H128V40.2C129.5 40.6 130.9 40.8 132.6 40.8C139.6 40.8 145.9 35.6 145.9 26.4C145.9 18.1 141.3 13.2 135.7 13.2Z" fill="black"/>
<path fill-rule="evenodd" clip-rule="evenodd" d="M162.4 33.9C160.3 35 159.1 35.5 157.7 35.5C155.8 35.5 154.6 34.3 154.6 32.3C154.6 31.6 154.7 30.8 155.3 30.2C156.2 29.3 158.1 28.6 162.3 27.6L162.4 33.9ZM170.2 33.7V22.6C170.2 16.5 166.6 13.2 160.3 13.2C156.3 13.2 153.5 13.9 148.4 15.4L149.8 21.5C154.4 19.4 156.5 18.5 158.6 18.5C161.2 18.5 162.3 20.3 162.3 23.2V23.4C153.3 25.1 150.5 26 148.8 27.8C147.5 29.1 147 30.9 147 33.1C147 38.2 151 41 154.7 41C157.5 41 159.7 40 162.8 37.7L163.3 40.5H171.2L170.2 33.7Z" fill="black"/>
</svg>
