<svg width="55" height="35" viewBox="0 0 55 35" fill="none" xmlns="http://www.w3.org/2000/svg">
<path d="M49.9 31.1L47.4 28.4L44.9 31.1H29.5V18.6H24.5L30.7 4.5H36.7L38.9 9.3V4.5H46.3L47.6 8.2L48.9 4.5H54.6V2.3C54.6 1 53.5 0 52.3 0H2.3C0.999999 0 0 1.1 0 2.3V32.6C0 33.9 1.1 34.9 2.3 34.9H52.3C53.6 34.9 54.6 33.8 54.6 32.6V31.1H49.9Z" fill="#0071CE"/>
<path d="M50.6 29.7H54.6L49.4 24.2L54.6 18.7H50.7L47.5 22.2L44.3 18.7H40.4L45.6 24.2L40.4 29.7H44.2L47.4 26.2L50.6 29.7Z" fill="#0071CE"/>
<path d="M34.1 27.2V25.5H40.3V23H34.1V21.2H40.4V18.7H31.1V29.7H40.4V27.2H34.1Z" fill="#0071CE"/>
<path d="M51.6 17.2H54.5V6.2H50L47.5 13L45.1 6.2H40.4V17.2H43.4V9.5L46.2 17.2H48.8L51.6 9.5V17.2Z" fill="#0071CE"/>
<path d="M35.6 6.2H31.8L27 17.1H30.3L31.2 14.9H36.2L37.1 17.1H40.5L35.6 6.2ZM32.1 12.5L33.6 8.9L35.1 12.5H32.1Z" fill="#0071CE"/>
<path d="M51.8 23.937L54.6 26.937V20.937L51.8 23.937Z" fill="#0071CE"/>
</svg>
