<svg xmlns="http://www.w3.org/2000/svg" width="834" height="779" viewBox="0 0 834 779" fill="none">
  <path d="M266.067 647.629C267.615 650.673 269.377 655.461 270.878 658.881C275.811 670.125 282.344 683.438 291.121 692.366C314.257 715.907 344.706 724.309 377.029 722.057C385.993 721.376 393.327 717.634 402.441 717.896C413.939 718.231 420.709 729.068 419.955 739.693C419.684 743.494 417.055 750.115 413.579 752.266C394.254 764.233 368.43 763.466 346.603 761.21C321.556 757.718 295.755 748.324 275.527 732.966C253.078 715.928 239.211 691.426 228.973 665.743C218.533 640.022 212.613 612.689 211.474 584.953C208.963 530.827 226.04 460.272 239.834 407.797C242.551 397.614 245.382 387.461 248.325 377.341C263.71 326.089 280.623 249.854 200.041 304.983C187.969 313.994 177.008 323.727 165.73 333.829C141.735 355.119 113.065 390.284 78.7351 392.602C13.3056 397.02 -3.75541 322.252 0.652026 272.194C7.22886 197.497 42.0086 137.378 90.3414 82.9176C129.71 38.5579 199.357 -4.67263 260.23 0.40784C272.274 1.18201 283.893 3.09185 295.171 7.41911C297.679 8.38169 300.93 9.29073 303.235 10.6105C334.238 21.1527 361.919 52.0021 375.979 80.8437C382.926 95.4178 388.173 110.743 391.615 126.516C395.533 145.318 397.335 175.079 397.164 194.237C398.09 201.653 397.616 213.106 397.14 220.56C397.272 249.212 394.371 277.491 392.313 306.037C392.09 309.126 391.973 312.236 391.666 315.318L376.447 466.588C374.092 491.37 370.655 517.543 369.963 542.35C369.515 558.411 370.601 595.802 376.182 609.92C375.425 596.001 379.523 576.588 382.514 562.982C384.614 553.432 386.327 543.781 389.022 534.366C404.215 482.988 430.797 435.699 466.785 396.014C479.608 381.699 495.034 367.689 509.813 355.427C521.514 345.718 533.689 336.335 543.79 324.744C553.214 313.934 559.111 301.077 564.763 288.027C566.536 283.935 570.435 274.455 570.503 270.238C570.541 268.018 568.221 260.213 567.73 257.507C566.697 251.841 565.508 245.538 564.822 239.844C564.259 234.502 564.449 229.123 564.322 223.771C563.912 206.822 566.071 190.857 570.376 174.444C572.802 165.179 574.457 154.409 586.594 153.571C593.482 153.095 597.626 156.764 602.232 161.154C610.716 169.022 618.434 177.366 626.613 185.526C629.614 188.518 632.882 190.711 636.062 193.734C641.341 198.753 646.543 203.925 651.869 208.888C652.762 209.723 653.749 210.258 654.913 210.605C655.726 210.075 655.975 209.396 656.056 208.391C656.894 197.567 657.254 186.57 657.737 175.718C657.969 170.517 657.758 165.363 659.201 160.319C661.754 150.086 673.044 147.44 681.405 152.586C684.936 154.971 687.438 158.4 690.232 161.542C700.824 173.454 708.643 187.452 715.446 201.811C717.584 206.76 718.342 213.736 720.213 218.525C720.742 219.876 731.855 223.714 733.925 224.677C766.755 239.965 793.366 267.736 810.317 299.438C812.095 303.007 813.293 307.481 814.961 311.02C816.15 313.543 822.788 314.303 825.286 315.569C840.001 323.021 834.041 347.097 821.806 354.057C819.761 355.22 817.751 356.436 815.888 357.822C812.459 360.708 811.743 365.731 809.614 369.394C796.346 392.22 774.159 409.247 748.407 415.49C746.176 416.031 737.303 418.516 735.843 419.287C733.116 419.528 729.374 418.559 726.381 418.436C714.329 417.953 704.803 421.45 695.435 429.243C695.57 418.986 696.917 396.476 708.144 392.06C718.964 387.805 732.088 386.435 742.993 381.458C746.409 379.9 753.907 378.485 756.332 375.841C757.116 361.477 758.614 359.625 745.639 352.17C739.856 348.846 740.847 337.433 740.288 331.161C737.71 327.223 734.454 324.104 730.293 321.863C728.561 321.698 725.395 320.657 724.442 319.14C723.176 311.634 734.607 313.961 739.014 313.648C745.643 313.176 751.261 311.947 757.67 310.434C758.352 311.899 760.126 315.936 760.837 317.044C764.693 323.035 768.486 323.781 769.291 331.528C769.752 335.987 769.151 339.133 769.181 343.281C771.619 347.747 775.433 350.829 778.74 354.783C788.1 334.691 790.183 335.674 779.625 315.407C760.206 278.135 727.791 251.692 685.436 246.318C682.443 245.938 679.107 245.879 676.093 245.805C670.869 245.678 665.509 245.181 660.319 245.807C656.196 246.305 652.14 248.383 647.919 248.228C645.049 248.024 642.818 247.643 640.198 246.223C634.931 243.368 631.396 235.8 627.464 232.164C619.56 224.86 610.547 218.736 603.477 210.432C602.254 208.993 601.06 207.146 599.223 207.189C595.527 213.268 600.412 248.41 602.571 256.47C604.552 263.884 609.941 269.406 605.695 278.006C599.603 290.347 595.311 304.342 589.689 316.662C588.152 319.973 586.455 323.207 584.6 326.351C568.509 353.238 547.224 371.291 524.16 391.691C504.729 408.879 489.599 425.505 474.998 446.853C458.398 471.118 443.929 495.675 434.514 523.766C432.317 530.095 429.916 536.165 427.749 542.701C424.455 552.637 423.126 561.569 420.785 571.428C414.79 596.708 413.215 620.414 414.223 646.364C414.697 658.627 420.217 670.967 417.601 683.201C416.065 690.169 410.735 695.68 403.819 697.446C381.878 702.868 369.678 685.326 357.951 669.947C355.243 666.395 353.367 661.544 351.175 657.632C344.053 644.59 339.145 630.172 335.971 615.673C329.838 587.662 328.56 558.656 330.016 530.057C330.736 515.926 332.234 501.288 332.897 487.009C333.531 473.353 335.802 458.74 337.012 445.092C337.612 440.664 337.588 422.978 339.073 419.617C340.762 408.913 340.648 397.099 342.337 386.269C342.873 382.829 342.554 379.18 343.32 375.725C343.286 372.757 344.326 369.515 344.468 366.495C345.462 345.321 348.658 324.357 350.396 303.272C351.77 286.612 354.179 268.724 354.855 252.091C354.681 246.512 355.4 236.805 355.665 230.86C355.493 222.49 356.226 213.987 356.098 205.678C355.913 193.637 355.488 181.467 355.151 169.418C350.83 129.793 343.69 89.3342 310.177 62.3764C251.988 15.5704 168.277 59.0622 125.481 106.797C111.895 121.951 97.2956 137.881 86.1355 155.293C61.5699 193.485 42.1276 239.182 41.8474 285.184C41.7373 303.287 44.3578 333.621 59.1044 345.795C79.622 362.733 106.724 332.516 120.617 319.282L141.598 299.417C166.569 276.002 200.692 250.222 235.125 244.35C243.336 243.728 250.251 243.401 258.419 245.447C262.969 246.113 272.356 251.264 276.204 253.958C317.062 282.552 301.709 341.304 290.656 381.306C289.969 383.796 289.142 386.297 288.443 388.803C282.887 408.084 277.69 427.465 272.852 446.942C271.428 452.615 269.882 457.576 268.543 463.494C263.566 486.451 259.373 509.572 255.972 532.817C255.359 536.948 254.858 540.665 254.444 544.801C254.091 548.331 253.958 554.821 253.215 558.097C252.811 568.778 252.531 578.929 253.444 589.592C254.458 600.45 256.049 611.249 258.213 621.934C259.203 626.353 259.97 629.41 261.352 633.681C262.559 637.415 265.414 644.069 266.067 647.629ZM748.865 342.43C751.913 346.633 756.785 349.536 760.451 353.224C765.053 357.855 765.036 363.508 765.498 369.518C767.962 367.572 770.764 364.669 772.686 362.174C769.232 353.746 765.536 353.818 762.335 347.65C759.063 341.338 765.29 327.168 754.855 322.506C751.096 320.825 747.298 320.927 743.404 321.345C749.356 329.221 748.518 332.692 748.865 342.43Z" fill="#883B96"/>
  <path d="M730.293 321.863C728.561 321.698 725.395 320.657 724.442 319.14C723.176 311.634 734.607 313.961 739.014 313.648C745.643 313.176 751.261 311.947 757.67 310.434C758.352 311.899 760.126 315.936 760.837 317.044C764.693 323.035 768.486 323.781 769.291 331.528C769.752 335.987 769.151 339.133 769.181 343.281C771.619 347.747 775.433 350.829 778.74 354.783C777.19 357.921 775.772 360.196 772.686 362.174C769.232 353.746 765.536 353.818 762.335 347.65C759.063 341.338 765.29 327.168 754.855 322.506C751.096 320.825 747.298 320.927 743.404 321.345C749.356 329.221 748.518 332.692 748.865 342.43C751.913 346.633 756.785 349.536 760.451 353.224C765.053 357.855 765.036 363.508 765.498 369.518C762.759 372.83 760.21 374.164 756.332 375.841C757.116 361.477 758.614 359.625 745.639 352.17C739.856 348.846 740.847 337.433 740.288 331.161C737.71 327.223 734.454 324.104 730.293 321.863Z" fill="#259FDC"/>
  <path d="M260.23 0.40784C272.274 1.18201 283.893 3.09185 295.171 7.41911C297.679 8.38169 300.93 9.29073 303.235 10.6105C298.186 11.3788 280.835 5.46524 274.633 4.67126C273.275 4.49749 265.662 2.86153 264.196 2.41873C264.746 1.69075 265.825 2.53675 267.703 1.98115C265.196 0.984273 264.07 2.33026 260.23 0.40784Z" fill="#604285"/>
  <path d="M355.151 169.418C357.395 173.723 355.744 193.244 356.899 197.987C357.729 196.235 357.755 179.554 357.858 176.367C359.222 187.475 357.499 204.424 357.747 217.034C357.049 220.519 356.619 228.967 355.665 230.86C355.493 222.49 356.226 213.987 356.098 205.678C355.913 193.637 355.488 181.467 355.151 169.418Z" fill="#604285"/>
  <path d="M343.32 375.725C344.246 386.508 344.368 403.419 341.099 413.724L341.265 412.552C340.76 414.66 340.302 418.41 339.073 419.617C340.762 408.913 340.648 397.099 342.337 386.269C342.873 382.829 342.554 379.18 343.32 375.725Z" fill="#6E448F"/>
  <path d="M255.042 618.323C256.081 619.758 256.762 620.939 258.213 621.934C259.203 626.353 259.97 629.41 261.352 633.681C262.559 637.415 265.414 644.069 266.067 647.629C265.615 647.748 265.908 647.71 265.179 647.57C263.73 643.684 262.4 637.546 260.181 634.223C259.198 635.806 261.288 640.763 261.061 643.464C259.57 641.275 255.505 621.811 255.042 618.323Z" fill="#6E448F"/>
  <path d="M251.457 588.263C252.567 589.482 251.921 589.067 253.444 589.592C254.458 600.45 256.049 611.249 258.213 621.934C256.762 620.939 256.081 619.758 255.042 618.323C253.699 613.692 252.552 595.307 251.457 588.263Z" fill="#604285"/>
  <path d="M357.747 217.034C358.087 224.417 358.081 232.267 357.959 239.682C357.89 243.845 356.068 248.115 354.855 252.091C354.681 246.512 355.4 236.805 355.665 230.86C356.619 228.967 357.049 220.519 357.747 217.034Z" fill="#6E448F"/>
  <path d="M251.457 588.263C251.55 582.929 250.331 561.073 253.215 558.097C252.811 568.778 252.531 578.929 253.444 589.592C251.921 589.067 252.567 589.482 251.457 588.263Z" fill="#604285"/>
  <path d="M397.164 194.237C398.09 201.653 397.616 213.106 397.14 220.56L396.146 219.761C394.656 214.627 396.397 199.736 397.164 194.237Z" fill="#604285"/>
  <path d="M235.125 244.35C243.336 243.728 250.251 243.401 258.419 245.447C256.509 245.63 254.596 245.771 252.68 245.868C248.653 246.047 237.697 246.707 235.125 244.35Z" fill="#604285"/>
  <path d="M695.435 429.243C704.803 421.45 714.329 417.953 726.381 418.436C729.374 418.559 733.116 419.528 735.843 419.287C745.436 423.105 753.661 426.415 759.922 435.136C769.706 448.775 769.63 469.293 762.941 484.245C764.046 487.864 766.873 491.691 768.516 495.256C771.28 501.267 771.2 506.622 771.23 513.175C771.293 527.991 759.677 541.207 745.961 545.698C741.223 547.252 736.3 547.269 731.245 547.565C732.02 561.154 734.585 573.176 736.799 586.43C743.649 627.416 748.606 671.75 727.113 709.531C724.429 714.251 721.707 717.1 719.726 722.434C732.617 718.878 752.074 716.724 764.841 720.385C774.147 723.92 788.819 729.068 791.444 739.862C792.562 744.455 791.448 749.035 789.069 752.867C781.026 765.829 767.115 758.975 755.587 758.319C746.236 757.79 727.723 758.746 718.41 761.176C716.759 766.637 715.192 773.707 709.452 776.327C694.766 783.032 678.404 771.488 662.546 772.119C621.486 773.753 579.338 779.57 538.287 775.053C529.702 775.027 508.852 772.89 500.495 770.413C496.338 769.181 492.757 765.079 491 760.914C488.257 755.25 489.87 745.264 493.984 740.535C500.343 733.224 506.172 732.873 515.228 733.639C532.729 735.117 550.174 736.298 567.73 735.93C572.607 735.828 577.476 736.539 582.319 736.112L582.869 736.061C584.685 722.887 590.726 721.363 600.785 714.294C606.449 710.306 614.535 702.458 618.781 697.175C651.45 656.494 636.743 583.175 581.59 571.301C570.076 568.824 557.041 570.615 552.871 555.998C549.768 546.68 556.965 532.901 567.129 532.025C618.269 527.614 661.161 567.808 672.397 615.593C675.923 630.586 677.037 651.782 674.272 666.349C670.559 685.923 661.369 707.593 647.953 722.227C644.393 726.062 640.693 728.775 637.831 733.165L637.48 733.707C641.811 733.686 646.243 733.081 650.684 732.937C652.009 732.894 663.329 733.203 663.993 732.264C665.848 729.656 667.613 725.537 670.246 723.001C672.206 721.029 674.823 719.873 676.998 718.133C710.586 691.269 711.526 646.499 705.845 607.406C704.448 597.779 702.302 588.475 701.451 578.81C700.689 570.209 699.639 561.653 698.525 553.106C696.658 554.707 693.687 558.36 691.591 558.567C688.424 556.37 681.82 536.614 682.358 532.338C682.963 527.496 694.042 520.913 695.321 515.473C696.853 508.929 687.667 505.508 685.017 500.594C681.689 494.295 698.491 488.195 700.24 481.98C702.23 474.911 681.634 467.808 680.093 462.698C679.793 454.651 686.291 444.855 689.805 437.828C691.654 434.132 694.004 432.824 695.435 429.243Z" fill="#883B96"/>
  <path d="M695.435 429.243C704.803 421.45 714.329 417.953 726.381 418.436C729.374 418.559 733.116 419.528 735.843 419.287C745.436 423.105 753.661 426.415 759.922 435.136C769.706 448.775 769.63 469.293 762.941 484.245C760.113 481.565 755.888 477.408 752.59 475.457C742.159 469.285 725.831 469.213 717.152 478.611C713.782 482.264 712.843 486.247 713.126 491.005C713.287 501.813 722.88 506.982 732.503 507.633C737.811 507.997 742.591 509.136 737.917 515.389C736.389 517.429 732.092 518.716 730.191 520.536C727.494 523.173 725.022 526.458 722.436 529.252C716.534 535.632 710.337 541.698 703.898 547.536C702.386 548.907 699.601 551.405 698.525 553.106C696.658 554.707 693.687 558.36 691.591 558.567C688.424 556.37 681.82 536.614 682.358 532.338C682.963 527.496 694.042 520.913 695.321 515.473C696.853 508.929 687.667 505.508 685.017 500.594C681.689 494.295 698.491 488.195 700.24 481.98C702.23 474.911 681.634 467.808 680.093 462.698C679.793 454.651 686.291 444.855 689.805 437.828C691.654 434.132 694.004 432.824 695.435 429.243Z" fill="#DD2522"/>
  <path d="M491 760.914C493.083 762.226 492.638 763.521 494.319 764.66C494.137 764.072 493.963 763.56 493.752 762.98C497.49 764.271 501.88 769.918 507.713 771.268C511.985 772.255 536.306 773.338 538.287 775.053C529.702 775.027 508.852 772.89 500.495 770.413C496.338 769.181 492.757 765.079 491 760.914Z" fill="#6E448F"/>
  <path d="M565.808 527.076C559.67 525.887 551.775 522.17 546.407 519.19C535.264 513.014 525.172 499.523 522.018 487.251C519.914 478.01 517.666 465.784 522.59 457.072C526.768 449.063 538.871 448.919 545.416 453.872C557.672 463.155 548.231 480.744 562.701 490.116C578.97 500.653 596.022 499.853 614.289 496.204C616.664 495.73 622.142 495.12 623.497 493.169C622.688 491.399 618.87 490.248 617.015 489.757C596.179 484.27 579.19 468.252 581.713 445.024C582.022 441.888 583.644 439.03 586.175 437.151C592.657 432.295 599.756 435.775 604.146 441.464C604.891 443.357 604.709 446.997 604.878 449.169C606.343 468.023 630.749 470.25 645.074 473.256C652.229 474.754 660.785 475.503 667.609 477.811C672.486 479.457 677.49 483.386 680.508 487.593C683.285 497.16 683.598 499.383 679.848 508.819C681.558 510.432 684.822 513.293 684.026 515.66C680.965 524.757 671.368 522.831 675.809 535.221C678.641 543.129 683.641 551.582 686.049 559.676C683.691 559.16 680.838 558.279 678.87 556.954C669.438 550.605 639.931 530.556 634.017 522.53C628.865 523.847 618.654 527.356 614.327 527.868C596.073 531.259 583.796 531.14 565.808 527.076Z" fill="#883B96"/>
  <path d="M679.848 508.819C681.558 510.432 684.822 513.293 684.026 515.66C680.965 524.757 671.368 522.831 675.809 535.221C678.641 543.129 683.641 551.582 686.049 559.676C683.691 559.16 680.838 558.279 678.87 556.954C669.438 550.605 639.931 530.556 634.017 522.53C638.678 520.934 647.924 517.006 652.153 516.189C667.164 513.302 667.105 519.757 679.848 508.819Z" fill="#DD2522"/>
  <path d="M565.808 527.076C569.25 526.255 585.591 527.855 590.493 527.923C595.29 527.991 610.97 527.195 614.327 527.868C596.073 531.259 583.796 531.14 565.808 527.076Z" fill="#6E448F"/>
  <path d="M626.604 319.773C632.226 314.638 638.678 318.791 645.074 317.696C651.797 316.545 661.246 312.661 667.749 317.765C669.006 318.752 669.632 323.073 668.13 324.048L662.817 323.309C658.753 327.365 652.745 334.354 652.953 340.271C653.27 349.196 657.61 354.523 654.676 363.998C652.419 371.286 643.618 376.026 643.995 383.03C644.397 390.425 650.641 396.919 652.656 404.423C654.464 411.15 654.18 414.262 653.884 421.069C662.398 424.278 682.498 433.866 677.76 445.469C675.229 451.679 668.849 459.367 670.424 466.381C672.219 472.849 688.877 474.462 686.185 481.311C685.241 483.707 682.426 485.832 680.508 487.593C677.49 483.386 672.486 479.457 667.609 477.811C660.785 475.503 652.229 474.754 645.074 473.256C630.749 470.25 606.343 468.023 604.878 449.169C604.709 446.997 604.891 443.357 604.146 441.464C605.386 436.456 611.254 431.368 614.945 428.054C613.752 423.49 613.21 417.86 614.361 413.259C615.572 408.427 618.908 403.36 617.811 398.125C616.893 393.989 614.166 390.714 612.524 386.819C610.166 381.225 611.22 371.988 614.624 366.895C617.295 362.887 620.368 360.586 622.303 355.765C619.166 343.901 615.293 337.019 625.948 326.984C626.236 324.778 626.401 322.03 626.604 319.773ZM621.63 424.049C629.106 420.061 636.684 418.931 645.024 419.812C644.549 415.887 645.942 411.239 644.736 407.282C641.866 397.835 635.896 394.601 635.067 384.147C634.186 373.039 644.655 367.339 646.209 360.412C648.669 349.442 639.656 338.687 649.088 326.528C649.79 325.622 650.523 324.737 651.281 323.875C644.892 324.428 641.734 324.53 635.232 324.204C634.741 325.916 634.127 328.198 633.454 329.805C632.095 333.051 628.166 337.79 627.874 341.177C627.362 347.084 632.036 352.762 629.847 358.738C626.803 366.745 620.068 368.743 619.644 378.173C619.255 386.928 626.833 392.593 625.906 400.637C624.835 409.952 621.308 413.966 621.63 424.049Z" fill="#DD2522"/>
  <path d="M626.604 319.773C632.226 314.638 638.678 318.791 645.074 317.696C651.797 316.545 661.246 312.661 667.749 317.765C669.006 318.752 669.632 323.073 668.13 324.048L662.817 323.309C658.753 327.365 652.745 334.354 652.953 340.271C653.27 349.196 657.61 354.523 654.676 363.998C652.419 371.286 643.618 376.026 643.995 383.03C644.397 390.425 650.641 396.919 652.656 404.423C654.464 411.15 654.18 414.262 653.884 421.069C650.595 420.459 648.343 420.095 645.024 419.812C644.549 415.887 645.942 411.239 644.736 407.282C641.866 397.835 635.896 394.601 635.067 384.147C634.186 373.039 644.655 367.339 646.209 360.412C648.669 349.442 639.656 338.687 649.088 326.528C649.79 325.622 650.523 324.737 651.281 323.875C644.892 324.428 641.734 324.53 635.232 324.204C634.741 325.916 634.127 328.198 633.454 329.805C632.095 333.051 628.166 337.79 627.874 341.177C627.362 347.084 632.036 352.762 629.847 358.738C626.803 366.745 620.068 368.743 619.644 378.173C619.255 386.928 626.833 392.593 625.906 400.637C624.835 409.952 621.308 413.966 621.63 424.049L614.945 428.054C613.752 423.49 613.21 417.86 614.361 413.259C615.572 408.427 618.908 403.36 617.811 398.125C616.893 393.989 614.166 390.714 612.524 386.819C610.166 381.225 611.22 371.988 614.624 366.895C617.295 362.887 620.368 360.586 622.303 355.765C619.166 343.901 615.293 337.019 625.948 326.984C626.236 324.778 626.401 322.03 626.604 319.773Z" fill="#259FDC"/>
  <path d="M672.198 274.525C678.87 276.128 681.321 279.367 679.196 286.551C677.371 292.7 673.256 298.6 668.062 302.336C666.229 303.646 662.965 306.061 661.458 307.569C665.949 309.609 675.58 312.358 676.63 317.157C677.989 323.348 672.714 324.844 668.13 324.048C669.632 323.073 669.006 318.752 667.749 317.765C661.246 312.661 651.797 316.545 645.074 317.696C638.678 318.791 632.226 314.638 626.604 319.773C623.734 318.005 620.749 316.489 620.093 312.915C618.523 304.393 624.018 302.064 631.075 300.955C643.614 298.985 654.845 293.428 662.148 282.789C665.454 277.968 666.445 276.128 672.198 274.525Z" fill="#883B96"/>
  <path d="M725.551 306.533C719.074 299.743 707.712 296.402 709.117 284.219C709.452 281.321 712.326 277.876 715.243 277.61C722.846 276.918 726.254 286.681 731.783 290.111C735.716 292.238 740.063 294.589 744.636 295.121C751.511 295.921 764.215 293.712 762.484 304.896C762.06 307.626 759.994 309.169 757.67 310.434C751.261 311.947 745.643 313.176 739.014 313.648C734.607 313.961 723.176 311.634 724.442 319.14C725.395 320.657 728.561 321.698 730.293 321.863C724.912 323.343 714.252 325.358 716.75 314.845C717.686 310.913 722.038 308.294 725.551 306.533Z" fill="#883B96"/>
  <path d="M716.941 350.624C718.901 350.534 721.195 350.706 723.1 351.196C727.152 352.239 742.849 362.89 744.572 366.219C745.495 367.993 745.702 370.12 745 372.003C744.403 373.607 743.366 374.434 741.837 375.138C733.726 378.873 727.334 367.813 720.412 365.656C716.039 364.295 711.348 366.739 707.602 368.793C705.083 370.05 702.534 371.669 700.104 373.17C697.433 374.679 691.519 380.593 688.467 380.37C674.45 379.35 679.429 369.685 687.298 364.461C695.82 358.806 701.264 354.961 710.823 351.555C712.864 350.829 715.036 350.764 716.941 350.624Z" fill="#883B96"/>
</svg>
