<svg width="267" height="143" viewBox="0 0 267 143" fill="none" xmlns="http://www.w3.org/2000/svg">
<path d="M195.989 0H71.0106C31.9548 0 0 31.9548 0 71.0106C0 110.066 31.9548 142.021 71.0106 142.021H195.989C235.045 142.021 267 110.066 267 71.0106C267 31.9548 235.045 0 195.989 0Z" fill="white"/>
<path d="M195.989 5.75186C204.759 5.75186 213.28 7.49162 221.305 10.9001C229.08 14.2021 236.039 18.9243 242.075 24.9247C248.076 30.9251 252.798 37.9197 256.1 45.6953C259.508 53.7196 261.248 62.2408 261.248 71.0106C261.248 79.7805 259.508 88.3017 256.1 96.3259C252.798 104.102 248.076 111.061 242.075 117.097C236.075 123.097 229.08 127.819 221.305 131.121C213.28 134.53 204.759 136.269 195.989 136.269H71.0106C62.2408 136.269 53.7195 134.53 45.6953 131.121C37.9197 127.819 30.9606 123.097 24.9247 117.097C18.9243 111.096 14.2021 104.102 10.9001 96.3259C7.49162 88.3017 5.75186 79.7805 5.75186 71.0106C5.75186 62.2408 7.49162 53.7196 10.9001 45.6953C14.2021 37.9197 18.9243 30.9606 24.9247 24.9247C30.9251 18.9243 37.9197 14.2021 45.6953 10.9001C53.7195 7.49162 62.2408 5.75186 71.0106 5.75186H195.989ZM195.989 0H71.0106C31.9548 0 0 31.9548 0 71.0106C0 110.066 31.9548 142.021 71.0106 142.021H195.989C235.045 142.021 267 110.066 267 71.0106C267 31.9548 235.045 0 195.989 0Z" fill="#3C4043"/>
<path d="M127.322 97.5331H120.505V44.4882H138.577C143.157 44.4882 147.063 46.0149 150.259 49.0684C153.525 52.1218 155.158 55.8499 155.158 60.2525C155.158 64.7617 153.525 68.4898 150.259 71.5077C147.099 74.5257 143.193 76.0169 138.577 76.0169H127.322V97.5331ZM127.322 51.0212V69.5194H138.719C141.418 69.5194 143.69 68.5963 145.465 66.7855C147.276 64.9747 148.199 62.7734 148.199 60.288C148.199 57.8382 147.276 55.6724 145.465 53.8616C143.69 51.9798 141.453 51.0567 138.719 51.0567H127.322V51.0212Z" fill="#3C4043"/>
<path d="M172.982 60.0395C178.024 60.0395 182 61.3887 184.912 64.0871C187.823 66.7855 189.279 70.4781 189.279 75.1648V97.5331H182.781V92.4914H182.497C179.692 96.6455 175.929 98.7048 171.242 98.7048C167.23 98.7048 163.893 97.5331 161.194 95.1543C158.496 92.7754 157.147 89.8285 157.147 86.2779C157.147 82.5144 158.567 79.5319 161.407 77.3306C164.248 75.0938 168.047 73.9931 172.769 73.9931C176.816 73.9931 180.154 74.7387 182.746 76.2299V74.6677C182.746 72.2888 181.823 70.3005 179.941 68.6318C178.059 66.963 175.858 66.1464 173.337 66.1464C169.538 66.1464 166.52 67.7442 164.319 70.9751L158.318 67.2116C161.62 62.4184 166.52 60.0395 172.982 60.0395ZM164.177 86.3844C164.177 88.1597 164.922 89.6509 166.449 90.8226C167.94 91.9943 169.715 92.5979 171.739 92.5979C174.615 92.5979 177.172 91.5327 179.408 89.4024C181.645 87.2721 182.781 84.7867 182.781 81.9108C180.651 80.242 177.704 79.3899 173.905 79.3899C171.136 79.3899 168.828 80.0645 166.982 81.3782C165.1 82.7629 164.177 84.4317 164.177 86.3844Z" fill="#3C4043"/>
<path d="M226.346 61.2112L203.623 113.475H196.593L205.043 95.1898L190.06 61.2112H197.481L208.274 87.2721H208.416L218.926 61.2112H226.346Z" fill="#3C4043"/>
<path d="M100.207 71.7208C100.207 69.4981 100.008 67.3713 99.6386 65.3262H71.0639V77.043L87.5206 77.0466C86.8531 80.945 84.705 84.2683 81.4137 86.4839V94.0856H91.2096C96.9295 88.7917 100.207 80.9663 100.207 71.7208Z" fill="#4285F4"/>
<path d="M81.4172 86.4839C78.6904 88.323 75.179 89.3989 71.071 89.3989C63.1356 89.3989 56.4037 84.0517 53.9929 76.8442H43.8881V84.6837C48.8944 94.6181 59.1838 101.435 71.071 101.435C79.2869 101.435 86.1892 98.7332 91.2132 94.082L81.4172 86.4839Z" fill="#34A853"/>
<path d="M53.0414 71.0284C53.0414 69.0046 53.3787 67.0483 53.9929 65.2091V57.3695H43.8881C41.8182 61.4775 40.6536 66.1145 40.6536 71.0284C40.6536 75.9423 41.8217 80.5793 43.8881 84.6873L53.9929 76.8477C53.3787 75.0085 53.0414 73.0522 53.0414 71.0284Z" fill="#FABB05"/>
<path d="M71.071 52.6544C75.5553 52.6544 79.571 54.1989 82.7416 57.2168L91.4226 48.5429C86.1501 43.6325 79.2763 40.6181 71.071 40.6181C59.1874 40.6181 48.8944 47.4351 43.8881 57.3695L53.9929 65.2091C56.4037 58.0015 63.1356 52.6544 71.071 52.6544Z" fill="#E94235"/>
</svg>
