<svg width="321" height="81" viewBox="0 0 321 81" fill="none" xmlns="http://www.w3.org/2000/svg">
<path fill-rule="evenodd" clip-rule="evenodd" d="M29.6262 56.4196C17.0557 56.4196 7.34753 46.5491 7.34753 33.654C7.34753 21.0836 17.4688 11.1246 30.3491 11.1246C37.9327 11.1246 44.2622 13.6475 47.9655 16.259V20.6852L47.6556 20.9213C42.6835 17.4393 37.2983 15.7869 30.5114 15.7869C20.0803 15.7869 12.4967 23.0606 12.4967 33.6393C12.4967 44.2179 19.5344 51.7425 29.6409 51.7425C38.8032 51.7425 43.0671 46.2835 42.9934 41.6212H30.1868V36.8852H47.8032V39.9688C47.8032 48.5851 42.1966 56.4048 29.6262 56.4048V56.4196ZM29.6262 63.4572C12.6442 63.4572 0 50.7392 0 33.6688C0 16.5983 13.1901 4.11639 30.3491 4.11639C37.5344 4.11639 43.4655 5.76884 47.9655 9.01474V13.677C43.3032 10.4311 37.136 8.77867 30.3491 8.77867C16.0377 8.76392 4.97212 19.3573 4.97212 33.6688C4.97212 47.9802 15.477 58.795 29.6262 58.795C42.5065 58.795 50.1786 51.1376 50.1786 38.8032V34.5393H30.1868V29.9508H54.6048V38.0065C54.6048 53.7343 45.1179 63.4572 29.6262 63.4572ZM64.6376 62.1146V37.6966C64.6376 29.4786 70.2441 23.7098 78.2261 23.7098C80.6015 23.7098 83.0507 24.418 84.7031 25.5245C83.9211 26.7049 83.2867 27.9737 82.6523 29.4786C81.1474 28.8442 79.731 28.4458 78.1523 28.4458C72.8556 28.4458 69.2999 32.3114 69.2999 37.7704V62.1146H64.6376ZM62.4245 62.1146H57.7622V37.7852C57.7622 25.377 65.6704 16.9967 78.0638 16.9967C82.3277 16.9967 86.2818 18.177 89.2031 20.2426C87.9342 21.2754 86.99 22.3819 86.1195 23.4C84.7031 22.5295 81.4572 21.5114 78.2998 21.5114C68.9015 21.5114 62.4097 28.0622 62.4097 37.7114V62.1294L62.4245 62.1146ZM130.869 41.6507V34.7753C131.105 34.4508 131.341 34.1114 131.577 33.7868C137.257 25.8491 143.867 16.5983 156.305 16.5983C168.742 16.5983 178.746 26.7934 178.746 39.9835C178.746 53.1737 169.347 63.4572 156.541 63.4572C146.582 63.4572 138.924 57.5261 136.313 50.0163L139.633 45.5163C141.285 53.1737 148.396 58.795 156.614 58.795C166.736 58.795 174.083 50.8868 174.083 39.9835C174.083 29.0803 166.573 21.3344 156.305 21.3344C148.721 21.3344 143.823 25.1262 138.201 32.0016C136.298 34.3032 134.292 37.018 132.005 40.0868C131.621 40.5884 131.237 41.1048 130.854 41.636L130.869 41.6507ZM145.165 38.2425H145.328V38.9507C145.328 45.7524 149.99 51.831 156.629 51.831C163.269 51.831 167.134 46.5343 167.134 39.895C167.134 33.2557 162.87 28.2836 156.231 28.2836C150.255 28.2836 147.098 32.1196 142.731 37.4458C142.244 38.036 141.742 38.6557 141.211 39.2753C138.128 42.9934 133.937 48.3638 130.854 52.9524V45.3688C133.259 41.9901 135.501 39.113 137.213 36.8999C137.862 36.0589 138.437 35.3212 138.91 34.7016C142.465 29.9655 147.29 23.5622 156.29 23.5622C165.29 23.5622 171.855 30.5114 171.855 39.9245C171.855 49.3376 165.305 56.5228 156.6 56.5228C147.895 56.5228 142.141 48.9392 141.506 43.2442L145.136 38.2721L145.165 38.2425ZM140.665 19.6819V0H145.328V16.5983C143.882 17.1442 142.495 18.2508 141.211 19.2541C141.019 19.4016 140.842 19.5491 140.665 19.6819ZM138.364 21.4082C136.711 23.0606 135.118 25.0377 133.701 26.8672V0H138.364V21.4082ZM114.669 49.3081L114.742 49.3819V54.0442C113.164 55.1507 109.682 56.4196 106.288 56.4933C97.2736 56.7294 90.4867 49.854 90.4867 40.0573C90.4867 30.2606 97.2883 23.5475 106.288 23.5475C115.288 23.5475 121.692 30.2606 121.692 39.4376V62.1146H117.029V39.6737C117.029 33.1081 112.913 28.2098 106.2 28.2098C99.9588 28.2098 95.2965 33.0344 95.2965 40.0573C95.2965 47.0802 100.033 51.831 106.362 51.831C109.446 51.831 112.692 50.8868 114.654 49.3081H114.669ZM106.288 63.4572C93.1719 63.4572 83.449 53.7343 83.449 39.9835C83.449 26.7049 93.1719 16.5098 106.288 16.5098C119.405 16.5098 128.655 26.1442 128.655 39.2606V62.0999H123.919V39.3343C123.919 28.8295 116.572 21.3196 106.303 21.3196C96.0342 21.3196 88.2883 28.7409 88.2883 39.9688C88.2883 51.1966 95.5621 58.7802 106.303 58.7802C109.859 58.7802 113.341 57.4376 114.757 56.2573V60.9196C112.618 62.572 109.224 63.4425 106.303 63.4425L106.288 63.4572ZM205.303 44.1294C218.272 44.1294 226.652 36.295 226.652 24.2704C226.652 12.2459 218.906 5.13442 205.303 5.13442H186.477V62.0851H195.727V44.1294H205.303ZM205.775 13.677C212.813 13.677 217.327 17.8672 217.327 24.2704C217.327 31.1458 212.827 35.5868 205.775 35.5868H195.727V13.677H205.775ZM274.426 39.7032C274.426 24.9196 265.086 17.0114 252.044 17.0114C238.986 17.0114 229.972 26.336 229.972 40.2639C229.972 54.1917 238.839 63.4425 251.881 63.2802C257.813 63.2064 263.109 59.7245 265.175 54.6638H265.573V62.0999H274.44V39.718L274.426 39.7032ZM265.337 39.8655C265.411 49.0425 259.952 54.5015 252.044 54.5753C244.681 54.6491 239.149 48.954 239.149 39.7917C239.149 31.4114 244.77 25.6278 252.118 25.6278C259.465 25.6278 265.249 30.3786 265.322 39.8655H265.337ZM311.931 59.6359C312.093 67.3081 308.212 72.0589 299.508 72.0589C293.576 72.0589 288.826 69.9195 284.872 67.3966L284.635 67.5589V76.1753C288.427 78.713 293.414 80.69 299.655 80.69C312.388 80.69 320.532 74.0507 320.532 60.2851V18.4278H311.429V42.713C311.429 50.695 307.313 54.5753 300.599 54.5753C294.595 54.5753 290.404 51.654 290.404 43.5835V18.4278H281.316V44.3655C281.316 56.6261 288.117 63.2654 299.345 63.2654C304.804 63.2654 309.393 60.5802 311.444 56.1392H311.842L311.916 59.6212L311.931 59.6359Z" fill="#00B14F"/>
</svg>
