<svg width="122" height="21" viewBox="0 0 122 21" fill="none" xmlns="http://www.w3.org/2000/svg">
<path d="M19.7012 0.574219H20.6855V20.2617H19.7012V0.574219ZM0 0.574219H0.984375V20.2617H0V0.574219ZM17.7324 0.574219H18.7168V20.2617H17.7324V0.574219ZM15.7637 0.574219H16.748V20.2617H15.7637V0.574219ZM13.7949 0.574219H14.7793V20.2617H13.7949V12.3867H6.89062V20.2617H5.90625V0.574219H6.89062V7.46484H13.7949V0.574219ZM3.9375 0.574219H4.92188V20.2617H3.9375V0.574219ZM1.96875 0.574219H2.95312V20.2617H1.96875V0.574219ZM13.7949 11.4023V10.418H6.89062V11.4023H13.7949ZM13.7949 9.43359V8.44922H6.89062V9.43359H13.7949ZM37.2422 10.5547C37.2422 9.38802 36.8822 8.48568 36.1621 7.84766C35.4421 7.20964 34.4896 6.89062 33.3047 6.89062C32.3021 6.89062 31.4408 7.23698 30.7207 7.92969C30.0007 8.6224 29.6406 9.45182 29.6406 10.418C29.6406 10.9648 29.7135 11.457 29.8594 11.8945C30.0052 12.3229 30.2012 12.6829 30.4473 12.9746C30.7025 13.2572 31.0033 13.4941 31.3496 13.6855C31.696 13.8678 32.056 14 32.4297 14.082C32.8125 14.1641 33.2181 14.2051 33.6465 14.2051C34.6855 14.2051 35.6335 13.9499 36.4902 13.4395V14.4238C35.6061 14.8887 34.6536 15.1211 33.6328 15.1211C32.9766 15.1211 32.3568 15.0345 31.7734 14.8613C31.1992 14.679 30.6751 14.4102 30.2012 14.0547C29.7272 13.6901 29.349 13.1979 29.0664 12.5781C28.793 11.9492 28.6562 11.2292 28.6562 10.418C28.6562 9.16016 29.0983 8.09375 29.9824 7.21875C30.8665 6.34375 31.974 5.90625 33.3047 5.90625C34.7721 5.90625 35.957 6.32096 36.8594 7.15039C37.7708 7.9707 38.2266 9.10547 38.2266 10.5547V20.2617H37.2422V10.5547ZM40.1953 10.5547V20.2617H39.2109V10.5547C39.2109 8.83203 38.6595 7.46484 37.5566 6.45312C36.4538 5.43229 35.0365 4.92188 33.3047 4.92188C31.7005 4.92188 30.3607 5.45508 29.2852 6.52148C28.2096 7.58789 27.6719 8.88672 27.6719 10.418C27.6719 11.3477 27.8314 12.1816 28.1504 12.9199C28.4785 13.6582 28.9206 14.2507 29.4766 14.6973C30.0326 15.1439 30.6523 15.4857 31.3359 15.7227C32.0286 15.9505 32.7578 16.0645 33.5234 16.0645C34.5625 16.0645 35.5514 15.8229 36.4902 15.3398V16.3789C35.5059 16.7891 34.5124 16.9941 33.5098 16.9941C32.6074 16.9941 31.7507 16.8574 30.9395 16.584C30.1283 16.3014 29.4036 15.8958 28.7656 15.3672C28.1276 14.8294 27.6217 14.1367 27.248 13.2891C26.8743 12.4323 26.6875 11.4753 26.6875 10.418C26.6875 8.6224 27.321 7.0957 28.5879 5.83789C29.8639 4.57096 31.4362 3.9375 33.3047 3.9375C34.6172 3.9375 35.793 4.20638 36.832 4.74414C37.8711 5.27279 38.6914 6.04297 39.293 7.05469C39.8945 8.06641 40.1953 9.23307 40.1953 10.5547ZM42.1641 10.5547V20.2617H41.1797V10.5547C41.1797 9.05078 40.8333 7.72005 40.1406 6.5625C39.457 5.39583 38.5182 4.5026 37.3242 3.88281C36.1302 3.26302 34.7904 2.95312 33.3047 2.95312C31.8919 2.95312 30.6022 3.29036 29.4355 3.96484C28.2689 4.63021 27.3529 5.53255 26.6875 6.67188C26.0312 7.8112 25.7031 9.0599 25.7031 10.418C25.7031 11.5846 25.9173 12.651 26.3457 13.6172C26.7741 14.5742 27.3483 15.3626 28.0684 15.9824C28.7975 16.6022 29.6224 17.0853 30.543 17.4316C31.4727 17.7689 32.4434 17.9375 33.4551 17.9375C34.485 17.9375 35.4967 17.7233 36.4902 17.2949V18.293C35.4512 18.6849 34.4303 18.8809 33.4277 18.8809C31.8509 18.8809 30.4017 18.5254 29.0801 17.8145C27.7585 17.1035 26.7012 16.0964 25.9082 14.793C25.1152 13.4896 24.7188 12.0312 24.7188 10.418C24.7188 9.26953 24.9375 8.17578 25.375 7.13672C25.8216 6.09766 26.4232 5.19987 27.1797 4.44336C27.9362 3.68685 28.8477 3.08529 29.9141 2.63867C30.9805 2.19206 32.1107 1.96875 33.3047 1.96875C34.9727 1.96875 36.4766 2.32422 37.8164 3.03516C39.1654 3.74609 40.2272 4.75781 41.002 6.07031C41.7767 7.38281 42.1641 8.8776 42.1641 10.5547ZM44.1328 10.5547V20.2617H43.1484V10.5547C43.1484 8.69531 42.7155 7.03646 41.8496 5.57812C40.9837 4.11068 39.8034 2.98047 38.3086 2.1875C36.8138 1.38542 35.1458 0.984375 33.3047 0.984375C31.5365 0.984375 29.9186 1.4082 28.4512 2.25586C26.9837 3.10352 25.8307 4.25195 24.9922 5.70117C24.1536 7.14128 23.7344 8.71354 23.7344 10.418C23.7344 11.5391 23.9121 12.6055 24.2676 13.6172C24.6322 14.6198 25.1243 15.4993 25.7441 16.2559C26.373 17.0033 27.0931 17.6504 27.9043 18.1973C28.7246 18.7441 29.6042 19.1589 30.543 19.4414C31.4909 19.724 32.4525 19.8652 33.4277 19.8652C34.5033 19.8652 35.5241 19.6602 36.4902 19.25V20.2617C35.4785 20.6172 34.4395 20.7949 33.373 20.7949C32.2702 20.7949 31.1947 20.64 30.1465 20.3301C29.1074 20.0202 28.1413 19.5645 27.248 18.9629C26.3639 18.3522 25.5846 17.6367 24.9102 16.8164C24.2357 15.987 23.707 15.0208 23.3242 13.918C22.9414 12.8151 22.75 11.6484 22.75 10.418C22.75 9.00521 23.0143 7.66081 23.543 6.38477C24.0807 5.09961 24.8099 3.99219 25.7305 3.0625C26.6602 2.1237 27.7812 1.38086 29.0938 0.833984C30.4154 0.277995 31.819 0 33.3047 0C34.8177 0 36.2396 0.255208 37.5703 0.765625C38.901 1.27604 40.0495 1.98698 41.0156 2.89844C41.9818 3.80078 42.7428 4.91276 43.2988 6.23438C43.8548 7.55599 44.1328 8.99609 44.1328 10.5547ZM65.9805 13.9316C66.1719 13.9408 66.4043 13.9453 66.6777 13.9453C66.9512 13.9453 67.179 13.9408 67.3613 13.9316C67.5527 13.9134 67.7487 13.877 67.9492 13.8223C68.1497 13.7585 68.3092 13.6764 68.4277 13.5762C68.5462 13.4759 68.6419 13.3346 68.7148 13.1523C68.7969 12.9609 68.8379 12.7331 68.8379 12.4688V0.574219H69.8223V12.4688C69.8223 14.1094 68.7741 14.9297 66.6777 14.9297C65.6204 14.9297 64.8366 14.7292 64.3262 14.3281C64.2533 14.6836 64.1667 14.998 64.0664 15.2715C64.7591 15.6999 65.6296 15.9141 66.6777 15.9141C67.8991 15.9141 68.8926 15.6315 69.6582 15.0664C70.4238 14.4922 70.8066 13.6263 70.8066 12.4688V0.574219H71.791V12.4688C71.791 13.8997 71.3079 14.998 70.3418 15.7637C69.3848 16.5202 68.1634 16.8984 66.6777 16.8984C65.5202 16.8984 64.5267 16.6615 63.6973 16.1875C63.5605 16.4792 63.401 16.7572 63.2188 17.0215C64.2122 17.5957 65.3652 17.8828 66.6777 17.8828C67.5254 17.8828 68.3138 17.7643 69.043 17.5273C69.7812 17.2904 70.4284 16.9486 70.9844 16.502C71.5404 16.0553 71.9779 15.4857 72.2969 14.793C72.6159 14.1003 72.7754 13.3255 72.7754 12.4688V0.574219H73.7598V12.4688C73.7598 13.7812 73.4362 14.9297 72.7891 15.9141C72.151 16.8984 71.2988 17.6367 70.2324 18.1289C69.1751 18.6211 67.9902 18.8672 66.6777 18.8672C65.1465 18.8672 63.7975 18.5163 62.6309 17.8145C62.3757 18.1061 62.1432 18.3431 61.9336 18.5254C63.2917 19.4095 64.873 19.8516 66.6777 19.8516C68.1634 19.8516 69.5124 19.5599 70.7246 18.9766C71.9368 18.3932 72.9076 17.5365 73.6367 16.4062C74.375 15.2669 74.7441 13.9544 74.7441 12.4688V0.574219H75.7285V12.4688C75.7285 13.7266 75.487 14.8841 75.0039 15.9414C74.5299 16.9987 73.8828 17.8828 73.0625 18.5938C72.2513 19.3047 71.2943 19.8561 70.1914 20.248C69.0885 20.64 67.9173 20.8359 66.6777 20.8359C64.5085 20.8359 62.6536 20.2799 61.1133 19.168C59.5182 20.2799 57.6361 20.8359 55.4668 20.8359C54.2272 20.8359 53.056 20.64 51.9531 20.248C50.8503 19.8561 49.8887 19.3047 49.0684 18.5938C48.2572 17.8828 47.61 16.9987 47.127 15.9414C46.653 14.8841 46.416 13.7266 46.416 12.4688V0.574219H47.4004V12.4688C47.4004 13.5898 47.61 14.6198 48.0293 15.5586C48.4577 16.4974 49.0365 17.2767 49.7656 17.8965C50.4948 18.5163 51.347 18.9993 52.3223 19.3457C53.3066 19.6829 54.3548 19.8516 55.4668 19.8516C56.916 19.8516 58.2604 19.5234 59.5 18.8672C60.7396 18.2018 61.7194 17.304 62.4395 16.1738C63.1686 15.0345 63.5332 13.7995 63.5332 12.4688V0.574219H64.5176V12.4688C64.5176 12.7331 64.554 12.9609 64.627 13.1523C64.709 13.3346 64.8092 13.4759 64.9277 13.5762C65.0462 13.6764 65.2057 13.7585 65.4062 13.8223C65.6068 13.877 65.7982 13.9134 65.9805 13.9316ZM58.6113 0.574219V12.4688C58.6113 14.1094 57.5632 14.9297 55.4668 14.9297C53.3704 14.9297 52.3223 14.1094 52.3223 12.4688V0.574219H53.3066V12.4688C53.3066 12.7331 53.3431 12.9609 53.416 13.1523C53.498 13.3346 53.5983 13.4759 53.7168 13.5762C53.8353 13.6764 53.9948 13.7585 54.1953 13.8223C54.3958 13.877 54.5872 13.9134 54.7695 13.9316C54.9609 13.9408 55.1934 13.9453 55.4668 13.9453C55.7402 13.9453 55.9681 13.9408 56.1504 13.9316C56.3418 13.9134 56.5378 13.877 56.7383 13.8223C56.9388 13.7585 57.0983 13.6764 57.2168 13.5762C57.3353 13.4759 57.431 13.3346 57.5039 13.1523C57.5859 12.9609 57.627 12.7331 57.627 12.4688V0.574219H58.6113ZM60.5801 0.574219V12.4688C60.5801 13.8997 60.097 14.998 59.1309 15.7637C58.1738 16.5202 56.9525 16.8984 55.4668 16.8984C53.9811 16.8984 52.7552 16.5202 51.7891 15.7637C50.832 14.998 50.3535 13.8997 50.3535 12.4688V0.574219H51.3379V12.4688C51.3379 13.6263 51.7207 14.4922 52.4863 15.0664C53.252 15.6315 54.2454 15.9141 55.4668 15.9141C56.6882 15.9141 57.6816 15.6315 58.4473 15.0664C59.2129 14.4922 59.5957 13.6263 59.5957 12.4688V0.574219H60.5801ZM62.5488 0.574219V12.4688C62.5488 13.7812 62.2253 14.9297 61.5781 15.9141C60.9401 16.8984 60.0879 17.6367 59.0215 18.1289C57.9642 18.6211 56.7793 18.8672 55.4668 18.8672C54.1543 18.8672 52.9648 18.6211 51.8984 18.1289C50.8411 17.6367 49.9889 16.8984 49.3418 15.9141C48.7038 14.9297 48.3848 13.7812 48.3848 12.4688V0.574219H49.3691V12.4688C49.3691 13.3255 49.5286 14.1003 49.8477 14.793C50.1667 15.4857 50.6042 16.0553 51.1602 16.502C51.7161 16.9486 52.3587 17.2904 53.0879 17.5273C53.8262 17.7643 54.6191 17.8828 55.4668 17.8828C56.3145 17.8828 57.1029 17.7643 57.832 17.5273C58.5703 17.2904 59.2174 16.9486 59.7734 16.502C60.3294 16.0553 60.7669 15.4857 61.0859 14.793C61.4049 14.1003 61.5645 13.3255 61.5645 12.4688V0.574219H62.5488ZM98.8887 0.574219L93.4062 10.5L98.8066 20.2617H97.7129L92.3125 10.5L97.7949 0.574219H98.8887ZM96.6875 0.574219L91.2051 10.5L96.6055 20.2617H95.5117L90.1113 10.5L95.5938 0.574219H96.6875ZM94.4863 0.574219L89.0039 10.5L94.4043 20.2617H93.3105L87.9102 10.5L93.3926 0.574219H94.4863ZM92.2852 0.574219L86.7891 10.5L92.2031 20.2617H91.1094L85.6953 10.5L91.1914 0.574219H92.2852ZM84.1094 0.574219V20.2617H85.0938V0.574219H84.1094ZM82.1406 0.574219V20.2617H83.125V0.574219H82.1406ZM80.1719 0.574219V20.2617H81.1562V0.574219H80.1719ZM78.2031 0.574219V20.2617H79.1875V0.574219H78.2031ZM108.09 10.8555H114.023C114.807 10.8555 115.473 10.6094 116.02 10.1172C116.566 9.625 116.84 8.93229 116.84 8.03906C116.84 7.38281 116.553 6.79492 115.979 6.27539C115.413 5.75586 114.762 5.49609 114.023 5.49609H105.574V20.2617H104.59V4.51172H114.023C115.035 4.51172 115.919 4.86719 116.676 5.57812C117.441 6.28906 117.824 7.10938 117.824 8.03906C117.824 9.19661 117.455 10.1217 116.717 10.8145C115.979 11.498 115.081 11.8398 114.023 11.8398H108.09V10.8555ZM108.09 12.8242H114.023C115.336 12.8242 116.462 12.3776 117.4 11.4844C118.339 10.5911 118.809 9.44271 118.809 8.03906C118.809 6.84505 118.33 5.79688 117.373 4.89453C116.416 3.98307 115.299 3.52734 114.023 3.52734H103.605V20.2617H102.621V2.54297H114.023C115.573 2.54297 116.922 3.0944 118.07 4.19727C119.219 5.29102 119.793 6.57161 119.793 8.03906C119.793 9.67969 119.223 11.0514 118.084 12.1543C116.954 13.2572 115.6 13.8086 114.023 13.8086H108.09V12.8242ZM108.09 14.793H114.023C115.236 14.793 116.357 14.5013 117.387 13.918C118.417 13.3346 119.237 12.5234 119.848 11.4844C120.467 10.4453 120.777 9.29688 120.777 8.03906C120.777 6.89974 120.472 5.83333 119.861 4.83984C119.251 3.83724 118.421 3.03971 117.373 2.44727C116.334 1.85482 115.217 1.55859 114.023 1.55859H101.637V20.2617H100.652V0.574219H114.023C115.053 0.574219 116.042 0.779297 116.99 1.18945C117.947 1.59049 118.772 2.12826 119.465 2.80273C120.158 3.4681 120.714 4.26107 121.133 5.18164C121.552 6.10221 121.762 7.05469 121.762 8.03906C121.762 9.63411 121.397 11.0286 120.668 12.2227C119.939 13.4076 118.959 14.3099 117.729 14.9297L119.793 20.2617H118.74L116.785 15.3262C116.539 15.4082 116.252 15.4902 115.924 15.5723L117.77 20.2617H116.717L114.912 15.7363C114.63 15.7637 114.333 15.7773 114.023 15.7773L115.76 20.2617H114.721L112.998 15.7773H112.109L113.764 20.2617H112.725L111.057 15.7773H108.09V14.793ZM107.543 20.2617H106.559V6.48047H114.023C114.534 6.48047 114.967 6.63542 115.322 6.94531C115.678 7.24609 115.855 7.61068 115.855 8.03906C115.855 9.26042 115.245 9.87109 114.023 9.87109H108.09V8.88672H114.023C114.589 8.88672 114.871 8.60417 114.871 8.03906C114.871 7.88411 114.785 7.75195 114.611 7.64258C114.447 7.52409 114.251 7.46484 114.023 7.46484H107.543V20.2617Z" fill="#913B9F"/>
</svg>
