<svg width="158" height="24" viewBox="0 0 158 24" fill="none" xmlns="http://www.w3.org/2000/svg">
<path d="M19.7012 2.95312H20.6855V22.6406H19.7012V2.95312ZM0 2.95312H0.984375V22.6406H0V2.95312ZM17.7324 2.95312H18.7168V22.6406H17.7324V2.95312ZM15.7637 2.95312H16.748V22.6406H15.7637V2.95312ZM13.7949 2.95312H14.7793V22.6406H13.7949V14.7656H6.89062V22.6406H5.90625V2.95312H6.89062V9.84375H13.7949V2.95312ZM3.9375 2.95312H4.92188V22.6406H3.9375V2.95312ZM1.96875 2.95312H2.95312V22.6406H1.96875V2.95312ZM13.7949 13.7812V12.7969H6.89062V13.7812H13.7949ZM13.7949 11.8125V10.8281H6.89062V11.8125H13.7949ZM37.2422 12.9336C37.2422 11.7669 36.8822 10.8646 36.1621 10.2266C35.4421 9.58854 34.4896 9.26953 33.3047 9.26953C32.3021 9.26953 31.4408 9.61589 30.7207 10.3086C30.0007 11.0013 29.6406 11.8307 29.6406 12.7969C29.6406 13.3438 29.7135 13.8359 29.8594 14.2734C30.0052 14.7018 30.2012 15.0618 30.4473 15.3535C30.7025 15.6361 31.0033 15.873 31.3496 16.0645C31.696 16.2467 32.056 16.3789 32.4297 16.4609C32.8125 16.543 33.2181 16.584 33.6465 16.584C34.6855 16.584 35.6335 16.3288 36.4902 15.8184V16.8027C35.6061 17.2676 34.6536 17.5 33.6328 17.5C32.9766 17.5 32.3568 17.4134 31.7734 17.2402C31.1992 17.0579 30.6751 16.7891 30.2012 16.4336C29.7272 16.069 29.349 15.5768 29.0664 14.957C28.793 14.3281 28.6562 13.6081 28.6562 12.7969C28.6562 11.5391 29.0983 10.4727 29.9824 9.59766C30.8665 8.72266 31.974 8.28516 33.3047 8.28516C34.7721 8.28516 35.957 8.69987 36.8594 9.5293C37.7708 10.3496 38.2266 11.4844 38.2266 12.9336V22.6406H37.2422V12.9336ZM40.1953 12.9336V22.6406H39.2109V12.9336C39.2109 11.2109 38.6595 9.84375 37.5566 8.83203C36.4538 7.8112 35.0365 7.30078 33.3047 7.30078C31.7005 7.30078 30.3607 7.83398 29.2852 8.90039C28.2096 9.9668 27.6719 11.2656 27.6719 12.7969C27.6719 13.7266 27.8314 14.5605 28.1504 15.2988C28.4785 16.0371 28.9206 16.6296 29.4766 17.0762C30.0326 17.5228 30.6523 17.8646 31.3359 18.1016C32.0286 18.3294 32.7578 18.4434 33.5234 18.4434C34.5625 18.4434 35.5514 18.2018 36.4902 17.7188V18.7578C35.5059 19.168 34.5124 19.373 33.5098 19.373C32.6074 19.373 31.7507 19.2363 30.9395 18.9629C30.1283 18.6803 29.4036 18.2747 28.7656 17.7461C28.1276 17.2083 27.6217 16.5156 27.248 15.668C26.8743 14.8112 26.6875 13.8542 26.6875 12.7969C26.6875 11.0013 27.321 9.47461 28.5879 8.2168C29.8639 6.94987 31.4362 6.31641 33.3047 6.31641C34.6172 6.31641 35.793 6.58529 36.832 7.12305C37.8711 7.65169 38.6914 8.42188 39.293 9.43359C39.8945 10.4453 40.1953 11.612 40.1953 12.9336ZM42.1641 12.9336V22.6406H41.1797V12.9336C41.1797 11.4297 40.8333 10.099 40.1406 8.94141C39.457 7.77474 38.5182 6.88151 37.3242 6.26172C36.1302 5.64193 34.7904 5.33203 33.3047 5.33203C31.8919 5.33203 30.6022 5.66927 29.4355 6.34375C28.2689 7.00911 27.3529 7.91146 26.6875 9.05078C26.0312 10.1901 25.7031 11.4388 25.7031 12.7969C25.7031 13.9635 25.9173 15.0299 26.3457 15.9961C26.7741 16.9531 27.3483 17.7415 28.0684 18.3613C28.7975 18.9811 29.6224 19.4642 30.543 19.8105C31.4727 20.1478 32.4434 20.3164 33.4551 20.3164C34.485 20.3164 35.4967 20.1022 36.4902 19.6738V20.6719C35.4512 21.0638 34.4303 21.2598 33.4277 21.2598C31.8509 21.2598 30.4017 20.9043 29.0801 20.1934C27.7585 19.4824 26.7012 18.4753 25.9082 17.1719C25.1152 15.8685 24.7188 14.4102 24.7188 12.7969C24.7188 11.6484 24.9375 10.5547 25.375 9.51562C25.8216 8.47656 26.4232 7.57878 27.1797 6.82227C27.9362 6.06576 28.8477 5.46419 29.9141 5.01758C30.9805 4.57096 32.1107 4.34766 33.3047 4.34766C34.9727 4.34766 36.4766 4.70312 37.8164 5.41406C39.1654 6.125 40.2272 7.13672 41.002 8.44922C41.7767 9.76172 42.1641 11.2565 42.1641 12.9336ZM44.1328 12.9336V22.6406H43.1484V12.9336C43.1484 11.0742 42.7155 9.41536 41.8496 7.95703C40.9837 6.48958 39.8034 5.35938 38.3086 4.56641C36.8138 3.76432 35.1458 3.36328 33.3047 3.36328C31.5365 3.36328 29.9186 3.78711 28.4512 4.63477C26.9837 5.48242 25.8307 6.63086 24.9922 8.08008C24.1536 9.52018 23.7344 11.0924 23.7344 12.7969C23.7344 13.918 23.9121 14.9844 24.2676 15.9961C24.6322 16.9987 25.1243 17.8783 25.7441 18.6348C26.373 19.3822 27.0931 20.0293 27.9043 20.5762C28.7246 21.123 29.6042 21.5378 30.543 21.8203C31.4909 22.1029 32.4525 22.2441 33.4277 22.2441C34.5033 22.2441 35.5241 22.0391 36.4902 21.6289V22.6406C35.4785 22.9961 34.4395 23.1738 33.373 23.1738C32.2702 23.1738 31.1947 23.0189 30.1465 22.709C29.1074 22.3991 28.1413 21.9434 27.248 21.3418C26.3639 20.7311 25.5846 20.0156 24.9102 19.1953C24.2357 18.3659 23.707 17.3997 23.3242 16.2969C22.9414 15.194 22.75 14.0273 22.75 12.7969C22.75 11.3841 23.0143 10.0397 23.543 8.76367C24.0807 7.47852 24.8099 6.37109 25.7305 5.44141C26.6602 4.5026 27.7812 3.75977 29.0938 3.21289C30.4154 2.6569 31.819 2.37891 33.3047 2.37891C34.8177 2.37891 36.2396 2.63411 37.5703 3.14453C38.901 3.65495 40.0495 4.36589 41.0156 5.27734C41.9818 6.17969 42.7428 7.29167 43.2988 8.61328C43.8548 9.9349 44.1328 11.375 44.1328 12.9336ZM65.9805 16.3105C66.1719 16.3197 66.4043 16.3242 66.6777 16.3242C66.9512 16.3242 67.179 16.3197 67.3613 16.3105C67.5527 16.2923 67.7487 16.2559 67.9492 16.2012C68.1497 16.1374 68.3092 16.0553 68.4277 15.9551C68.5462 15.8548 68.6419 15.7135 68.7148 15.5312C68.7969 15.3398 68.8379 15.112 68.8379 14.8477V2.95312H69.8223V14.8477C69.8223 16.4883 68.7741 17.3086 66.6777 17.3086C65.6204 17.3086 64.8366 17.1081 64.3262 16.707C64.2533 17.0625 64.1667 17.377 64.0664 17.6504C64.7591 18.0788 65.6296 18.293 66.6777 18.293C67.8991 18.293 68.8926 18.0104 69.6582 17.4453C70.4238 16.8711 70.8066 16.0052 70.8066 14.8477V2.95312H71.791V14.8477C71.791 16.2786 71.3079 17.377 70.3418 18.1426C69.3848 18.8991 68.1634 19.2773 66.6777 19.2773C65.5202 19.2773 64.5267 19.0404 63.6973 18.5664C63.5605 18.8581 63.401 19.1361 63.2188 19.4004C64.2122 19.9746 65.3652 20.2617 66.6777 20.2617C67.5254 20.2617 68.3138 20.1432 69.043 19.9062C69.7812 19.6693 70.4284 19.3275 70.9844 18.8809C71.5404 18.4342 71.9779 17.8646 72.2969 17.1719C72.6159 16.4792 72.7754 15.7044 72.7754 14.8477V2.95312H73.7598V14.8477C73.7598 16.1602 73.4362 17.3086 72.7891 18.293C72.151 19.2773 71.2988 20.0156 70.2324 20.5078C69.1751 21 67.9902 21.2461 66.6777 21.2461C65.1465 21.2461 63.7975 20.8952 62.6309 20.1934C62.3757 20.485 62.1432 20.722 61.9336 20.9043C63.2917 21.7884 64.873 22.2305 66.6777 22.2305C68.1634 22.2305 69.5124 21.9388 70.7246 21.3555C71.9368 20.7721 72.9076 19.9154 73.6367 18.7852C74.375 17.6458 74.7441 16.3333 74.7441 14.8477V2.95312H75.7285V14.8477C75.7285 16.1055 75.487 17.263 75.0039 18.3203C74.5299 19.3776 73.8828 20.2617 73.0625 20.9727C72.2513 21.6836 71.2943 22.235 70.1914 22.627C69.0885 23.0189 67.9173 23.2148 66.6777 23.2148C64.5085 23.2148 62.6536 22.6589 61.1133 21.5469C59.5182 22.6589 57.6361 23.2148 55.4668 23.2148C54.2272 23.2148 53.056 23.0189 51.9531 22.627C50.8503 22.235 49.8887 21.6836 49.0684 20.9727C48.2572 20.2617 47.61 19.3776 47.127 18.3203C46.653 17.263 46.416 16.1055 46.416 14.8477V2.95312H47.4004V14.8477C47.4004 15.9688 47.61 16.9987 48.0293 17.9375C48.4577 18.8763 49.0365 19.6556 49.7656 20.2754C50.4948 20.8952 51.347 21.3783 52.3223 21.7246C53.3066 22.0618 54.3548 22.2305 55.4668 22.2305C56.916 22.2305 58.2604 21.9023 59.5 21.2461C60.7396 20.5807 61.7194 19.6829 62.4395 18.5527C63.1686 17.4134 63.5332 16.1784 63.5332 14.8477V2.95312H64.5176V14.8477C64.5176 15.112 64.554 15.3398 64.627 15.5312C64.709 15.7135 64.8092 15.8548 64.9277 15.9551C65.0462 16.0553 65.2057 16.1374 65.4062 16.2012C65.6068 16.2559 65.7982 16.2923 65.9805 16.3105ZM58.6113 2.95312V14.8477C58.6113 16.4883 57.5632 17.3086 55.4668 17.3086C53.3704 17.3086 52.3223 16.4883 52.3223 14.8477V2.95312H53.3066V14.8477C53.3066 15.112 53.3431 15.3398 53.416 15.5312C53.498 15.7135 53.5983 15.8548 53.7168 15.9551C53.8353 16.0553 53.9948 16.1374 54.1953 16.2012C54.3958 16.2559 54.5872 16.2923 54.7695 16.3105C54.9609 16.3197 55.1934 16.3242 55.4668 16.3242C55.7402 16.3242 55.9681 16.3197 56.1504 16.3105C56.3418 16.2923 56.5378 16.2559 56.7383 16.2012C56.9388 16.1374 57.0983 16.0553 57.2168 15.9551C57.3353 15.8548 57.431 15.7135 57.5039 15.5312C57.5859 15.3398 57.627 15.112 57.627 14.8477V2.95312H58.6113ZM60.5801 2.95312V14.8477C60.5801 16.2786 60.097 17.377 59.1309 18.1426C58.1738 18.8991 56.9525 19.2773 55.4668 19.2773C53.9811 19.2773 52.7552 18.8991 51.7891 18.1426C50.832 17.377 50.3535 16.2786 50.3535 14.8477V2.95312H51.3379V14.8477C51.3379 16.0052 51.7207 16.8711 52.4863 17.4453C53.252 18.0104 54.2454 18.293 55.4668 18.293C56.6882 18.293 57.6816 18.0104 58.4473 17.4453C59.2129 16.8711 59.5957 16.0052 59.5957 14.8477V2.95312H60.5801ZM62.5488 2.95312V14.8477C62.5488 16.1602 62.2253 17.3086 61.5781 18.293C60.9401 19.2773 60.0879 20.0156 59.0215 20.5078C57.9642 21 56.7793 21.2461 55.4668 21.2461C54.1543 21.2461 52.9648 21 51.8984 20.5078C50.8411 20.0156 49.9889 19.2773 49.3418 18.293C48.7038 17.3086 48.3848 16.1602 48.3848 14.8477V2.95312H49.3691V14.8477C49.3691 15.7044 49.5286 16.4792 49.8477 17.1719C50.1667 17.8646 50.6042 18.4342 51.1602 18.8809C51.7161 19.3275 52.3587 19.6693 53.0879 19.9062C53.8262 20.1432 54.6191 20.2617 55.4668 20.2617C56.3145 20.2617 57.1029 20.1432 57.832 19.9062C58.5703 19.6693 59.2174 19.3275 59.7734 18.8809C60.3294 18.4342 60.7669 17.8646 61.0859 17.1719C61.4049 16.4792 61.5645 15.7044 61.5645 14.8477V2.95312H62.5488ZM98.8887 2.95312L93.4062 12.8789L98.8066 22.6406H97.7129L92.3125 12.8789L97.7949 2.95312H98.8887ZM96.6875 2.95312L91.2051 12.8789L96.6055 22.6406H95.5117L90.1113 12.8789L95.5938 2.95312H96.6875ZM94.4863 2.95312L89.0039 12.8789L94.4043 22.6406H93.3105L87.9102 12.8789L93.3926 2.95312H94.4863ZM92.2852 2.95312L86.7891 12.8789L92.2031 22.6406H91.1094L85.6953 12.8789L91.1914 2.95312H92.2852ZM84.1094 2.95312V22.6406H85.0938V2.95312H84.1094ZM82.1406 2.95312V22.6406H83.125V2.95312H82.1406ZM80.1719 2.95312V22.6406H81.1562V2.95312H80.1719ZM78.2031 2.95312V22.6406H79.1875V2.95312H78.2031ZM108.09 13.2344H114.023C114.807 13.2344 115.473 12.9883 116.02 12.4961C116.566 12.0039 116.84 11.3112 116.84 10.418C116.84 9.76172 116.553 9.17383 115.979 8.6543C115.413 8.13477 114.762 7.875 114.023 7.875H105.574V22.6406H104.59V6.89062H114.023C115.035 6.89062 115.919 7.24609 116.676 7.95703C117.441 8.66797 117.824 9.48828 117.824 10.418C117.824 11.5755 117.455 12.5007 116.717 13.1934C115.979 13.877 115.081 14.2188 114.023 14.2188H108.09V13.2344ZM108.09 15.2031H114.023C115.336 15.2031 116.462 14.7565 117.4 13.8633C118.339 12.9701 118.809 11.8216 118.809 10.418C118.809 9.22396 118.33 8.17578 117.373 7.27344C116.416 6.36198 115.299 5.90625 114.023 5.90625H103.605V22.6406H102.621V4.92188H114.023C115.573 4.92188 116.922 5.47331 118.07 6.57617C119.219 7.66992 119.793 8.95052 119.793 10.418C119.793 12.0586 119.223 13.4303 118.084 14.5332C116.954 15.6361 115.6 16.1875 114.023 16.1875H108.09V15.2031ZM108.09 17.1719H114.023C115.236 17.1719 116.357 16.8802 117.387 16.2969C118.417 15.7135 119.237 14.9023 119.848 13.8633C120.467 12.8242 120.777 11.6758 120.777 10.418C120.777 9.27865 120.472 8.21224 119.861 7.21875C119.251 6.21615 118.421 5.41862 117.373 4.82617C116.334 4.23372 115.217 3.9375 114.023 3.9375H101.637V22.6406H100.652V2.95312H114.023C115.053 2.95312 116.042 3.1582 116.99 3.56836C117.947 3.9694 118.772 4.50716 119.465 5.18164C120.158 5.84701 120.714 6.63997 121.133 7.56055C121.552 8.48112 121.762 9.43359 121.762 10.418C121.762 12.013 121.397 13.4076 120.668 14.6016C119.939 15.7865 118.959 16.6888 117.729 17.3086L119.793 22.6406H118.74L116.785 17.7051C116.539 17.7871 116.252 17.8691 115.924 17.9512L117.77 22.6406H116.717L114.912 18.1152C114.63 18.1426 114.333 18.1562 114.023 18.1562L115.76 22.6406H114.721L112.998 18.1562H112.109L113.764 22.6406H112.725L111.057 18.1562H108.09V17.1719ZM107.543 22.6406H106.559V8.85938H114.023C114.534 8.85938 114.967 9.01432 115.322 9.32422C115.678 9.625 115.855 9.98958 115.855 10.418C115.855 11.6393 115.245 12.25 114.023 12.25H108.09V11.2656H114.023C114.589 11.2656 114.871 10.9831 114.871 10.418C114.871 10.263 114.785 10.1309 114.611 10.0215C114.447 9.90299 114.251 9.84375 114.023 9.84375H107.543V22.6406ZM133.725 15.9961L134.121 15.0117H137.484L137.881 15.9961H133.725ZM132.959 17.9648L133.342 16.9805H138.25L138.674 17.9648H132.959ZM132.193 19.9336L132.576 18.9492H139.029L139.439 19.9336H132.193ZM124.195 22.6406H123.129L132.084 0H133.15L142.092 22.6406H141.039L132.617 1.32617L124.195 22.6406ZM132.74 3.66406L133.301 4.92188L126.301 22.6406H125.248L132.74 3.66406ZM133.834 6.26172L134.354 7.61523L128.434 22.6406H127.367L133.834 6.26172ZM134.873 8.96875L135.393 10.3496L130.539 22.6406H129.486L134.873 8.96875ZM148.449 22.6406H147.383L138.441 0H139.494L148.449 22.6406ZM137.375 0L146.33 22.6406H145.277L136.322 0H137.375ZM135.256 0L144.211 22.6406H143.145L134.203 0H135.256ZM156.078 0H157.062V22.6406H156.078V0ZM154.109 0H155.094V22.6406H154.109V0ZM152.141 0H153.125V22.6406H152.141V0ZM150.172 0H151.156V22.6406H150.172V0Z" fill="#913B9F"/>
</svg>
