<svg width="168" height="25" viewBox="0 0 168 25" fill="none" xmlns="http://www.w3.org/2000/svg">
<path d="M19.7012 3.9375H20.6855V23.625H19.7012V3.9375ZM0 3.9375H0.984375V23.625H0V3.9375ZM17.7324 3.9375H18.7168V23.625H17.7324V3.9375ZM15.7637 3.9375H16.748V23.625H15.7637V3.9375ZM13.7949 3.9375H14.7793V23.625H13.7949V15.75H6.89062V23.625H5.90625V3.9375H6.89062V10.8281H13.7949V3.9375ZM3.9375 3.9375H4.92188V23.625H3.9375V3.9375ZM1.96875 3.9375H2.95312V23.625H1.96875V3.9375ZM13.7949 14.7656V13.7812H6.89062V14.7656H13.7949ZM13.7949 12.7969V11.8125H6.89062V12.7969H13.7949ZM37.2422 13.918C37.2422 12.7513 36.8822 11.849 36.1621 11.2109C35.4421 10.5729 34.4896 10.2539 33.3047 10.2539C32.3021 10.2539 31.4408 10.6003 30.7207 11.293C30.0007 11.9857 29.6406 12.8151 29.6406 13.7812C29.6406 14.3281 29.7135 14.8203 29.8594 15.2578C30.0052 15.6862 30.2012 16.0462 30.4473 16.3379C30.7025 16.6204 31.0033 16.8574 31.3496 17.0488C31.696 17.2311 32.056 17.3633 32.4297 17.4453C32.8125 17.5273 33.2181 17.5684 33.6465 17.5684C34.6855 17.5684 35.6335 17.3132 36.4902 16.8027V17.7871C35.6061 18.252 34.6536 18.4844 33.6328 18.4844C32.9766 18.4844 32.3568 18.3978 31.7734 18.2246C31.1992 18.0423 30.6751 17.7734 30.2012 17.418C29.7272 17.0534 29.349 16.5612 29.0664 15.9414C28.793 15.3125 28.6562 14.5924 28.6562 13.7812C28.6562 12.5234 29.0983 11.457 29.9824 10.582C30.8665 9.70703 31.974 9.26953 33.3047 9.26953C34.7721 9.26953 35.957 9.68424 36.8594 10.5137C37.7708 11.334 38.2266 12.4688 38.2266 13.918V23.625H37.2422V13.918ZM40.1953 13.918V23.625H39.2109V13.918C39.2109 12.1953 38.6595 10.8281 37.5566 9.81641C36.4538 8.79557 35.0365 8.28516 33.3047 8.28516C31.7005 8.28516 30.3607 8.81836 29.2852 9.88477C28.2096 10.9512 27.6719 12.25 27.6719 13.7812C27.6719 14.7109 27.8314 15.5449 28.1504 16.2832C28.4785 17.0215 28.9206 17.6139 29.4766 18.0605C30.0326 18.5072 30.6523 18.849 31.3359 19.0859C32.0286 19.3138 32.7578 19.4277 33.5234 19.4277C34.5625 19.4277 35.5514 19.1862 36.4902 18.7031V19.7422C35.5059 20.1523 34.5124 20.3574 33.5098 20.3574C32.6074 20.3574 31.7507 20.2207 30.9395 19.9473C30.1283 19.6647 29.4036 19.2591 28.7656 18.7305C28.1276 18.1927 27.6217 17.5 27.248 16.6523C26.8743 15.7956 26.6875 14.8385 26.6875 13.7812C26.6875 11.9857 27.321 10.459 28.5879 9.20117C29.8639 7.93424 31.4362 7.30078 33.3047 7.30078C34.6172 7.30078 35.793 7.56966 36.832 8.10742C37.8711 8.63607 38.6914 9.40625 39.293 10.418C39.8945 11.4297 40.1953 12.5964 40.1953 13.918ZM42.1641 13.918V23.625H41.1797V13.918C41.1797 12.4141 40.8333 11.0833 40.1406 9.92578C39.457 8.75911 38.5182 7.86589 37.3242 7.24609C36.1302 6.6263 34.7904 6.31641 33.3047 6.31641C31.8919 6.31641 30.6022 6.65365 29.4355 7.32812C28.2689 7.99349 27.3529 8.89583 26.6875 10.0352C26.0312 11.1745 25.7031 12.4232 25.7031 13.7812C25.7031 14.9479 25.9173 16.0143 26.3457 16.9805C26.7741 17.9375 27.3483 18.7259 28.0684 19.3457C28.7975 19.9655 29.6224 20.4486 30.543 20.7949C31.4727 21.1322 32.4434 21.3008 33.4551 21.3008C34.485 21.3008 35.4967 21.0866 36.4902 20.6582V21.6562C35.4512 22.0482 34.4303 22.2441 33.4277 22.2441C31.8509 22.2441 30.4017 21.8887 29.0801 21.1777C27.7585 20.4668 26.7012 19.4596 25.9082 18.1562C25.1152 16.8529 24.7188 15.3945 24.7188 13.7812C24.7188 12.6328 24.9375 11.5391 25.375 10.5C25.8216 9.46094 26.4232 8.56315 27.1797 7.80664C27.9362 7.05013 28.8477 6.44857 29.9141 6.00195C30.9805 5.55534 32.1107 5.33203 33.3047 5.33203C34.9727 5.33203 36.4766 5.6875 37.8164 6.39844C39.1654 7.10938 40.2272 8.12109 41.002 9.43359C41.7767 10.7461 42.1641 12.2409 42.1641 13.918ZM44.1328 13.918V23.625H43.1484V13.918C43.1484 12.0586 42.7155 10.3997 41.8496 8.94141C40.9837 7.47396 39.8034 6.34375 38.3086 5.55078C36.8138 4.7487 35.1458 4.34766 33.3047 4.34766C31.5365 4.34766 29.9186 4.77148 28.4512 5.61914C26.9837 6.4668 25.8307 7.61523 24.9922 9.06445C24.1536 10.5046 23.7344 12.0768 23.7344 13.7812C23.7344 14.9023 23.9121 15.9688 24.2676 16.9805C24.6322 17.9831 25.1243 18.8626 25.7441 19.6191C26.373 20.3665 27.0931 21.0137 27.9043 21.5605C28.7246 22.1074 29.6042 22.5221 30.543 22.8047C31.4909 23.0872 32.4525 23.2285 33.4277 23.2285C34.5033 23.2285 35.5241 23.0234 36.4902 22.6133V23.625C35.4785 23.9805 34.4395 24.1582 33.373 24.1582C32.2702 24.1582 31.1947 24.0033 30.1465 23.6934C29.1074 23.3835 28.1413 22.9277 27.248 22.3262C26.3639 21.7155 25.5846 21 24.9102 20.1797C24.2357 19.3503 23.707 18.3841 23.3242 17.2812C22.9414 16.1784 22.75 15.0117 22.75 13.7812C22.75 12.3685 23.0143 11.0241 23.543 9.74805C24.0807 8.46289 24.8099 7.35547 25.7305 6.42578C26.6602 5.48698 27.7812 4.74414 29.0938 4.19727C30.4154 3.64128 31.819 3.36328 33.3047 3.36328C34.8177 3.36328 36.2396 3.61849 37.5703 4.12891C38.901 4.63932 40.0495 5.35026 41.0156 6.26172C41.9818 7.16406 42.7428 8.27604 43.2988 9.59766C43.8548 10.9193 44.1328 12.3594 44.1328 13.918ZM65.9805 17.2949C66.1719 17.304 66.4043 17.3086 66.6777 17.3086C66.9512 17.3086 67.179 17.304 67.3613 17.2949C67.5527 17.2767 67.7487 17.2402 67.9492 17.1855C68.1497 17.1217 68.3092 17.0397 68.4277 16.9395C68.5462 16.8392 68.6419 16.6979 68.7148 16.5156C68.7969 16.3242 68.8379 16.0964 68.8379 15.832V3.9375H69.8223V15.832C69.8223 17.4727 68.7741 18.293 66.6777 18.293C65.6204 18.293 64.8366 18.0924 64.3262 17.6914C64.2533 18.0469 64.1667 18.3613 64.0664 18.6348C64.7591 19.0632 65.6296 19.2773 66.6777 19.2773C67.8991 19.2773 68.8926 18.9948 69.6582 18.4297C70.4238 17.8555 70.8066 16.9896 70.8066 15.832V3.9375H71.791V15.832C71.791 17.263 71.3079 18.3613 70.3418 19.127C69.3848 19.8835 68.1634 20.2617 66.6777 20.2617C65.5202 20.2617 64.5267 20.0247 63.6973 19.5508C63.5605 19.8424 63.401 20.1204 63.2188 20.3848C64.2122 20.959 65.3652 21.2461 66.6777 21.2461C67.5254 21.2461 68.3138 21.1276 69.043 20.8906C69.7812 20.6536 70.4284 20.3118 70.9844 19.8652C71.5404 19.4186 71.9779 18.849 72.2969 18.1562C72.6159 17.4635 72.7754 16.6888 72.7754 15.832V3.9375H73.7598V15.832C73.7598 17.1445 73.4362 18.293 72.7891 19.2773C72.151 20.2617 71.2988 21 70.2324 21.4922C69.1751 21.9844 67.9902 22.2305 66.6777 22.2305C65.1465 22.2305 63.7975 21.8796 62.6309 21.1777C62.3757 21.4694 62.1432 21.7064 61.9336 21.8887C63.2917 22.7728 64.873 23.2148 66.6777 23.2148C68.1634 23.2148 69.5124 22.9232 70.7246 22.3398C71.9368 21.7565 72.9076 20.8997 73.6367 19.7695C74.375 18.6302 74.7441 17.3177 74.7441 15.832V3.9375H75.7285V15.832C75.7285 17.0898 75.487 18.2474 75.0039 19.3047C74.5299 20.362 73.8828 21.2461 73.0625 21.957C72.2513 22.668 71.2943 23.2194 70.1914 23.6113C69.0885 24.0033 67.9173 24.1992 66.6777 24.1992C64.5085 24.1992 62.6536 23.6432 61.1133 22.5312C59.5182 23.6432 57.6361 24.1992 55.4668 24.1992C54.2272 24.1992 53.056 24.0033 51.9531 23.6113C50.8503 23.2194 49.8887 22.668 49.0684 21.957C48.2572 21.2461 47.61 20.362 47.127 19.3047C46.653 18.2474 46.416 17.0898 46.416 15.832V3.9375H47.4004V15.832C47.4004 16.9531 47.61 17.9831 48.0293 18.9219C48.4577 19.8607 49.0365 20.64 49.7656 21.2598C50.4948 21.8796 51.347 22.3626 52.3223 22.709C53.3066 23.0462 54.3548 23.2148 55.4668 23.2148C56.916 23.2148 58.2604 22.8867 59.5 22.2305C60.7396 21.5651 61.7194 20.6673 62.4395 19.5371C63.1686 18.3978 63.5332 17.1628 63.5332 15.832V3.9375H64.5176V15.832C64.5176 16.0964 64.554 16.3242 64.627 16.5156C64.709 16.6979 64.8092 16.8392 64.9277 16.9395C65.0462 17.0397 65.2057 17.1217 65.4062 17.1855C65.6068 17.2402 65.7982 17.2767 65.9805 17.2949ZM58.6113 3.9375V15.832C58.6113 17.4727 57.5632 18.293 55.4668 18.293C53.3704 18.293 52.3223 17.4727 52.3223 15.832V3.9375H53.3066V15.832C53.3066 16.0964 53.3431 16.3242 53.416 16.5156C53.498 16.6979 53.5983 16.8392 53.7168 16.9395C53.8353 17.0397 53.9948 17.1217 54.1953 17.1855C54.3958 17.2402 54.5872 17.2767 54.7695 17.2949C54.9609 17.304 55.1934 17.3086 55.4668 17.3086C55.7402 17.3086 55.9681 17.304 56.1504 17.2949C56.3418 17.2767 56.5378 17.2402 56.7383 17.1855C56.9388 17.1217 57.0983 17.0397 57.2168 16.9395C57.3353 16.8392 57.431 16.6979 57.5039 16.5156C57.5859 16.3242 57.627 16.0964 57.627 15.832V3.9375H58.6113ZM60.5801 3.9375V15.832C60.5801 17.263 60.097 18.3613 59.1309 19.127C58.1738 19.8835 56.9525 20.2617 55.4668 20.2617C53.9811 20.2617 52.7552 19.8835 51.7891 19.127C50.832 18.3613 50.3535 17.263 50.3535 15.832V3.9375H51.3379V15.832C51.3379 16.9896 51.7207 17.8555 52.4863 18.4297C53.252 18.9948 54.2454 19.2773 55.4668 19.2773C56.6882 19.2773 57.6816 18.9948 58.4473 18.4297C59.2129 17.8555 59.5957 16.9896 59.5957 15.832V3.9375H60.5801ZM62.5488 3.9375V15.832C62.5488 17.1445 62.2253 18.293 61.5781 19.2773C60.9401 20.2617 60.0879 21 59.0215 21.4922C57.9642 21.9844 56.7793 22.2305 55.4668 22.2305C54.1543 22.2305 52.9648 21.9844 51.8984 21.4922C50.8411 21 49.9889 20.2617 49.3418 19.2773C48.7038 18.293 48.3848 17.1445 48.3848 15.832V3.9375H49.3691V15.832C49.3691 16.6888 49.5286 17.4635 49.8477 18.1562C50.1667 18.849 50.6042 19.4186 51.1602 19.8652C51.7161 20.3118 52.3587 20.6536 53.0879 20.8906C53.8262 21.1276 54.6191 21.2461 55.4668 21.2461C56.3145 21.2461 57.1029 21.1276 57.832 20.8906C58.5703 20.6536 59.2174 20.3118 59.7734 19.8652C60.3294 19.4186 60.7669 18.849 61.0859 18.1562C61.4049 17.4635 61.5645 16.6888 61.5645 15.832V3.9375H62.5488ZM98.8887 3.9375L93.4062 13.8633L98.8066 23.625H97.7129L92.3125 13.8633L97.7949 3.9375H98.8887ZM96.6875 3.9375L91.2051 13.8633L96.6055 23.625H95.5117L90.1113 13.8633L95.5938 3.9375H96.6875ZM94.4863 3.9375L89.0039 13.8633L94.4043 23.625H93.3105L87.9102 13.8633L93.3926 3.9375H94.4863ZM92.2852 3.9375L86.7891 13.8633L92.2031 23.625H91.1094L85.6953 13.8633L91.1914 3.9375H92.2852ZM84.1094 3.9375V23.625H85.0938V3.9375H84.1094ZM82.1406 3.9375V23.625H83.125V3.9375H82.1406ZM80.1719 3.9375V23.625H81.1562V3.9375H80.1719ZM78.2031 3.9375V23.625H79.1875V3.9375H78.2031ZM108.09 14.2188H114.023C114.807 14.2188 115.473 13.9727 116.02 13.4805C116.566 12.9883 116.84 12.2956 116.84 11.4023C116.84 10.7461 116.553 10.1582 115.979 9.63867C115.413 9.11914 114.762 8.85938 114.023 8.85938H105.574V23.625H104.59V7.875H114.023C115.035 7.875 115.919 8.23047 116.676 8.94141C117.441 9.65234 117.824 10.4727 117.824 11.4023C117.824 12.5599 117.455 13.485 116.717 14.1777C115.979 14.8613 115.081 15.2031 114.023 15.2031H108.09V14.2188ZM108.09 16.1875H114.023C115.336 16.1875 116.462 15.7409 117.4 14.8477C118.339 13.9544 118.809 12.806 118.809 11.4023C118.809 10.2083 118.33 9.16016 117.373 8.25781C116.416 7.34635 115.299 6.89062 114.023 6.89062H103.605V23.625H102.621V5.90625H114.023C115.573 5.90625 116.922 6.45768 118.07 7.56055C119.219 8.6543 119.793 9.9349 119.793 11.4023C119.793 13.043 119.223 14.4147 118.084 15.5176C116.954 16.6204 115.6 17.1719 114.023 17.1719H108.09V16.1875ZM108.09 18.1562H114.023C115.236 18.1562 116.357 17.8646 117.387 17.2812C118.417 16.6979 119.237 15.8867 119.848 14.8477C120.467 13.8086 120.777 12.6602 120.777 11.4023C120.777 10.263 120.472 9.19661 119.861 8.20312C119.251 7.20052 118.421 6.40299 117.373 5.81055C116.334 5.2181 115.217 4.92188 114.023 4.92188H101.637V23.625H100.652V3.9375H114.023C115.053 3.9375 116.042 4.14258 116.99 4.55273C117.947 4.95378 118.772 5.49154 119.465 6.16602C120.158 6.83138 120.714 7.62435 121.133 8.54492C121.552 9.46549 121.762 10.418 121.762 11.4023C121.762 12.9974 121.397 14.3919 120.668 15.5859C119.939 16.7708 118.959 17.6732 117.729 18.293L119.793 23.625H118.74L116.785 18.6895C116.539 18.7715 116.252 18.8535 115.924 18.9355L117.77 23.625H116.717L114.912 19.0996C114.63 19.127 114.333 19.1406 114.023 19.1406L115.76 23.625H114.721L112.998 19.1406H112.109L113.764 23.625H112.725L111.057 19.1406H108.09V18.1562ZM107.543 23.625H106.559V9.84375H114.023C114.534 9.84375 114.967 9.9987 115.322 10.3086C115.678 10.6094 115.855 10.974 115.855 11.4023C115.855 12.6237 115.245 13.2344 114.023 13.2344H108.09V12.25H114.023C114.589 12.25 114.871 11.9674 114.871 11.4023C114.871 11.2474 114.785 11.1152 114.611 11.0059C114.447 10.8874 114.251 10.8281 114.023 10.8281H107.543V23.625ZM131.92 8.47656C130.863 9.53385 130.334 10.8099 130.334 12.3047C130.334 13.7995 130.863 15.0755 131.92 16.1328C132.977 17.1901 134.253 17.7188 135.748 17.7188C137.243 17.7188 138.519 17.1901 139.576 16.1328C140.633 15.0755 141.162 13.7995 141.162 12.3047C141.162 10.8099 140.633 9.53385 139.576 8.47656C138.519 7.41927 137.243 6.89062 135.748 6.89062C134.253 6.89062 132.977 7.41927 131.92 8.47656ZM129.855 14.793C129.518 14 129.35 13.1706 129.35 12.3047C129.35 11.4388 129.518 10.6139 129.855 9.83008C130.193 9.03711 130.648 8.35352 131.223 7.7793C131.797 7.20508 132.476 6.74935 133.26 6.41211C134.053 6.07487 134.882 5.90625 135.748 5.90625C136.614 5.90625 137.439 6.07487 138.223 6.41211C139.016 6.74935 139.699 7.20508 140.273 7.7793C140.848 8.35352 141.303 9.03711 141.641 9.83008C141.978 10.6139 142.146 11.4388 142.146 12.3047C142.146 13.1706 141.978 14 141.641 14.793C141.303 15.5768 140.848 16.2559 140.273 16.8301C139.699 17.4043 139.016 17.86 138.223 18.1973C137.439 18.5345 136.614 18.7031 135.748 18.7031C134.882 18.7031 134.053 18.5345 133.26 18.1973C132.476 17.86 131.797 17.4043 131.223 16.8301C130.648 16.2559 130.193 15.5768 129.855 14.793ZM129.35 8.59961C128.693 9.72982 128.365 10.9648 128.365 12.3047C128.365 13.6445 128.693 14.8796 129.35 16.0098C130.015 17.14 130.913 18.0378 132.043 18.7031C133.173 19.3594 134.408 19.6875 135.748 19.6875C137.088 19.6875 138.323 19.3594 139.453 18.7031C140.583 18.0378 141.477 17.14 142.133 16.0098C142.798 14.8796 143.131 13.6445 143.131 12.3047C143.131 10.9648 142.798 9.72982 142.133 8.59961C141.477 7.4694 140.583 6.57617 139.453 5.91992C138.323 5.25456 137.088 4.92188 135.748 4.92188C134.408 4.92188 133.173 5.25456 132.043 5.91992C130.913 6.57617 130.015 7.4694 129.35 8.59961ZM128.502 16.502C127.755 15.2168 127.381 13.8177 127.381 12.3047C127.381 10.7917 127.755 9.39258 128.502 8.10742C129.249 6.82227 130.266 5.80599 131.551 5.05859C132.836 4.3112 134.235 3.9375 135.748 3.9375C137.261 3.9375 138.66 4.3112 139.945 5.05859C141.23 5.80599 142.247 6.82227 142.994 8.10742C143.742 9.39258 144.115 10.7917 144.115 12.3047C144.115 13.8177 143.742 15.2168 142.994 16.502C142.247 17.7871 141.23 18.8034 139.945 19.5508C138.66 20.2982 137.261 20.6719 135.748 20.6719C134.235 20.6719 132.836 20.2982 131.551 19.5508C130.266 18.8034 129.249 17.7871 128.502 16.502ZM127.135 8.66797C126.643 9.82552 126.396 11.0378 126.396 12.3047C126.396 13.5716 126.643 14.7839 127.135 15.9414C127.627 17.099 128.288 18.097 129.117 18.9355C129.956 19.765 130.954 20.4258 132.111 20.918C133.269 21.4102 134.481 21.6562 135.748 21.6562C137.015 21.6562 138.227 21.4102 139.385 20.918C140.542 20.4258 141.536 19.765 142.365 18.9355C143.204 18.097 143.869 17.099 144.361 15.9414C144.854 14.7839 145.1 13.5716 145.1 12.3047C145.1 11.0378 144.854 9.82552 144.361 8.66797C143.869 7.51042 143.204 6.51693 142.365 5.6875C141.536 4.84896 140.542 4.18359 139.385 3.69141C138.227 3.19922 137.015 2.95312 135.748 2.95312C134.481 2.95312 133.269 3.19922 132.111 3.69141C130.954 4.18359 129.956 4.84896 129.117 5.6875C128.288 6.51693 127.627 7.51042 127.135 8.66797ZM126.793 17.4863C125.872 15.9004 125.412 14.1732 125.412 12.3047C125.412 10.4362 125.872 8.70898 126.793 7.12305C127.723 5.53711 128.98 4.28385 130.566 3.36328C132.152 2.43359 133.88 1.96875 135.748 1.96875C137.617 1.96875 139.344 2.43359 140.93 3.36328C142.516 4.28385 143.769 5.53711 144.689 7.12305C145.619 8.70898 146.084 10.4362 146.084 12.3047C146.084 14.1732 145.619 15.9004 144.689 17.4863C143.769 19.0723 142.516 20.3301 140.93 21.2598C139.344 22.1803 137.617 22.6406 135.748 22.6406C133.88 22.6406 132.152 22.1803 130.566 21.2598C128.98 20.3301 127.723 19.0723 126.793 17.4863ZM125.316 7.91602C124.724 9.31055 124.428 10.7734 124.428 12.3047C124.428 13.8359 124.724 15.3034 125.316 16.707C125.918 18.1016 126.725 19.3047 127.736 20.3164C128.748 21.3281 129.951 22.1348 131.346 22.7363C132.749 23.3288 134.217 23.625 135.748 23.625C137.279 23.625 138.742 23.3288 140.137 22.7363C141.54 22.1348 142.748 21.3281 143.76 20.3164C144.771 19.3047 145.574 18.1016 146.166 16.707C146.768 15.3034 147.068 13.8359 147.068 12.3047C147.068 10.7734 146.768 9.31055 146.166 7.91602C145.574 6.51237 144.771 5.30469 143.76 4.29297C142.748 3.28125 141.54 2.47917 140.137 1.88672C138.742 1.28516 137.279 0.984375 135.748 0.984375C134.217 0.984375 132.749 1.28516 131.346 1.88672C129.951 2.47917 128.748 3.28125 127.736 4.29297C126.725 5.30469 125.918 6.51237 125.316 7.91602ZM124.414 17.0898C123.767 15.5677 123.443 13.9727 123.443 12.3047C123.443 10.6367 123.767 9.04622 124.414 7.5332C125.07 6.01107 125.945 4.70312 127.039 3.60938C128.142 2.50651 129.45 1.63151 130.963 0.984375C132.485 0.328125 134.08 0 135.748 0C137.416 0 139.007 0.328125 140.52 0.984375C142.042 1.63151 143.35 2.50651 144.443 3.60938C145.546 4.70312 146.421 6.01107 147.068 7.5332C147.725 9.04622 148.053 10.6367 148.053 12.3047C148.053 13.9727 147.725 15.5677 147.068 17.0898C146.421 18.6029 145.546 19.9108 144.443 21.0137C143.35 22.1074 142.042 22.9779 140.52 23.625C139.007 24.2812 137.416 24.6094 135.748 24.6094C134.08 24.6094 132.485 24.2812 130.963 23.625C129.45 22.9779 128.142 22.1074 127.039 21.0137C125.945 19.9108 125.07 18.6029 124.414 17.0898ZM159.236 9.84375H157.582C156.88 9.84375 156.374 9.66602 156.064 9.31055C155.755 8.94596 155.6 8.46745 155.6 7.875C155.6 6.5625 156.579 5.90625 158.539 5.90625C160.38 5.90625 161.766 6.17969 162.695 6.72656L161.902 7.32812C161.264 7.03646 160.143 6.89062 158.539 6.89062C157.755 6.89062 157.227 6.97721 156.953 7.15039C156.689 7.32357 156.557 7.5651 156.557 7.875C156.557 8.1849 156.63 8.42643 156.775 8.59961C156.921 8.77279 157.19 8.85938 157.582 8.85938H159.277C160.508 8.85938 161.615 9.06901 162.6 9.48828C163.593 9.90755 164.409 10.4818 165.047 11.2109C165.685 11.931 166.173 12.765 166.51 13.7129C166.847 14.6517 167.016 15.6589 167.016 16.7344C167.016 17.6094 166.893 18.4388 166.646 19.2227C166.4 20.0065 166.027 20.7266 165.525 21.3828C165.033 22.0391 164.436 22.6087 163.734 23.0918C163.042 23.5658 162.212 23.9349 161.246 24.1992C160.289 24.4727 159.25 24.6094 158.129 24.6094C156.37 24.6094 154.72 24.3405 153.18 23.8027C151.648 23.2741 150.372 22.5312 149.352 21.5742L150.145 20.9863C151.074 21.8249 152.236 22.4766 153.631 22.9414C155.035 23.3971 156.534 23.625 158.129 23.625C159.378 23.625 160.503 23.4473 161.506 23.0918C162.518 22.7272 163.347 22.2305 163.994 21.6016C164.65 20.9727 165.152 20.2435 165.498 19.4141C165.854 18.5846 166.031 17.6914 166.031 16.7344C166.031 15.4674 165.776 14.3236 165.266 13.3027C164.755 12.2728 163.976 11.4388 162.928 10.8008C161.889 10.1628 160.658 9.84375 159.236 9.84375ZM157.582 10.8281H159.141C160.991 10.8281 162.436 11.3932 163.475 12.5234C164.523 13.6536 165.047 15.0573 165.047 16.7344C165.047 18.4388 164.441 19.8516 163.229 20.9727C162.016 22.0846 160.316 22.6406 158.129 22.6406C156.671 22.6406 155.308 22.4401 154.041 22.0391C152.774 21.638 151.721 21.0729 150.883 20.3438L151.648 19.7285C152.396 20.3392 153.335 20.8132 154.465 21.1504C155.604 21.4876 156.826 21.6562 158.129 21.6562C160.052 21.6562 161.52 21.196 162.531 20.2754C163.552 19.3548 164.062 18.1745 164.062 16.7344C164.062 15.3125 163.634 14.1367 162.777 13.207C161.93 12.2773 160.713 11.8125 159.127 11.8125H157.582C156.251 11.8125 155.253 11.4479 154.588 10.7188C153.923 9.98958 153.59 9.04167 153.59 7.875C153.59 6.70833 154 5.76042 154.82 5.03125C155.65 4.30208 156.889 3.9375 158.539 3.9375C159.697 3.9375 160.772 4.07422 161.766 4.34766C162.759 4.61198 163.579 4.99479 164.227 5.49609L163.447 6.09766C162.308 5.3138 160.672 4.92188 158.539 4.92188C157.163 4.92188 156.156 5.19531 155.518 5.74219C154.889 6.27995 154.574 6.99089 154.574 7.875C154.574 8.76823 154.807 9.48372 155.271 10.0215C155.745 10.5592 156.516 10.8281 157.582 10.8281ZM157.582 12.7969H159.086C160.417 12.7969 161.415 13.166 162.08 13.9043C162.745 14.6426 163.078 15.5859 163.078 16.7344C163.078 17.901 162.663 18.849 161.834 19.5781C161.014 20.3073 159.779 20.6719 158.129 20.6719C156.971 20.6719 155.891 20.5397 154.889 20.2754C153.895 20.002 153.075 19.6146 152.428 19.1133L153.207 18.5117C154.346 19.2956 155.987 19.6875 158.129 19.6875C159.505 19.6875 160.508 19.4186 161.137 18.8809C161.775 18.334 162.094 17.6185 162.094 16.7344C162.094 15.8503 161.857 15.1393 161.383 14.6016C160.909 14.0547 160.139 13.7812 159.072 13.7812H157.582C155.714 13.7812 154.251 13.2253 153.193 12.1133C152.145 10.9922 151.621 9.57943 151.621 7.875C151.621 6.17057 152.227 4.76237 153.439 3.65039C154.652 2.5293 156.352 1.96875 158.539 1.96875C159.997 1.96875 161.355 2.16927 162.613 2.57031C163.88 2.97135 164.933 3.53646 165.771 4.26562L165.006 4.88086C164.258 4.27018 163.32 3.79622 162.189 3.45898C161.059 3.12174 159.842 2.95312 158.539 2.95312C156.616 2.95312 155.144 3.41341 154.123 4.33398C153.111 5.25456 152.605 6.4349 152.605 7.875C152.605 9.30599 153.034 10.4863 153.891 11.416C154.747 12.3366 155.978 12.7969 157.582 12.7969ZM157.582 14.7656H159.086C159.788 14.7656 160.294 14.9479 160.604 15.3125C160.913 15.6771 161.068 16.151 161.068 16.7344C161.068 18.0469 160.089 18.7031 158.129 18.7031C156.279 18.7031 154.889 18.4297 153.959 17.8828L154.752 17.2812C155.39 17.5729 156.516 17.7188 158.129 17.7188C158.913 17.7188 159.437 17.6322 159.701 17.459C159.975 17.2858 160.111 17.0443 160.111 16.7344C160.111 16.4336 160.034 16.1966 159.879 16.0234C159.733 15.8411 159.46 15.75 159.059 15.75H157.582C156.324 15.75 155.185 15.5449 154.164 15.1348C153.152 14.7246 152.318 14.1595 151.662 13.4395C151.015 12.7194 150.518 11.8854 150.172 10.9375C149.826 9.98958 149.652 8.96875 149.652 7.875C149.652 7 149.775 6.17057 150.021 5.38672C150.268 4.60286 150.637 3.88281 151.129 3.22656C151.63 2.57031 152.227 2.00521 152.92 1.53125C153.622 1.04818 154.451 0.674479 155.408 0.410156C156.374 0.136719 157.418 0 158.539 0C160.298 0 161.943 0.26888 163.475 0.806641C165.006 1.33529 166.282 2.07812 167.303 3.03516L166.51 3.62305C165.58 2.78451 164.418 2.13737 163.023 1.68164C161.629 1.2168 160.134 0.984375 158.539 0.984375C157.29 0.984375 156.16 1.16667 155.148 1.53125C154.146 1.88672 153.316 2.37891 152.66 3.00781C152.013 3.63672 151.512 4.36589 151.156 5.19531C150.81 6.02474 150.637 6.91797 150.637 7.875C150.637 9.16016 150.896 10.3177 151.416 11.3477C151.936 12.3776 152.729 13.207 153.795 13.8359C154.861 14.4557 156.124 14.7656 157.582 14.7656Z" fill="#913B9F"/>
</svg>
