<svg width="57" height="35" viewBox="0 0 57 35" fill="none" xmlns="http://www.w3.org/2000/svg">
<path d="M35.969 3.74537H20.6636V31.2465H35.969V3.74537Z" fill="#FF5F00"/>
<path d="M21.6354 17.4959C21.6354 12.1512 24.1134 7.0494 28.292 3.74537C20.7122 -2.23103 9.6826 -0.919141 3.7062 6.70927C-2.22161 14.2891 -0.909721 25.2701 6.71869 31.2465C13.0838 36.2512 21.9755 36.2512 28.3406 31.2465C24.1134 27.9425 21.6354 22.8407 21.6354 17.4959Z" fill="#EB001B"/>
<path d="M56.6192 17.4959C56.6192 27.1651 48.7964 34.9879 39.1273 34.9879C35.1916 34.9879 31.4017 33.676 28.3406 31.2465C35.9205 25.2701 37.2323 14.2891 31.2559 6.66069C30.3814 5.59174 29.4096 4.57138 28.3406 3.74537C35.9205 -2.23103 46.9501 -0.919141 52.8779 6.70927C55.3073 9.77036 56.6192 13.5603 56.6192 17.4959Z" fill="#F79E1B"/>
</svg>
