<svg xmlns="http://www.w3.org/2000/svg" width="1212" height="1344" viewBox="0 0 1212 1344" fill="none">
  <path d="M222.23 0.732033C229.507 -0.098538 236.848 -0.222329 244.149 0.36066C277.563 2.70182 308.677 18.22 330.648 43.5027C347.749 63.6045 359.643 87.6041 365.282 113.387C380.733 182.655 368.058 285.279 360.89 356.583C356.095 406.218 351.68 455.889 347.646 505.592C352.092 498.106 355.108 487.24 359.144 478.759C383.91 426.722 418.839 375.115 464.348 339.126C483.979 323.602 513.352 309.424 536.792 300.75C540.936 259.575 542.987 210.93 555.414 171.132C557.282 165.148 563.013 157.805 569.125 155.667C590.121 148.324 601.848 171.756 613.357 183.205C619.128 189.046 626.02 193.664 633.615 196.785C633.925 196.906 634.234 197.028 634.544 197.148C636.434 178.547 631.775 162.873 649.323 151.64C669.74 150.653 674.926 162.314 684.436 178.135C692.207 191.055 694.49 201.437 696.983 216.081C732.522 225.904 777.79 248.267 774.737 292.397C770.505 353.464 696.422 371.535 646.538 373.993C636.409 374.491 613.114 378.292 605.411 368.289C589.427 339.402 633.69 334.916 656.282 333.878C682.579 332.67 758.778 316.249 729.971 273.459C719.683 258.177 681.576 253.574 664.713 248.711C643.937 242.718 617.873 233.158 599.472 221.073C595.114 218.252 590.832 212.178 585.688 211.803C579.423 217.579 575.089 280.138 573.394 291.115C571.855 300.044 573.765 321.294 568.473 328.476C563.207 335.623 547.537 332.698 536.738 338.114C515.006 349.015 494.378 359.289 476.745 376.557C435.364 417.084 401.151 468.969 382.875 524.019C380.999 529.807 376.537 542.897 376.438 548.572C382.494 549.293 503.577 515.115 516.423 511.035C501.397 506.027 488.545 504.48 478.089 490.679C469.625 479.521 467.379 468.098 469.216 454.18C470.361 445.499 475.95 432.262 487.468 434.497C492.753 435.522 496.483 440.119 499.388 444.48C499.757 451.339 498.771 461.131 498.495 468.44C511.087 491.272 547.213 480.257 568.548 489.875C575.882 493.625 587.745 497.338 593.977 502.516C597.992 505.855 598.82 519.798 605.327 522.484C608.397 521.776 607.109 522.494 609.325 520.25C611.257 512.257 588.891 492.291 610.354 488.602C620.492 486.858 624.858 506.529 629.692 511.818C631.783 510.088 631.624 509.981 632.829 507.485C633.724 496.288 616.544 497.592 621.11 481.457L621.42 480.394C603.42 472.346 583.02 465.077 566.046 454.211C559.092 449.759 555 443.206 553.949 434.865C553.244 429.916 552.523 406.849 557.477 404.077C580.017 391.47 571.788 430.564 571.715 433.498C573.769 438.219 575.916 441.021 580.485 443.606C600.81 455.099 620.048 460.256 636.735 477.57C647.826 475.993 659.101 472.529 669.883 469.622L716.045 456.986C718.504 448.807 724.618 446.907 732.33 443.933C742.016 440.196 755.231 434.595 765.419 439.03C778.919 444.905 771.174 462.851 773.884 470.667C776.485 471.222 775.155 471.176 778.024 470.327C784.046 464.554 779.856 449.145 786.756 446.458C803.911 439.778 798.951 466.402 800.373 469.685L801.845 469.447C812.284 459.687 804.355 454.277 809.683 440.621L810.109 439.539C789.433 404.585 676.26 455.665 694.76 442.165C690.285 446.301 702.707 441.051 696.76 443.933C682.315 451.525 639.453 399.142 632.879 383.567C627.894 371.731 636.358 364.335 646.362 360.665C651.74 361.738 681.042 406.977 683.76 405.665C680.76 407.665 675.431 411.599 683.26 405.596C701.516 438.154 728.836 413.664 739.26 418.342C741.695 419.434 742.807 422.622 741.086 424.678C738.418 427.863 741.113 425.339 736.918 426.176C734.871 426.903 717.26 434.842 739.26 418.342C675.76 429.165 763.788 412.904 772.42 411.313C806.58 405.018 820.155 418.171 827.959 450.229C843.742 464.635 850.676 475.79 862.478 493.327C873.636 509.869 884.342 526.714 894.58 543.843C903.58 558.881 913.784 576.937 923.754 591.186C971.698 597.365 1019.23 602.427 1067.26 607.73C1091.12 610.365 1116.06 612.891 1139.72 616.889C1148.31 618.855 1162.4 621.557 1168.74 627.997C1182.65 642.158 1181.26 672.796 1182.44 691.214C1184.75 727.599 1182.03 764.326 1183.73 800.577C1189.9 803.529 1199.39 808.581 1202.84 815.34C1215.68 840.583 1212.29 889.589 1208.27 916.631C1206.11 931.176 1193.24 938.838 1182.7 945.153C1180.74 961.597 1182.82 978.769 1181.63 995.054C1179.49 1024.39 1180.99 1062.51 1173.99 1090.64C1167.85 1115.28 1135.01 1131.03 1113.93 1141.43L1081.96 1157.4C1035.04 1179.93 987.808 1201.79 940.274 1222.97L808.077 1282.63L738.369 1313.47C693.595 1333.15 652.242 1352.56 602.258 1339.75C567.64 1330.87 533.983 1315.66 500.779 1302.78L331.592 1236.25L221.76 1192.24C197.916 1182.46 175.884 1174.12 153.385 1161.51C129.603 1149.33 117.21 1126.91 115.192 1100.21C110.093 1032.74 106.764 964.801 102.443 897.159L91.7876 740.036C90.4343 718.256 89.0617 696.141 87.9543 674.243C86.1786 639.138 105.574 629.645 135.206 619.265C151.968 613.393 168.285 608.726 185.344 603.883C191.501 602.202 201.217 600.01 206.885 597.401C207.239 596.935 207.592 596.47 207.946 596.006C206.58 585.687 202.809 575.997 201.646 565.457C196.356 517.492 204.822 463.416 216.474 416.799C219.982 402.783 223.67 388.811 227.536 374.889C232.202 358.655 257.391 282.233 238.596 273.237C205.407 257.35 150.754 321.909 127.266 340.64C117.85 348.149 109.785 355.924 99.0461 361.824C92.8465 365.333 81.0739 368.525 75.1938 369.204C59.2507 370.918 43.2791 366.244 30.7745 356.206C12.5639 341.337 3.09973 313.603 0.844725 290.874C-10.8711 172.761 101.125 13.1588 222.23 0.732033ZM599.865 1328.96C596.336 1299.34 595.273 1268.93 594.044 1239.11L588.983 1103.99L582.886 934.463C582.016 906.084 579.967 873.153 580.812 845.108C542.653 833.206 502.721 818.284 464.962 805.001L298.918 747.255L177.342 705.885C157.643 699.169 136.754 692.628 117.548 684.615C109.449 681.236 103.982 676.142 97.2353 672.152C98.1378 708.202 101.085 741.901 103.447 777.834L115.163 954.404L120.937 1046.85C122.643 1076.35 119.892 1121.33 143.405 1144.07C154.102 1154.42 172.953 1161.01 186.237 1167.77C211.566 1179.22 237.988 1189.22 263.758 1199.63C312.781 1219.4 361.928 1238.86 411.198 1258.02C430.852 1265.7 589.786 1330.55 599.865 1328.96ZM701.424 1319.13C721.724 1312.05 753.048 1297.26 773.557 1288.17C819.151 1268.11 864.569 1247.64 909.794 1226.75C961.594 1203.84 1013.05 1180.17 1064.16 1155.73C1089.28 1143.6 1115.1 1131.7 1138.98 1117.19C1148.59 1111.34 1156.68 1105.66 1161.63 1095.53C1164.88 1088.87 1167.14 1081.77 1168.33 1074.44C1170.68 1060.64 1170.99 1038.05 1171.45 1023.73L1173.68 948.306C1156.74 955.5 1140.03 963.588 1123 970.555C1108.84 976.343 1093 984.699 1077.49 980.04C1053.1 972.721 1050.17 891.664 1064.9 879.987C1076.13 861.719 1132.23 846.689 1155.39 834.293C1155.13 829.718 1153.35 817.322 1158.8 815.482C1162.73 819.405 1161.83 826.054 1161.76 831.29C1166.8 829.81 1169.15 829.283 1173.79 826.598C1175.21 788.097 1175.37 749.563 1174.27 711.054C1173.71 690.127 1173.9 661.479 1167.78 641.806C1136.22 654.679 1103.87 666.422 1072.03 679.236C993.68 711.062 915.557 743.415 837.644 776.287C793.615 794.68 747.687 813.09 704.017 831.901C706.794 853.497 706.761 878.021 707.103 899.81L708.592 969.359C710.207 1046.79 709.897 1124.24 707.664 1201.65C706.551 1239.9 706.451 1281.15 701.424 1319.13ZM267.165 377.754C249.041 439.779 227.109 522.95 245.658 586.104C257.392 583.151 295.386 573.48 306.089 569.151C306.335 542.13 309.537 517.898 311.455 491.367C314.942 437.922 319.401 384.544 324.828 331.262C331.095 269.434 337.259 207.632 331.423 145.476C326.356 91.5219 296.82 39.7187 236.692 39.482C233.237 39.4962 229.784 39.6058 226.337 39.8107C167.268 47.868 125.757 86.3452 91.0942 131.993C59.7835 173.224 32.342 236.108 39.3989 288.766C41.0768 301.287 45.6663 319.018 56.0003 327.141C60.0871 330.354 64.986 331.926 70.1894 331.311C102.936 327.44 157.573 237.039 221.962 231.063C235.491 229.807 248.448 232.702 259.428 240.94C272.995 251.119 280.206 264.84 282.523 281.559C287.15 314.955 275.188 346.009 267.165 377.754ZM821.501 474.168C826.478 480.213 843.26 503.665 842.26 507.665L839.76 511.665C838.76 517.165 819.745 483.591 816.173 479.598C802.832 487.498 801.494 483.735 787.342 485.161C770.839 486.824 758.619 489.726 755.482 468.34C726.09 474.785 679.568 490.353 649.825 499.348C649.674 517.389 645.927 528.782 625.719 528.953C620.684 534.922 616.811 538.249 608.531 538.551C592.003 539.154 583.521 539.745 575.59 524.12C547.354 531.691 515.739 541.975 487.346 550.388L303.033 604.619L200.7 633.827C180.297 639.531 159.559 644.575 139.608 651.559C131.658 654.344 118.273 661.805 120.592 671.851C122.323 679.345 139.925 683.26 146.356 685.033L146.204 672.838C149.782 669.35 150.534 668.672 154.84 666.18C170.603 665.778 178.998 663.378 194.103 660.818C206.344 658.869 218.599 657.004 230.866 655.231L388.178 633.158L591.677 607.479C619.245 603.925 665.048 600.119 690.509 592.485C711.445 573.614 715.509 595.43 727.111 599.968C762.542 613.82 805.726 616.58 843.449 621.448C896.111 628.005 948.73 634.914 1001.3 642.191C1022.43 645.252 1044.8 649.326 1066.09 651.843C1074.56 652.847 1074.75 661.153 1074.79 668.053C1089.72 663.796 1113.18 653.684 1128.11 647.402C1105.94 641.213 1086.88 640.2 1064.16 637.633L995.051 629.26C973.288 626.792 951.39 623.999 929.777 620.427C920.927 618.964 891.259 602.126 892.071 590.658C897.867 588.023 914.57 610.691 922.767 611.57C934.118 612.791 946.279 614.673 957.605 616.279C994.708 621.23 1031.86 625.797 1069.07 629.988C1085.94 631.97 1124.08 633.902 1135.98 644.633C1141.08 642.885 1157.41 637.85 1160.62 634.672C1158.07 630.23 1150.11 628.499 1145.31 627.202C1103.56 615.869 908.983 605.23 892.071 590.658L891.535 589.148C896.085 584.988 906.215 588.327 911.718 589.582C899.138 567.549 843.533 475.355 827.323 461.945C825.566 465.708 823.45 470.61 821.501 474.168ZM1048.68 676.894C989.464 697.588 929.032 715.621 869.738 736.03C801.762 759.425 731.335 779.415 666.462 810.513C657.805 814.662 638.801 827.192 642.055 838.81L643.878 839.387C686.159 833.064 722.711 814.52 762.316 798.151L908.448 736.933L1006.53 696.483C1018.4 691.549 1039.78 683.603 1050.04 678.224L1050.65 677.003L1048.68 676.894ZM614.929 803.345C580.602 777.818 429.969 745.172 382.414 734.323L263.179 706.956C244.082 702.481 225.042 697.772 206.061 692.837C195.55 690.076 181.589 685.744 171.256 683.703L169.932 684.941C171.067 687.174 172.391 687.919 175.124 688.63C194.786 693.715 214.322 699.411 233.809 705.124L470.21 772.908C496.401 780.444 522.507 788.265 548.522 796.386C572.882 803.998 595.817 809.409 615.766 826.096C617.196 821.471 612.479 816.628 614.486 805.687L614.745 804.224C614.812 803.931 614.871 803.638 614.929 803.345ZM223.748 711.146C235.752 717.511 263.142 726.068 276.74 730.618L353.488 756.882L505.855 810.212C531.855 819.229 589.987 842.975 615.44 839.939C608.932 820.592 579.339 814.277 561.629 808.473C538.062 800.836 514.38 793.559 490.594 786.642C425.268 767.128 359.709 748.417 293.929 730.501C284.08 727.716 230.762 710.945 223.748 711.146ZM181.048 678.417C193.839 680.265 234.919 673.147 249.529 671.131C290.635 665.594 331.708 659.823 372.746 653.801L524.434 632.388C571.315 626.031 618.718 619.566 665.399 611.862C673.956 610.457 683.901 608.383 691.144 603.506L692.014 601.34L691.211 600.186L688.811 600.01C672.961 604.293 657.679 606.459 641.444 608.676C603.847 613.811 566.114 618.035 528.462 622.728C433.055 634.647 337.747 647.335 242.548 660.81C230.852 662.5 183.262 667.978 176.544 672.737L175.725 674.519C177.167 677.162 177.985 677.547 181.048 678.417ZM1047.55 666.774C1025.65 674.118 1004.59 679.538 982.329 685.685L913.266 705.274C856.64 721.777 800.315 739.308 744.316 757.86C715.116 767.705 661.711 784.919 638.759 802.977C640.315 809.752 639.629 821.814 640.516 824.105C646.019 815.934 647.458 815.624 653.714 809.744C685.047 780.327 1043.83 676.125 1048.71 667.342L1047.55 666.774ZM1042.68 660.291L1045.55 659.12L1045.73 657.966C1040.42 655.047 1005.87 650.773 997.912 649.619C944.883 641.974 891.761 634.931 838.573 628.507C806.454 624.367 774.871 621.356 743.086 613.811C728.374 610.323 725.747 605.631 714.765 601.005C712.95 603.289 712.306 603.741 711.98 606.66C716.614 623.129 806.37 631.853 822.856 634.003L919.087 646.741L998.414 657.632C1009.53 659.171 1020.96 661.111 1032.11 662.474C1034.36 662.742 1040.26 660.977 1042.68 660.291ZM648.328 490.975C660.899 487.979 752.036 462.104 756.151 458.388L756.135 456.715C753.559 455.779 754.587 456.039 751.643 456.283C726.074 462.682 700.613 469.516 675.277 476.782C668.067 478.815 650.201 481.848 645.216 486.172C644.522 488.966 644.447 487.524 646.253 490.564C648.027 491.112 647.324 491.18 648.328 490.975ZM620.115 798.235C625.61 798.184 629.073 798.109 634.544 798.812C646.044 785.161 668.017 777.215 684.495 770.825C688.309 769.345 694.825 767.73 697.869 765.004C701.123 762.076 696.648 657.899 696.481 646.373C696.33 635.985 697.326 625.17 696.723 614.899C696.665 613.87 696.406 612.95 696.13 611.971C694.381 611.369 695.143 611.31 693.838 611.712C672.869 619.424 648.027 622.727 626.004 626.048C600.794 629.879 575.547 633.459 550.265 636.763L337.377 666.531L248.294 679.354C236.502 681.035 217.823 682.582 207.168 684.891C216.584 688.169 233.044 691.398 243.298 693.874C264.878 699.26 286.523 704.396 308.226 709.264C324.02 713.68 347.04 717.679 361.726 721.426C418.918 736.021 577.508 766.275 620.115 798.235ZM1063.81 669.032C1061.56 670.404 1059.31 671.382 1058 673.574L1058.5 674.887L1060.27 675.447C1063.47 673.641 1064.55 673.75 1066.11 671.073C1064.93 669.484 1065.52 669.927 1063.81 669.032ZM707.421 602.754C715.602 596.368 709.395 590.386 700.387 591.473C697.903 593.87 697.618 593.96 696.924 597.186C698.405 602.837 702.269 602.804 707.421 602.754ZM614.545 1311.21C618.476 1311.54 624.021 1311.34 626.213 1315.11C623.536 1320.98 612.177 1317.71 607.611 1316.15C607.786 1320.34 607.937 1328.18 608.589 1331.96C629.333 1336.82 650.285 1335.56 670.794 1330.07C677.385 1328.03 691.136 1325.99 692.249 1317.49C694.064 1303.67 695.168 1289.35 695.971 1275.42C697.97 1240.52 698.505 1205.85 698.94 1170.93C700.922 1075.87 700.563 980.768 697.853 885.725C697.602 877.545 697.794 842.8 696.163 836.234L693.52 835.615C664.705 846.463 619.128 855.881 589.527 846.02C589.393 851.682 589.234 856.575 589.619 862.238C595.508 863.635 633.222 865.095 635.522 868.625C635.338 871.736 635.907 870.456 633.925 872.665C628.07 874.446 595.7 871.062 589.627 869.39C594.111 1016.56 599.715 1163.69 606.456 1310.75C608.372 1310.86 612.813 1310.95 614.545 1311.21ZM1056.58 656.837C1054.87 660.199 1054.84 658.677 1055.67 661.521C1058.74 663.93 1063.09 663.378 1066.96 663.169C1069.11 661.195 1068.68 662.349 1068.97 659.923C1066.06 656.159 1060.84 656.553 1056.58 656.837ZM162.986 671.441C159.092 671.617 157.332 671.282 154.21 673.306L153.363 675.054C155.507 678.785 157.783 678.718 161.863 679.646C165.503 678.626 165.764 678.659 168.445 676.167L169.076 674.067C167.157 671.6 166.294 671.75 162.986 671.441ZM623.444 803.989C614.026 810.171 619.095 817.958 627.986 818.819C637.764 812.32 636.3 804.826 624.297 804.04L623.444 803.989ZM549.45 510.465C520.488 520.538 480.677 530.002 450.583 538.474L236.619 598.339C214.436 604.468 192.33 610.875 170.307 617.55C150.848 623.397 114.587 631.928 101.309 648.908C96.6832 654.821 102.932 671.115 112.191 670.864C113.227 668.539 112.891 669.308 113.031 666.581C115.176 656.21 122.293 649.501 131.971 645.997C160.933 635.516 192.239 627.537 221.819 619.189L305.407 595.138L473.705 545.73C505.356 536.324 537.73 527.463 569.048 517.177C562.683 513.443 557.196 510.014 549.45 510.465ZM632.026 823.453L631.265 823.687C627.492 824.833 625.811 824.95 621.872 825.327C619.864 829.107 621.587 834.628 622.474 838.927C623.946 840.608 623.26 840.09 625.485 840.834C629.617 840.65 629.993 841.294 632.988 839.412C635.715 834.427 635.38 829.308 633.925 823.796L632.026 823.453ZM1197.8 823.913C1189.2 830.278 1185.01 831.909 1174.85 835.59C1143.94 852.209 1100.88 861.352 1073.01 882.647C1072.97 882.672 1072.92 882.697 1072.88 882.722L1072.43 883.483C1060.89 903.156 1064.56 930.624 1068.73 953.107C1076.28 993.825 1119.41 959.774 1142.17 952.631C1151.86 949.586 1195.15 931.084 1197.79 921.348C1204.42 897 1205.48 848.245 1197.8 823.913ZM706.334 614.514C707.915 624.827 708.191 635.759 708.684 646.223C710.458 684.322 710.416 722.329 711.637 760.487C736.654 752.424 761.647 743.717 786.656 735.871C837.753 719.837 889.06 704.497 940.575 689.842C957.103 684.924 1001.42 674.603 1013.99 668.304C1006.04 666.046 1001.18 666.071 993.621 664.758C979.193 662.249 965.308 660.584 950.788 658.761L838.238 643.78C802.866 639.364 766.465 635.148 731.728 626.993C722.745 624.885 714.155 619.332 706.334 614.514Z" fill="#913B9F"/>
  <path d="M127.963 707.8C132.631 708.67 142.614 710.962 144.209 715.688L143.01 717.98C137.728 720.33 132.939 716.29 125.8 714.86C123.525 716.098 124.092 715.797 122.605 718.18L122.199 718.85C122.223 720.698 122.224 722.555 122.202 724.403C122.144 728.251 150.76 1097.66 148.76 1101.16L142.76 1100.66C138.976 1096.62 113.174 722.329 114.439 717.101C115.848 711.28 122.174 711.104 127.199 708.244L127.963 707.8Z" fill="#913B9F"/>
  <path d="M577.491 1266.04C581.882 1266.82 583.053 1268.13 583.672 1272.59C584.6 1279.35 582.894 1286.21 578.904 1291.74C577.457 1291.83 575.011 1292.13 574.677 1290.22C573.554 1283.81 575.289 1271.81 577.491 1266.04Z" fill="#913B9F"/>
  <path d="M132.086 710.324C137.063 710.224 532.487 847.127 536.215 851.025C538.158 853.058 537.485 854.505 537.26 857.164C532.196 857.114 137.289 720.328 133.26 716.664C131.365 714.941 131.991 712.892 132.086 710.324Z" fill="#913B9F"/>
  <path d="M143.26 1099.66H148.26C150.083 1103.19 160.26 1123.66 168.26 1131.16L166.26 1136.66C161.209 1131.14 139.341 1106.8 143.26 1099.66Z" fill="#913B9F"/>
  <path d="M557.26 869.664L559.26 867.664C568.26 862.664 583.26 1261.16 583.26 1270.66C582.256 1270.2 578.252 1267.21 577.26 1266.66C573.724 1261.01 552.564 874.867 557.26 869.664Z" fill="#913B9F"/>
  <path d="M531.014 848.664C535.373 849.359 552.479 855.802 555.76 859.164C564.76 870.664 558.26 883.164 553.76 863.664C547.752 863.271 534.115 858.76 530.084 854.001C530.084 850.664 529.496 852.294 531.014 848.664Z" fill="#913B9F"/>
  <path d="M178.26 1136.66C183.321 1137.15 571.767 1291.67 575.767 1290.17C576.867 1293.21 580.896 1287.89 579.767 1291.67C577.676 1291.48 578.98 1295.57 574.767 1296.17C565.867 1297.42 181.096 1144.9 177.837 1141.95C176.861 1138.7 176.971 1140.4 178.26 1136.66Z" fill="#913B9F"/>
  <path d="M164.06 1128.14C168.527 1128.43 176.692 1133.42 179.663 1137C181.189 1138.84 180.276 1140.58 179.775 1142.6C173.209 1141.79 161.439 1136.52 164.06 1128.14Z" fill="#913B9F"/>
  <path d="M1122.98 693.824C1137.76 692.536 1142.62 705.007 1144.23 717.536C1146.52 737.209 1151.39 766.233 1130.83 778.261C1099.07 796.855 1064.02 810.012 1030.11 824.072L906.65 874.835C868.467 890.258 830.317 906.017 791.549 919.859C781.529 923.439 772.629 926.726 762.048 928.299C757.975 928.132 754.78 927.613 750.773 927.028C739.323 917.417 739.816 909.881 738.402 896.531C735.634 870.276 735.617 851.649 762.885 839.01C817.57 813.675 876.103 790.832 931.818 767.99L1034.16 726.904C1056.22 717.879 1100.54 698.834 1122.98 693.824ZM747.085 863.141C745.83 872.961 745.738 883.015 746.616 892.876C747.628 904.202 746.273 919.333 761.178 919.776C776.987 916.781 798.918 908.016 814.224 902.111L885.471 874.023L997.979 828.17C1036.02 812.789 1074.07 797.005 1111.12 779.348C1115.87 777.082 1129.83 769.211 1132.85 764.56C1141.78 750.826 1136.5 727.088 1134.61 711.556C1133.78 704.756 1130.75 702.489 1124.23 702.205C1108.27 704.856 1085.32 715.395 1069.83 721.627L1009.3 745.674C954.644 767.513 900.201 789.871 845.967 812.738C818.03 824.49 789.684 834.795 762.634 848.889C755.901 852.402 751.4 857.119 747.085 863.141Z" fill="#913B9F"/>
  <path d="M721.431 1268.64C722.745 1268.82 723.564 1269.1 724.836 1269.44C727.504 1272.07 727.47 1275.25 728.984 1279.28C734.17 1281.63 1112.65 1104.25 1118.76 1109.16C1118.69 1111.97 1122.91 1111.4 1121.26 1114.16C1113.49 1118.1 732.497 1288.78 724.049 1285.26C717.233 1282.42 718.32 1273.83 721.431 1268.64Z" fill="#913B9F"/>
  <path d="M740.911 833.892C744.165 834.444 742.793 833.783 745.261 835.782L745.42 838.141C737.181 847.107 727.26 867.664 726.26 880.164C725.006 879.721 720.439 878.817 719.26 878.164C715.948 870.11 734.897 838.458 740.911 833.892Z" fill="#913B9F"/>
  <path d="M1157.76 697.165C1164.13 701.363 1164.25 741.751 1160.85 747.213C1158.53 746.368 1158.61 746.393 1156.64 744.904C1153.14 738.455 1152.37 702.61 1157.76 697.165Z" fill="#913B9F"/>
  <path d="M719.792 874.617C729.988 876.516 727.997 892.391 725.162 899.25C715.141 898.02 717.768 881.493 719.792 874.617Z" fill="#913B9F"/>
  <path d="M1066.27 696.007C1068.65 696.065 1069.76 696.241 1071.41 697.788L1071.17 699.888C1067.15 704.931 749.76 835.664 744.76 838.664C742.042 838.48 741.968 837.91 739.844 836.329L739.76 834.664C742.679 830.181 1060.95 698.24 1066.27 696.007Z" fill="#913B9F"/>
  <path d="M1128.97 671.664C1131.61 671.815 1132.49 672.108 1134.43 673.63L1134.4 675.336C1130.95 680.171 1069.86 702.358 1064.26 704.164C1062.3 704.817 1062.45 704.8 1060.47 704.231C1059.07 701.454 1059.19 702.843 1059.93 699.949C1064.13 695.549 1123.13 673.814 1128.97 671.664Z" fill="#913B9F"/>
  <path d="M1128.26 796.164C1130.34 796.608 1130.24 796.825 1131.79 798.381L1131.59 800.53C1129.09 804.361 735.867 949.203 730.982 950.984C728.08 950.089 729.259 950.859 727.26 948.667L727.603 946.677C731.492 942.218 1122.32 798.297 1128.26 796.164Z" fill="#913B9F"/>
  <path d="M718.76 882.164C720.215 882.901 724.939 878.686 726.26 879.664C729.205 884.85 731.917 1270.91 727.76 1275.66C726.447 1275.04 721.507 1273.9 720.26 1273.16C717.366 1267.82 713.8 886.33 718.76 882.164Z" fill="#913B9F"/>
  <path d="M1152.76 953.664C1153.2 953.857 1159.32 951.472 1159.76 951.664C1166.38 954.09 1151.64 1084.17 1140.26 1093.17C1138.33 1092.72 1137.88 1092.42 1136.08 1091.56C1132.57 1086.53 1149.2 958.558 1152.76 953.664Z" fill="#913B9F"/>
  <path d="M1152.26 774.164C1154.86 775.302 1157.06 776.722 1157.76 779.164C1156.15 783.773 1136.11 797.549 1131.36 800.041C1128.34 799.188 1129.5 799.999 1127.62 797.741L1127.92 795.776C1131.24 791.727 1147.53 777.084 1152.26 774.164Z" fill="#913B9F"/>
  <path d="M1156.76 736.664L1160.21 737.777C1165.67 743.699 1158.52 775.383 1155.17 781.196C1152.61 780.761 1152.52 781.004 1150.75 779.206C1150.15 774.354 1155.05 742.051 1156.76 736.664Z" fill="#913B9F"/>
  <path d="M1153.87 682.131L1156.3 682.599C1162.04 686.388 1162.46 714.826 1160.76 720.664C1152.79 717.193 1151.24 688.897 1153.87 682.131Z" fill="#913B9F"/>
  <path d="M1136.76 1085.16C1139.15 1085.3 1141.91 1082.95 1144.26 1083.66C1147.99 1089.04 1123.64 1112.98 1119.5 1115.22C1116.62 1114.94 1115.48 1114.5 1114.58 1112C1115.71 1107.83 1125.76 1108.16 1136.76 1085.16Z" fill="#913B9F"/>
  <path d="M1130.74 672.771C1135.96 672.495 1151.48 678.197 1155.83 680.999C1157 683.717 1156.91 682.371 1156.26 685.164L1154.3 686.109C1149.54 685.917 1129.04 680.658 1126.41 677.103C1127.84 673.975 1127.39 674.954 1130.74 672.771Z" fill="#913B9F"/>
  <path d="M854.406 531.917L858.446 532.166C864.728 536.207 870.533 546.271 868.734 553.801C861.959 553.194 853.511 538.76 854.406 531.917Z" fill="#913B9F"/>
  <path d="M871.76 563.664C878.335 564.717 883.706 569.857 886.75 575.367C889.201 579.81 897.882 583.713 896.26 588.164L892.259 590.164C886.672 586.953 870.648 570.277 871.76 563.664Z" fill="#913B9F"/>
  <path d="M836.741 499.992C842.939 501.755 896.311 583.349 898.26 589.164C899.097 591.676 878.64 572.79 877.26 574.664C871.773 572.001 837.21 511.555 835.42 505.759C834.633 503.203 835.595 502.178 836.741 499.992Z" fill="#913B9F"/>
  <path d="M697.346 849.888C700.056 850.959 701.411 851.662 701.26 854.664C697.697 859.306 673.262 866.327 667.557 867.331C664.772 867.481 662.547 866.645 662.338 863.651C665.048 859.318 692.093 851.227 697.346 849.888Z" fill="#913B9F"/>
  <path d="M667.821 860.835C671.417 861.537 670.079 860.676 672.346 862.859C672.923 865.653 673.199 864.44 671.76 866.665C666.365 869.734 636.082 873.054 629.901 873.188C627.057 872.619 627.024 872.77 624.69 870.855L624.933 869.173C628.755 865.568 662.568 861.395 667.821 860.835Z" fill="#913B9F"/>
  <path d="M694.26 1299.66C696.586 1300.72 696.46 1300.58 698.016 1302.59L697.74 1304.39C694.21 1308.78 660.605 1315.37 655.26 1317.16C652.659 1316.73 652.826 1316.64 650.71 1314.98L650.626 1313.05C653.169 1308.78 689.442 1301.35 694.26 1299.66Z" fill="#913B9F"/>
  <path d="M629.43 1313.25C634.741 1312.65 653.429 1309.73 657.561 1313.76L657.502 1315.51C655.47 1317.81 637.1 1319.6 634.03 1320.16C629.12 1320.58 624.286 1321.9 621.107 1317.42L621.76 1315.51C624.102 1313.26 626.117 1313.53 629.43 1313.25Z" fill="#913B9F"/>
  <path d="M1116.87 890.953C1140.93 888.393 1144.65 923.857 1120.58 932.883C1103.68 934.764 1096.64 921.114 1101.74 906.058C1104.66 897.435 1109.14 894.599 1116.87 890.953ZM1118.04 923.95C1128.57 918.513 1132.27 901.86 1117.42 900.965C1107.37 907.054 1105.04 922.578 1118.04 923.95Z" fill="#913B9F"/>
  <path d="M1103.92 874.968C1106.38 875.203 1106.26 875.362 1108.35 876.8L1108.48 878.774C1104.76 882.164 1097.19 886.135 1092.49 888.008L1082.76 890.664C1081 888.49 1082.96 891.558 1082.76 888.664C1085.53 883.696 1098.57 877.302 1103.92 874.968Z" fill="#913B9F"/>
  <path d="M1079.57 895.376C1084.76 883.164 1083.25 889.506 1083.76 889.664C1081.76 891.164 1087.56 948.591 1085.07 953.074L1082.26 952.664C1076.86 948.231 1077.46 901.005 1079.57 895.376Z" fill="#913B9F"/>
  <path d="M1201.76 833.664L1203.94 835.371C1205.76 841.702 1106.3 880.297 1101.26 882.664C1099.45 881.017 1099.59 881.1 1098.6 878.833C1099.82 873.221 1196.85 835.287 1201.76 833.664Z" fill="#913B9F"/>
  <path d="M1202.95 909.155C1205.27 909.097 1201.77 911.562 1202.95 913.654L1202.17 915.669C1198.47 919.107 1108.28 957.073 1103.61 958.838C1101.43 959.591 1101.57 959.507 1099.26 959.164C1099.09 958.68 1098.38 958.274 1099.95 957.155C1115.45 948.155 1199.57 910.826 1202.95 909.155Z" fill="#913B9F"/>
  <path d="M1081.27 951.081C1088.3 950.77 1101.51 952.472 1101.26 959.664C1094.87 958.95 1080.82 958.276 1081.27 951.081Z" fill="#913B9F"/>
  <path d="M1048.68 676.894L1050.65 677.003L1050.04 678.224C1039.78 683.603 1018.4 691.549 1006.53 696.483L908.448 736.933L762.316 798.151C722.711 814.52 686.159 833.064 643.878 839.387L642.055 838.81C638.801 827.192 657.805 814.662 666.462 810.513C731.335 779.415 801.762 759.425 869.738 736.03C929.032 715.621 989.464 697.588 1048.68 676.894Z" fill="#913B9F"/>
  <path d="M223.748 711.146C230.762 710.945 284.08 727.716 293.929 730.501C359.709 748.417 425.268 767.128 490.594 786.642C514.38 793.559 538.062 800.836 561.629 808.473C579.339 814.277 608.932 820.592 615.44 839.939C589.987 842.975 531.855 819.229 505.855 810.212L353.488 756.882L276.74 730.618C263.142 726.068 235.752 717.511 223.748 711.146Z" fill="#913B9F"/>
  <path d="M1155.39 834.293C1155.13 829.718 1154.81 760.005 1160.26 758.164C1164.19 762.087 1161.83 826.054 1161.76 831.29C1166.8 829.81 1169.15 829.283 1173.79 826.598C1173.92 829.994 1172.77 832.236 1173.87 834.996L1174.85 835.59C1143.94 852.209 1100.88 861.352 1073.01 882.647C1072.97 882.672 1072.92 882.697 1072.88 882.722L1072.71 881.459C1075.83 874.592 1082.25 878.816 1081.46 868.486C1073.56 870.987 1071.73 876.139 1064.9 879.987C1076.13 861.719 1132.23 846.689 1155.39 834.293Z" fill="#913B9F"/>
  <path d="M346.414 507.688L347.914 508.136C347.136 511.915 346.384 515.7 345.658 519.49C343.781 515.961 345.014 511.259 346.414 507.688Z" fill="#913B9F"/>
  <path d="M646.362 261.201C654.685 258.382 663.76 262.563 667.022 270.722C668.728 274.975 668.586 279.744 666.645 283.892C664.697 288.04 661.117 291.195 656.759 292.605C648.11 295.405 638.826 290.697 635.965 282.067C633.105 273.436 637.755 264.117 646.362 261.201Z" fill="#913B9F"/>
</svg>
