<svg xmlns="http://www.w3.org/2000/svg" width="1630" height="1370" viewBox="0 0 1630 1370" fill="none">
  <path d="M1324.19 0.163983C1325.19 0.0820901 1326.2 0.0333588 1327.2 0.0178677C1341.45 -0.277914 1361.43 3.15295 1375.31 6.27568C1522.91 39.4726 1626.28 184.902 1629.05 333.121C1629.71 368.615 1618.28 410.11 1593.3 435.414C1581.18 447.906 1565 455.682 1547.68 457.355C1472.8 464.528 1414.67 365.014 1369.26 366.244C1360.72 366.475 1354.57 371.144 1349.06 377.143C1334.81 392.621 1333.67 416.925 1335.13 436.856C1336.62 457.242 1342 477.618 1347.22 497.323C1359.41 543.349 1375.88 588.072 1388.02 634.123C1397.9 671.609 1405.35 710.44 1406.84 749.251C1409.05 806.777 1386.5 875.454 1346.94 917.917C1317.8 949.189 1277.81 971.03 1235.39 976.871C1225.1 978.291 1214.31 978.17 1203.92 978.517C1194.7 990.329 1191.41 993.557 1180.14 1003.38L1180.35 1004.05C1186.91 1024.22 1172.85 1037.32 1154.31 1041.79C1125.57 1048.71 1096.3 1052.54 1067.1 1057.08C1040.97 1061.26 1014.77 1065.05 988.521 1068.45C965.314 1071.58 906.913 1082.67 887.256 1064.76C874.043 1052.72 877.189 1031.03 889.95 1018.12C852.586 1025.06 809.407 1029.03 771.457 1033.37C758.621 1034.85 724.491 1036.37 714.844 1027.58C709.291 1022.54 705.629 1012.64 705.748 1005.05C706.345 966.818 752.73 953.175 782.976 952.344C743.29 913.762 732.493 852.136 753.227 801.282C760.168 782.676 775.119 768.969 790.372 757.475C790.681 743.23 790.341 728.511 790.188 714.23C757.221 729.991 775.802 764.032 739.993 772.533C718.855 777.552 704.865 758.379 702.692 738.807C698.115 697.597 724.703 660.119 753.681 633.405C760.906 626.681 773.758 616.047 779.263 608.458L779.851 607.635C778.693 595.981 773.003 578.303 769.188 567.072C752.862 570.377 744.627 573.195 726.594 573.284C676.816 574.748 603.433 546.984 606.384 486.809C608.345 446.835 633.477 390.245 656.615 356.932C665.532 344.095 680.659 332.286 691.909 321.61C693.742 291.882 699.854 264.795 717.887 240.031C727.063 227.429 744.024 221.554 756.929 233.095C771.811 246.405 777.977 269.206 779.317 288.869C791.04 286.153 804.655 288.637 815.9 292.313C825.039 271.383 841.358 247.804 862.314 237.8C884.513 227.198 900.138 251.693 906.808 268.446C918.618 298.086 915.98 321.216 904.122 349.72C911.89 364.794 926.289 406.237 936.541 414.485C967.307 439.244 1015.91 455.255 1049.87 477.332C1091.55 504.419 1123.82 533.741 1156.03 571.345C1166.16 583.166 1173.15 596.341 1182.49 607.648L1183.18 608.473C1171.57 568.174 1163.68 525.649 1152.63 484.506C1131.03 406.427 1108.73 331.746 1101.56 250.81C1088.95 108.4 1181.88 7.97558 1324.19 0.163983ZM948.673 980.518C942.01 973.305 933.654 965.253 928.305 957.096C886.425 893.171 891.797 807.333 948.423 753.081C989.981 713.254 1058.3 705.682 1104.1 744.378C1114.53 753.185 1106.73 771.124 1092.35 767.78C1077.21 763.416 1066.81 755.492 1050.34 752.773C1037.48 751.701 1027.89 751.163 1015.09 754.455C968.355 766.473 940.115 809.576 936.541 856.324C933.766 890.138 944.696 923.645 966.871 949.318C975.091 958.895 985.085 967.698 995.636 974.628C1003.14 979.55 1013.3 983.237 1019.51 989.708C1025.33 995.759 1022.97 1003.15 1019.4 1009.23C1016.59 1010.85 1013.23 1012.87 1010.07 1013.45C977.72 1019.39 935.372 1013.49 911.882 1041.49C958.135 1041.18 1009 1032.07 1055.34 1025.93C1081.64 1022.43 1126.29 1017.67 1150.03 1009.47C1148.06 1004.17 1143.84 993.944 1147.34 988.441C1158.3 971.199 1178.94 957.5 1189.21 939.572C1226.79 873.945 1216.16 791.289 1195.34 722.722C1165.35 623.987 1092.13 542.058 1002.36 493.417C971.816 476.973 923.337 460.646 903.856 431.249C895.951 419.319 886.893 392.821 882.408 378.784C876.269 380.039 870.074 381.29 864.516 377.387C861.992 375.609 860.644 372.912 860.346 369.863C858.507 351.165 895.935 331.198 882.343 284.946C880.77 279.611 878.39 271.895 873.978 268.257C872.865 267.338 871.792 266.836 870.364 266.591C854.353 280.723 842.188 303.965 835.622 324.091C833.428 330.269 833.324 338.443 829.766 343.948C825.402 350.697 813.045 352.295 807.922 345.623C802.599 338.691 806.39 327.426 808.277 319.601C760.115 317.855 733.693 325.891 697.454 359.524C689.062 367.16 681.663 375.822 675.432 385.304C661.238 407.131 638.191 463.733 637.374 488.983C637.319 490.806 637.296 492.628 637.306 494.452C645.514 492.788 663.143 487.962 669.06 493.143C680.835 503.453 665.47 519.194 657.077 524.275C691.556 547.663 745.13 547.341 782.401 531.969C791.164 528.354 807.334 520.773 816.287 526.291C833.549 541.231 811.544 551.952 799.057 557.055C810.52 589.827 816.699 623.963 819.006 658.665C824.225 737.235 816.247 818.411 852.489 891.356C870.961 928.535 906.792 970.385 948.673 980.518ZM1147.81 303.508C1151 313.797 1153.16 328.138 1155.76 339C1169.08 394.772 1185.53 449.992 1199.33 505.595C1211.79 556.319 1223.04 607.331 1233.09 658.59C1242.78 707.502 1254.11 767.697 1254.02 817.548C1254.08 859.648 1245.48 901.304 1228.78 939.935C1239.29 936.038 1250.99 933.634 1261.31 929.269C1311.15 908.154 1345.19 865.013 1358.56 812.941C1386.23 705.135 1329.88 599.355 1305.12 496.691C1294.53 452.775 1284.84 401.446 1309.88 360.574C1319.7 344.638 1336.17 331.531 1354.79 327.844C1415.05 316.848 1457.67 375.448 1503.51 404.223C1529.08 420.278 1555.7 425.284 1572.9 395.658C1593.9 359.467 1591.9 305.189 1581.68 265.743C1560.86 185.46 1509.18 114.97 1437.8 72.4322C1391.78 44.8998 1330.88 31.4238 1278.9 45.4102C1222.52 60.5764 1186.76 90.7206 1157.46 139.227C1132.59 193.404 1138.69 246.753 1147.81 303.508ZM742.201 256.368C730.146 270.752 725.253 286.118 720.886 304.133L729.781 299.494C737.737 296.446 744.982 293.767 753.421 292.073C752.27 280.603 751.028 264.518 742.201 256.368ZM789.011 685.318C788.695 679.469 786.634 642.325 785.557 640.448C760.505 665.056 732.143 690.847 730.59 728.875C730.356 734.598 731.41 740.667 734.687 745.455C739.574 740.322 740.817 734.23 743.382 727.659C752.518 704.254 766.105 693.533 789.011 685.318ZM891.87 986.691C836.752 947.753 809.108 885.418 797.743 820.469C797.13 816.951 795.339 797.329 794.335 796.11C779.587 812.086 773.424 834.975 774.335 856.364C775.919 887.427 789.765 916.594 812.835 937.45C820.837 944.736 835.332 953.635 836.042 965.132C836.236 968.36 835.784 971.595 833.461 973.999C818.723 989.24 762.732 971.07 735.776 1001.82C747.92 1002.12 760.393 1002.28 772.451 1000.66C800.832 1000.05 833.235 994.178 861.548 990.692C871.704 989.442 881.585 987.473 891.87 986.691Z" fill="#8E4B98"/>
  <path d="M880.165 577.564C882.335 577.403 886.287 577.299 888.215 578.094C892.313 579.788 895.056 583.031 896.806 586.996C900.509 595.386 903.017 608.418 905.405 616.452C920.255 666.383 883.263 677.54 868.025 719.523C863.669 731.515 859.838 750.784 864.492 764.025C865.17 765.957 866.686 766.504 868.267 767.059C875.47 764.023 878.689 741.848 884.852 730.429C903.711 695.496 943.801 694.297 958.417 659.244C962.805 648.718 962.999 643.227 963.943 631.843C965.233 624.742 959.119 598.655 964.887 594.036C991.594 572.658 993.547 612.9 994.152 623.364C994.579 628.593 994.168 638.694 993.514 643.767C988.957 678.993 972.687 702.831 941.446 719.369C932.403 724.753 922.288 730.162 915.706 738.551C911.689 743.952 908.688 751.446 907.058 757.999C902.057 778.189 888.344 799.306 864.048 796.078C855.611 794.949 847.996 790.43 842.955 783.564C821.046 753.945 838.22 704.032 857.797 677.56C863.242 667.804 876.39 654.74 879.705 644.567C885.787 625.916 861.709 590.969 880.165 577.564Z" fill="#8E4B98"/>
  <path d="M748.316 433.131C755.381 431.059 763.013 432.949 768.297 438.078C773.58 443.207 775.696 450.781 773.837 457.906C771.978 465.032 766.43 470.606 759.316 472.499C748.506 475.373 737.394 469.021 734.384 458.247C731.373 447.472 737.582 436.279 748.316 433.131Z" fill="#8E4B98"/>
  <path d="M744.411 391.745C754.234 393.816 756.791 402.666 765.307 408.424C774.912 414.919 790.893 412.349 797.234 421.481C799.517 424.774 796.452 429.484 792.647 431.127C774.936 432.511 752.154 422.597 741.031 408.673C736.368 402.835 738.324 395.595 744.411 391.745Z" fill="#8E4B98"/>
  <path d="M1147.81 303.508C1147.36 302.982 1146.61 302.158 1146.47 301.472C1136.31 254.278 1132.18 182.168 1156.11 139.443L1157.46 139.227C1132.59 193.404 1138.69 246.753 1147.81 303.508Z" fill="#692674"/>
  <path d="M684.112 1120.83C693.974 1120.03 703.902 1120.87 713.485 1123.34C748.592 1132.25 760.043 1146.7 776.929 1175.36C825.854 1175.38 890.732 1193.37 909.995 1245.01C917.424 1264.91 914.891 1290.96 905.397 1310.03C878.786 1363.48 798.807 1384.15 746.928 1357.93C735.131 1352.09 723.902 1343.2 720.199 1330.08C707.948 1286.68 752.214 1276.78 783.876 1269.25C800.058 1265.41 806.333 1255.15 800.969 1238.94C795.202 1227.86 786.645 1224.6 775.315 1222.19C772.125 1227.85 767.748 1234.86 766.008 1240.97C766.943 1245.58 769.508 1256.78 764.159 1259.93C743.754 1271.88 713.922 1280.71 690.206 1280.49C677.674 1280.37 676.362 1270.12 677.642 1260.7C662.543 1261.62 650.266 1260.41 635.312 1259.3C624.983 1269.28 612.386 1276.61 598.603 1280.66C584.442 1284.82 569.311 1287.22 555.962 1279.91C548.719 1267.45 551.966 1263.47 561.82 1254.48C536.969 1259.2 480.079 1265.05 474.503 1227.47C473.696 1222.02 477.467 1213.63 479.074 1208.42C485.686 1186.97 492.622 1165.42 513.878 1154.17C526.068 1147.47 532.616 1145.61 546.722 1145.1C548.859 1142.9 551.115 1139.57 553.221 1137.74C573.082 1120.56 585.946 1129.85 590.694 1151.46C607.779 1146.87 619.441 1140.22 635.52 1133.33C650.979 1126.7 667.368 1122.48 684.112 1120.83ZM589.324 1165.56C588.051 1171.95 582.62 1189.64 573.672 1179.88C570.85 1170.62 580.844 1149.57 572.512 1143.55C561.003 1143.22 556.399 1169.81 543.927 1171.86C538.261 1169.82 541.875 1162.56 542.98 1157.96C503.977 1167.78 498.929 1193.02 489.157 1228C497.413 1230.26 496.984 1230.84 500.373 1238.89C527.123 1251.47 556.907 1237.9 587.031 1238.07C591.531 1231.74 594.196 1224.52 600.312 1221.51C606.218 1221.74 605.782 1228.17 605.222 1232.61C603.962 1242.6 597.05 1248.32 589.311 1253.56C584.027 1257.58 568.551 1264 566.684 1268.64L567.243 1269.56C584.361 1270.17 606.45 1264.56 619.936 1253.05C630.069 1244.39 626.767 1231.63 637.807 1229.82C643.796 1232.7 641.66 1241.24 640.114 1246.33C656.996 1246.46 673.455 1246.81 690.304 1245.44C653.062 1215.69 698.177 1171.53 711.738 1183.21C715.947 1192.39 702.636 1195.04 697.168 1201.68C672.416 1231.7 713.01 1237.48 716.268 1250.51C712.915 1259.5 701.722 1259.15 694.305 1264.6L694.242 1265.59C705.544 1268.03 740.945 1256.13 752.722 1250.99C748.435 1236.05 751.015 1233.96 759.612 1221.93C762.961 1217.24 761.753 1207.84 769.168 1205.44C771.718 1205.7 771.152 1205.81 773.218 1207.11C776.971 1209.48 782.483 1209.74 786.934 1210.78C811.431 1216.51 825.676 1243.83 812.294 1266.3C796.734 1292.41 756.462 1282.34 737.551 1304.44C725.198 1318.66 737.274 1335.91 750.656 1343.66C774.074 1357.22 799.703 1358.31 825.531 1351.73C851.303 1345.33 876.035 1331.44 889.837 1308.11C899.541 1291.87 902.17 1272.38 897.113 1254.15C885.674 1211.96 834.574 1194 795.331 1189.87C786.654 1188.95 776.374 1190.79 768.009 1188.1C764.385 1186.65 758.714 1172.36 755.393 1167.73C740.653 1147.17 713.303 1133.66 688.135 1135.32C674.282 1136.52 660.668 1139.67 647.7 1144.69C623.597 1154.24 617.48 1161.64 589.324 1165.56Z" fill="#8E4B98"/>
  <path d="M527.384 1202.13C544.673 1200.64 551.556 1214.2 536.832 1219.81C530.554 1218.48 518.917 1217.6 518.367 1209.73C520.13 1205.43 523.382 1204.15 527.384 1202.13Z" fill="#8E4B98"/>
  <path d="M189.168 1040.11C231.787 1038.59 250.794 1059.62 285.832 1070C291.855 1040.37 310.435 1047.95 325.375 1066.16C327.506 1066.31 329.634 1066.5 331.758 1066.74C361.737 1070.21 375.594 1092.07 383.454 1119.43C391.085 1145.99 389.699 1159.25 358.722 1166.73C343.808 1170.35 328.383 1167.02 313.165 1164.08C327.138 1179.04 316.902 1188.91 299.718 1188.26C279.331 1187.5 260.11 1179.59 245.652 1165.13C233.042 1166.2 219.689 1165.63 207.062 1165.11C209.667 1175.73 206.41 1182.39 193.925 1181.85C176.098 1181.09 157.155 1173.22 140.818 1166.34C126.993 1160.51 129.022 1153.65 129.943 1141L127.027 1135.71C121.514 1125.49 117.633 1128.56 108.329 1132.56C103.271 1135.65 97.5591 1143.03 97.864 1149.62C99.2127 1178.76 148.808 1170.12 163.049 1192.58C168.461 1201.1 172.016 1207.2 170.655 1215.97C162.928 1253.74 122.703 1259.06 89.9719 1256.32C16.5318 1250.15 -35.5497 1165.34 29.8286 1111.85C50.5241 1094.93 94.1059 1083.39 122.525 1087.71C136.941 1057.1 156.32 1045.27 189.168 1040.11ZM130.694 1098.8C121.212 1098.7 108.837 1098.15 99.6887 1099.12C75.8573 1101.63 46.4964 1111.71 29.2646 1128.46C4.32719 1152.69 9.6269 1195.8 33.9108 1218.64C51.991 1235.65 75.4983 1245.14 100.461 1245.19C118.475 1245.19 136.952 1242.45 150.438 1229.42C159.98 1220.22 159.777 1205.72 149.664 1196.95C130.435 1180.26 89.1805 1186.09 85.5119 1153.79C84.7247 1146.39 87.0768 1136.48 92.1296 1130.81C100.569 1121.36 112.434 1116.45 124.92 1115.06C127.005 1114.84 127.94 1114.94 129.825 1115.53C133.406 1119.78 142.181 1138.07 143.905 1143.52L142.041 1153.2C149.758 1156.75 188.454 1172.09 194.856 1168.71C188.996 1162.74 173.858 1160.59 173.741 1151.4C175.584 1147.28 184.452 1144.89 189.15 1142.52C199.844 1134.78 198.883 1122.86 191.88 1112.79C188.305 1107.65 177.947 1101.82 177.355 1096C185.929 1081.98 230.008 1119.61 198.997 1151.63C205.41 1152.1 236.373 1154.95 239.851 1152.46C239.588 1148.62 238.749 1143.58 240.163 1140.27C242.332 1138.28 241.07 1138.96 244.227 1138.48C255.682 1144.14 252.027 1165.96 288.403 1173.83C293.732 1174.98 299.976 1176.63 305.397 1175.69L305.696 1174.48C298.27 1165.75 269.326 1157.37 270.624 1137.91C270.753 1135.97 271.127 1135.38 272.069 1133.73C275.004 1132.19 273.455 1132.55 276.929 1132.81C283.338 1136.2 283.686 1144.75 289.999 1148.02C293.422 1149.79 300.211 1148.08 304.13 1148.81C323.782 1152.49 341.643 1158.75 361.54 1152.2C366.003 1147.43 366.96 1145.13 373.222 1144.41C374.811 1141.79 374.722 1138.48 373.685 1135.62C366.813 1116.72 363.374 1093.97 344.02 1083.42C339.734 1081.08 334.417 1078.52 329.71 1078.27C329.658 1082.34 330.105 1085.4 327.446 1088.26C324.78 1089.26 324.905 1089.17 322.059 1088.57C314.034 1081.89 312.338 1062.09 301.207 1063.09C294.008 1068.68 304.145 1088.94 300.281 1096.62C292.223 1101.24 288.714 1088.54 286.938 1082.94C281.9 1081.58 269.69 1078.48 265.331 1076.62C237.301 1064.63 218.672 1050.24 186.315 1053.75C166.139 1057.78 152.135 1064.29 139.783 1081.76C135.618 1087.65 133.904 1092.8 130.694 1098.8Z" fill="#8E4B98"/>
  <path d="M329.68 1116.5C330.422 1116.48 331.165 1116.46 331.907 1116.46C337.855 1116.45 349.466 1120.15 349.321 1127.42C348.027 1129.81 347.479 1129.86 345.068 1131.05C336.758 1130.93 312.234 1127.8 329.68 1116.5Z" fill="#8E4B98"/>
  <path d="M1068.92 1171.95C1072.11 1172.21 1074.11 1172.99 1075.87 1175.83C1076.64 1184.69 1064.46 1189.66 1056.98 1190.31C1053.96 1189.32 1051.47 1188.11 1050.03 1185.18C1050.63 1177.5 1060.5 1179.37 1068.13 1172.66L1068.92 1171.95Z" fill="#8E4B98"/>
  <path d="M561.78 1002.34C568.698 1002.42 568.8 1003.8 573.399 1008.76C577.901 1009.43 582.377 1009.59 584.035 1014.27C583.631 1017.15 582.945 1017.54 580.933 1019.87C570.548 1021.91 556.182 1015.48 561.78 1002.34Z" fill="#8E4B98"/>
  <path fill-rule="evenodd" clip-rule="evenodd" d="M1356.04 1084.44C1371.86 1083.37 1387.63 1087.26 1401.15 1095.57C1442.73 1121.49 1435.56 1179.79 1386.37 1189.57C1376.32 1191.57 1369.74 1191.45 1359.76 1191.45C1332.6 1191.41 1310.62 1182.2 1291.4 1163.21C1285.26 1157.43 1273.24 1144.71 1266.88 1140.65L1266.05 1140.13C1267.91 1157.13 1268.3 1163.51 1264.4 1180.06C1268.64 1185.15 1272.21 1192.58 1267.09 1198.89C1257.59 1210.59 1226 1239.06 1209.82 1228.89C1200.84 1223.24 1205.66 1211.81 1211 1204.18C1202.81 1205.2 1192.57 1207.82 1184.06 1209.23C1172.08 1211.22 1162.3 1211.75 1150.2 1212.5C1125.85 1244.36 1056.76 1254.36 1083.78 1216.21L1061.78 1222.43C1039.72 1227.37 1016.36 1226.7 1008.65 1200.99C999.919 1201.24 981.625 1201.89 978.745 1192.69C973.76 1176.72 1002.73 1168.61 1010.99 1165.98C1015.08 1154.98 1016.96 1151.36 1022.86 1141.52C1016.29 1107.23 1041.2 1096.91 1051.48 1123.88C1055.76 1123.8 1060.04 1123.41 1064.31 1123.07C1068.65 1118.5 1071.36 1113.78 1077.28 1110.98C1090.65 1104.65 1096.09 1115.77 1100.5 1125.75C1122.98 1120.66 1143.82 1099.79 1168.29 1093.15C1199.14 1084.78 1214.94 1089.38 1241.82 1103.3C1294.01 1084.91 1313.77 1137.82 1345.17 1134.28C1346.91 1134.09 1347.29 1134.03 1348.36 1132.74C1346.29 1126.21 1314.75 1119.37 1329.67 1098.55C1336.38 1089.17 1344.91 1086.2 1356.04 1084.44ZM1244.23 1124.96C1230.28 1107.39 1209.78 1100.08 1187.37 1101.45C1172.23 1103.16 1157.75 1109.25 1144.7 1116.95C1129.08 1126.18 1120.14 1135.95 1101.23 1137.03C1099.75 1143.5 1097.97 1152.93 1089.46 1153.12C1083.26 1146.13 1092.47 1128.9 1084.27 1122.37C1077.96 1122.59 1073.27 1145.6 1064.74 1146.91C1060.62 1145.12 1061.85 1137.96 1062.26 1134.19C1026.31 1143.89 1022.57 1164.45 1022.8 1198.59C1034.81 1196.94 1037.62 1200.08 1035.39 1212.05C1064.83 1211.41 1084.23 1198.66 1109.53 1198.51C1111.78 1192.55 1113.49 1185.48 1120.67 1184.17C1126.26 1186.69 1122.65 1195.45 1120.58 1199.6C1114.59 1211.56 1099.56 1218 1091.77 1227.21L1092.34 1228.08C1098.18 1228.54 1106.94 1226.05 1112.48 1224.05C1122.35 1219.74 1135.63 1214.17 1139.94 1203.27C1142.56 1196.65 1140.84 1188.3 1148.5 1184.13C1149.89 1183.37 1149.65 1183.64 1151.32 1183.78C1155.79 1187.45 1154.85 1194.62 1154.2 1199.68C1170.07 1199.27 1177.93 1198.16 1193.75 1194.59C1172.65 1170.68 1199.56 1141.17 1208.92 1149.9C1210.05 1159.59 1186.41 1171.49 1202.93 1186.79C1212.78 1195.91 1233.17 1185.2 1236.57 1194.2C1234.62 1203.98 1217.89 1210.88 1217.47 1217.37C1221.67 1218.56 1224.96 1215.89 1228.99 1213.63C1239.56 1207.67 1249.11 1200.05 1257.25 1191.05C1253.83 1186.82 1250.7 1183.97 1251.99 1178.32C1256.42 1158.89 1257.51 1141.7 1244.23 1124.96ZM1009.7 1175.91C1009.95 1174.86 1009.02 1173.93 1007.96 1174.19C1005.69 1174.74 1001.1 1176.01 996.689 1178.04C994.483 1179.05 992.306 1180.26 990.483 1181.67C988.662 1183.09 987.165 1184.73 986.36 1186.61C985.931 1187.61 985.846 1188.53 986.098 1189.35C986.349 1190.17 986.912 1190.82 987.651 1191.34C989.108 1192.36 991.365 1192.94 993.788 1193.27C998.664 1193.93 1004.56 1193.6 1007.09 1193.41C1008.09 1193.34 1008.66 1192.34 1008.39 1191.44C1006.49 1185.12 1008.47 1181.19 1009.7 1175.91ZM1360.15 1096.32C1359.03 1096.35 1357.91 1096.39 1356.79 1096.44L1355.81 1096.65C1319.08 1104.78 1354.67 1118.08 1357.47 1126.3C1365.75 1150.59 1336.76 1148.72 1321.62 1140.55C1295.83 1126.64 1281.94 1108.05 1251.12 1112.2C1253.11 1114.41 1259.17 1122.01 1261.05 1123.23C1273.24 1131.13 1280.65 1135.15 1291.11 1145.59C1306.1 1160.97 1318.89 1173.16 1340.89 1177.74C1369.66 1183.72 1415.71 1180.73 1415.79 1141.5C1415.89 1130.4 1411.41 1119.76 1403.42 1112.07C1392.69 1101.57 1374.94 1096.05 1360.15 1096.32ZM1034.45 1115.16C1033.87 1115.22 1033.36 1115.49 1032.94 1115.98C1032.28 1116.75 1031.81 1117.95 1031.46 1119.31C1031.1 1120.69 1030.85 1122.3 1030.68 1123.94C1030.33 1127.23 1030.28 1130.69 1030.29 1132.8C1030.29 1134.07 1031.74 1134.69 1032.7 1133.95C1036.64 1130.87 1039.44 1129.24 1043.84 1127.68C1044.71 1127.36 1045.13 1126.33 1044.63 1125.51C1043.64 1123.89 1041.59 1120.68 1039.43 1118.28C1038.36 1117.09 1037.21 1116.05 1036.13 1115.52C1035.58 1115.26 1035.01 1115.1 1034.45 1115.16Z" fill="#8E4B98"/>
  <path fill-rule="evenodd" clip-rule="evenodd" d="M279.352 905.306C294.028 903.515 317.931 908.203 324.399 925.081C329.831 939.265 307.51 944.671 304.041 951.174C309.287 957.87 330.18 946.01 335.806 942.549C363.673 925.412 376.241 921.064 408.03 929.019C444.057 910.01 473.53 917.909 506.047 939.79C515.035 945.842 528.235 954.506 538.493 957.411C545.544 934.997 560.505 940.29 572.541 955.297L583.723 955.652C589.293 947.503 599.881 936.022 609.079 947.842C615.319 955.862 613.655 966.246 612.056 975.605C616.979 983.487 618.823 989.91 622.015 998.631C630.559 1002.22 661.251 1012.02 648.089 1028.93C644.298 1033.8 630.292 1032.72 623.868 1032.6C615.309 1053.34 597.98 1055.15 578.427 1051.67C566.66 1049.11 560.132 1046.15 548.793 1041.69C549.591 1042.64 550.361 1043.63 551.106 1044.63C553.638 1048.06 556.077 1054.39 555.084 1058.55C552.098 1070 533.452 1066.94 525.119 1064.15C509.233 1058.85 496.958 1052.06 489.053 1037.07C468.586 1036.34 452.032 1032.07 432.426 1026.74C436.221 1036.66 439.407 1051.14 423.209 1051.54C413.655 1051.79 403.628 1043.9 396.36 1038.25C385.826 1030.04 365.628 1014.87 380.149 1000.88C377.025 984.852 376.803 976.63 381.746 961.276C362.662 973.297 350.69 993.331 328.038 1001.5C294.253 1013.7 233.464 1010.4 226.048 965.673C224.079 953.224 227.091 940.492 234.432 930.245C245.029 915.634 261.957 908.073 279.352 905.306ZM538.571 969.481C504.204 959.323 482.782 927.776 444.819 930.422C412.573 933.432 386.37 954.789 390.238 989.273C390.799 994.275 392.089 998.987 393.263 1003.88C391.154 1006.32 388.506 1009.25 386.522 1011.73C391.482 1018.63 414.522 1038.3 422.352 1039.14L423.238 1038.26C422.341 1030.4 404.256 1024.56 408.624 1013.95C415.804 1008.97 438.63 1021.14 444.688 1000.7C447.624 990.79 426.7 980.47 436.677 972.498C437.531 971.813 438.334 972.16 439.639 972.241C447.013 976.291 452.087 985.368 454.647 993.226C458.17 1004.04 453.651 1011.31 446.433 1019.22C457.391 1021.37 473.973 1024.85 484.701 1025.81C483.869 1019.95 483.292 1016.82 485.864 1011.17L487.17 1010.12C495.365 1011.36 496.829 1024.28 498.886 1030.39C503.364 1043.69 522.504 1050.32 534.537 1053.83C537.762 1054.67 539.215 1055.33 542.456 1054.75L543.422 1053.68C541.807 1047.82 526.552 1041.01 522.066 1035.53C517.522 1029.98 511.812 1020.88 515.403 1013.62C521.341 1010.23 525.236 1020.36 527.307 1024.54C555.647 1026.01 564.399 1041.31 595.801 1039.8L595.863 1038.64C596.371 1029.72 598.942 1028.37 607.685 1028.66C610.556 1025.31 610.287 1014.5 609.956 1010.21C608.959 997.284 605.777 986.125 595.522 977.557C591.172 973.926 581.941 967.965 576.343 967.553C574.174 971.16 578.72 977.525 572.263 978.332C560.519 979.801 563.679 954.66 554.136 954.506C547.4 959.839 554.394 975.613 549.692 983.084C542.349 986.731 539.022 974.644 538.571 969.481ZM625.658 1008.22C624.525 1007.84 623.497 1008.87 623.74 1009.98C625.143 1016.38 624.935 1019.94 624.07 1023.71C623.887 1024.51 624.368 1025.34 625.208 1025.51C626.926 1025.85 630.633 1026.46 634.344 1026.29C638.012 1026.12 641.901 1025.17 643.715 1022.18C644.191 1021.4 644.33 1020.59 644.181 1019.77C644.035 1018.98 643.616 1018.21 643.034 1017.5C641.874 1016.07 639.976 1014.72 637.861 1013.51C633.617 1011.09 628.304 1009.13 625.658 1008.22ZM311.784 925.744C305.963 918.539 293.2 915.722 284.315 916.634C269.458 918.563 254.049 924.549 244.718 936.828C239.084 944.235 236.657 953.586 237.981 962.8C242.605 996.057 282.943 997.922 308.751 994.485C336.411 990.789 346.794 972.184 366.564 957.774C374.668 952.586 376.743 951.755 386.197 950.19C388.699 946.825 395.431 939.959 396.211 937.902C395.687 936.829 395.834 936.369 394.551 936.127C360.475 929.818 336.581 970.167 302.493 963.704C298.935 963.027 293.698 958.476 292.285 955.233C285.466 939.572 314.716 937.184 311.784 925.744ZM602.584 951.027C602.089 950.788 601.537 950.721 600.941 950.843C599.073 951.227 597.233 952.444 595.678 953.782C594.113 955.128 592.783 956.644 591.932 957.692C591.191 958.604 591.791 959.865 592.86 960.053C595.374 960.496 597.274 961.108 598.883 961.995C600.49 962.88 601.833 964.055 603.217 965.658C603.663 966.174 604.322 966.302 604.867 966.125C605.418 965.947 605.873 965.448 605.879 964.745C605.9 962.332 605.808 958.732 605.202 955.825C604.9 954.378 604.46 953.046 603.804 952.119C603.473 951.65 603.072 951.262 602.584 951.027Z" fill="#8E4B98"/>
</svg>
