<svg xmlns="http://www.w3.org/2000/svg" width="1503" height="1224" viewBox="0 0 1503 1224" fill="none">
  <path d="M236.922 143.452C276.35 85.4586 310.96 78.0377 374.29 57.0509C401.183 47.881 428.205 39.091 455.346 30.6834C482.387 22.2756 522.504 8.75083 549.288 3.62254C603.138 -6.67682 658.866 5.19654 703.838 36.5509C741.202 62.0546 760.157 92.344 778.956 133.051C784.027 144.034 790.446 161.27 795.869 171.444C808.429 177.337 807.621 180.984 816.867 187.122C813.351 176.798 804.217 148.533 813.635 139.899C816.433 139.246 815.475 139.093 818.026 139.849C819.245 142.012 820.128 148.523 820.599 151.261C822.297 161.151 824.931 170.668 827.713 180.306C829.045 173.655 830.548 145.696 839.345 147.319C841.582 149.629 842.113 152.928 841.866 156.026C840.894 168.201 838.605 180.334 838.882 192.628C862.273 218.734 881.146 239.804 907.994 263.347C925.887 254.521 959.774 247.198 979.679 247.327C982.02 235.768 983.868 224.653 984.175 212.817C984.422 203.38 983.509 194.353 984.624 184.956C978.228 176.289 964.202 161.87 963.304 152.759L963.895 151.233C973.844 147.222 983.232 164.743 988.745 171.021L988.663 169.925C987.765 157.998 982.035 144.429 980.061 132.658C980.33 132.322 980.607 131.986 980.876 131.65C996.503 129.829 998.118 161.138 998.964 171.272C1001.48 166.04 1003.18 161.76 1003.83 155.882C1004.63 152.375 1005.23 146.625 1010.01 147.859C1012.03 150.085 1012.02 151.439 1012.66 154.449C1012.25 166.521 1009.75 172.357 1003.34 182.689C1031.86 195.082 1059.13 227.946 1064.91 258.661C1125.43 282.656 1151.2 314.522 1177.52 371.541C1182.9 383.21 1197.4 395.956 1201.44 409.631C1211.7 434.417 1207.88 466.106 1197.47 490.298C1177.83 535.924 1135.84 571.085 1091.24 590.581C1125.71 591.27 1190.09 578.004 1219.34 560.264C1214.38 543.845 1214.3 523.643 1222.39 508.069C1230.63 492.188 1251 480.463 1268.74 479.553L1291.71 407.973C1295.87 394.938 1299.61 381.853 1304.69 369.069C1309.23 357.63 1320.33 351.736 1332.44 354.207C1348.55 357.499 1364.54 364.621 1380.38 369.163C1412.75 379.366 1444.86 389.669 1477.04 400.41C1487.36 403.853 1494.78 406.518 1499.77 416.903C1501.28 420.031 1503.57 426.709 1502.83 429.869C1499.03 445.997 1492.83 465.337 1487.52 480.988C1481.61 498.374 1476.49 518.509 1470.35 535.179C1469.95 536.25 1469.51 537.3 1469.01 538.328C1478.27 543.075 1484.29 547.239 1487.69 557.792C1490.27 565.706 1489.53 574.33 1485.64 581.691C1482.73 587.166 1480.5 589.18 1475.4 592.737C1477.87 612.343 1462.6 626.951 1443.52 623.434C1439.27 637.417 1434.91 651.364 1430.43 665.273C1413.1 719.92 1411.14 721.857 1355.8 704.313L1264.72 675.435C1255.42 672.563 1242.3 667.629 1233.57 665.48C1195.41 708.532 1121.28 743.316 1064.06 746.764C1059.87 746.996 1055.68 747.093 1051.49 747.048C1045.6 778.222 1046 797.062 1052.7 828.265C1054.12 834.825 1055.99 844.159 1058.59 850.187C1138.61 893.155 1161.02 975.771 1160.86 1061.03C1192.31 1022.25 1236.2 980.999 1288.44 973.041C1297.74 971.642 1313.97 973.602 1321.18 979.929C1349.33 1004.59 1303.42 1045.36 1284.99 1062.3C1245.08 1098.98 1205.58 1139.54 1159.57 1168.76C1143.6 1178.9 1119.08 1186.48 1102.96 1172.49C1091.68 1162.54 1090.16 1143.42 1083.43 1130.58C1038.11 1048.31 913.604 1078 841.679 1081.92C834.072 1092.22 826.21 1102 816.44 1110.32C735.045 1179.74 619.511 1184.01 537.172 1115.07C524.618 1169 478.328 1235.82 414.723 1220.93C391.419 1215.48 379.891 1200.06 386.247 1176.1C390.725 1159.22 405.133 1151.41 416.757 1139.87C422.034 1134.65 428.439 1126.7 432.963 1120.76C447.552 1101.81 460.324 1081.53 471.107 1060.17C494.359 1015.09 494.198 1003.15 543.574 1022.76C557.24 1028.19 583.154 1022.28 595.167 1015.67C610.973 1008.54 631.997 989.944 641.787 975.749L641.392 975.031C635.007 974.978 622.199 981.485 614.968 983.093C528.095 1002.39 427.676 982.54 364.191 917.5C312.989 865.041 296.5 810.053 291.045 738.402L285.978 669.05C281.774 617.675 276.664 563.345 226.482 534.968C163.51 499.361 96.5125 540.939 72.3835 602.081C57.165 642.302 46.4207 635.516 30.2749 601.725C-11.3354 514.642 -10.5078 408.388 35.576 323.241C41.6378 312.041 50.835 298.269 60.2547 289.913L61.0289 289.239C59.0683 283.697 55.6061 279.487 59.2328 274.225C100.563 214.255 170.194 166.679 236.922 143.452ZM623.562 408.022C622.767 400.232 622.807 393.679 622.649 384.004C622.487 374.154 609.375 318.721 591.271 342.067C584.689 350.556 586.193 373.906 589.033 383.451C590.776 392.217 600.673 399.748 595.926 408.485C592.907 414.041 583.655 408.637 580.368 409.901C564.025 416.186 547.769 421.878 531.033 427.226C539.543 431.354 543.993 432.41 552.437 434.32C560.618 436.171 587.332 436.576 591.898 443.338C604.102 461.412 613.999 486.999 623.996 506.624C653.154 563.862 693.852 611.91 744.127 651.779C754.854 660.285 764.922 668.141 775.126 677.653C780.31 682.493 788.022 694.192 776.981 697.918C767.443 701.138 753.724 688.063 746.573 682.042C743.685 719.292 726.711 751.79 710.337 784.602C687.675 830.016 670.073 875.28 671.966 926.804C673.033 955.816 683.487 985.763 702.614 1007.89C729.313 1038.78 766.501 1050.8 805.915 1053.47C836.63 1055.56 866.223 1051.4 896.661 1048.19C945.179 1043.08 997.116 1041.36 1042.83 1061.06C1060.83 1068.81 1077.28 1079.09 1090.25 1094C1096.95 1101.71 1102.69 1111.05 1106.56 1120.51C1110.68 1130.62 1111.9 1156.67 1125.78 1157.37C1151.36 1158.63 1243.37 1069.93 1265.6 1049.49C1277.45 1038.58 1289.89 1028.1 1301.5 1016.97C1286.54 1017.31 1273.53 1022.73 1260.5 1030.02C1257.69 1031.3 1255.29 1031.63 1252.55 1030.18C1249.39 1023.81 1257.05 1018.96 1261.51 1016.36C1271.84 1009.94 1285.75 1004.87 1297.82 1003.71C1302.91 1003.23 1305.24 1005.69 1309.55 1001.53C1313.12 986.227 1277.5 997.625 1271.96 999.585C1250.04 1007.34 1231.25 1021.18 1213.76 1036.18C1197.86 1049.98 1183.38 1065.33 1170.53 1082C1165.4 1088.56 1161.43 1097.94 1155.27 1103.39C1153.41 1105.03 1150.49 1105.21 1148.11 1105.05C1145.75 1104.89 1143.44 1104.15 1141.98 1102.19C1139.15 1098.39 1140.22 1071.25 1139.9 1063.94C1135.36 958.471 1101.16 872.685 988.633 849.798C949.211 841.78 910.627 843.097 871.324 850.838C864.854 852.117 850.215 857.046 845.262 852.678C842.48 843.089 878.005 833.426 885.896 831.384C931.797 819.492 983.262 820.719 1028.2 836.006C1015.72 783.3 1026.33 749.666 1040.6 699.444C1043.13 690.528 1045.87 662.421 1054.16 659.988C1070.22 663.743 1060.26 706.997 1057.42 718.031C1056.72 720.732 1055.96 723.416 1055.13 726.084C1081.02 720.638 1105.43 715.828 1130.59 705.632C1162.73 692.609 1193.01 672.055 1219.4 649.584C1221.32 647.948 1218.68 641.62 1219.33 639.193C1219.97 633.668 1221.64 628.688 1223.32 623.398L1240.18 568.624C1243.13 559.236 1248.43 544.231 1250.68 535.065C1250.05 532.732 1249.26 530.112 1248.84 527.758C1249.62 526.6 1251.83 523.263 1252.82 522.854C1262.02 519.073 1284.96 512.727 1283.83 499.21C1279.94 494.005 1271.07 497.067 1265.66 498.49C1230.39 507.767 1231.49 537.663 1237.04 566.902C1225.52 586.126 1180.38 599.632 1158.93 604.994C1133.07 611.453 1106.3 613.502 1079.75 611.056C1059.53 609.038 1052.1 604.421 1032.31 610.676C1024.27 613.219 992.531 614.636 986.883 610.041C966.498 593.462 1016.63 589.446 1021.66 588.586C1036.42 586.019 1050.89 582.023 1064.86 576.656C1121.46 554.572 1191.19 500.004 1184.11 431.752C1182.09 412.266 1173.12 402.452 1162.92 386.824C1159.58 381.708 1156.41 374.275 1153.05 369.734C1153.18 375.178 1153.2 386.764 1148.28 390.423C1128.79 404.907 1111.63 381.064 1114.08 362.271C1116.11 346.693 1123.45 339.169 1139.16 344.498C1133.69 336.331 1121.6 322.916 1114.68 315.525C1111.9 319.501 1105.67 330.261 1100.65 330.583C1096.02 330.879 1098.52 317.067 1099.39 314.63C1100.57 311.326 1102.39 308.574 1104.46 305.795C1057.4 271.882 1010.36 263.513 952.764 271.213C941.521 272.716 932.126 275.397 921.376 278.914C916.267 280.586 906.086 284.565 901.359 285.665C871.968 264.665 854.075 240.979 830.758 215.495C807.987 254.09 800.036 298.395 809.82 342.247C813.254 357.611 824.848 357.23 814.039 375.435C783.421 426.991 774.939 480.706 817.712 528.464C826.711 538.507 859.258 559.177 854.89 571.73C842.427 583.614 817.001 557.63 807.426 551.145C804.464 549.142 796.55 548.018 792.862 546.75C727.576 524.289 673.705 478.182 634.42 422.15C631.112 417.431 626.629 412.904 623.562 408.022ZM90.6628 278.864C97.0616 278.214 101.693 276.591 106.745 280.267C110.247 287.207 97.3406 294.795 92.4828 299.186C83.6446 307.285 75.7512 316.357 68.9522 326.23C19.2031 399.107 22.0064 505.381 49.5121 585.885C53.8221 577.45 57.5898 568.921 62.528 560.915C100.09 500.019 170.868 474.048 236.309 507.415C305.847 542.872 313.163 614.127 317.551 683.636C321.925 751.147 323.86 825.513 371.194 879.289C390.719 902.145 406.228 917.448 433.042 931.935C491.34 963.939 567.503 968.18 630.706 949.848C635.408 948.472 640.101 947.058 644.783 945.615C642.697 935.076 642.792 928.061 643.082 917.425C614.836 909.168 593.636 887.942 579.848 862.647C541.298 791.909 560.917 711.143 576.364 636.896C585.066 595.065 592.394 553.953 592.763 511.012C592.949 489.447 578.952 473.378 576.691 456.229C549.17 454.92 530.121 452.37 507.292 435.574C491.973 440.048 477.561 444.224 461.659 446.865C411.077 455.268 360.571 448.06 315.057 424.22C239.051 384.408 201.4 287.543 212.614 205.14C213.598 197.911 218.89 185.585 219.157 180.034C174.475 201.505 122.102 240.286 90.6628 278.864ZM782.277 519.516C747.381 466.674 766.62 413.822 795.772 364.392C790.977 354.124 787.311 345.339 784.933 334.104C784.327 331.251 783.145 323.099 781.768 321.733C747.68 359.816 693.579 374.643 645.381 387.485C645.506 390.312 645.722 399.647 646.799 401.627C656.983 420.348 682.351 445.782 697.647 459.792C704.244 465.863 711.026 471.731 717.982 477.388C735.15 491.682 762.035 509.323 782.277 519.516ZM619.801 550.634C618.851 557.111 618.65 563.793 617.782 570.399C615.59 587.068 613.376 603.897 610.148 620.396C596.015 692.619 565.227 795.731 614.254 861.78C622.87 873.201 633.478 882.984 645.567 890.635C646.965 877.412 649.648 861.727 653.756 849.103C656.517 838.026 661.494 826.74 665.857 816.179C686.039 767.339 721.044 722.408 727.521 669.024C694.608 643.329 668.032 618.561 642.558 585.021C635.142 575.258 626.281 558.5 619.801 550.634ZM1394.32 701.547C1400.41 699.442 1405.92 696.682 1408.21 690.169C1412.19 678.767 1417.81 663.126 1421.02 651.794C1423.94 642.158 1427.3 631.236 1430.44 621.555C1430.92 620.085 1430.35 616.823 1429.92 615.209L1429.08 614.692C1424.21 623.76 1417.66 658.03 1411.3 663.258C1408.17 663.936 1379.51 653.611 1373.77 651.817L1294.91 626.823C1283.38 623.243 1255.54 615.205 1245.21 610.79C1250.72 587.019 1265.1 554.058 1268.57 532.978C1267 531.673 1266.76 532.01 1264.43 531.573C1262.86 539.41 1259.31 550.125 1256.94 557.957C1251.83 574.727 1246.57 591.446 1241.14 608.113C1237.71 618.798 1233.27 630.612 1232.14 641.756C1234.69 648.004 1237.02 652.276 1243.73 654.715C1265.4 662.593 1288.52 669.269 1310.6 675.858C1338.01 684.036 1366.78 694.608 1394.32 701.547ZM1037.76 251.888L1039.66 251.411C1040.49 242.312 1012.29 208.791 1003.34 204.636C1002.6 208.314 1003.47 213.864 1003.5 217.92C1003.56 227.46 1003.24 238.541 1000.99 247.777C1010.95 246.125 1028.4 248.54 1037.76 251.888ZM1314.65 393.098L1424.48 429.143L1459.27 440.246C1464.48 441.905 1474.4 444.792 1479.06 446.977C1479.33 447.551 1479.6 448.125 1479.87 448.7C1472.84 475.533 1462.98 502.535 1454.5 529.04C1453.04 533.625 1451.73 533.773 1452.05 537.509L1453.06 538.814C1457.92 537.482 1459.72 526.011 1461.37 521.121L1478.78 467.887C1482.53 456.237 1490.63 436.349 1489.17 423.458C1488.89 420.978 1483.86 416.369 1481.57 415.663C1458.05 406.174 1432.94 399.54 1408.98 391.449C1390.09 385.067 1371.66 379.073 1352.57 373.424C1345.11 371.216 1333.74 366.998 1326.43 366.29C1314.86 369.469 1312.81 381.948 1309.66 392.126C1301.38 418.842 1293.45 445.722 1284.55 472.237C1283.78 474.574 1283.35 478.048 1283.51 480.452L1284.28 481.25C1290.88 476.241 1308.59 406.866 1314.65 393.098ZM657.423 991.163C636.602 1019.85 612.355 1039.71 576.032 1045.39C560.271 1047.89 544.135 1046.43 529.071 1041.17C524.406 1039.55 516.283 1036.23 511.872 1035.6C503.126 1046.83 495.257 1066.09 488.191 1078.97C479.55 1095.16 469.3 1110.37 458.587 1125.26C450.111 1137.03 441.165 1148.38 430.627 1158.4C420.268 1168.25 410.647 1172.57 405.505 1186.66C416.213 1185.86 427.283 1185.55 437.317 1181.18C443.009 1178.71 449.965 1170.28 456.072 1175.1C460.821 1190 425.206 1196.92 416.471 1202.26C420.913 1202.37 425.447 1202.53 429.883 1202.4C462.753 1201.47 484.614 1173.9 499.8 1147.89C505.682 1136.63 513.393 1118.84 516.324 1106.3C519.071 1094.55 512.798 1072.37 537.433 1086.61C546.146 1091.65 554.908 1100.41 563.764 1105.59C606.986 1131.6 654.784 1145.44 704.988 1135.44C752.759 1125.92 775.156 1112.01 811.945 1082.87C761.593 1080.08 715.859 1067.44 681.738 1028.18C668.156 1012.55 666.864 1007.42 657.423 991.163ZM799.841 188.373C802.444 194.875 805.549 210.525 806.992 212.622C808.907 211.577 808.309 211.913 809.453 209.538C810.905 206.946 812.767 203.38 814.293 200.927C810.359 197.58 803.035 189.353 799.841 188.373ZM1142.36 352.392C1134.21 357.831 1130.74 366.932 1142.51 370.024C1145.79 368.282 1146.85 367.761 1149.77 365.259C1148.19 360.279 1147.38 354.738 1142.36 352.392ZM236.771 206.405C264.855 196.074 295.631 186.848 322.613 176.562C407.39 147.308 492.366 118.64 577.538 90.5594L646.196 67.6932C657.68 63.8197 676.541 56.87 687.611 54.2829C654.253 32.6122 613.209 20.1912 573.272 23.8926C553.381 25.0794 531.278 32.2947 512 37.8558C474.032 49.0697 436.296 61.0531 398.815 73.7992C374.468 81.8985 336.543 92.7224 313.836 104.152C297.191 112.58 282.299 124.092 269.95 138.077C252.224 157.897 242.845 180.934 236.771 206.405ZM1457.39 603.281C1459.72 599.836 1460.43 598.597 1462.2 594.832C1454.85 592.455 1439.12 584.605 1435.65 584.026C1428.81 602.419 1445.98 613.103 1457.39 603.281ZM1452.23 553.21C1431.62 563.079 1451.31 576.748 1465.82 578.887C1471.68 576.459 1476.11 571.433 1472.74 564.87C1468.18 555.988 1462.09 552.449 1452.23 553.21ZM1441.91 542.084C1448.35 517.026 1459.69 491.879 1466.44 466.705C1467.66 462.169 1469.52 457.139 1471.12 452.727C1444.17 442.675 1410.91 433.307 1383.09 424.216C1370.41 420.074 1357.74 415.868 1345.1 411.598C1336.66 408.757 1326.51 405.05 1317.92 403.182C1314.42 418.594 1307.73 436.884 1303.2 452.256C1300.65 460.922 1296.11 477.812 1292.5 484.991C1301.42 492.935 1303.41 506.097 1294.55 513.981C1290.54 517.555 1285.12 523.332 1280.98 527.08C1270.85 549.847 1263.04 581.631 1254.4 604.545C1301.6 623.035 1358.32 637.076 1406.79 653.202C1407.3 652.765 1407.82 652.327 1408.32 651.89C1412.39 638.744 1419.59 616.065 1422.63 603.492C1417.67 592.704 1419.23 579.792 1431.26 574.621C1428.16 558.918 1428.78 552.48 1441.91 542.084ZM571.391 389.467C566.418 370.478 565.299 349.468 574.989 331.857C583.489 316.407 600.241 311.661 615.263 321.018C629.117 329.648 636.842 348.991 640.346 364.061C640.471 364.601 640.592 365.142 640.708 365.683L641.413 365.363C648.627 362.171 660.772 358.562 668.56 355.92C711.876 341.227 761.968 326.841 780.646 279.757C797.432 237.455 774.348 181.871 757.255 143.219C753.582 134.914 747.777 122.273 743.064 114.569L741.067 114.071C696.806 129.816 649.57 145.026 604.832 159.958L443.687 214.21C376.616 236.601 307.877 261.457 240.622 282.557C256.801 348.776 289.159 389.559 352.668 415.166C364.335 418.517 374.61 421.68 386.629 423.644C456.308 435.025 508.151 409.127 571.391 389.467Z" fill="#934499"/>
  <path d="M1003.83 155.882C1004.63 152.375 1005.23 146.625 1010.01 147.859C1012.03 150.085 1012.02 151.439 1012.66 154.449C1008.51 153.726 1007.38 153.696 1003.83 155.882Z" fill="#86388A"/>
  <path d="M1110.3 445.5C1097.08 438.413 1082.76 430.825 1078.32 415.124C1074.76 402.575 1089.96 399.494 1098.93 398.339C1127.49 394.656 1161.58 398.009 1133.99 433.993C1130.91 438.01 1126.16 441.272 1121.42 443.087C1120.49 452.584 1115.4 458.742 1117.72 463.305C1121.73 466.304 1126.28 464.925 1129.85 464.887C1140.14 464.781 1147.05 447.744 1152.77 447.372C1154.68 448.739 1155.16 449.867 1155.43 452.282C1157.26 468.634 1141.83 476.357 1128.27 479.28C1123.78 488.593 1117.72 497.999 1111.98 506.486C1101.46 522.023 1090.08 541.988 1071.17 548.276C1051.8 554.718 1033.59 544.168 1027.19 525.349C1024.62 517.621 1023.2 509.559 1022.97 501.42C1022.49 488.172 1027.26 452.264 1018.07 445.187C1015.69 442.46 1016.64 438.414 1017.07 435.153C1021.07 432.834 1025.34 430.916 1029.24 434.408C1030.22 437.107 1031.38 444.816 1032.12 446.169C1042.69 465.415 1070.67 470.036 1089.66 462.779C1100.55 458.621 1104.28 453.542 1110.3 445.5ZM1054.16 536.019C1058.59 535.993 1067.6 536.207 1071.56 535.393C1066.39 516.314 1054.93 505.566 1036.75 498.703C1038.56 514.041 1038.94 528.146 1054.16 536.019ZM1073.58 480.767C1073.75 488.367 1074.79 493.135 1076.66 500.479C1080.54 501.09 1085.37 502.156 1089.06 501.129C1089.95 497.107 1092.52 491.232 1094 486.967C1096.13 482.97 1097.06 480.897 1100.16 477.573C1099.33 481.552 1098.62 485.402 1097.36 489.271C1095.55 493.889 1093.97 497.51 1091.83 501.991C1093.52 502.403 1094.92 502.515 1096.64 502.702C1103.07 500.399 1111.18 484.409 1114.82 478.173C1111.03 476.2 1108.01 474.402 1104.36 472.157C1102.78 473.283 1100.32 475.773 1098.82 477.191C1086.87 479.054 1088.66 480.802 1073.58 480.767Z" fill="#934499"/>
  <path d="M1094 486.967L1097.36 489.271C1095.55 493.889 1093.97 497.51 1091.83 501.991L1089.06 501.129C1089.95 497.107 1092.52 491.232 1094 486.967Z" fill="#86388A"/>
  <path d="M1094 486.967C1096.13 482.97 1097.06 480.897 1100.16 477.573C1099.33 481.552 1098.62 485.402 1097.36 489.271L1094 486.967Z" fill="#6F2376"/>
  <path d="M955.592 352.862C961.539 352.263 976.448 354.551 978.954 360.729C976.657 364.453 969.304 365.436 966.82 369.857C962.294 377.913 971.922 388.643 980.629 385.775C988.573 383.159 985.866 378.124 987.474 375.096C993.914 385.024 988.446 398.829 982.656 407.68C978.527 411.96 973.814 415.816 967.95 417.179C936.674 424.447 922.536 391.538 935.432 366.9C939.569 359.001 947.543 355.022 955.592 352.862Z" fill="#934499"/>
  <path d="M832.845 245.303C844.881 249.09 871.31 291.297 877.227 303.846C869.17 307.576 864.757 310.452 857.246 315.199C853.356 318.088 840.183 326.881 835.942 327.399C834.558 326.812 833.533 326.101 832.927 324.691C821.183 297.357 824.34 271.701 832.845 245.303ZM839.046 315.338C842.263 312.814 847.118 308.835 850.514 306.772C854.561 304.078 857.373 302.111 861.757 300.043C857.396 293.621 841.074 264.284 837.647 262.494C835.194 283.093 834.506 294.736 839.046 315.338Z" fill="#934499"/>
  <path d="M949.458 306.455C962.452 304.874 974.286 308.691 984.265 317.1C988.536 320.7 995.455 328.726 990.571 334.076C980.27 335.534 968.967 316.219 944.783 325.103L943.878 325.443C930.734 329.522 925.805 340.833 917.576 349.093C915.227 349.755 916.32 349.859 914.18 348.901C910.455 342.783 915.085 331.837 918.504 326.163C925.296 314.879 937.018 309.35 949.458 306.455Z" fill="#934499"/>
  <path d="M1010.58 438.687C1012.68 437.816 1015.05 436.314 1017.07 435.153C1016.64 438.414 1015.69 442.46 1018.07 445.187L1012.01 449.127C1008.67 451.247 1006.93 453.009 1003.37 452.775L1002.24 451.204C1001.81 448.086 1002.89 445.977 1003.94 442.942C1006.03 441.45 1008.39 440.049 1010.58 438.687Z" fill="#6F2376"/>
  <path d="M1010.58 438.687C1012.68 437.816 1015.05 436.314 1017.07 435.153C1016.64 438.414 1015.69 442.46 1018.07 445.187L1012.01 449.127C1010.21 445.188 1010.36 442.781 1010.58 438.687Z" fill="#86388A"/>
  <path d="M713.787 226.418C717.877 226.16 721.541 225.892 725.611 226.501C736.758 228.07 746.782 234.098 753.395 243.203C760.187 252.722 762.858 264.578 760.793 276.089C758.182 291.121 749.049 302.743 734.245 307.131C725.174 309.818 718.321 308.573 709.205 306.95C703.052 315.307 697.106 318.451 687.496 321.417C671.844 323.438 654.422 319.42 645.473 305.327C639.316 295.488 637.369 283.59 640.07 272.303C645.227 250.533 664.041 238.66 685.859 244.214C695.753 232.881 699.169 230.07 713.787 226.418ZM698.812 249.027C708.593 257.395 715.927 265.043 717.323 278.906C717.798 283.618 715.376 289.743 716.714 293.263C719.474 295.512 723.944 295.123 727.53 295.108C743.655 290.094 753.096 276.978 747.455 259.839C744.912 252.129 739.347 245.783 732.038 242.253C727.162 239.88 724.591 239.393 719.277 239.249C709.64 240.236 706.008 242.604 698.812 249.027Z" fill="#934499"/>
  <path d="M511.132 252.584C518.757 254.231 523.085 264.146 519.623 267.227C511.94 274.063 480.811 283.032 471.744 286.083L390.411 312.968L336.94 330.705C326.463 334.2 312.876 339.142 302.418 341.644C297.803 340.58 294.883 339.703 293.326 334.717C292.583 332.383 292.867 329.843 294.108 327.731C295.352 325.579 297.212 323.727 299.551 322.898C310.139 319.147 321.119 315.851 331.777 312.329L467.34 267.064C480.871 262.475 497.796 256.197 511.132 252.584Z" fill="#934499"/>
  <path d="M428.852 336.994C438.329 337.365 445.309 349.277 432.605 353.608C403.594 363.499 374.441 372.976 345.383 382.728C339.067 384.847 333.187 387.066 326.695 388.677C316.267 389.843 311.406 376.815 322.831 372.685C336.467 367.757 350.157 363.371 363.93 358.847L428.852 336.994Z" fill="#934499"/>
  <path d="M1401.7 535.885C1403.63 537.425 1405.71 538.888 1407.72 540.339L1406.48 541.264L1406.87 541.799C1404.12 543.22 1401.86 547.854 1400.1 550.776C1402.54 553.281 1406.28 556.494 1406.27 560.064C1403.71 562.527 1400.37 560.973 1398.86 562.484C1397.57 563.781 1400.73 567.353 1394.79 566.691C1391.42 571.591 1389.81 582.624 1396.03 586.215C1398.17 584.108 1399.27 575.63 1400.98 570.68C1403.31 572.219 1405.21 574.247 1407.23 576.198C1407.02 578.044 1407.1 578.919 1406.4 580.614C1405.77 584.295 1405.71 585.032 1406.8 588.605C1409.39 589.849 1409.48 589.889 1411.29 592.068C1411.94 594.845 1412.12 593.577 1410.88 596.018C1408.53 597.257 1408.68 597.215 1406.03 597.262C1406.96 600.635 1407.68 602.11 1406.61 605.196C1397.79 609.487 1397.43 594.855 1393.48 591.408C1390.07 593.428 1387.66 605.452 1381.52 605.133L1380.99 603.616C1381.52 598.383 1383.99 593.379 1386.31 588.711C1378.97 585.685 1373.63 587.253 1367.97 582.504C1365.1 587.844 1358.37 588.975 1355.44 583.114C1355.27 580.425 1355.87 579.644 1356.98 577.071C1353.76 576.014 1352.78 576.914 1349.51 577.663L1351.67 574.056C1359.66 574.434 1358.09 573.561 1363.15 567.734L1362.87 563.864C1361.28 561.404 1361.12 562.896 1357.53 561.128C1359.25 559.805 1362.4 560.177 1365.19 558.466C1366.92 555.664 1367.39 554.254 1370.34 552.897C1374.21 551.907 1374.3 551.552 1377.86 553.047L1378.56 553.142C1384.65 554.018 1383.89 555.524 1388.61 554.063C1391.29 555.674 1394.1 557.649 1396.72 559.4C1398.71 546.498 1395.09 547.789 1401.7 535.885ZM1386.44 559.909C1376.76 558.866 1374.44 557.975 1370.66 568.069C1376.11 584.663 1383.82 580.836 1389.14 567.023C1387.66 564.302 1386.65 563.001 1386.44 559.909Z" fill="#8D4191"/>
  <path d="M1370.34 552.897C1374.21 551.907 1374.3 551.552 1377.86 553.047L1378.92 553.714C1382.2 555.765 1384.41 555.831 1387.11 559.185L1386.83 560.02L1387.8 559.464L1386.44 559.909C1376.76 558.866 1374.44 557.975 1370.66 568.069L1370.05 569.18C1369.4 567.25 1369.52 567.241 1368.2 565.731L1363.15 567.734L1362.87 563.864C1361.28 561.404 1361.12 562.896 1357.53 561.128C1359.25 559.805 1362.4 560.177 1365.19 558.466C1366.92 555.664 1367.39 554.254 1370.34 552.897Z" fill="#934499"/>
  <path d="M1400.98 570.68C1403.31 572.219 1405.21 574.247 1407.23 576.198C1407.02 578.044 1407.1 578.919 1406.4 580.614C1405.77 584.295 1405.71 585.032 1406.8 588.605C1403.6 588.286 1401.52 587.683 1398.38 588.219C1398.24 587.15 1398.1 587.028 1397.7 586.005L1396.03 586.215C1398.17 584.108 1399.27 575.63 1400.98 570.68Z" fill="#86388A"/>
  <path d="M1356.98 577.071C1360.91 577.531 1361.05 576.293 1365.43 577.701C1367.26 579.428 1367.16 579.347 1368.05 581.738L1367.97 582.504C1365.1 587.844 1358.37 588.975 1355.44 583.114C1355.27 580.425 1355.87 579.644 1356.98 577.071Z" fill="#86388A"/>
  <path d="M1398.38 588.219C1401.52 587.683 1403.6 588.286 1406.8 588.605C1409.39 589.849 1409.48 589.889 1411.29 592.068C1411.94 594.845 1412.12 593.577 1410.88 596.018C1408.53 597.257 1408.68 597.215 1406.03 597.262C1401.44 592.767 1400.04 597.784 1398.38 588.219Z" fill="#86388A"/>
  <path d="M1410.77 478.798C1417.68 478.737 1431.9 483.09 1437.69 487.005C1448.95 494.615 1440.11 514.04 1433.15 522.705C1425.04 523.903 1409.11 516.847 1401.87 513.291C1399.02 502.179 1403.03 487.215 1410.77 478.798ZM1429.68 515.932C1434.94 507.558 1436.55 503.02 1437.52 493.283C1429.97 486.534 1423.86 485.107 1413.67 484.941C1399.91 502.727 1406.25 518.533 1429.68 515.932Z" fill="#86388A"/>
  <path d="M1417.03 490.963C1422.5 491.001 1426.92 493.094 1431.9 495.163C1430.72 502.441 1430.79 503.94 1425.87 509.247C1423.87 510.041 1418.51 510.444 1416.79 509.313C1409.78 504.696 1414.09 495.825 1417.03 490.963Z" fill="#934499"/>
  <path d="M1321.91 450.731C1328.84 452.369 1347.61 457.23 1351.26 463.474C1354.3 468.69 1345.96 493.483 1340.8 495.714C1331.31 494.219 1317.46 489.722 1309.3 484.371C1309.64 475.414 1312.7 454.479 1321.91 450.731ZM1338.14 488.357C1344.44 481.249 1345.32 476.427 1347.15 467.231C1341.31 460.508 1332.7 457.328 1323.94 456.854C1318.8 459.403 1314.18 475.787 1315.4 481.238C1319.41 485.506 1332.47 488.007 1338.14 488.357Z" fill="#86388A"/>
  <path d="M1325.63 462.695C1327.84 463.27 1330.02 463.915 1332.19 464.627C1336.34 466.032 1337.98 466.511 1339.89 470.405C1340.34 475.063 1338.23 477.237 1335.43 480.786C1332.85 481.738 1327.97 481.953 1325.67 480.565C1319.06 476.591 1323.15 467.126 1325.63 462.695Z" fill="#934499"/>
  <path d="M1283.05 564.369C1283.75 559.103 1286.51 546.232 1289.8 542.452C1296.71 534.49 1317.7 545.828 1323.65 550.845C1327.04 554 1323.67 560.848 1322.83 565.345C1320.92 575.624 1319.2 583.131 1306.55 581.044C1299.2 579.831 1289.1 577.691 1283.24 572.609C1281.98 570.393 1282.69 567.02 1283.05 564.369ZM1321.01 552.396C1318.65 548.438 1302.04 544.724 1297.1 545.106C1291.63 548.554 1290.17 553.692 1288.79 559.653C1288.26 561.982 1287.81 564.327 1287.43 566.684C1290.38 572.493 1295.61 573.026 1301.23 575.235C1319.24 582.308 1318.24 563.696 1321.01 552.396Z" fill="#86388A"/>
  <path d="M1299.87 550.643C1311.96 552.507 1319.28 560.49 1308.09 570.321C1292.3 571.222 1291.75 560.874 1299.87 550.643Z" fill="#934499"/>
  <path d="M1283.05 564.369C1283.75 559.103 1286.51 546.232 1289.8 542.452C1296.71 534.49 1317.7 545.828 1323.65 550.845C1322.22 551.489 1321.95 551.363 1321.01 552.396C1318.65 548.438 1302.04 544.724 1297.1 545.106C1291.63 548.554 1290.17 553.692 1288.79 559.653C1288.26 561.982 1287.81 564.327 1287.43 566.684C1287.25 565.71 1287.09 565.524 1286.69 564.603L1283.05 564.369Z" fill="#86388A"/>
  <path d="M1362.32 504.427C1362.55 511.101 1361.94 514.16 1366.01 519.334C1374.7 522.389 1373.65 495.185 1380.95 495.946C1382.33 502.65 1375.32 514.021 1377.73 519.397L1382.91 518.448L1383.86 519.301C1383.65 520.857 1383.48 522.302 1383.21 523.851C1381.94 524.325 1380.68 524.816 1379.42 525.324C1379.6 527.924 1377.6 531.55 1376.91 534.061L1376.33 534.503L1373.8 533.279C1371.85 530.485 1372.76 527.564 1373.17 523.955C1369.5 524.096 1366.05 524.353 1362.39 523.976C1361.76 521.884 1361.77 521.637 1360.61 519.7C1358.03 519.988 1358.74 520.039 1356.38 522.348L1355.89 520.712L1355.92 519.313C1354.46 515.808 1348.32 514.746 1344.95 515.424V514.662C1345.23 513.439 1345.13 512.131 1345.13 510.843C1346.17 511.422 1345.99 511.183 1346.75 512.033C1350.73 512.545 1350.32 511.935 1353.35 509.444C1357.12 508.719 1359.19 506.735 1362.32 504.427Z" fill="#86388A"/>
  <path d="M1354.33 538.77C1360.11 536.491 1356.8 531.66 1359.87 530.174L1361.04 531.13C1360.42 536.792 1356.84 535.579 1361.17 541.217L1362.82 541.764C1366.59 538.851 1365.33 535.216 1366.19 530.831C1370.21 532.306 1369.78 540.348 1369.1 543.781L1369.58 544.781C1371 544.54 1371.98 544.235 1373.35 543.844C1375.55 541.544 1375.07 538.39 1376.14 535.079L1376.33 534.503L1376.91 534.061C1388.39 535.194 1381.84 537.847 1387.24 540.625L1387.12 541.074C1384.19 541.517 1383.96 541.468 1381.51 543.003C1380.19 546.71 1385.92 551.015 1388.61 554.063C1383.89 555.524 1384.65 554.018 1378.56 553.142L1377.86 553.047C1374.3 551.552 1374.21 551.907 1370.34 552.897C1369.37 550.462 1368.77 548.299 1368.04 545.804C1364.78 546.184 1364 546.276 1361.09 544.721C1356.39 545.609 1360.43 546.858 1353.28 549.471C1354.42 546.133 1355.95 541.925 1353.76 538.958L1354.33 538.77Z" fill="#86388A"/>
  <path d="M1398.17 481.504C1397.17 488.451 1393.21 486.878 1392.89 492.231C1395.39 496.482 1396.17 501.748 1389.8 502.07C1385.89 499.164 1385.24 492.167 1385.31 487.552C1385.35 484.161 1378.17 485.774 1374.77 481.232C1374.49 478.52 1374.17 479.672 1375.28 477.568C1383.53 477.103 1378.82 474.599 1384.02 472.124C1386.65 475.925 1383.21 480.063 1387.82 484.333C1391.21 484.944 1392.95 483.777 1395.84 481.878L1396.44 481.478L1397.55 481.152L1398.17 481.504Z" fill="#86388A"/>
  <path d="M1353.28 549.471C1352.5 555.802 1350.97 562.495 1353.67 568.078C1352.81 570.724 1353.54 569.636 1351.43 571.458C1346.97 571.266 1347.09 570.043 1344.11 571.784C1342.99 574 1343.07 573.931 1342.81 576.435C1341.58 575.441 1340.52 574.053 1339.47 572.825C1338.88 571.635 1337.97 570.36 1337.24 569.228L1339.77 568.23C1340.44 568.165 1341.42 567.885 1342.12 567.717C1345.03 561.001 1336.42 552.178 1353.28 549.471Z" fill="#86388A"/>
  <path d="M1364.4 480.426C1367.92 488.936 1373.85 483.337 1376.83 489.556C1375.99 492.174 1374.97 493.788 1372.2 494.38C1370.71 492.125 1370.23 490.593 1367.53 490.198C1367.02 491.3 1366.48 492.39 1365.92 493.465C1362.41 493.131 1361.17 492.439 1357.94 491.142C1356.22 488.308 1359.57 490.406 1360.13 485.932C1357.88 482.027 1357.69 483.918 1355.54 481.426C1355.7 477.962 1356.6 475.906 1357.69 472.639L1358.48 472.498C1359.23 474.171 1360 475.835 1360.79 477.491L1363.75 478.387L1364.4 480.426Z" fill="#86388A"/>
  <path d="M1298.57 515.211C1302.18 516.233 1301.5 519.456 1305.06 520.452C1306.87 519.299 1307.94 518.483 1309.62 517.145C1318.21 517.41 1313.83 531.608 1309.62 534.173L1308.83 533.529C1308.28 530.53 1308.75 529.883 1309.87 527.022L1310.23 526.116C1308.12 524.986 1307.23 524.699 1304.95 523.923C1300.94 524.83 1301.42 530.968 1296.66 531.695C1294.79 530.191 1293.29 526.681 1293.36 524.352C1296.19 524.592 1298.62 525.097 1301.23 524.185C1301.99 520.195 1298.39 522.768 1298.57 515.211Z" fill="#86388A"/>
  <path d="M1330.89 507.381C1329.59 504.749 1326.05 501.478 1323.08 501.266C1318.53 503.282 1320.06 508.068 1316.4 512.481L1315.07 512.403C1313.22 510.431 1312.71 506.52 1312.78 503.854C1315.13 501.138 1315.63 498.289 1317.36 496.648C1323.4 495.818 1326.65 500.263 1330.33 500.284C1330.52 502.513 1330.82 505.186 1330.89 507.381Z" fill="#86388A"/>
  <path d="M1407.23 576.198C1409.15 573.113 1410.16 573.518 1413.73 573.087L1414.26 572.291C1413.32 569.676 1413.19 567.008 1414.86 564.611L1416.16 564.462C1420.69 569.176 1419.35 580.792 1411.65 581.628C1410.78 581.723 1407.37 580.851 1406.4 580.614C1407.1 578.919 1407.02 578.044 1407.23 576.198Z" fill="#86388A"/>
  <path d="M1335.77 514.366C1337.52 516.319 1337.39 516.311 1339.82 517.144C1342.62 516.681 1342.7 516.529 1344.95 514.662V515.424C1345.24 519.07 1346.06 519.906 1348.17 522.733C1343.58 521.593 1342.39 524.423 1338.15 523.771C1337.49 522.08 1337.63 521.954 1337.65 520.104C1335.74 518.543 1336.84 519.023 1334.13 518.931C1332.81 519.785 1331.47 520.608 1330.12 521.4C1328.37 520.347 1328.06 518.569 1327.6 516.61C1329.2 515.581 1332.43 516.065 1335.77 514.366Z" fill="#86388A"/>
  <path d="M1422.49 556.073C1419.47 563.417 1409.62 564.851 1406.95 557.419C1407.15 554.836 1407.29 554.774 1409.07 552.747C1414.13 550.663 1412.85 555.874 1417.17 557.015C1419.15 555.549 1419.23 555.625 1421.63 554.829L1422.49 556.073Z" fill="#86388A"/>
  <path d="M1403.74 521.118C1406.35 521.832 1406.48 521.832 1408.52 523.513L1408.37 525.038L1404.88 527.548C1405.34 530.009 1405.43 530.918 1405.47 533.421L1403.54 534.256C1401.78 532.799 1400.55 530.417 1399.33 528.419C1396.09 526.698 1395.91 529.2 1392.52 526.524C1392.08 524.062 1391.87 525.172 1393.09 523.064L1394.56 522.688C1396.12 524.369 1396.8 525.269 1398.77 526.524C1400.73 523.908 1401.25 523.195 1403.74 521.118Z" fill="#86388A"/>
  <path d="M1407.72 540.339C1409.7 538.057 1410.43 536.734 1413.3 535.874L1415.39 536.149C1418.22 540.186 1415.66 549.047 1409.95 548.322C1407.48 545.984 1407.86 545.529 1406.87 541.799L1406.48 541.264L1407.72 540.339Z" fill="#934499"/>
  <path d="M1330.33 500.284C1339.33 501.234 1341.11 507.36 1348.59 507.021C1348.5 510.679 1347.55 508.863 1346.75 512.033C1345.99 511.183 1346.17 511.422 1345.13 510.843C1341.9 509.332 1340.71 509.986 1337.32 509.461L1336.1 506.362C1334.5 506.295 1333.25 507.085 1331.75 507.772L1330.89 507.381C1330.82 505.186 1330.52 502.513 1330.33 500.284Z" fill="#86388A"/>
  <path d="M1340.6 536.407C1344.24 534.085 1348.47 531.625 1352.48 534.197C1353.73 536.32 1353.69 536.36 1354.33 538.77L1353.76 538.958C1348.09 539.923 1347.26 540.044 1343.45 544.425L1341.43 543.108C1341.52 539.923 1342.06 538.635 1340.6 536.407Z" fill="#934499"/>
  <path d="M1426.23 529.468L1428.81 529.892C1430.98 531.596 1430.23 530.531 1431.06 533.274C1430.11 537.87 1427.95 539.439 1424.55 542.478C1423.78 542.602 1422.46 542.543 1421.69 542.541L1420.79 541.234C1420.72 537.03 1423.91 532.897 1426.23 529.468Z" fill="#86388A"/>
  <path d="M1348.59 507.021C1348.13 502.704 1349.22 497.601 1351.8 494.052L1353.05 494.25C1354.44 497.097 1353.5 505.647 1353.35 509.444C1350.32 511.935 1350.73 512.545 1346.75 512.033C1347.55 508.863 1348.5 510.679 1348.59 507.021Z" fill="#6F2376"/>
  <path d="M1345 584.103C1347.64 585.653 1350.79 587.097 1351.86 589.773C1351.92 592.36 1350.96 593.402 1349.6 595.75C1345.52 595.431 1343.78 596.093 1342.07 592.076C1342.41 588.607 1343.42 587.192 1345 584.103Z" fill="#86388A"/>
  <path d="M1326.29 578.88C1326.86 578.979 1327.43 579.084 1328 579.195C1331.53 579.882 1332.22 579.91 1333.98 582.521C1334.07 585.304 1333.35 586.249 1332.14 588.876C1329.47 589.333 1329.3 589.355 1326.63 588.983C1322.67 585.913 1324.27 582.863 1326.29 578.88Z" fill="#86388A"/>
  <path d="M1362.83 591.802C1366.13 593.932 1369.75 594.785 1371.38 597.579C1371.6 600.381 1370.71 601.097 1369.05 603.608C1365.49 600.466 1361.91 601.149 1360.05 597.447C1360.4 594.762 1361.19 594.101 1362.83 591.802Z" fill="#86388A"/>
  <path d="M1331.11 543.475C1328.52 543.614 1328.31 543.705 1325.93 542.871C1323.69 535.409 1322.1 540.98 1317.73 537.517L1317.87 536.013C1323.81 531.742 1328.39 536.677 1331.99 541.103L1331.11 543.475Z" fill="#86388A"/>
  <path d="M1363.75 478.387C1363.94 476.701 1364.47 475.493 1363.67 474.078C1362.22 471.519 1360.76 468.987 1362.54 466.204C1368.9 466.566 1371.41 474.895 1364.95 480.004L1364.4 480.426L1363.75 478.387Z" fill="#86388A"/>
  <path d="M1326.11 513.256C1328.93 512.431 1330.81 511.472 1333.48 512.374L1335.77 514.366C1332.43 516.065 1329.2 515.581 1327.6 516.61L1327.6 514.885C1327.01 517.082 1326.94 517.339 1325.94 519.366C1323.37 520.739 1324.44 520.572 1321.63 520.522L1320.8 519.16C1321.07 516.524 1322.09 513.395 1324.75 512.309L1326.11 513.256Z" fill="#86388A"/>
  <path d="M1336.58 543.774C1336.97 543.349 1337.41 543.253 1338.01 542.981L1341.43 543.108L1343.45 544.425C1343.96 546.709 1343.99 547.101 1344.08 549.456C1342.65 551.288 1342.35 551.166 1340.16 551.894C1337.67 551.682 1337.69 551.444 1335.8 549.878C1334.8 546.986 1335.33 547.472 1336.58 543.774Z" fill="#86388A"/>
  <path d="M1387.24 540.625C1391.39 538.858 1393.43 538.693 1395.12 534.644L1396.08 535.45C1396 539.547 1393.74 544.73 1390.05 546.783L1388.56 546.62C1387.11 544.535 1387.3 543.738 1387.12 541.074L1387.24 540.625Z" fill="#86388A"/>
  <path d="M1410.88 525.555C1413.84 525.925 1415.21 525.865 1416.92 528.423C1416.8 531.046 1415.93 531.589 1414.09 533.728C1411.8 534.194 1411.38 534.442 1409.16 533.582L1408.88 532.052C1410.17 529.518 1410.31 529.065 1410.77 526.231L1410.88 525.555Z" fill="#86388A"/>
  <path d="M1388.94 505.115C1391.01 504.981 1389.97 504.834 1392.05 506.039L1392.28 507.618C1390.48 511.227 1391.44 509.938 1387.59 512.487C1384.48 512.041 1384.43 512.353 1382.86 510.419L1383.21 508.608C1385.18 506.149 1385.88 506.071 1388.94 505.115Z" fill="#86388A"/>
  <path d="M1396.44 481.478C1393.62 480.401 1393.15 480.422 1391.4 478.136C1391.08 475.663 1390.86 476.818 1392.3 474.598C1395.17 473.398 1393.95 473.478 1396.95 474.018C1399.66 476.909 1399.07 477.712 1398.17 481.504L1397.55 481.152L1396.44 481.478Z" fill="#86388A"/>
  <path d="M1320.37 522.106C1324.53 524.095 1329.23 525.026 1329.71 529.727C1325.76 530.828 1324.85 531.422 1321.59 528.797C1320.18 525.96 1320.38 525.4 1320.37 522.106Z" fill="#86388A"/>
  <path d="M1339.47 572.825C1340.52 574.053 1341.58 575.441 1342.81 576.435C1343.4 578.423 1343.69 580.895 1341.41 581.673C1337.91 581.116 1335.38 577.775 1335.76 574.195C1337.4 572.533 1336.62 573.013 1339.47 572.825Z" fill="#86388A"/>
  <path d="M1307.59 494.247C1311.44 496.257 1311.17 499.912 1310.09 503.522L1306.96 505.206C1306.52 505.644 1306.87 505.351 1305.67 505.663C1304.23 502.334 1306.37 497.593 1307.59 494.247Z" fill="#86388A"/>
  <path d="M1332.29 528.936C1335.73 528.209 1335.14 527.769 1337.78 528.901C1339.84 532.008 1339.45 533.335 1340.6 536.407C1337.11 535.325 1333.96 534.842 1331.72 532.123C1331.67 530.41 1331.65 530.524 1332.29 528.936Z" fill="#86388A"/>
  <path d="M1355.89 520.712L1356.38 522.348C1358.37 523.584 1358.94 523.735 1359.99 525.853L1359.43 527.046C1356.74 527.886 1350.17 527.783 1348.83 525.183C1351.98 523.94 1353.74 523.537 1355.89 520.712Z" fill="#86388A" fill-opacity="0.988235"/>
  <path d="M1337.24 569.228C1333.89 568.953 1334.04 569.501 1331.81 567.813C1331.21 565.118 1331.04 566.367 1332.26 563.93C1334.61 562.718 1333.41 562.919 1335.98 563.238C1338.29 564.699 1338.47 565.671 1339.77 568.23L1337.24 569.228Z" fill="#6F2376"/>
  <path d="M1371.44 496.455C1373.8 500.036 1368.81 503.327 1366.08 505.118L1365.21 503.929C1364.14 498.035 1366.37 497.396 1371.44 496.455Z" fill="#86388A"/>
  <path d="M1421.63 554.829C1422.55 551.267 1419.13 551.32 1423.19 546.344C1425.88 545.706 1424.67 545.516 1426.97 546.691C1428.44 551.192 1424 552.236 1422.49 556.073L1421.63 554.829Z" fill="#6F2376"/>
  <path d="M1331.99 541.103C1333.89 538.858 1333.95 538.728 1336.56 537.5L1338.38 537.685C1339.33 539.797 1338.88 540.715 1338.01 542.981C1337.41 543.253 1336.97 543.349 1336.58 543.774L1331.11 543.475L1331.99 541.103Z" fill="#86388A"/>
  <path d="M1383.21 523.851C1385.79 523.361 1385.65 523.305 1388.11 524.129C1389.91 526.619 1389.34 526.002 1389.61 529.576C1387.15 530.105 1387.28 530.084 1384.94 529.097C1383.03 526.251 1383.56 527.549 1383.21 523.851Z" fill="#6F2376"/>
  <path d="M1393.25 602.771C1396.42 604.729 1397.75 608.02 1396.1 611.517C1392.71 610.484 1393.47 611.246 1391.6 608.863C1391.34 606.27 1392.12 605.253 1393.25 602.771Z" fill="#6F2376"/>
  <path d="M1304.78 506.497C1306.54 507.362 1306.99 508.081 1308.26 509.535C1309.18 512.231 1308.8 512.767 1308.09 515.682C1305.45 514.102 1304.71 513.988 1303.47 511.302C1303.35 508.832 1303.5 508.728 1304.78 506.497Z" fill="#86388A"/>
  <path d="M1319.7 639.874C1333.57 641.601 1345.54 651.812 1337.86 667.679C1335.94 671.654 1330 673.398 1325.74 674.169C1317.3 674.497 1309.4 672.325 1306.15 663.595C1304.5 659.226 1304.71 654.371 1306.74 650.164C1309.55 644.348 1313.94 641.865 1319.7 639.874ZM1325.61 670.044C1329.35 667.842 1332.87 665.992 1333.83 661.487C1335.83 652.06 1329.09 646.596 1320.53 646.646C1316.43 649.636 1312.83 651.924 1312.15 657.385C1311.12 665.726 1318.54 669.438 1325.61 670.044Z" fill="#86388A"/>
  <path d="M1374.89 392.115C1379.69 392.351 1426.49 407.891 1429.32 411.253C1429.73 413.594 1429.48 413.023 1428.1 415.675C1421.96 416.636 1378.46 402.18 1373.44 397.984C1372.98 395.087 1373.49 395.357 1374.89 392.115Z" fill="#934499"/>
  <path d="M1261.51 1016.36C1259.02 1020.63 1257.22 1022.63 1258.4 1027.42L1260.5 1030.02C1257.69 1031.3 1255.29 1031.63 1252.55 1030.18C1249.39 1023.81 1257.05 1018.96 1261.51 1016.36Z" fill="#86388A"/>
</svg>
