<svg xmlns="http://www.w3.org/2000/svg" width="3564" height="2792" viewBox="0 0 3564 2792" fill="none">
  <path d="M2579.98 7.70981C2598.43 -2.18012 2686.35 -2.96225 2703.2 7.73798C2714.97 7.9003 2729.78 12.2563 2740.74 15.6853C2843.06 47.68 2923.86 112.971 2977.72 190.301C3007.06 232.409 3035.4 276.04 3052.07 323.061C3079.19 405.857 3090.47 492.68 3077.05 578.004C3076.46 581.771 3074.09 584.81 3073.39 587.744C3062.89 631.854 3039.69 676.646 2990.48 700.049C2987.5 701.475 2986.58 701.869 2983.07 701.908C2971.59 701.747 2915.86 701.483 2906.42 702.623C2858.47 696.325 2802.55 629.603 2761.81 608.708C2663.48 558.267 2697.81 687.747 2710.96 719.186C2797.34 925.999 2941.86 1116.86 2860.44 1345.03C2834.6 1418.01 2793.31 1487.02 2716.02 1534.66C2699.09 1545.46 2659.32 1562.69 2638.78 1562.09C2624.7 1561.37 2573.45 1560.35 2562.14 1563.98L2559.92 1569.05C2557.8 1592.21 2504.28 1664.69 2481.11 1682.9C2472.02 1690.05 2446.73 1712.79 2440.02 1719.32C2436.72 1722.54 2453.55 1760.41 2454.61 1767.29C2456.18 1777.54 2454.74 1789.47 2455.28 1799.95L2719.04 1799.84C2754.68 1799.81 2820.7 1801.28 2854.89 1799.04L2855.07 1692.23C2855.1 1673.4 2852.23 1602.9 2868.75 1591.63C2897.21 1572.23 2970.6 1566.97 3007.84 1565.97C3035.51 1565.22 3114.45 1574.38 3123.4 1600.87C3119.43 1654.6 3125.75 1711.79 3123.5 1765.85C3123.07 1776.08 3122.55 1795.49 3128.46 1803.93C3147.4 1807.66 3234.68 1802.97 3257.87 1801.65L3260.15 1799.84C3340.38 1796.59 3423.83 1799.71 3504.36 1798.55C3527.34 1798.22 3560.58 1797.26 3563.3 1822.47C3563.89 1828.46 3552.25 1835.06 3547.45 1839.86L3533.54 1840.44C3514.76 1839.07 3485.72 1839.94 3465.74 1840.02L3343.83 1840.45C3280.33 1840.61 3196.4 1837.01 3135.82 1841.91C3132.87 1846.51 3133.7 1849.1 3134.18 1855.03L3134.45 1856.05C3129.78 1864.13 3131.35 1963.34 3135.53 1974.81C3144.72 1978.6 3181.82 1978.54 3192 1977.49C3193.77 1975.17 3193.91 1973.79 3196.1 1973.69C3219.86 1972.65 3248.46 1973.88 3271.76 1973.33C3326.01 1972.07 3379.58 1971.96 3433.52 1971.88C3455.71 1971.85 3520.61 1973.25 3539.52 1971.12C3546.98 1971.24 3550.37 1971.98 3556.09 1976.6C3561.05 1980.7 3563.76 1986.28 3563.6 1992.06C3563.4 2000.11 3557.87 2006.28 3548.72 2009.1C3533.21 2007.26 3499.11 2008.05 3481.83 2008.08L3360.98 2008.29L3217.51 2008.06C3197.16 2008.05 3160.49 2007.07 3141.21 2008.71L3137.93 2011.91C3133.64 2019.86 3135.68 2091 3135.71 2104.43L3136.12 2275.74C3136.15 2294.59 3133.96 2417.53 3137.24 2425.58C3138.75 2429.2 3139.12 2430.45 3141.41 2433.75C3154.45 2438.93 3248.09 2430.68 3275.47 2437.72C3305.49 2445.45 3364.48 2447.65 3397.02 2447.8C3415.52 2447.88 3541.75 2436.27 3549.2 2447.23C3551.57 2450.72 3551.7 2456.2 3552.04 2460.1C3533.56 2471.54 3526.76 2469.5 3506.68 2474.04C3443.38 2488.3 3374.23 2485 3309.95 2477.69C3276.25 2473.85 3164.48 2454.01 3138 2464.06C3135.06 2479.48 3135.91 2495.93 3135.95 2511.61C3136.05 2555.47 3135.04 2599.23 3133.08 2643.05C3132.89 2647.54 3133.26 2649.85 3136.1 2653.39C3154.78 2656.34 3205.7 2634.81 3195.92 2673.47C3193.18 2680.88 3183.06 2687.53 3174.73 2690.27C3126.34 2706.15 3075.78 2707.86 3024.67 2707.98C2960.02 2708.13 2896.62 2705.15 2833.99 2691.06C2830.34 2690.24 2831.09 2689.92 2828.21 2688.38C2814.47 2681.08 2791.43 2682.05 2797.36 2662.14C2808.57 2654.34 2847.38 2660.5 2863.04 2660.51C2863.24 2613.52 2856.88 2566.48 2857.83 2519.26C2858.03 2509.32 2858.75 2465.14 2855.84 2458.3C2837.26 2443.89 2724.48 2464.86 2697.32 2467.2C2670.76 2469.49 2607.84 2488.63 2584.38 2486.53C2550.97 2485.23 2534.74 2490.03 2503.2 2491.97C2467.4 2494.19 2435.05 2492.73 2399.67 2503.4C2363.33 2504.18 2325.88 2504.41 2289.5 2501.93C2214.43 2496.83 2142.95 2479.79 2070.2 2465.53C2009.75 2453.69 1937.24 2454.48 1876.44 2459.31C1873.68 2508.7 1871.67 2558.45 1871.34 2607.86C1871.23 2626 1867.62 2645.26 1868.65 2663.32C1881.76 2663.43 1909.89 2660.04 1920.41 2652.61C1923.74 2650.26 1929.24 2641.61 1932.7 2637.92C1940.11 2638.15 1942.99 2643.48 1948.24 2647.02C1979.52 2668.09 1925.94 2701.08 1901.84 2702.79C1850.23 2701.74 1795.25 2712.15 1742.12 2708.08C1724.93 2706.77 1692.32 2706.1 1675.65 2707.79C1662.51 2708.11 1610.18 2699.2 1601.07 2693.82C1600.68 2690 1600.23 2689.57 1598.59 2685.91C1608.26 2667.81 1619.8 2672.32 1642.02 2672.23C1648.03 2662.97 1638.35 2595.35 1638.45 2578.33C1638.53 2563.29 1639.96 2483.72 1633.99 2476.87C1620.86 2472.95 1506.26 2492.31 1484.34 2490.66C1472.43 2489.76 1458.17 2487.43 1449.97 2479.62C1448.4 2474.49 1448.21 2476.94 1450.51 2472.04C1459 2464.97 1491.46 2463.59 1504.95 2461.25C1549.53 2453.57 1592.08 2446.31 1637.74 2445.56C1639.18 2417.95 1637.89 2382.02 1637.89 2353.88L1638.33 2177.06C1638.36 2147.73 1638.63 2118.42 1639.11 2089.11C1639.75 2066.04 1642.64 2046.78 1639.72 2023.64C1631.29 2015.25 1488.66 2025.65 1458.33 2015.75C1451.15 2010.5 1448.1 2001.65 1447.39 1994C1450.35 1980.51 1451.39 1959.91 1440.32 1949.28C1438.26 1910.41 1440.44 1888.25 1444.3 1850.62C1456.7 1843.59 1449.39 1832.44 1458.81 1822.65C1474.85 1817.58 1573.47 1817.04 1593.16 1816.38C1620.23 1815.48 1651.95 1813.65 1679.33 1812.44L1682.53 1816.09C1694.05 1817.41 1700.7 1817.87 1711.78 1815.17L1711.98 1813.22C1706.94 1811.57 1706.59 1811.79 1701.07 1811.5C1711.07 1810.68 1723.3 1810.89 1729.37 1804.13C1735.62 1799.46 1735.92 1784.4 1740.31 1778.15C1763.21 1745.49 1801.81 1725.91 1846.51 1719.48C1862.66 1716.88 1893.09 1718.72 1902.07 1715.81C1896.24 1704.19 1881.17 1697.69 1875.82 1691.74C1792.47 1599.12 1784.86 1453.95 1868.08 1360.15C1870.3 1357.64 1842.27 1248.6 1833.83 1240.33C1823.39 1242.37 1826.32 1244.41 1821.14 1248.53C1781.56 1279.55 1737.29 1316.18 1689.97 1339.03C1664.49 1351.33 1625.69 1368.53 1601.37 1378.85C1540.83 1404.5 1542.61 1402.04 1520.2 1453.87C1513.76 1468.79 1456.61 1508.7 1446.23 1525.72C1436.54 1548.03 1424.03 1570.73 1414.37 1592.88C1391.07 1646.26 1367.95 1690.81 1331.47 1739.32C1314.84 1761.45 1266.68 1813.9 1247.12 1830.12C1243.57 1833.07 1261.44 1902.6 1262.3 1910.42C1269.57 1953.61 1274.24 1997.34 1273.7 2040.93C1273.47 2059.71 1271.5 2079.51 1274.2 2098.11C1276.29 2109.15 1299.73 2126.17 1306.93 2136.65C1340.68 2185.78 1350.93 2241.09 1349.79 2296.9C1349.68 2302.63 1348.67 2330.36 1350.72 2334.25C1355.01 2332.89 1372.72 2314.63 1377.18 2310.77C1397.71 2292.97 1425.94 2277.42 1456.8 2277.58C1482 2277.85 1498.08 2293.65 1514.15 2307.26C1521.95 2313.9 1526.76 2323.54 1525.5 2332.77C1524.78 2338.04 1520.37 2352.28 1516.36 2356.06C1493.06 2377.94 1467.33 2398.31 1443.7 2419.95C1411.37 2449.55 1381.02 2480.97 1348.19 2510.19C1329.19 2527.11 1306.3 2556.36 1274.57 2553.26C1265 2552.33 1248.57 2540.58 1243.17 2534.17C1234.25 2523.55 1230.45 2508.42 1223.83 2496.72C1220.32 2490.5 1223.42 2485.56 1218.84 2480.03L1215.62 2480.21C1213.32 2485.31 1211.11 2503.12 1211.19 2508.45C1212.06 2547.45 1180.57 2576.64 1167.24 2611.94C1165.02 2617.81 1194.08 2657.23 1196.57 2657.37C1215.33 2658.46 1288.3 2655.6 1298.21 2641.61C1296.48 2630.89 1282.07 2627.77 1279.9 2619.73C1302.28 2609.57 1363.02 2635.47 1323.51 2667.19C1303.42 2683.33 1277.41 2695.78 1248.96 2695.68C1219.33 2693.58 1163.04 2695.65 1130.27 2695.53C1095.06 2695.39 1035.32 2693.54 1002.32 2695.78C980.539 2695.92 873.487 2675.59 866.607 2659.49C866.44 2654.34 866.127 2653.43 867.57 2648.32C878.238 2640.39 878.497 2653.24 903.655 2650.89L906.003 2650.65C927.523 2650.61 1004.33 2667.66 1017.36 2656.68C1016.65 2647.89 996.318 2634.27 996.82 2617.76C997.742 2587.39 1025.67 2565.93 1011.44 2534.68C1005.05 2520.63 962.963 2478.28 946.539 2472.08C936.197 2477.63 931.221 2484.49 922.385 2491.1C908.181 2501.73 888.793 2511.27 871.702 2518.07C808.943 2543.01 735.811 2533.72 677.452 2504.83C666.71 2499.51 632.08 2479.87 623.043 2478.12C583.342 2470.42 523.052 2490.4 484.817 2500.2C480.14 2501.39 461.999 2505.51 460.654 2506.05C425.862 2504.32 387.527 2514.02 352.372 2511.24C313.273 2508.14 293.817 2499.98 252.525 2503.44C240.718 2503.83 239.936 2501.24 229.418 2498.99L225.923 2498.25L224.589 2493.57C214.008 2482.7 211.915 2485.86 196.181 2483.87L204.788 2479.16C196.711 2477.43 189.754 2483.03 184.293 2481.93C176.061 2480.25 164.079 2477.24 155.777 2475.2L155.976 2475.35C139.302 2472.35 117.888 2470.07 101.968 2476.25C91.7703 2480.21 77.207 2474.82 67.3506 2471.77L67.2314 2470.11C71.1367 2466.58 71.3277 2465.75 72.7041 2461.11C77.0518 2458.02 88.8037 2457.74 94.727 2457.21C205.208 2447.43 306.741 2504.34 419.142 2483.98C461.813 2476.24 502.881 2461.05 545.322 2451.9C553.093 2450.23 585.591 2446.13 589.257 2443.14C579.343 2428.59 565.797 2415.59 554.812 2401.51C535.186 2376.36 520.922 2348.27 509.456 2320.01C500.035 2296.81 491.922 2271.09 485.973 2247.11C474.611 2201.34 452.711 2046.63 416.283 2021.57C412.389 2018.89 409.114 2018.26 404.075 2018.54C379.955 2027.9 372.178 2079.43 364.639 2100.74C340.207 2169.76 280.592 2223.17 191.023 2172.48C127.498 2134.6 86.4707 2044.42 73.5433 1981.34C41.7921 1826.44 98.4577 1603.92 313.569 1562.12C368.216 1552.51 443.674 1573.06 486.858 1600C571.588 1652.87 642.467 1777.24 660.785 1861.31C656.513 1872.53 651.167 1866.56 648.945 1884.52C651.587 1889.86 649.432 1887.93 655.533 1890.57C661.628 1890.18 664.008 1889.81 669.858 1888.84C673.889 1907.35 680.069 1927.92 685.396 1946.47C702.748 2006.91 711.414 2068.53 729.853 2128.71C733.112 2139.35 735.899 2151.62 740.704 2161.78C747.044 2175.18 751.55 2189.15 757.527 2202.68C767.45 2220.04 792.774 2277.06 816.719 2281.85C818.427 2279.59 813.782 2261.58 812.843 2256.37C808.208 2231.44 804.095 2206.47 800.505 2181.42C790.371 2110.4 807.103 2024.59 822.913 1954.28C826.273 1939.35 841.451 1899.81 841.056 1887.55C845.599 1886.68 849.506 1886.88 853.751 1882.14C858.891 1879.01 876.05 1846.42 872.251 1842.69C863.883 1834.47 867.611 1834.17 865.823 1817.99C865.673 1813.78 866.584 1808.33 868.633 1804.46C872.465 1784.9 881.257 1759.45 885.999 1736.32C885.759 1729.5 887.866 1718.94 887.668 1709.84C887.271 1691.46 884.61 1676.67 882.612 1658.67C876.657 1644.8 868.375 1608.66 861.281 1597.8C861.372 1594.13 854.228 1572.78 850.729 1568.7C846.652 1564.25 835.573 1564.47 829.718 1562.13C778.33 1541.65 733.04 1493.13 751.285 1444.28C764.456 1409.01 824.456 1424.62 841.638 1417.89C843.521 1412.88 840.331 1409.76 838.995 1404L838.513 1401.87C824.081 1384.84 818.203 1350.98 834.61 1333.41C852.951 1326.49 848.37 1322.56 874.251 1325.21C909.427 1328.83 934.663 1343.42 962.782 1359.72C965.087 1361.06 997.251 1339.14 1002.74 1338.33C1053.29 1317.49 1160.92 1304.31 1213.96 1314.87C1279.74 1327.96 1277.99 1459.35 1263.92 1501.63C1258.26 1524.02 1248.77 1544.26 1243.62 1565.67C1252.28 1564.91 1260.8 1554.5 1267.19 1548.45C1268.5 1544.56 1301.17 1508.07 1305.9 1501.18C1319.49 1481.45 1333.43 1460.16 1346.28 1440.05C1354.4 1427.34 1363.07 1417.55 1371.1 1406.34C1379.55 1394.54 1397.03 1383.76 1400.92 1377.63C1410.77 1362.13 1414.5 1349.71 1426.93 1333.64C1449.9 1303.95 1485.33 1286.88 1518.34 1265.2C1530.76 1257.05 1544.03 1247.7 1556.05 1240.05C1558.89 1238.01 1567.91 1227.2 1572.21 1223.58C1595.07 1204.24 1610.07 1178.76 1631.46 1158.73C1632.27 1155.03 1691.93 1060.36 1697.63 1050.9C1681.24 1050.9 1667.08 1053.09 1650.67 1054.38C1622.74 1056.56 1594.71 1052.13 1567.54 1047.22C1528.89 1040.22 1490.44 1023.1 1469.73 994.249C1460.46 981.322 1454.7 966.907 1452.83 951.983C1447.23 908.562 1470.94 819.808 1486.15 776.462C1496.28 750.727 1507.95 727.941 1522.58 703.646C1537.55 679.441 1560.78 658.168 1578.64 636.179C1581.12 633.111 1578.25 586.102 1578.59 578.225C1579.18 562.104 1581.96 546.084 1586.85 530.467C1596.42 499.88 1635.78 427.017 1675.98 477.253C1690 494.803 1696.72 510.83 1703.41 531.142C1707.08 542.261 1709.61 560.624 1715.65 569.889L1719.28 570.118C1731.65 559.853 1739.8 479 1783.31 448.838C1790.71 443.716 1799.67 440.63 1809.45 441.745C1848.47 446.187 1883.12 518.183 1887.64 545.819C1889.22 555.42 1888.93 599.741 1890.12 602.502C1891.92 606.65 1944.96 651.167 1952.67 658.363C1991.28 694.872 2036.5 726.283 2086.74 751.491C2147.69 781.951 2217.84 802.718 2275.9 837.522C2289.53 845.689 2320.29 860.703 2329.98 870.886C2330.19 876.277 2329.67 886.027 2332.82 890.128L2334.79 890.957C2351.02 897.885 2358.76 903.424 2372.6 912.843C2373.73 913.609 2379.84 913.725 2381.73 913.745C2394.56 918.675 2401.24 933.455 2411.71 931.524C2416.93 920.135 2392.42 880.664 2391.77 865.017C2392.13 853.241 2397.71 832.745 2396.03 825.397L2388.83 827.919C2381.52 819.75 2386.12 801.955 2367.2 795.113C2320.51 669.495 2277.86 506.844 2283.67 375.486C2284.29 361.652 2286.33 332.643 2290.43 319.526C2311.18 302.579 2314.45 266.695 2311.04 243.676C2323.67 191.988 2386.89 103.741 2436.36 69.1194C2467.05 47.6398 2539.54 5.77127 2579.98 7.70981ZM2923.71 653.717C2936.97 654.507 2950.01 655.625 2962.78 652.22C2963.33 651.049 2981.93 642.971 2986.71 638.242C3038.75 586.811 3034.08 506.428 3026.04 439.164C3004.02 254.817 2804.33 -16.8017 2536.93 77.005C2480.51 96.8037 2420.51 149.052 2393.42 194.657C2384.42 209.813 2375.97 227.205 2369.09 243.396C2353.83 278.983 2344.18 316.035 2340.41 353.643C2338.43 371.576 2338.2 388.433 2335.56 406.544C2331.3 414.047 2332.38 511.109 2335.93 524.68C2339.17 536.947 2337.78 548.07 2352.36 554.092C2355.49 558.288 2358.02 574.559 2359.2 580.216C2388.11 720.488 2452.41 854.16 2483.25 994.4C2485.72 1005.58 2488.38 1024.39 2494.6 1033.51C2587.4 1169.18 2612.13 1336.24 2587.74 1489.06C2586.71 1495.5 2580.82 1511.51 2584.1 1516.24C2598.27 1519.54 2661.03 1503.76 2673.93 1496.7C2809.18 1422.82 2842.32 1261.03 2824.46 1137.26C2818.04 1094.97 2806.22 1053.36 2789.23 1013.1C2777.55 986.132 2765.39 958.979 2751.99 932.565C2710.94 851.673 2590.87 647.42 2665.16 570.052C2677.67 557.022 2691.97 545.804 2712.9 543.514C2744.85 540.014 2773.98 550.805 2798.42 566.831C2839.58 593.819 2867.72 633.293 2917.83 650.454C2919.99 651.192 2922.26 652.139 2923.71 653.717ZM1224.08 2078.19C1224.56 2075.1 1224.88 2072 1225.04 2068.89C1227.4 2019.84 1221.13 1964.6 1212.4 1916.27C1210.83 1907.55 1209.82 1880.15 1204.05 1875.05C1193.67 1878.05 1190.56 1889.07 1178.07 1890.33C1165.47 1891.6 1161.62 1896.83 1149.66 1890.46C1133.14 1865.74 1183.72 1826.3 1201.37 1807.29C1231.32 1775.05 1266.76 1744.33 1292.74 1709.61C1329.25 1660.79 1354.02 1606.29 1381.28 1553.8C1396.57 1523.52 1407.78 1500.55 1432.59 1474.3C1448.78 1457.18 1480.3 1434.25 1481.5 1412.41C1474.53 1403.75 1436.55 1405.87 1430.97 1410.78C1395.61 1441.91 1371.06 1483.29 1346.54 1520.46C1302.31 1586.36 1238.67 1642.09 1161.44 1682.54C1160.9 1682.82 1160.36 1683.09 1159.82 1683.37C1143.53 1691.99 1103.23 1718.26 1085.07 1704.67C1076.76 1673.21 1158.76 1641.93 1163.68 1630.7C1180.69 1591.83 1207.52 1533.23 1219.48 1492.65C1226.11 1470.15 1233.79 1409.42 1219.9 1391.22C1214.17 1388.92 1201.16 1383.99 1196.77 1381.18C1189.6 1376.51 1180.76 1362.09 1170.87 1361.97C1105.06 1361.22 1035.92 1366.71 984.279 1403.95C965.962 1417.15 949.707 1430.87 930.878 1443.42C927.526 1445.64 927.784 1461.66 925.222 1468.29C912.984 1479.18 876.747 1462.65 859.875 1461.55C843.493 1460.48 799.132 1456.63 789.974 1469.83C790.828 1482.79 812.476 1496.86 821.842 1507.88C843.695 1529.33 895.884 1525.69 917.32 1545.29C927.471 1554.56 890.264 1564.1 896.339 1575.45C907.924 1597.29 917.6 1620.26 924.837 1643.33C949.517 1722.03 918.669 1802.31 897.644 1879.01C870.969 1977.01 840.396 2083.02 853.851 2183.81C864.481 2263.44 887.898 2349.6 956.553 2409.38C965.107 2416.83 974.557 2420.32 982.821 2427.11C1021.49 2458.91 1078.5 2461.56 1126.33 2442.73C1149.11 2433.54 1177.88 2408.76 1205.06 2412.73C1251.17 2419.48 1262.79 2472.55 1277.79 2502.09C1280.09 2503.08 1283.88 2505.3 1285.24 2504.56C1308.82 2491.87 1379.02 2423.09 1393.34 2406.88C1400.3 2403.23 1420.47 2383.32 1425.77 2377.51C1434.48 2367.99 1473.54 2340.26 1473.22 2329.82C1472 2328.88 1470.91 2327.93 1469.31 2327.41C1456.17 2324.27 1435.19 2327.12 1423.2 2331.54C1400.72 2339.82 1338.63 2416.57 1323.13 2419.2C1284.73 2425.69 1298.53 2362.97 1300.08 2346.04C1303.65 2307.07 1303.31 2262.14 1290.82 2223.77C1279.65 2188.98 1259.07 2149.05 1219.58 2130.81C1200.64 2121.97 1178.22 2119.63 1157.2 2124.28C1081.34 2140.88 1056.12 2212.57 1035.26 2217.29C1025.14 2215.35 1021.25 2205.11 1022.56 2197.68C1030.96 2150.21 1070.89 2109.7 1121.24 2087.27C1166.92 2066.92 1180.03 2077.26 1224.08 2078.19ZM1518.21 975.342C1516.94 1008.89 1565.86 1005.37 1594.69 1003.03C1636.34 1005.73 1668.73 1009.79 1711.18 998.887C1726.1 995.05 1742.94 989.564 1758.01 986.925C1797.58 988.693 1795.47 979.276 1820.5 1003.77L1819.34 1004.59C1801.84 1016.77 1782.38 1022.97 1764.41 1034.07C1764.16 1035.05 1763.92 1036.04 1763.65 1037.02C1769.43 1042.98 1774.3 1045.96 1781.14 1053.24C1889.29 1168.46 1898.14 1318.57 1962.17 1448.15C1979.72 1483.65 2035.62 1543.03 2072.59 1560.63C2073.89 1557.26 2064.26 1514.04 2063.66 1506.95C2057.4 1433.81 2089.01 1339.46 2163.53 1293.98C2171.8 1293.82 2179.59 1293.95 2187.85 1294.1L2191.95 1288.27C2204.8 1284.86 2227.79 1276.51 2237.47 1274.49C2254.97 1270.81 2286.45 1273.38 2306.6 1272.42L2308.82 1272.3C2331.33 1271.59 2374.66 1304.46 2375.53 1324.62C2369.39 1335.26 2355.49 1327.95 2345.65 1324.62C2342.37 1323.52 2338.01 1320.76 2335.43 1318.83C2313.16 1310.43 2286.66 1304.73 2261.86 1306.23C2237.31 1307.73 2220.77 1317.73 2200.03 1327.04C2190.58 1331.28 2193.5 1328.85 2185.52 1334.75C2143.05 1366.08 2119.26 1407.32 2113.79 1453.85C2111.72 1471.05 2109.35 1491.51 2111.93 1509.23C2118.32 1574.46 2153.99 1633.38 2213.26 1677.03C2224.28 1683.11 2231.53 1689.58 2241.16 1696.92C2255.31 1707.69 2278.82 1714.52 2280.41 1732.96C2282.22 1754.28 2267.07 1758.52 2242.76 1759.22C2190.2 1760.75 2123.98 1750.34 2079.61 1779.18C2072.52 1784.01 2068.86 1792.26 2067.77 1799.56C2068.37 1801.75 2069.58 1803.34 2070.79 1805.43C2072.28 1806.31 2073.76 1807.18 2075.25 1808.06C2167.28 1810.47 2310.79 1805.65 2397.08 1804.54C2400.05 1801.75 2399.67 1798.2 2400.49 1793.78C2400.49 1793.76 2403 1784.01 2403.18 1783.25C2409.21 1759.94 2387.77 1739.85 2387.48 1715.42C2387.17 1688.02 2408.47 1677.68 2428.8 1659.54C2457.88 1638.14 2470.19 1616.62 2488.56 1590.04C2502.99 1569.12 2505.73 1564.83 2516.07 1541.4C2558.43 1445.25 2551.77 1339.43 2527.64 1240.73C2490.99 1090.72 2389.81 957.357 2231.98 874.224C2204.36 859.649 2192.6 853.411 2162.46 840.687C2132.65 828.1 2103 815.235 2073.55 802.091C2011.9 774.163 1951.15 725.82 1907.03 680.6C1899.28 672.653 1888.62 660.747 1879.2 654.505C1864.03 653.411 1864.41 672.878 1845.42 675.258C1817.27 670.217 1830.5 640.236 1835.05 624.866C1838.41 613.469 1840.63 601.085 1843.51 589.718C1848.29 570.729 1831.57 492.799 1804.19 491.083C1776 503.77 1761.81 592.065 1761.92 617.683C1761.99 629.2 1760.06 660.508 1739.49 657.498C1717.11 654.221 1730.23 629.843 1717.84 618.516C1688.08 611.241 1601.92 682.874 1585.47 702.953C1542.36 755.503 1521.65 812.424 1513.38 875.056C1508.77 909.944 1484.99 944.846 1518.21 975.342ZM605.752 2378.71C616.054 2389.8 625.216 2401.27 636.099 2411.75C691.104 2464.73 787.171 2496.2 866.53 2460.86C878.687 2455.46 891.825 2449.47 903.263 2442.85C906.692 2440.86 905.717 2437.9 905.746 2434.73C901.681 2428.65 902.736 2431.43 899.187 2428.17C880.479 2411 866.465 2389.52 849.975 2370.97C840.771 2362.7 822.964 2357.16 813.193 2350.61C778.005 2327.06 748.727 2294.86 729.192 2261.04C622.099 2075.64 659.605 1850.98 502.009 1682.16C493.096 1672.61 482.954 1666.42 472.428 1658.27C436.988 1630.82 373.274 1610.33 324.456 1616.96C117.777 1669.36 91.4144 1872.03 142.107 2021.99C153.47 2067.74 247.944 2199.52 300.55 2107.1C324.051 2060.32 333.879 1945.98 427.393 1967.79C452.079 1973.54 476.014 2002.72 484.659 2022.4C532.747 2131.89 522.687 2253.9 592.429 2357.85C596.356 2363.7 602.713 2372.8 605.752 2378.71ZM2905.5 2657.99L2905.98 2660.53C2906.52 2664.26 2905.95 2663.02 2908.56 2666.01C2924.92 2671.94 3004.23 2666.12 3027.15 2667.5C3040.31 2668.29 3072.41 2662.31 3085.77 2659.47C3091.66 2653.48 3091.25 2655.64 3092.07 2649.04C3094.53 2639.33 3092.93 2599.24 3092.75 2585.99L3089.36 2427.03C3088.25 2257.42 3088.4 2087.8 3089.78 1918.18C3089.91 1908.32 3093.51 1874.39 3092.53 1867.68C3088.26 1838.42 3099.3 1672 3089.98 1659.46C3076.54 1661.22 3061.16 1670.69 3049.1 1671.95C3013.37 1675.68 2975.89 1672.31 2940.56 1667.34C2924.92 1665.14 2905.98 1656.95 2899.14 1660.84C2896.57 1671.66 2898.3 1684.23 2898.32 1695.4C2898.39 1728.32 2905.52 1773.61 2902.45 1805.68C2905.31 1809.73 2908.72 1938.44 2909.13 1953.37C2910.26 2009.66 2910.99 2065.96 2911.35 2122.26L2909.67 2336.62C2909.81 2418.79 2911.32 2501.57 2906.55 2583.55C2905.15 2607.55 2907.09 2634.33 2905.5 2657.99ZM2856.41 2413C2858.5 2389.56 2857.81 2361.63 2857.95 2337.64L2858.35 2212.89L2858.5 2092.94C2858.52 2080.87 2860.7 2028.01 2854.94 2020.78L2853.37 2016.19C2839.64 2015.05 2807.01 2015.92 2791.58 2015.96L2679.53 2016.05L2254.71 2018.9C2172.72 2019.73 2090.09 2018.71 2008.18 2019.29C1975.93 2019.52 1902.86 2016.66 1873.22 2019.36C1870.56 2022.58 1871.34 2020.75 1872.05 2025.23C1867.7 2033.58 1871.25 2071.68 1871.39 2083.67L1875.18 2272.27C1875.51 2290.97 1873.57 2425.86 1877.06 2433.62C1889.58 2432.29 1906.9 2428.47 1917.61 2429.82C1975.03 2406.75 2218.94 2459.72 2295.62 2461.8C2351.69 2463.33 2398.6 2461.06 2454.53 2458.44C2482.84 2458.52 2524.38 2451.59 2553.34 2448.03C2633.72 2438.14 2713.03 2419.91 2794.16 2413.55C2810.45 2412.26 2839.38 2412.94 2856.41 2413ZM1638.66 510.437C1627.18 524.191 1610.59 590.06 1619.56 604.25C1628 606.057 1631.91 597.631 1638.9 597.513C1648.5 589.638 1665.45 588.298 1669.79 578.394C1669.37 567.002 1651.56 519.775 1642.84 511.553L1638.66 510.437ZM891.955 1418.71C903.902 1412.75 918.963 1397.62 925.061 1386.94C924.858 1381.21 925.487 1383.33 918.857 1378.11C904.24 1377.95 877.864 1361.53 862.656 1367.02C860.938 1377.04 880.569 1412.27 891.955 1418.71ZM2064.23 1733.94C2081.04 1722.18 2121.55 1714.36 2143.77 1713.55C2152.44 1713.23 2167.22 1714.68 2174.19 1711.77C2171.41 1704.3 2156.93 1692.07 2149.31 1687.14C2126.87 1672.63 2110.27 1642.26 2093.13 1625.45C2087.35 1619.79 2051.15 1605.41 2038.5 1597.53C1976.24 1558.74 1927.67 1503.55 1902.5 1442.77C1898.94 1434.19 1891.7 1420.3 1891.54 1413.54L1889.04 1411.23L1884.75 1411.31C1877.89 1418.83 1874.84 1429.34 1871.67 1438.27C1857.58 1478.04 1854.64 1515.58 1861.68 1556.51C1864.81 1574.77 1877.65 1618.38 1894.27 1630.04C1903.87 1636.77 1906.66 1650.61 1915.83 1658.71C1926.97 1668.54 1937.45 1678.9 1949.01 1688.42C1966.55 1702.9 1996.11 1714.93 1995.04 1738.54C1994.76 1744.41 1992.05 1749.64 1986.55 1753.42C1954.07 1775.77 1823.25 1742.21 1781.58 1800.18C1783.61 1802.91 1783.9 1803.11 1786.38 1805.58C1800.96 1810.2 2003.33 1811.1 2020.77 1806.13C2029.68 1798.1 2026.87 1779.13 2030.28 1773.6C2035.92 1764.45 2063.2 1744.57 2064.23 1733.94ZM1775.69 2023.37L1773.89 2020.63C1761.92 2019.52 1733.07 2019.01 1721.55 2020.62L1719.78 2022.27C1717.69 2024.22 1716 2025.66 1713.78 2027.49C1702.94 2027.69 1713.48 2025.23 1700.98 2023.44C1694.53 2024.17 1695.23 2021.71 1685.6 2023.95C1682.01 2027.6 1681.65 2028.76 1681.65 2034.45C1681.6 2059.9 1681.96 2085.55 1682.12 2110.99L1685.19 2328.43C1685.32 2388.04 1685.07 2447.66 1684.44 2507.27C1683.43 2560.39 1680.91 2616.86 1682.35 2669.89C1711.64 2672.91 1806.27 2671.69 1836.06 2669.13C1828.68 2640.15 1828.54 2559.6 1827.52 2527.86C1824.26 2425 1824.01 2322.09 1826.77 2219.22C1827.82 2175.14 1828.36 2131.06 1828.36 2086.96C1828.45 2076.29 1831.34 2030.14 1826.72 2023.93L1825.01 2021.67C1810.14 2014.92 1796.06 2025.22 1782.74 2023.54L1775.69 2023.37ZM1480.76 1850.69C1485.26 1893.52 1483.67 1936.75 1484.04 1979.66C1484.08 1983.79 1485.12 1983.74 1488.24 1986.46C1492.42 1987.17 1492.35 1987.31 1496.55 1987.38C1512.59 1989.31 1536.36 1988.42 1552.86 1988.57C1600.06 1988.96 1647.15 1986.38 1694.17 1985.34L1995.67 1980.68C2111.56 1978.08 2231.15 1979.84 2347.54 1979.23L2625.75 1976.11C2674.71 1975.85 2723.66 1975.93 2772.62 1976.34C2789.34 1976.42 2849.41 1978.62 2860.21 1972.87C2868.51 1963.23 2860.3 1898.39 2862.84 1882.96C2863.73 1877.54 2862.21 1857.59 2861.11 1852.01C2859.9 1850.54 2856.82 1846.97 2854.99 1846.74C2811.23 1841.44 2722.5 1847.69 2682.03 1847.87L2541.11 1847.43L2150.38 1846.81C2116.02 1846.75 2081.61 1848.04 2047.21 1848.06C1974.33 1848.08 1901.76 1846.66 1828.98 1844.97C1772.14 1843.66 1714.48 1850.66 1657.55 1846.16C1637.43 1844.58 1492.28 1842.25 1483.98 1845.23C1481.22 1846.22 1481.49 1848.5 1480.76 1850.69ZM1632.57 1229.55C1604.93 1256.12 1587.16 1271.63 1555.44 1294.5C1535.95 1308.55 1470.9 1343.27 1461.96 1360.08C1469.8 1364 1476.25 1360.75 1479.78 1362.32C1487.5 1366.51 1492.14 1369.26 1500.87 1371.84C1519.01 1378.07 1522.43 1362.55 1524.36 1361.72C1610.45 1324.41 1703.7 1294.18 1764.8 1228.61C1775.92 1216.67 1805.12 1198.36 1810.12 1183.63C1805.63 1158.9 1766.15 1108.38 1750.84 1085.52C1746.84 1079.55 1739.54 1071.02 1730.56 1071.16C1720.44 1099.07 1659.34 1203.83 1636.63 1221.58L1633.61 1218.18C1625.32 1217.11 1619.18 1220.5 1619.54 1227.78C1625.07 1231.05 1623.88 1229.92 1632.57 1229.55ZM2998.84 1611.08C2982.03 1611.35 2913.65 1612.47 2904.04 1620.61C2908.12 1631.58 2974.57 1636.37 2988.66 1636.1C3007.79 1636.16 3067.87 1634.68 3078.35 1619.27C3074.22 1606.05 3014.06 1610.29 2998.84 1611.08ZM1169.93 2476.2C1138.71 2494.94 1113.37 2506.37 1073.39 2507.07C1064.85 2507.23 1055.29 2508.68 1048.26 2504.06L1045.83 2504.36C1041.92 2509.95 1042.27 2507.19 1043.53 2512.74C1057.53 2524.98 1058.74 2546.48 1058.55 2562.9C1058.35 2580.57 1044.08 2599.38 1050.07 2617.06C1053.85 2627.77 1070.38 2646.01 1079.09 2655.3C1079.65 2655.55 1090.54 2661.69 1089.08 2661.64C1108.27 2662.34 1130.16 2663.26 1149.23 2662.18C1149.44 2649.04 1114.77 2638.93 1119.76 2605.79C1123.29 2582.34 1183.24 2492.62 1171.59 2476.55L1169.93 2476.2Z" fill="#913B9F"/>
  <path d="M1556.05 1240.05C1558.89 1238.01 1567.91 1227.2 1572.21 1223.57C1595.07 1204.24 1610.07 1178.75 1631.46 1158.73C1631.36 1161.08 1631.23 1183.02 1632.99 1181.48C1615.13 1197.35 1586.92 1229.13 1569.29 1242.84L1556.05 1240.05Z" fill="#913B9F"/>
  <path d="M2579.98 7.70981C2598.43 -2.18012 2686.35 -2.96225 2703.2 7.73798C2688.02 9.52895 2596.98 9.16942 2579.98 7.70981Z" fill="#913B9F"/>
  <path d="M861.281 1597.8C888.992 1601.95 884.746 1641.04 882.612 1658.67C876.657 1644.8 868.375 1608.66 861.281 1597.8Z" fill="#913B9F"/>
  <path d="M1243.62 1565.67C1252.28 1564.91 1260.8 1554.5 1267.19 1548.45L1267.17 1550.23C1267.14 1561.86 1273.13 1565.16 1262.77 1573.81C1257.99 1571.83 1259.66 1572.81 1256.2 1569.24C1248.25 1571.47 1249.08 1572.34 1241.93 1571.27L1241.19 1570.12C1241.59 1569.35 1243.1 1566.22 1243.62 1565.67Z" fill="#913B9F"/>
  <path d="M2031.62 1265.63C2031.59 1260.43 2034.97 1252.69 2037.03 1247.62C2057.42 1197.26 2123.75 1174 2159.4 1133.41C2166.2 1126.39 2168.86 1113.95 2173.16 1106.77C2193.37 1072.95 2178.11 1033.9 2169.42 999.167C2168.06 993.719 2162.84 990.906 2162.17 986.657C2160.05 973.218 2160.31 954.646 2180.6 952.122C2184.75 953.129 2189.16 954.45 2191.85 957.357C2217.98 985.565 2234.17 1044.59 2232.18 1078.56C2228.67 1138.39 2192.65 1178.46 2137.66 1214.21C2120.55 1225.33 2098.42 1239.92 2086.59 1255.04C2064.46 1282.14 2060.98 1327.64 2031.15 1349.75C2000.1 1372.76 1959.13 1335.85 1951.31 1313.46C1921.61 1228.5 1985.03 1165.99 2031.48 1097.84C2035.15 1077.77 2035.41 1068.98 2019.85 1049.11C2001.39 1025.55 1954.25 1007.77 1954.1 976.598C1954.06 963.499 1981.03 967.487 1988.6 972.164C2026.2 989.812 2060.19 1019.74 2073.21 1054.1C2081.08 1075.06 2078.84 1109.64 2063.97 1128.04C2061.29 1139.42 2048.95 1152.75 2040.75 1162.17C2037.08 1166.38 2032.54 1175.76 2028.95 1180C1998.5 1215.97 1984.5 1251.6 1992.16 1296.57C1997.29 1302.35 2002.51 1308.75 2008.62 1313.77C2022.19 1308.9 2024.91 1279.05 2031.62 1265.63Z" fill="#913B9F"/>
  <path d="M2031.62 1265.63C2032.36 1276.92 2033.11 1304.93 2029.81 1315.88L2026.58 1317.11L2024.98 1315.97C2022.53 1314.27 2023.51 1314.91 2020.65 1313.29C2012.42 1315.37 2016.31 1315.45 2008.62 1313.77C2022.19 1308.9 2024.91 1279.05 2031.62 1265.63Z" fill="#913B9F"/>
  <path d="M1663.12 773.73C1698.76 772.666 1710.76 825.79 1683.34 841.217C1680.27 842.943 1677.19 844.733 1674.17 846.511C1625.78 846.744 1621.29 788.682 1663.12 773.73Z" fill="#913B9F"/>
  <path d="M1042.7 1477.89C1026.96 1460.35 1028.23 1426.57 1061.61 1422.38C1066.62 1421.75 1080.27 1428.04 1083.87 1431.77C1106.56 1460 1079.64 1503.89 1042.7 1477.89Z" fill="#913B9F"/>
  <path d="M1042.7 1477.89C1026.96 1460.35 1028.23 1426.57 1061.61 1422.38C1066.62 1421.75 1080.27 1428.04 1083.87 1431.77L1055.84 1431.58C1054.72 1461.18 1040.04 1449.9 1042.7 1477.89Z" fill="#913B9F"/>
  <path d="M2950.35 1858.21L2955.37 1862.29C2958.58 1871.24 2959.95 1903.81 2960.98 1915.04C2970.08 2014.64 2964.02 2112.92 2959.84 2212.47C2958.26 2250.59 2958.22 2286.47 2952.97 2324.49L2952.3 2326.76H2948.08C2935.66 2312.06 2945.21 2049.48 2945.91 2007.53C2946.26 1972.89 2946.99 1938.26 2948.12 1903.64C2948.46 1891.91 2947.81 1868.76 2950.35 1858.21Z" fill="#913B9F"/>
  <path d="M3031.27 1675.37L3035.89 1677.36C3051.19 1719.99 3039.43 1815.99 3037.65 1862.54L3033.33 1964.72C3032.51 1980.21 3033.51 2008.02 3026.76 2021.34C3024.98 2020.51 3023.19 2019.61 3021.86 2018.29C3003.42 1999.76 3023.07 1822.45 3024.66 1793.2C3026.32 1762.65 3023.63 1702.58 3031.27 1675.37Z" fill="#913B9F"/>
  <path d="M3028.98 2365.79C3031.76 2339.67 3033.54 2313.51 3034.32 2287.31C3034.91 2270.07 3033.69 2192.94 3038.19 2182.59L3041.15 2181.04C3060.87 2192.16 3052.98 2385.01 3046.84 2415.44C3044.9 2394.26 3045.29 2373.57 3043.64 2354.76L3041.67 2353.61C3039.37 2356.62 3038.57 2357.85 3036.92 2361.05L3035.48 2363.88L3028.98 2365.79Z" fill="#913B9F"/>
  <path d="M3028.98 2365.79L3035.48 2363.88L3036.92 2361.05C3038.57 2357.84 3039.37 2356.62 3041.67 2353.6L3043.64 2354.76C3045.29 2373.57 3044.9 2394.25 3046.84 2415.44C3045.95 2427.97 3044.74 2453.63 3041.73 2464.77C3041.46 2454.26 3041.75 2436.54 3039.02 2426.92C3036.36 2427.85 3034.91 2428.21 3032.15 2428.92L3029.52 2426.93C3029.15 2422.43 3028.89 2417.92 3028.75 2413.4C3029.8 2403.79 3029.39 2395.41 3028.51 2385.86L3028.98 2365.79Z" fill="#913B9F"/>
  <path d="M3028.75 2413.4C3028.89 2417.92 3029.15 2422.43 3029.52 2426.93L3032.15 2428.92C3034.91 2428.21 3036.36 2427.85 3039.02 2426.92C3041.75 2436.54 3041.46 2454.26 3041.73 2464.77C3041.02 2481.15 3038.57 2493.05 3037.29 2508.35C3034.6 2510.54 3032.77 2522.2 3029.73 2528.11L3027.68 2526.34C3027.27 2509.35 3025.73 2425.39 3028.75 2413.4Z" fill="#913B9F"/>
  <path d="M3028.51 2385.86C3029.39 2395.41 3029.8 2403.79 3028.75 2413.4C3025.73 2425.39 3027.27 2509.35 3027.68 2526.34L3029.73 2528.12C3032.77 2522.2 3034.6 2510.54 3037.29 2508.35C3038.68 2527.38 3035.71 2555.55 3028.75 2573.88C3018.66 2548.87 3021.91 2414.08 3028.51 2385.86Z" fill="#913B9F"/>
  <path d="M2615.4 1911.85C2641.06 1910.97 2713.32 1908.72 2735.05 1915.94C2735.59 1920.55 2736.15 1918.37 2732.61 1922.56C2715.35 1930.79 2671.05 1929.82 2649.73 1930.86L2579.82 1934.67C2518.84 1937.58 2461.85 1942.65 2400.46 1942.57C2371.58 1942.42 2341.76 1942.61 2312.88 1941.23C2302.56 1940.73 2289.14 1940.07 2284.51 1931.73C2286.24 1928.04 2285.68 1926.54 2291.79 1925.52C2320.62 1920.67 2351.59 1923.45 2380.78 1921.69C2435.15 1918.41 2489.63 1919.32 2543.8 1914.69C2556.52 1913.6 2608.9 1915.48 2615.4 1911.85ZM2361.13 1932.6C2385.81 1935.2 2424.42 1934.45 2450.29 1934.53C2471.58 1934.58 2508.08 1935.36 2528.13 1933.78C2539.82 1932.93 2551.33 1930.84 2562.37 1927.56C2562.43 1923.66 2563.04 1925.58 2558.84 1922.04L2555.64 1922.86L2551.59 1924.9C2525.83 1918.38 2469.52 1926.05 2440.83 1926.23C2411.93 1926.43 2382.35 1926.83 2353.39 1926.92L2351.15 1928.21C2355.12 1930.96 2356.1 1932.4 2361.13 1932.6Z" fill="#913B9F"/>
  <path d="M2555.64 1922.86L2558.84 1922.04C2563.04 1925.58 2562.43 1923.66 2562.37 1927.56C2551.33 1930.84 2539.82 1932.93 2528.13 1933.78C2508.08 1935.36 2471.58 1934.58 2450.29 1934.53C2424.42 1934.45 2385.81 1935.2 2361.13 1932.6C2356.1 1932.4 2355.12 1930.96 2351.15 1928.21L2353.39 1926.92C2382.35 1926.83 2411.93 1926.43 2440.83 1926.23C2469.52 1926.05 2525.83 1918.38 2551.59 1924.9L2555.64 1922.86Z" fill="#913B9F"/>
  <path d="M2138.27 1881.73C2154.22 1881.61 2241.97 1878.27 2246.04 1887.35L2242.81 1891.62C2233.34 1894.3 2212.02 1895.84 2201.44 1896.28C2126.53 1899.42 2043.88 1909.35 1969.4 1902.74C1949.4 1902.28 1862.9 1905.27 1855.07 1892.54L1856.21 1890.01C1869.45 1880.79 1960.78 1882.65 1981.3 1882.65C2033.63 1882.79 2085.94 1882.48 2138.27 1881.73ZM2004.85 1897.79C2060.78 1897.24 2110.59 1893.69 2164.91 1892.27L2166.02 1891.29C2153.65 1888.68 2097.09 1889.17 2082.1 1889.24C2047.05 1890.57 1944.47 1885.46 1919.25 1893L1918.61 1894.54C1933.55 1897.14 1943.57 1894.77 1958.46 1895.96C1973.7 1897.2 1989.7 1896.78 2004.85 1897.79Z" fill="#913B9F"/>
  <path d="M2082.1 1889.24C2097.09 1889.17 2153.65 1888.68 2166.02 1891.29L2164.91 1892.27C2110.59 1893.69 2060.78 1897.24 2004.85 1897.79C1989.7 1896.78 1973.7 1897.2 1958.46 1895.96C1943.57 1894.77 1933.55 1897.14 1918.61 1894.54L1919.25 1893C1944.47 1885.46 2047.05 1890.57 2082.1 1889.24Z" fill="#913B9F"/>
  <path d="M1781.39 2338.67C1788.23 2340.37 1785.17 2338.96 1790.45 2343.57C1796.8 2363.33 1793.39 2548.74 1786.82 2567.32C1766.77 2558.23 1776.86 2368.08 1781.39 2338.67Z" fill="#913B9F"/>
  <path d="M1480.76 1850.68C1481.49 1848.5 1481.22 1846.22 1483.98 1845.22C1492.28 1842.25 1637.43 1844.58 1657.55 1846.16C1714.48 1850.66 1772.14 1843.65 1828.98 1844.97C1901.76 1846.66 1974.33 1848.08 2047.21 1848.05C2081.61 1848.04 2116.02 1846.75 2150.38 1846.81L2541.11 1847.42L2682.03 1847.87C2722.5 1847.69 2811.23 1841.44 2854.99 1846.74C2856.82 1846.97 2859.9 1850.54 2861.11 1852.01C2862.21 1857.59 2863.72 1877.54 2862.84 1882.96C2860.3 1898.39 2868.51 1963.23 2860.21 1972.87C2849.41 1978.61 2789.34 1976.41 2772.62 1976.33C2723.66 1975.93 2674.71 1975.85 2625.75 1976.11L2347.54 1979.23C2231.15 1979.83 2111.56 1978.08 1995.67 1980.68L1694.17 1985.34C1647.15 1986.38 1600.06 1988.96 1552.86 1988.57C1536.36 1988.42 1512.59 1989.31 1496.55 1987.37C1515.51 1978.99 1743.65 1979.9 1781.32 1978.49C2064.5 1967.9 2348.47 1974.62 2631.76 1968.91C2705.96 1967.43 2783.66 1971.54 2857.26 1967.51C2858.03 1959.17 2857.46 1948.58 2856.97 1940.02C2855.32 1910.72 2856.75 1881.66 2856.67 1852.39C2830.94 1850.67 2781.57 1852.16 2754.14 1852.33L2162.53 1853.04C2127.41 1853.26 2096.62 1854.95 2061.83 1856.1C2024.11 1857.35 1983.18 1854.64 1945.21 1854.17C1909.66 1853.72 1873.73 1855.51 1838.59 1855.16L1557.45 1852C1540.78 1851.78 1491.5 1847.24 1480.76 1850.68Z" fill="#913B9F"/>
  <path d="M1872.05 2025.23C1871.34 2020.75 1870.56 2022.58 1873.22 2019.36C1902.86 2016.66 1975.93 2019.52 2008.18 2019.29C2090.09 2018.71 2172.72 2019.73 2254.71 2018.9L2679.53 2016.05L2791.58 2015.96C2807.01 2015.92 2839.64 2015.05 2853.37 2016.19L2854.94 2020.78C2730.45 2020.27 2605.96 2020.46 2481.47 2021.36C2453.39 2021.62 2425.37 2023.5 2397.29 2023.62C2335.51 2023.89 2273.75 2024.64 2211.98 2024.76H1981.66C1958.82 2024.74 1891.97 2023.4 1872.05 2025.23Z" fill="#913B9F"/>
  <path d="M3089.98 1659.46C3099.3 1672 3088.26 1838.42 3092.53 1867.68C3093.51 1874.39 3089.91 1908.32 3089.78 1918.18C3088.4 2087.8 3088.25 2257.42 3089.36 2427.03L3092.75 2585.99C3092.93 2599.24 3094.53 2639.33 3092.07 2649.04C3082.09 2634.45 3079.76 1723.14 3089.98 1659.46Z" fill="#913B9F"/>
  <path d="M2902.45 1805.68C2905.31 1809.73 2908.72 1938.43 2909.13 1953.37C2910.26 2009.66 2910.99 2065.96 2911.35 2122.25L2909.67 2336.62C2909.82 2418.79 2911.32 2501.57 2906.55 2583.55C2905.15 2607.55 2907.09 2634.33 2905.51 2657.99L2903.01 2657.53C2899.86 2650.64 2902.7 2470.87 2902.84 2449.89C2903.27 2390.63 2902.27 2317.49 2901.7 2256.81C2901.59 2244.51 2904.64 2222.15 2904.93 2207.59C2905.44 2145.79 2905.52 2083.97 2905.16 2022.16C2904.56 1961.71 2898.65 1900.19 2901.21 1839.39C2901.68 1827.92 2900.79 1817.24 2902.45 1805.68Z" fill="#913B9F"/>
  <path d="M1917.61 2429.82C1975.03 2406.74 2218.94 2459.72 2295.62 2461.8C2351.69 2463.33 2398.6 2461.06 2454.53 2458.43C2453.85 2458.96 2453.16 2459.49 2452.46 2460.03C2429.24 2471.85 2399.9 2465.57 2372.11 2470.55C2332.15 2477.73 2282.4 2470.16 2242.92 2463.04C2232.82 2461.21 2218.12 2462.82 2207.08 2461.27C2192.2 2459.19 2180.18 2456.54 2165.96 2452.99C2121.21 2449.45 2078.51 2441.28 2033.91 2437.17C2020.9 2435.96 2002.53 2431.68 1990.06 2430.87C1966.27 2429.3 1942.05 2431.27 1917.61 2429.82Z" fill="#913B9F"/>
  <path d="M1700.98 2023.44C1713.48 2025.23 1702.94 2027.69 1713.78 2027.49C1716 2025.66 1717.7 2024.21 1719.79 2022.27L1721.55 2020.62C1733.07 2019.01 1761.92 2019.52 1773.89 2020.63L1775.69 2023.37L1725.7 2023.97C1725.86 2029.37 1726.61 2041.02 1726.02 2045.89C1721.37 2076.92 1731.25 2120.77 1726.81 2154.53C1722.87 2184.61 1733.25 2223.05 1722.69 2253.42C1721.04 2259.11 1720.76 2258.05 1720.29 2264.35C1717.74 2236.54 1718.92 2128.86 1709.65 2111.54C1709.7 2094.98 1706.89 2037.15 1700.98 2023.44Z" fill="#913B9F"/>
  <path d="M1782.74 2023.54C1796.06 2025.22 1810.14 2014.92 1825.01 2021.67L1826.72 2023.93C1823.72 2023.8 1802.71 2022.62 1801.76 2026.71C1797.04 2046.99 1806.46 2152.49 1793.89 2164.34L1789.83 2164.31C1786.56 2162.44 1782.33 2159.87 1781.91 2156.16C1777.96 2122.08 1780.24 2086.54 1781.39 2052.27C1781.68 2043.72 1786.1 2030.92 1782.74 2023.54Z" fill="#913B9F"/>
  <path d="M1726.02 2045.89C1737.25 2061.93 1733.94 2302.69 1720.06 2314.67C1717.91 2311.99 1714.3 2307.54 1714.14 2304.28C1710.9 2239.9 1709.94 2175.97 1709.65 2111.54C1718.92 2128.86 1717.74 2236.54 1720.29 2264.35C1720.76 2258.05 1721.04 2259.11 1722.69 2253.42C1733.25 2223.05 1722.87 2184.61 1726.81 2154.53C1731.25 2120.77 1721.37 2076.92 1726.02 2045.89Z" fill="#913B9F"/>
  <path d="M2400.49 1793.78C2399.67 1798.2 2400.05 1801.75 2397.08 1804.54C2310.79 1805.65 2167.28 1810.47 2075.25 1808.06C2073.76 1807.18 2072.28 1806.31 2070.79 1805.43C2069.58 1803.34 2068.37 1801.75 2067.77 1799.56C2153.89 1800.16 2303.33 1799.91 2394.17 1797.6C2396.64 1796.1 2398.74 1794.82 2400.49 1793.78Z" fill="#913B9F"/>
  <path d="M2064.23 1733.94C2063.2 1744.57 2035.92 1764.45 2030.28 1773.6C2026.87 1779.13 2029.68 1798.1 2020.77 1806.13C2003.33 1811.1 1800.96 1810.2 1786.38 1805.58C1783.9 1803.11 1783.61 1802.91 1781.58 1800.18C1860.13 1801.37 1938.69 1801.21 2017.21 1799.71C2022.48 1764.03 2029.08 1754.36 2064.23 1733.94Z" fill="#913B9F"/>
  <path d="M2163.53 1293.98C2187.08 1276.74 2225.34 1265.03 2256.8 1264.08C2270.68 1263.66 2298.61 1264.92 2308.82 1272.3L2306.6 1272.42C2286.45 1273.38 2254.97 1270.81 2237.47 1274.49C2227.79 1276.51 2204.8 1284.86 2191.95 1288.27L2187.85 1294.1C2179.59 1293.95 2171.8 1293.82 2163.53 1293.98Z" fill="#913B9F"/>
  <path d="M2352.36 554.091C2337.78 548.069 2339.17 536.946 2335.93 524.679C2332.38 511.108 2331.3 414.046 2335.56 406.543C2336.47 431.655 2338.3 455.998 2340.75 481.011C2343.02 504.04 2350.6 531.981 2352.36 554.091Z" fill="#913B9F"/>
  <path d="M2905.98 2660.53C2920.04 2669.14 3056.04 2655.7 3085.77 2659.47C3072.41 2662.31 3040.31 2668.29 3027.15 2667.5C3004.23 2666.12 2924.92 2671.94 2908.56 2666.01C2905.95 2663.02 2906.52 2664.26 2905.98 2660.53Z" fill="#913B9F"/>
  <path d="M1758.01 986.924C1775.12 980.769 1813.76 965.459 1828.59 981.261C1831.05 988.638 1825.71 997.876 1820.5 1003.77C1795.47 979.274 1797.58 988.692 1758.01 986.924Z" fill="#913B9F"/>
  <path d="M918.857 1378.11C927.551 1378.36 926.11 1377.28 932.383 1380.65C939.301 1392.6 934.602 1412.65 919.511 1416.87C916.438 1413.78 917.296 1415.02 915.821 1411.29C909.924 1416.42 901.673 1424.93 891.955 1418.71C903.902 1412.75 918.963 1397.62 925.061 1386.94C924.858 1381.21 925.487 1383.33 918.857 1378.11Z" fill="#913B9F"/>
  <path d="M1518.21 975.342C1534.85 989.366 1571.03 1000.29 1594.69 1003.03C1565.86 1005.37 1516.94 1008.89 1518.21 975.342Z" fill="#913B9F"/>
  <path d="M2923.71 653.717C2936.97 654.507 2950.01 655.625 2962.78 652.22C2958.5 668.306 2932.3 667.868 2923.71 653.717Z" fill="#913B9F"/>
  <path d="M1632.57 1229.55C1623.88 1229.92 1625.07 1231.05 1619.54 1227.78C1619.18 1220.5 1625.32 1217.11 1633.61 1218.18L1636.63 1221.58L1632.57 1229.55Z" fill="#913B9F"/>
  <path d="M1140.3 1676.74C1149.6 1676.12 1149.84 1674.9 1157.17 1677.63C1158.01 1679.38 1159.15 1681.61 1159.82 1683.37C1153.97 1683.57 1150.13 1683.72 1144.19 1683.38C1140.11 1680.03 1141.68 1682.03 1140.3 1676.74Z" fill="#913B9F"/>
  <path d="M1555.07 711.033L1560.32 714.303L1566.15 712.739L1567.57 716.223C1566.07 718.081 1564.29 719.397 1562.4 721.049L1558.59 721.02C1554.46 715.843 1555.69 717.76 1555.07 711.033Z" fill="#913B9F"/>
  <path d="M1756.8 1285.69C1757.42 1293.48 1756.59 1293.32 1748.59 1295.55C1746.36 1292.34 1746.82 1293.6 1746.5 1289.82C1749.42 1288.78 1751.41 1288.02 1754.27 1286.79L1756.8 1285.69Z" fill="#913B9F"/>
  <path d="M764.773 2603.19C774.458 2601.65 787.872 2601.04 794.348 2608.04C794.064 2611.59 793.958 2611.9 790.285 2614.23C782.226 2619.35 768.91 2621.72 759.212 2624.45C733.264 2631.75 687.159 2644.31 672.294 2664.54C668.616 2669.54 666.425 2675.48 668.366 2681.28C680.238 2716.71 851.929 2730.5 894.233 2736.4C906.427 2738.11 927.327 2739.03 937.324 2744.9C940.906 2747 940.238 2747.58 941.149 2750.84C929.714 2758.93 907.503 2757.44 892.517 2757.24C822.861 2756.29 747.881 2750.54 683.465 2727.58C666.418 2721.58 645.664 2704.13 640.22 2689.25C632.152 2667.19 648.958 2644.78 670.578 2632.7C695.39 2618.86 710.995 2612.45 740.771 2607.72C749.243 2606.38 756.884 2605.32 764.773 2603.19Z" fill="#913B9F"/>
  <path d="M2769.03 2613.61C2777.16 2609.47 2786.6 2607.78 2794.81 2612.31C2803.79 2627.07 2773.59 2634.79 2760.44 2639.69C2739.43 2647.51 2690.01 2667.89 2688.25 2689.33C2701.31 2726.52 2909.7 2744.55 2923.59 2755.29C2921.75 2759.34 2923.04 2757.48 2918.65 2760.4C2909.34 2755.09 2875.06 2758.81 2861.65 2759.28C2880.88 2760.55 2905.05 2759.33 2918.65 2760.4L2917.15 2764.15C2880.87 2775.62 2711.19 2749.68 2682.65 2727.48C2611.01 2671.75 2715.53 2622.2 2769.03 2613.61Z" fill="#913B9F"/>
  <path d="M1458.29 2698.89C1465.82 2698.71 1468.31 2698.59 1475.66 2697.45C1485.49 2700.49 1482.46 2709.2 1482.59 2717.27C1431.86 2766.52 1234.47 2802.21 1159.25 2788.09L1158.47 2785.64C1161.55 2780.19 1170.27 2777.09 1177.01 2775.98C1270.66 2760.61 1376.29 2742.64 1458.29 2698.89Z" fill="#913B9F"/>
  <path d="M3539.52 1971.12C3520.61 1973.25 3455.71 1971.85 3433.52 1971.88C3379.58 1971.96 3326.01 1972.07 3271.76 1973.33C3248.46 1973.88 3219.86 1972.65 3196.1 1973.69C3193.91 1973.79 3193.77 1975.17 3192 1977.49C3181.82 1978.54 3144.72 1978.6 3135.53 1974.81C3131.35 1963.34 3129.78 1864.13 3134.45 1856.05C3134.45 1866.9 3132.53 1906.64 3138.42 1912.5C3176.77 1910.99 3358.45 1897.97 3381.38 1913.26C3383.66 1914.77 3383.21 1915.64 3383.61 1917.84C3370.62 1929.74 3270.21 1924.66 3245.43 1926.48C3210.5 1929.06 3171.37 1930.35 3136.38 1929.93C3135.48 1938.62 3132.58 1967.12 3137.47 1968.03C3146.49 1969.71 3228 1966.92 3240.07 1966.77C3310.73 1965.91 3377.82 1964.07 3448.25 1966.62C3468.97 1967.35 3523.21 1965.29 3539.52 1971.12Z" fill="#913B9F"/>
  <path d="M3282.91 2682.59C3284.12 2633.18 3216.77 2646.67 3207.76 2618.54C3208.97 2613.32 3207.4 2615.32 3212.28 2612.18C3236.93 2612.62 3269.67 2622.96 3286.73 2637.61C3300.22 2649.16 3307.19 2664.85 3305.93 2680.82C3304.25 2702.07 3288.13 2718.23 3267.43 2729.83C3249.59 2739.95 3129.29 2771.49 3122.08 2752.01C3143.06 2728.11 3243.66 2730.98 3282.91 2682.59Z" fill="#913B9F"/>
  <path d="M3247.12 2722.92C3255.24 2721.15 3258.83 2719.07 3265.54 2721.14C3267.61 2724.83 3267.2 2725.66 3267.43 2729.83L3265.88 2729.52C3258.85 2728.18 3257.7 2728.21 3250.5 2728.17L3247.3 2726.4L3247.12 2722.92Z" fill="#913B9F"/>
  <path d="M1910.89 2746.11C1944.49 2732.41 2069.97 2715.3 2033.01 2661.05C2029.71 2656.22 2024.64 2650.32 2024.26 2644.93C2036.8 2640.5 2057.39 2664.44 2060.65 2672.13C2079.26 2715.92 2012.64 2745.76 1970.64 2755.9C1959.17 2758.68 1936.85 2765.33 1926.4 2765.3C1926.35 2759.08 1927.85 2754.5 1924.19 2750.38C1919.61 2749.38 1917.88 2749.12 1913.65 2747.31L1910.89 2746.11Z" fill="#913B9F"/>
  <path d="M3137.24 2425.58C3163.69 2425.77 3193.36 2424.15 3219.2 2426.63C3306.96 2435.07 3393.57 2443.92 3482.16 2436.33C3500.4 2434.77 3577.02 2426.16 3552.04 2460.1C3551.7 2456.2 3551.57 2450.72 3549.2 2447.23C3541.75 2436.27 3415.52 2447.88 3397.02 2447.8C3364.48 2447.65 3305.49 2445.45 3275.47 2437.72C3248.09 2430.68 3154.45 2438.93 3141.41 2433.75C3139.12 2430.45 3138.75 2429.2 3137.24 2425.58Z" fill="#913B9F"/>
  <path d="M72.7041 2461.11C71.3277 2465.75 71.1367 2466.58 67.2314 2470.11L67.3506 2471.77C77.207 2474.82 91.7703 2480.21 101.968 2476.25C117.888 2470.07 139.302 2472.35 155.976 2475.35L155.777 2475.2C164.079 2477.24 176.061 2480.25 184.293 2481.93C189.754 2483.03 196.711 2477.43 204.788 2479.16L196.181 2483.87C211.915 2485.86 214.008 2482.7 224.589 2493.57L225.923 2498.25C173.807 2482.11 112.319 2477.63 58.4362 2487.96C43.795 2490.77 14.5588 2499.63 1.08065 2497.81L0 2494.09C2.4343 2486.65 8.86567 2486.21 12.7682 2479.56C40.328 2470.55 36.2051 2465.65 72.7041 2461.11Z" fill="#913B9F"/>
  <path d="M3137.93 2011.91L3141.21 2008.71C3160.49 2007.07 3197.16 2008.05 3217.51 2008.06L3360.98 2008.29L3481.83 2008.08C3499.11 2008.05 3533.21 2007.26 3548.72 2009.1C3522.39 2022.66 3188.1 2013.09 3137.93 2011.91Z" fill="#913B9F"/>
  <path d="M3134.18 1855.03C3133.7 1849.1 3132.87 1846.51 3135.82 1841.91C3196.4 1837.01 3280.33 1840.61 3343.83 1840.45L3465.74 1840.02C3485.72 1839.94 3514.76 1839.07 3533.54 1840.44C3531.11 1841.51 3526.59 1843.53 3523.79 1843.67C3396.28 1849.97 3268.61 1845.73 3141.07 1848.77C3136.27 1848.89 3135.64 1852.17 3134.18 1855.03Z" fill="#913B9F"/>
  <path d="M1444.3 1850.62L1444.36 1848.34C1444.55 1839.8 1448.19 1820.91 1455.84 1814.68C1458.56 1812.45 1460.37 1812.41 1464.74 1812.4C1523.43 1812.15 1581.96 1808.59 1640.67 1807.62C1670.56 1807.14 1699.33 1804.12 1729.37 1804.13C1723.29 1810.89 1711.07 1810.68 1701.07 1811.5L1679.33 1812.44C1651.95 1813.64 1620.22 1815.48 1593.16 1816.38C1573.47 1817.04 1474.85 1817.57 1458.81 1822.65C1449.39 1832.44 1456.7 1843.59 1444.3 1850.62Z" fill="#913B9F"/>
  <path d="M3123.4 1600.87C3135.22 1620.73 3129.67 1763.7 3131.97 1799.36C3166.91 1800.46 3230.34 1797.44 3260.15 1799.84L3257.87 1801.65C3234.68 1802.96 3147.4 1807.66 3128.46 1803.93C3122.55 1795.49 3123.07 1776.08 3123.5 1765.84C3125.75 1711.79 3119.43 1654.6 3123.4 1600.87Z" fill="#913B9F"/>
  <path d="M1925.53 2765.09C1905.39 2772.47 1818.71 2776.05 1793.24 2773.36C1788.54 2772.87 1788.7 2771.63 1786.87 2768.99C1788.75 2762.53 1789.55 2769.76 1798.22 2761.76C1813.21 2758.94 1859.02 2752.17 1872.93 2753.04C1872.73 2757.67 1870.5 2762.04 1870.48 2764.2C1888.7 2766.24 1907.34 2762.61 1925.53 2765.09Z" fill="#913B9F"/>
  <path d="M1458.57 2641.37C1447.42 2635.65 1435.44 2631.27 1423.67 2626.47C1410.38 2621.05 1395.11 2616.12 1398.62 2601.34C1413.36 2592.52 1464.62 2614.32 1477.45 2621.93C1468.49 2622.66 1467.48 2622.41 1460.04 2626.12C1455.18 2632.73 1456.18 2633.24 1458.57 2641.37Z" fill="#913B9F"/>
  <path d="M1477.45 2621.93L1480.89 2624.06C1498.09 2634.34 1499.18 2645.8 1507.84 2651.71C1499.39 2654.45 1502.13 2652.17 1498.27 2657.8C1498.38 2665.28 1499.11 2669.84 1498.24 2677.49L1496.18 2679.18C1486.88 2673.03 1492.04 2669.44 1483.17 2665.24C1483.1 2665.16 1483.02 2665.06 1482.94 2664.98C1478.39 2653.11 1464.8 2649.47 1458.57 2641.37C1456.18 2633.24 1455.18 2632.73 1460.04 2626.12C1467.48 2622.41 1468.49 2622.66 1477.45 2621.93Z" fill="#913B9F"/>
  <path d="M1675.65 2707.79C1692.32 2706.1 1724.93 2706.77 1742.12 2708.08C1795.25 2712.15 1850.23 2701.74 1901.84 2702.78C1873.39 2717.1 1703.36 2719.33 1675.65 2707.79Z" fill="#913B9F"/>
  <path d="M1483.17 2665.24C1492.04 2669.44 1486.88 2673.03 1496.18 2679.18L1498.24 2677.49C1499.11 2669.84 1498.38 2665.28 1498.27 2657.8C1502.13 2652.17 1499.39 2654.45 1507.84 2651.71C1517.53 2681.75 1506.4 2695.88 1482.59 2717.27C1482.46 2709.2 1485.49 2700.49 1475.66 2697.45C1468.31 2698.59 1465.82 2698.71 1458.29 2698.89C1474.16 2689.56 1481.71 2681.39 1483.17 2665.24Z" fill="#913B9F"/>
  <path d="M252.525 2503.44C293.817 2499.98 313.273 2508.14 352.372 2511.24C387.527 2514.02 425.862 2504.32 460.654 2506.05C425.932 2515.84 385.697 2518.13 349.213 2516.62C329.941 2515.81 266.916 2512.19 252.525 2503.44Z" fill="#913B9F"/>
  <path d="M1601.07 2693.82C1589.27 2690.73 1548.67 2674.56 1574.97 2658.41C1581.43 2654.44 1629.55 2668.48 1642.02 2672.23C1619.8 2672.32 1608.26 2667.81 1598.59 2685.91C1600.23 2689.57 1600.68 2690 1601.07 2693.82Z" fill="#913B9F"/>
  <path d="M2399.67 2503.4C2435.05 2492.72 2467.4 2494.19 2503.2 2491.97C2534.74 2490.03 2550.97 2485.23 2584.38 2486.53C2563.43 2498 2430.76 2504.19 2399.67 2503.4Z" fill="#913B9F"/>
  <path d="M1002.32 2695.78C1035.32 2693.54 1095.06 2695.39 1130.27 2695.53C1163.04 2695.65 1219.33 2693.58 1248.96 2695.68C1223.06 2703.82 1032.57 2702.48 1002.32 2695.78Z" fill="#913B9F"/>
  <path d="M866.607 2659.49C843.168 2636.54 884.834 2604.44 901.742 2617.37C898.809 2627.59 883.475 2631.2 885.875 2642.99C892.942 2648.84 894.924 2644.67 906.003 2650.65L903.655 2650.89C878.497 2653.24 878.238 2640.39 867.57 2648.32C866.127 2653.43 866.44 2654.34 866.607 2659.49Z" fill="#913B9F"/>
  <path d="M1872.93 2753.04C1878.02 2750.77 1906.43 2745.15 1910.89 2746.1L1913.65 2747.31C1917.88 2749.12 1919.61 2749.38 1924.19 2750.38C1927.85 2754.5 1926.35 2759.08 1926.4 2765.3L1925.53 2765.09C1907.34 2762.61 1888.7 2766.24 1870.48 2764.2C1870.5 2762.04 1872.73 2757.67 1872.93 2753.04Z" fill="#913B9F"/>
  <path d="M865.823 1817.99C867.611 1834.17 863.883 1834.46 872.251 1842.69C876.05 1846.42 858.89 1879 853.751 1882.14C849.506 1886.88 845.599 1886.68 841.055 1887.55C844.835 1875.68 860.491 1824.66 865.823 1817.99Z" fill="#913B9F"/>
  <path d="M2367.2 795.111C2386.12 801.953 2381.52 819.749 2388.83 827.917L2396.03 825.395C2397.71 832.743 2392.13 853.239 2391.77 865.015C2386.63 857.492 2369.09 804.438 2367.2 795.111Z" fill="#913B9F"/>
  <path d="M2290.43 319.526C2291.41 304.731 2303.95 256.066 2311.04 243.676C2314.45 266.695 2311.18 302.579 2290.43 319.526Z" fill="#913B9F"/>
  <path d="M2329.98 870.885C2343.77 880.68 2374.71 900.986 2381.73 913.744C2379.84 913.724 2373.73 913.608 2372.6 912.842C2358.76 903.423 2351.02 897.884 2334.79 890.956L2332.82 890.127C2329.66 886.026 2330.19 876.276 2329.98 870.885Z" fill="#913B9F"/>
  <path d="M2906.42 702.622C2915.86 701.481 2971.59 701.746 2983.07 701.907C2966.32 714.245 2923.63 713.27 2906.42 702.622Z" fill="#913B9F"/>
  <path d="M2559.92 1569.05L2562.14 1563.98C2573.45 1560.35 2624.7 1561.37 2638.78 1562.09C2625.44 1568.83 2576.7 1570.78 2559.92 1569.05Z" fill="#913B9F"/>
  <path d="M660.785 1861.31C664.66 1871.05 666.988 1878.84 669.858 1888.84C664.008 1889.81 661.628 1890.18 655.533 1890.57C649.432 1887.93 651.587 1889.86 648.945 1884.52C651.167 1866.56 656.513 1872.53 660.785 1861.31Z" fill="#913B9F"/>
  <path d="M1447.39 1994C1450.35 1980.51 1451.39 1959.91 1440.32 1949.28C1440.48 1956.57 1443.07 1989.38 1447.39 1994Z" fill="#913B9F"/>
  <path d="M1679.33 1812.44L1701.07 1811.5C1706.59 1811.79 1706.94 1811.56 1711.98 1813.21L1711.78 1815.17C1700.7 1817.87 1694.05 1817.41 1682.53 1816.09L1679.33 1812.44Z" fill="#913B9F"/>
  <path d="M2861.65 2759.28C2875.06 2758.81 2909.34 2755.09 2918.65 2760.4C2905.05 2759.33 2880.88 2760.55 2861.65 2759.28Z" fill="#913B9F"/>
</svg>
