<?xml version="1.0" encoding="UTF-8"?><svg id="Layer_1" xmlns="http://www.w3.org/2000/svg" xmlns:xlink="http://www.w3.org/1999/xlink" viewBox="0 0 117.25 22.32"><defs><style>.cls-1{fill:#8f2889;}.cls-2{fill:url(#New_Gradient_Swatch_10);}</style><linearGradient id="New_Gradient_Swatch_10" x1="91.1" y1=".1" x2="71.77" y2="19.3" gradientUnits="userSpaceOnUse"><stop offset="0" stop-color="#ee4269"/><stop offset="1" stop-color="#95288c"/></linearGradient></defs><path class="cls-1" d="M0,2.12c0-.18.05-.32.14-.43.09-.11.24-.16.42-.16h8.21c.59,0,1.15.08,1.67.24.52.16,1,.39,1.44.67.44.29.83.63,1.18,1.03.35.4.65.83.89,1.29.24.46.43.95.56,1.46.13.51.19,1.03.19,1.55,0,.77-.14,1.52-.42,2.26-.28.74-.67,1.39-1.19,1.97-.51.57-1.13,1.04-1.85,1.39-.72.36-1.52.54-2.39.55h-3.89v6.12c0,.37-.2.55-.59.55H.57c-.17,0-.31-.04-.41-.13-.1-.09-.15-.23-.15-.42V2.12ZM9.68,7.74c0-.26-.04-.51-.13-.77-.09-.26-.22-.49-.39-.69-.17-.2-.38-.37-.62-.49-.24-.13-.52-.19-.83-.19h-2.72v4.29h2.72c.31,0,.59-.06.84-.19.25-.12.46-.28.62-.48.17-.2.3-.42.39-.68.09-.26.13-.52.13-.8Z"/><path class="cls-1" d="M22.32,2.03c0-.05.04-.11.08-.17.05-.06.1-.12.17-.17.07-.05.14-.09.22-.12.08-.03.15-.04.22-.04h3.29c.15,0,.27.04.37.13.1.09.18.17.23.24l.32.73,6.75,17.4c.07.17.06.31-.04.42-.09.11-.26.16-.49.16h-3.69c-.2,0-.35-.04-.46-.11-.11-.07-.19-.19-.25-.37-.17-.44-.34-.87-.5-1.3-.16-.43-.33-.87-.49-1.3h-6.82c-.16.44-.33.87-.49,1.3-.17.43-.33.87-.49,1.3-.11.32-.33.48-.66.48h-3.79c-.16,0-.3-.04-.41-.13-.11-.09-.13-.21-.06-.39L22.32,2.03ZM24.66,7.53c-.16.44-.33.91-.49,1.41-.17.51-.33,1.02-.49,1.53-.16.51-.33,1.02-.49,1.52-.17.5-.33.97-.49,1.41h3.95l-1.97-5.87Z"/><path class="cls-1" d="M39.67,8.57l3.1-6.64c.05-.1.09-.18.13-.22.03-.05.07-.08.1-.1.03-.02.07-.03.11-.04.04,0,.08-.01.13-.03h4.95c.06,0,.11.02.15.06.04.04.06.08.06.14,0,.09-.06.2-.18.32l-6.09,10.78v7.18c0,.4-.2.6-.59.6h-3.85c-.17,0-.3-.05-.4-.16s-.14-.25-.14-.44v-7.21l-6.08-10.76c-.11-.11-.17-.22-.17-.32,0-.05.02-.1.05-.14.03-.04.08-.06.14-.06h4.95c.06.02.11.03.14.03.03,0,.07.02.1.04.03.02.07.06.1.1.03.05.08.12.14.22l3.13,6.64Z"/><path class="cls-1" d="M50.2,2.09c0-.15.05-.29.14-.4.09-.11.24-.17.42-.17h4.2c.12,0,.24.03.37.09.13.06.24.16.33.31,1.09,1.76,2.17,3.49,3.24,5.19,1.07,1.71,2.15,3.44,3.25,5.19V2.01c.03-.15.1-.27.21-.36.1-.09.22-.13.36-.13h3.66c.18,0,.33.05.45.15.12.1.18.24.18.42v18.02c0,.17-.05.3-.15.38-.1.08-.24.12-.42.12h-4.1c-.11,0-.21-.04-.3-.12s-.18-.18-.27-.31c-1.14-1.88-2.27-3.75-3.38-5.59-1.11-1.84-2.24-3.71-3.39-5.59v11.04c0,.19-.04.33-.13.42-.09.09-.24.14-.46.14h-3.65c-.2,0-.34-.05-.43-.16-.09-.11-.13-.24-.13-.39V2.09Z"/><path class="cls-1" d="M97.19,20.34c-.09-.15-.17-.3-.24-.45-.08-.15-.15-.31-.21-.46-1.11-2.91-2.21-5.8-3.3-8.66-1.1-2.86-2.2-5.75-3.3-8.66,0-.04,0-.08-.02-.12-.01-.03-.02-.07-.02-.1,0-.24.16-.36.48-.36h4.14c.33,0,.55.16.67.49l3.93,11.71,3.64-11.71c.12-.33.36-.49.71-.49h4.18c.2,0,.34.04.42.11.08.07.12.17.12.29,0,.07,0,.12-.01.14v.04l-2.29,6.55,1.72,5.05,4.16-11.69c.12-.33.36-.49.71-.49h4.05c.2,0,.34.04.42.11.08.07.12.17.12.29,0,.07,0,.12-.01.14v.04c-.58,1.51-1.18,3.01-1.79,4.51s-1.22,3-1.83,4.5c-.61,1.5-1.22,3-1.82,4.5-.6,1.5-1.19,3-1.77,4.5-.03.09-.11.2-.23.31-.12.12-.27.17-.44.17h-3.15c-.19,0-.33-.04-.43-.11-.1-.07-.17-.17-.21-.29l-2.03-5.35c-.29.78-.58,1.54-.86,2.29-.28.75-.57,1.51-.85,2.29-.04.12-.09.25-.15.38-.06.13-.12.26-.2.37-.08.12-.16.21-.26.29-.1.08-.21.12-.34.12h-3.15c-.27,0-.45-.09-.54-.27Z"/><path class="cls-2" d="M88.77,4.3c-.47-.61-1.01-1.16-1.59-1.66-.12-.11-.28-.16-.44-.16-.22,0-.42.11-.55.28l-6.17,8.47-3.09-3.78c-.12-.15-.3-.24-.49-.24-.2,0-.38.1-.51.27l-1.31,1.8c-.21.29-.2.71.03.98l5.02,6.14c.12.15.3.24.49.24.2,0,.38-.1.51-.27l6.45-8.86c1.74,3.39.84,7.59-2.21,9.97-1.42,1.11-3.12,1.69-4.92,1.69-2.49,0-4.8-1.13-6.33-3.09-1.31-1.69-1.89-3.79-1.63-5.91.26-2.13,1.34-4.02,3.02-5.34,1.42-1.11,3.12-1.69,4.92-1.69,1.1,0,2.16.22,3.16.64.32.14.74.02.94-.26l1.04-1.43c.12-.16.16-.36.11-.55-.05-.18-.17-.34-.35-.42-1.53-.75-3.18-1.13-4.91-1.13-2.5,0-4.87.82-6.85,2.36-4.85,3.78-5.72,10.81-1.94,15.66,2.13,2.73,5.34,4.3,8.81,4.3,2.5,0,4.87-.81,6.85-2.36,2.35-1.83,3.84-4.47,4.21-7.43.37-2.96-.44-5.88-2.27-8.23Z"/></svg>