<svg xmlns="http://www.w3.org/2000/svg" width="145" height="166" viewBox="0 0 145 166" fill="none">
  <path d="M121.578 156.519C178.84 143.937 98.1491 66.8582 129.512 55.805C155.912 46.502 161.1 78.7597 169.384 78.7597C180.927 78.7597 202.497 0.662545 129.512 1.0011C56.5294 1.33957 94.3727 48.7897 101.404 77.2401C106.968 99.7533 110.559 122.537 112.181 145.592C99.2681 100.177 80.5705 77.4707 56.0894 77.4707C55.61 65.8988 51.9607 55.0822 50.9347 43.9609C50.379 45.9969 45.6992 52.3869 43.0334 53.6125C30.9474 59.1708 1.73645 61.5818 11.7426 79.4538C16.1087 87.2515 29.2932 88.6404 37.3253 88.6404M52.1822 113.558C33.7296 117.022 39.2487 153.986 53.6186 161.968C58.9683 164.94 68.6713 166.257 82.726 165.919H35.4685M51.7936 113.558C38.4216 113.558 28.6838 111.553 22.5796 107.543M22.5796 109.226C14.9452 150.027 -7.69207 91.7651 13.1019 99.7057C17.5603 101.409 20.527 102.903 22.166 107.495M33.5293 71.4678C33.5512 71.1737 33.5724 70.8796 33.5935 70.5862" stroke="#AC92BA" stroke-opacity="0.48" stroke-width="9.07243" stroke-linecap="round" stroke-linejoin="round"/>
</svg>
