<svg xmlns="http://www.w3.org/2000/svg" width="377" height="393" viewBox="0 0 377 393" fill="none">
  <path d="M88.394 46.8432C91.6485 47.0769 95.1278 46.6312 98.4065 46.9884C104.001 47.5979 109.944 48.2997 115.348 49.8114C133.464 54.9724 148.828 67.0446 158.127 83.4264C173.508 110.875 172.568 141.133 167.298 171.542C166.096 178.482 163.51 185.765 161.955 192.685C161.463 194.872 160.342 197.383 159.703 199.654C161.839 201.061 168.604 206.994 170 209.001C173.035 205.738 175.691 202.095 178.387 198.564C182.543 193.122 186.555 187.891 189.819 181.855C192.755 176.733 195.288 171.546 197.547 166.099C200.808 158.237 203.019 149.392 206.511 141.698C205.923 140.983 205.385 140.23 204.9 139.442C198.829 129.67 197.232 119.783 199.65 108.639C202.262 96.5934 208.974 88.1982 221.232 96.5359C228.579 101.533 232.384 106.849 236.612 114.505C242.842 111.122 252.307 110.371 259.344 110.309C259.319 110.054 259.299 109.797 259.284 109.541C258.847 103.01 259.609 92.1656 264.174 87.7441C271.754 80.4046 281.964 89.1466 285.197 96.2249C289.034 104.63 289.757 109.598 290.192 118.057C292.379 119.671 294.884 121.046 297.229 122.824C305.489 129.089 311.904 136.837 317.174 145.725C323.107 155.724 326.967 166.827 323.934 178.533C321.709 187.123 315.942 194.6 309.127 200.172C306.979 201.926 302.727 204.398 300.322 205.815C304.242 209.284 309.379 216.901 312.579 221.402C321.492 212.143 330.862 199.045 345.007 199.421C349.902 199.551 354.334 201.851 358.974 202.992C362.649 203.895 366.679 203.181 370.317 204.358C373.759 205.326 377.422 208.901 376.684 212.803C374.077 226.563 356.812 227.557 346.404 226.721C344.964 229.181 343.254 231.883 341.942 234.361C332.334 252.526 320.702 277.476 296.017 262.488C292.832 260.553 289.977 257.631 287.194 255.141C287.474 260.981 285.962 270.411 285.819 276.661C288.277 277.518 289.884 278.038 292.194 279.263C294.709 280.498 296.347 281.546 298.357 283.561C314.622 299.886 311.664 328.123 299.074 345.708C296.717 349.003 293.274 352.546 290.464 355.403C302.384 354.886 321.589 357.708 323.124 372.548C323.337 374.478 322.737 376.408 321.467 377.878C315.759 384.501 293.254 381.738 284.874 381.621C276.047 381.496 266.849 381.056 257.987 380.896C256.934 381.828 257.364 384.646 256.449 385.941C251.049 393.596 238.277 392.591 229.949 392.793C221.416 393.003 213.061 392.586 204.592 392.096C193.26 391.441 181.712 391.811 170.543 389.678C158.842 387.378 145.236 380.451 138.735 370.111C136.137 371.263 131.925 372.251 129.129 372.541C112.249 374.288 97.7533 370.393 84.4615 359.776C73.2975 351.023 66.8508 339.523 61.596 326.583C55.6688 311.986 54.6298 295.478 56.279 279.903C57.723 266.266 63.209 251.088 68.2388 238.375C71.8653 229.209 76.7628 220.086 79.8955 210.642C83.4425 200.5 87.2903 190.22 85.9278 179.238C85.6045 176.633 84.7375 175.82 82.8035 174.332C72.9245 173.693 64.9253 182.973 58.501 189.561C38.4125 210.162 8.62452 204.096 2.10577 174.032C-7.83166 128.202 18.3155 73.2842 61.2968 53.6229C63.65 52.5464 66.1528 51.3744 68.6315 50.6157C72.6075 49.3929 76.676 48.4932 80.797 47.9257C83.1458 47.5917 85.819 47.4192 88.093 46.9122L88.394 46.8432ZM214.173 149.184C210.694 160.541 207.257 171.822 201.496 182.224C200.517 183.992 199.497 185.93 198.654 187.757C203.128 187.193 209.806 187.188 213.196 190.25C219.764 196.183 214.543 199.062 208.338 196.344C203.812 194.362 198.138 196.428 194.972 199.68C190.078 203.796 182.168 216.577 180.53 222.771C181.469 224.804 184.63 231.165 181.788 232.429C177.936 232.349 172.918 226.997 170.282 224.35C160.787 214.818 156.356 205.647 141.911 203.532C142.266 206.13 142.389 206.675 141.619 209.18C136.845 211.357 126.951 212.921 121.529 214.228C128.226 218.845 133.437 220.356 141.794 219.201C144.963 218.764 149.817 216.339 152.924 217.673C155.089 218.602 153.593 221.601 152.947 223.308C167.698 247.563 175.756 275.541 202.506 238.685C204.802 235.83 206.278 232.979 209.284 230.693C212.747 228.059 217.244 230.224 215.662 234.822C215.339 235.762 214.985 236.87 214.424 237.761C205.823 251.398 192.876 271.213 173.971 265.531C161.29 261.718 158.801 252.036 152.316 242.761C151.048 247.338 148.764 249.686 146.759 253.663C135.704 275.613 129.035 298.588 132.679 323.326C134.463 335.441 136.548 345.293 142.747 356.148C148.356 365.968 156.746 375.643 168.156 378.318C181.209 381.381 194.698 381.396 207.971 382.006C214.226 382.303 220.484 382.508 226.744 382.628C233.229 382.813 241.809 383.428 248.007 381.673C238.029 367.356 213.66 379.553 199.302 373.968C196.586 372.016 197.852 369.273 199.862 367.313C201.58 365.638 203.552 365.066 205.479 363.818C221.563 353.418 233.132 336.396 231.012 316.901C227.492 284.538 196.587 274.268 172.187 293.858C169.96 295.648 164.348 301.593 161.374 299.681C160.793 298.381 161.111 297.026 161.664 295.761C165.313 287.398 173.929 281.448 182.075 277.953C193.136 273.193 204.036 272.758 215.26 277.341C241.407 288.016 246.884 321.688 236.429 345.378C232.437 354.426 228.434 359.383 220.698 365.388C223.734 365.043 226.637 364.586 229.689 364.423C231.994 364.303 234.397 364.458 236.649 364.341C241.907 360.363 247.419 356.066 251.974 351.271C275.124 326.906 273.739 293.581 276.204 262.471C276.962 251.978 278.482 241.556 280.754 231.284C282.569 222.986 283.599 218.308 287.247 210.563C282.947 211.981 260.332 217.459 264.132 207.901C264.557 206.833 294.489 199.657 298.087 195.453C301.797 192.93 305.147 189.199 308.144 185.951C312.952 180.739 316.029 171.697 313.832 164.661C309.204 149.856 299.162 135.898 285.974 127.756C269.709 117.715 256.684 119.54 239.302 123.084C239.782 125.488 240.187 127.727 238.687 129.919C237.429 131.753 235.734 131.781 234.047 130.486C230.897 128.078 230.294 123.765 228.629 120.382C228.224 119.564 227.894 118.683 227.452 117.878C224.304 112.126 218.33 106.285 212.511 103.287C208.002 109.971 207.659 125.075 211.82 132.041C214.567 136.639 217.961 140.832 220.156 145.769C222.495 150.68 220.096 153.479 215.658 150.297C215.156 149.935 214.661 149.563 214.173 149.184ZM302.924 372.118C306.019 372.123 310.752 371.551 313.329 371.801C308.117 366.133 301.974 365.681 294.559 365.373C291.047 365.248 287.529 365.226 284.014 365.311C282.857 365.336 281.674 365.401 280.517 365.393C274.087 365.353 268.567 366.001 271.449 357.571C274.567 355.051 277.852 352.696 280.972 350.096C297.112 336.658 306.152 309.781 292.357 291.751C290.804 289.721 287.712 287.003 285.299 285.913C284.397 292.911 283.762 299.936 282.837 306.933C279.872 329.378 268.172 357.548 246.732 368.088C248.784 368.766 254.427 372.063 254.992 372.056C270.749 371.836 287.204 371.253 302.924 372.118ZM268.742 110.735C272.564 111.003 276.092 112.083 279.744 113.168C280.622 113.568 280.627 113.766 281.317 113.562C281.157 110.876 277.209 101.173 275.494 98.6682C274.917 97.8252 272.459 95.5997 271.577 94.7694C268.559 98.8937 268.739 105.652 268.742 110.735ZM289.184 243.366C290.962 246.303 294.487 249.293 297.427 251.081C314.989 266.036 321.847 247.236 330.672 234.005C334.142 228.803 338.074 217.688 345.579 217.271C353.904 217.22 359.282 217.874 366.834 213.414C364.249 213.221 360.854 213.161 358.437 212.805C354.559 212.235 348.092 209.074 344.194 209.641C331.824 210.311 319.232 233.194 311.817 233.725C310.432 233.824 309.649 233.16 308.667 232.287C302.954 227.213 299.877 219.573 295.442 213.498C292.882 221.456 289.404 235.157 289.184 243.366ZM132.803 360.601C124.563 350.408 122.032 331.666 120.906 318.878C118.514 291.731 126.852 265.896 140.968 242.923C143.033 239.551 145.714 236.199 147.653 232.812C143.372 225.739 145.52 228.135 137.247 228.741C128.344 229.393 109.938 224.67 112.078 212.532C112.421 210.628 114.736 207.701 116.508 206.902C120.713 204.848 127.94 203.811 132.595 203.367C132.865 194.884 134.011 194.441 143.029 194.401C145.45 194.39 148.021 195.091 150.344 195.729C152.433 186.027 154.757 176.322 156.641 166.593C157.591 161.685 157.778 156.179 158.347 151.213C160.78 129.982 159.515 107.446 147.925 88.8717C138.799 73.9917 124.596 63.4706 107.372 59.9114C102.637 58.9244 94.7138 58.0507 89.7895 58.6309C41.9173 60.9642 8.13652 116.461 11.7648 160.826C12.7948 173.419 17.0465 190.799 33.1158 190.245C52.1363 187.324 59.3995 162.617 80.304 162.773C89.7768 162.21 97.1398 171.843 97.4808 180.534C98.7383 212.571 76.2765 240.876 69.4745 271.251C64.4563 293.658 66.784 316.821 79.3958 336.263C82.149 340.508 84.862 343.458 88.0918 347.278C89.115 348.096 90.0733 348.891 91.0603 349.766C100.592 358.216 113.284 363.061 126.1 361.526C128.387 361.251 130.564 360.848 132.803 360.601Z" fill="#8B4D98"/>
  <path d="M307.794 160.826C317.334 160.105 310.049 170.433 307.552 173.276C306.457 174.523 306.952 182.098 302.932 182.773C299.499 181.741 300.517 176.925 300.857 174.223C300.839 174.089 300.677 173.653 300.627 173.506L298.467 172.726C296.699 172.079 295.049 171.39 293.487 170.366C289.147 167.523 289.214 161.572 295.534 162.369C298.054 162.686 300.092 163.751 302.374 164.784C304.707 163.332 305.002 161.878 307.794 160.826Z" fill="#8B4D98"/>
  <path d="M279.449 181.109C284.097 180.346 290.867 183.036 293.292 187.202C294.719 189.653 293.429 190.985 291.364 192.042C285.924 190.57 284.984 187.621 278.654 188.787C274.787 190.039 272.189 192.597 268.854 193.659C264.584 195.018 265.087 189.721 266.987 187.357C270.322 183.205 274.494 181.993 279.449 181.109Z" fill="#8B4D98"/>
  <path d="M216.142 111.557C225.117 111.431 231.349 132.728 226.239 138.911C221.324 140.896 220.455 135.658 220.748 132.135C221.196 126.759 219.037 122.653 216.429 118.166C215.202 116.055 213.73 113.33 216.142 111.557Z" fill="#8B4D98"/>
  <path d="M256.264 148.809C259.052 148.649 260.529 149.659 262.757 151.082C265.534 156.919 265.457 163.015 257.947 164.704C248.572 164.508 246.369 151.324 256.264 148.809Z" fill="#8B4D98"/>
  <path d="M256.734 131.988C263.702 131.16 260.157 139.234 257.702 142.075C253.837 146.554 250.972 148.075 245.147 148.81C244.294 148.77 242.339 148.668 241.804 147.955C238.097 142.939 247.242 142.031 249.879 140.21C253.067 138.009 253.842 134.719 256.734 131.988Z" fill="#8B4D98"/>
  <path d="M292.719 0.123977C302.034 -0.845073 313.807 3.8934 316.712 13.4022C318.752 20.0849 317.017 27.9534 311.572 32.4997C306.944 36.3612 301.327 37.8174 296.797 41.5694C295.244 42.8534 293.764 46.2237 292.829 48.0344C290.787 49.1759 287.642 49.8319 285.512 48.5747C284.374 47.8919 283.562 46.7787 283.257 45.4877C282.524 42.5172 284.187 39.3077 285.679 36.8667C290.877 29.7667 298.687 30.2607 303.804 23.6574C306.669 19.9619 305.949 14.2999 301.892 11.7409C297.784 9.15133 293.257 8.89235 289.382 12.0988C286.867 14.1812 286.859 16.2709 285.152 18.7907L284.974 19.0492C279.062 21.0924 273.734 18.7627 276.037 11.972C278.719 4.06008 285.144 0.950127 292.719 0.123977Z" fill="#8B4D98"/>
  <path d="M236.957 22.8572C243.067 22.2064 248.802 25.3929 251.404 30.9414C253.922 36.3034 252.777 42.0584 249.474 46.7969C248.387 48.3582 247.247 50.4464 246.634 52.2419C245.542 55.3064 248.204 60.9839 244.012 62.0351C240.944 62.8044 238.669 62.2289 238.019 58.9339C236.932 53.4249 238.282 48.7214 241.197 44.0277C242.489 41.8807 243.082 40.1237 243.759 37.7134C241.552 31.1832 237.552 29.1824 231.492 32.7404C225.412 36.3107 233.739 48.6827 221.32 45.1264C218.983 40.9969 219.476 34.8462 222.15 31.0019C225.937 25.5577 230.837 23.9839 236.957 22.8572Z" fill="#8B4D98"/>
  <path d="M333.337 48.6332C335.197 48.2719 338.409 49.0034 340.157 49.7102C348.934 53.2602 355.039 62.2117 351.162 71.6369C347.317 80.9797 337.319 78.6597 329.377 80.0732C327.692 80.3792 324.809 83.0914 322.619 84.0102C319.429 83.1934 318.199 82.8229 317.194 79.5351C320.079 71.6724 326.942 71.6809 334.159 71.4777C338.149 71.3652 340.012 70.4389 342.637 67.4899C343.462 63.6214 343.449 61.1854 340.154 58.4039C335.527 54.4969 331.219 59.6806 326.634 60.3176C322.117 60.9449 321.977 55.0117 324.249 52.5289C326.897 49.6352 329.572 48.9984 333.337 48.6332Z" fill="#8B4D98"/>
  <path d="M283.029 54.7569C286.774 54.0199 290.417 56.4337 291.197 60.1702C291.977 63.9069 289.604 67.5754 285.877 68.3984C283.427 68.9391 280.877 68.1214 279.197 66.2577C277.519 64.3937 276.972 61.7712 277.764 59.3912C278.557 57.0112 280.569 55.2412 283.029 54.7569Z" fill="#8B4D98"/>
  <path d="M311.514 85.9387C314.294 84.9322 317.362 86.3776 318.354 89.1614C319.344 91.9451 317.884 95.0049 315.094 95.9829C313.274 96.6214 311.249 96.2259 309.804 94.9489C308.054 93.4046 307.512 90.9021 308.464 88.7724C309.057 87.4534 310.157 86.4309 311.514 85.9387Z" fill="#8B4D98"/>
  <path d="M246.309 66.3059C249.149 65.8387 251.847 67.7089 252.407 70.5322C252.964 73.3554 251.184 76.1126 248.379 76.7626C246.252 77.2561 244.037 76.4012 242.792 74.6054C241.547 72.8097 241.524 70.4364 242.734 68.6167C243.554 67.3834 244.849 66.5464 246.309 66.3059Z" fill="#8B4D98"/>
</svg>
