<svg xmlns="http://www.w3.org/2000/svg" width="1571" height="1424" viewBox="0 0 1571 1424" fill="none">
  <path d="M696.747 457.878C701.546 465.043 702.931 471.406 706.141 479.067C714.748 499.604 725.014 534.178 738.648 551.186C764.114 582.951 804.907 606.612 838.637 628.667C863.611 645 886.705 661.235 909.878 679.978C923.411 690.927 932.309 698.669 943.963 710.653C948.669 715.493 977.448 746.507 980.132 748.128L981.198 747.149C979.035 726.347 973.263 707.454 967.934 687.405C955.798 641.778 940.497 597.874 925.211 553.254C918.287 533.037 912.334 512.38 906.372 491.858C901.367 474.661 895.958 457.308 892.113 439.818C890.045 430.414 889.066 420.797 887.265 411.343C884.778 398.273 881.549 384.995 880.262 371.74C879.101 359.781 879.63 347.373 879.583 335.361C879.528 323.693 878.936 311.673 879.757 300.035C880.302 292.354 882.173 284.742 883.255 277.115C892.145 214.505 913.542 158.818 953.848 109.524C987.246 68.6765 1035.37 35.7995 1085.2 18.5421C1095.56 14.9533 1106.4 12.6253 1117.06 10.1487C1127.94 7.62675 1139.13 5.09039 1150.25 3.99927C1167.16 2.33861 1210.47 -3.75503 1224.71 3.40826C1233.04 7.59753 1244.55 4.86233 1253.71 6.27218C1266 8.16477 1294.56 17.7821 1306.82 22.3236C1338.19 34.0177 1367.9 49.7016 1395.25 68.9885C1493.29 139.492 1556.93 264.494 1567.15 383.273C1567.63 388.852 1569.18 394.582 1569.62 400.199C1570.46 411.854 1570.01 424.074 1569.97 435.746C1569.96 444.048 1567.63 444.237 1567.07 450.035C1566.55 455.462 1566.86 462.464 1566.26 468.314C1562.88 502.879 1553.29 536.551 1537.97 567.717C1520.26 603.021 1491.09 620.2 1452.41 625.461C1447.58 626.12 1441.31 623.758 1436.56 623.109C1384.43 617.969 1350.54 578.054 1313.43 545.924C1303.19 537.066 1287.02 523.388 1270.24 526.123C1257.3 528.235 1250.45 559.766 1250.35 570.987C1250.34 572.053 1255.62 585.135 1254.49 588.989C1267.14 645.65 1298.47 696.183 1320.51 749.678C1353.05 828.66 1368.58 911.594 1357.59 996.795C1355.94 1009.56 1352.28 1022.55 1349.53 1035.1C1335.04 1104.58 1300.36 1170.37 1240.5 1210.98C1206.76 1233.89 1165.21 1254.39 1123.38 1254.02C1117.62 1253.97 1109.82 1256.35 1103.83 1256.28C1089.59 1257.18 1054.62 1255.71 1041.48 1251.24L1040.77 1252C1034.4 1258.86 1028.22 1270.16 1022.57 1278.24C975.892 1345.04 899.456 1383.99 821.827 1402.65C814.248 1404.48 787.237 1411.49 781.489 1408.59C775.212 1409.98 766.93 1412.67 761.108 1413.83C752.767 1415.49 745.795 1412.22 736.419 1415.9C728.571 1418.97 706.797 1416.94 697.168 1417.76C686.675 1418.38 675.519 1421.67 665.058 1421.95C631.937 1422.86 596.597 1425.83 564.505 1415.9C537.969 1407.69 529.293 1393.08 528.01 1367.08C508.854 1364.46 487.754 1357.76 468.316 1354.62C451.917 1361.65 428.83 1362.84 411.102 1366.69C397.899 1369.56 390.52 1365.09 376.762 1371.57C371.776 1373.92 344.767 1367.71 338.96 1374.44C336.802 1376.95 317.38 1374.62 313.673 1375.19C297.573 1373.74 281.876 1379.45 266.408 1379.21C242.387 1378.84 204.815 1383.38 192.267 1356.95C179.055 1329.09 200.46 1296.38 225.667 1284.08C230.482 1281.64 235.856 1279.07 240.774 1276.62C245.689 1274.15 251.56 1275.15 255.611 1272.17C256.13 1270.85 256.887 1269.51 255.739 1268.02C248.222 1258.25 238.342 1251.55 231.475 1240.98C207.23 1203.64 196.377 1155.97 201.62 1111.77C202.408 1105.13 206.013 1097.24 207.207 1090.52C214.393 1059.61 228.217 1032.46 250.741 1009.91C255.21 1005.44 262.571 996.171 267.841 992.98C275.006 988.653 276.481 988.029 282.774 982.312C283.286 965.041 293.241 943.411 293.048 926.369C282.9 926.117 273.068 923.597 263.545 923.534C242.841 923.392 207.232 921.639 191.018 936.043C178.351 947.296 165.569 974.722 165.061 991.567C164.214 1019.66 182.672 1029.35 152.971 1048.17C147.278 1048.39 136.162 1049.37 131.088 1047.95C92.1444 1037.07 79.7792 997.418 87.201 962.222C70.7089 967.552 69.7946 963.99 54.5815 962.743C31.691 960.863 14.1536 957.089 5.80969 932.576C1.29575 919.317 5.41381 913.229 7.49869 900.27C8.0892 896.337 4.44384 890.477 2.61919 886.726C-4.10139 872.922 3.28652 855.028 11.5368 843.427C-1.68465 821.497 7.95837 790.091 29.7711 777.495C38.0427 772.717 56.6241 773.839 66.105 772.844C93.6548 768.263 121.703 769.424 149.392 764.741C159.214 763.083 164.849 767.126 175.35 761.598L177.8 760.335C180.252 760.667 186.738 761.456 189.425 761.077C207.247 758.574 225.475 756.671 243.168 753.378C244.405 753.149 249.127 749.672 250.248 748.849C251.874 749.615 253.771 750.443 255.325 751.292C264.893 747.058 268.514 750.141 279.188 745.185C283.093 744.196 287.752 743.13 291.516 741.936C207.248 693.319 160.438 615.049 215.58 524.482C252.724 463.473 302.807 414.356 367.727 384.3C377.7 350.847 378.814 313.322 412.882 293.016C438.54 277.722 460.708 293.803 472.387 316.925C475.302 322.653 477.835 328.568 479.969 334.632C482.467 341.89 484.185 360.307 493.732 360.497C522.562 361.071 549.462 368.313 577.844 372.302C582.838 363.451 587.337 354.579 593.548 346.269C624.047 305.461 679.07 277.141 698.15 345.639C704.865 369.749 706.358 394.829 705.32 419.985C704.839 430.358 701.629 432.733 701.956 443.586C697.986 449.2 697.84 450.754 696.747 457.878ZM311.62 521.613C317.343 517.95 321.556 515.935 326.146 510.68C332.538 503.361 332.249 499.749 340.174 493.606C346.492 492.788 350.563 491.458 356.131 495.554C369.432 505.337 358.711 526.771 350.679 536.776C342.426 547.057 325.579 556.567 312.299 557.981C301.087 558.961 284.788 557.437 275.229 550.471C270.258 546.849 263.183 535.355 259.294 532.401C254.766 536.061 241.818 561.032 240.271 566.841C242.927 571.193 253.747 570.417 259.135 570.847C276.41 572.229 292.592 587.982 290.105 605.81C288.518 617.182 274.611 629.342 264.362 633.097C258.337 635.49 245.144 634.551 241.253 639.044C241.589 647.994 263.096 670.901 270.513 677.721C305.072 709.495 350.609 729.515 396.661 737.331C404.171 738.394 411.456 738.456 419.053 739.077C427.274 739.749 434.815 741.66 443.116 742.631C450.257 743.465 462.138 745.641 463.574 754.426C464.075 757.484 461.659 762.972 459.335 764.923C442.554 777.803 409.347 772.931 388.8 773.286C381.141 773.412 364.407 769.977 356.438 768.271C351.382 767.189 341.947 762.72 336.199 762.151C332.502 761.78 331.396 761.812 328.32 763.66C322.544 767.142 313.971 767.892 307.741 770.111C268.923 783.955 230.024 787.627 189.663 793.186C185.068 793.818 178.262 793.005 173.59 793.613C170.089 794.071 169.032 796.187 164.344 796.519C150.943 797.467 134.126 795.627 121.12 797.53C139.638 817.004 143.261 828.438 131.867 853.622C143.797 875.971 144.111 887.208 126.543 906.303C133.097 933.548 129.15 933.603 116.669 956.433C105.283 977.265 107.069 1006.14 129.069 1018.99C131.538 1020.64 138.253 1022.05 141.636 1021.36C142.699 1018.84 137.737 1002.61 137.26 996.684C134.872 967.007 160.677 915.005 187.785 902.378C206.017 893.881 245.043 891.962 265.313 891.97C270.631 891.978 300.467 893.139 301.271 889.466C305.787 868.816 301.165 846.823 308.299 826.133C308.872 824.466 308.95 814.879 309.016 812.455C317.802 797.964 328.437 797.696 333.992 815.827C334.728 818.228 334.589 824.522 334.728 827.317C342.918 838.555 339.638 879.611 338.513 894.663C336.258 924.877 330.027 954.49 323.266 984.025C321.461 991.377 320.333 1016.63 318.789 1020.44C311.602 1038.14 317.558 1053.53 311.447 1069.82C316.517 1086.38 312.702 1090.34 314.969 1103.01C317.834 1116.27 319.165 1130.37 321.99 1143.54C332.447 1192.35 361.944 1236.73 400.383 1268.49C427.751 1291.11 468.346 1310.69 502.157 1321.4C512.725 1324.02 524.015 1325.54 534.684 1327.24C540.268 1328.14 547.649 1332.88 553.242 1329.91C570.641 1320.66 582.898 1310.46 603.202 1307.68C605.405 1307.38 619.188 1303.87 620.077 1302.76C618.39 1299.35 610.372 1292.77 607.15 1288.86C552.974 1222.92 563.871 1106 614.12 1041.06C598.048 1045.28 588.395 1053.51 574.02 1058.64L573.371 1059.75C557.979 1086.2 544.735 1149.87 513.268 1158.92C507.572 1160.56 503.087 1159.58 497.397 1158.68C490.974 1165.87 485.279 1173.2 474.87 1174.03C461.718 1175.08 454.198 1164.19 449.876 1153.42L434.749 1153.22C426.042 1146.73 423.362 1140.01 421.699 1129.38C420.181 1119.67 420.395 1107.57 421.546 1097.85C422.074 1093.4 421.202 1085.18 421.937 1081.63C431.084 1037.5 450.935 994.978 478.33 959.347C497.948 933.832 516.78 910.575 539.952 888.566C539.882 885.178 539.892 881.451 539.665 878.103C536.897 868.437 535.37 851.45 530.504 844.051C530.321 835.791 529.897 826.085 530.111 817.951C536.111 810.268 536.075 809.881 545.966 810.141C549.513 813.237 552.01 815.014 554.098 819.239L554.726 820.486C560.854 832.987 569.137 866.226 572.207 880.48C572.847 883.449 572.532 893.344 572.371 896.866C559.716 917.209 547.211 926.811 531.868 944.374C501.248 979.421 473.202 1018.26 459.534 1063.29C458.182 1067.74 451.406 1085.33 453.518 1089.13C461.904 1086.93 456.917 1061.88 480.164 1069.61C486.833 1075.14 481.492 1092.26 481.639 1100.02C481.721 1104.32 479.864 1107.49 477.333 1110.85C477.157 1118.02 475.563 1141.27 478.723 1146.43L479.837 1146.66C481.912 1145.12 482.666 1144.8 483.839 1142.46C484.422 1134.94 481.858 1126.55 482.49 1119.89C483.874 1105.28 487.429 1083.46 497.673 1072.41C501.641 1068.13 508.906 1069.72 511.814 1074.51C519.696 1087.49 505.053 1114.21 509.708 1126.91L511.335 1127.1C518.314 1119.62 521.85 1101.48 526.784 1092.7C535.547 1077.11 539.351 1055.89 546.68 1041.06C554.392 1025.44 581.063 1014.13 595.859 1006.66C645.157 983.575 692.677 955.999 709.958 900.68C716.448 879.524 714.997 852.066 714.302 830.026C713.905 817.462 710.294 815.33 712.778 800.933C719.311 794.718 725.214 793.344 731.753 800.87C738.821 809.004 742.388 820.423 744.927 830.689C746.448 837.125 745.488 841.011 749.078 846.388C750.705 848.829 750.88 858.589 751.073 861.851C752.466 885.518 749.491 909.043 741.366 931.368C738.809 938.396 733.046 948.37 729.107 954.704C726.098 959.544 723.49 961.763 721.038 967.37C736.209 967.449 749.301 962.545 764.391 963.604C770.791 964.054 779.31 962.308 784.434 965.546C789.424 968.697 793.569 966.225 798.946 967.528C815.432 970.205 877.72 992.586 862.118 1016.97C861.494 1017.94 860.855 1018.9 860.192 1019.85C847.914 1020.87 842.443 1016.92 830.899 1013.17C800.533 1003.34 787.664 1001.29 756.848 1004.49C655.595 1015.01 606.045 1102.69 612.566 1197.44C614.641 1227.6 631.768 1261.13 654.432 1280.28C673.422 1297.05 707.939 1301.29 714.28 1326.68C715.758 1333.62 709.148 1339.81 704.026 1343.48C689.154 1344.08 681.166 1341.65 667.451 1340.75C655.982 1340 637.306 1343.81 625.003 1343.69C612.888 1343.56 572.119 1357.53 568.967 1371.66C569.546 1375.15 570.869 1375.89 573.716 1377.94C574.302 1378.35 574.892 1378.76 575.487 1379.17C592.923 1378.57 597.019 1381.24 613.463 1383.23C622.529 1384.32 635.474 1381.52 646.351 1382.75C656.221 1376.81 664.477 1380.83 674.118 1378.97C699.878 1373.99 724.78 1378.4 750.237 1371.93C756.393 1370.37 765.004 1372.92 770.736 1369.64C774.502 1368.07 783.4 1367.87 788.208 1366.96C845.096 1356.27 896.582 1338.1 942.573 1302.01C1003.06 1254.54 1033.85 1184.93 1045.85 1110.48C1047.02 1103.26 1049.04 1096.5 1049.96 1089.29C1050.92 1073.67 1050.21 1057.73 1050.4 1042.07C1050.17 1038.1 1050.69 1033.49 1050.18 1029.61C1044.5 985.502 1039.4 943.482 1022.76 901.738C995.323 832.9 956.319 778.024 901.533 728.449C843.374 675.816 771.509 642.734 716.071 588.012C694.173 566.398 679.405 519.898 668.748 491.634C667.482 488.286 655.819 482.187 651.756 477.958C650.819 456.514 664.332 437.742 666.975 416.5C668.107 407.415 668.002 396.384 666.607 387.359C665.339 379.168 663.362 372.168 663.344 363.724C658.431 356.723 660.583 345.941 652.099 344.733C651.144 344.597 651.265 344.675 650.095 344.818L649.004 345.483C626.765 359.179 611.537 389.079 604.202 413.591C600.632 424.716 598.95 438.828 591.53 448.155C585.768 453.984 576.573 453.305 573.048 445.801C561.168 420.511 580.088 412.777 546.634 407.092C490.563 397.563 436.467 397.941 383.718 422.095C346.788 439.004 314.755 463.7 287.976 494.041C284.05 498.489 278.046 503.896 275.384 508.855C276.024 519.654 303.446 521.711 311.62 521.613ZM1301.12 1055.5C1308.34 1028.77 1313.46 1003.46 1316.51 976.01C1318.81 955.359 1319.99 936.856 1318.68 915.898C1318.31 909.92 1316.43 903.507 1315.87 897.49C1309.43 833.856 1286.87 772.062 1258.72 714.814C1237.43 671.525 1216.11 626.641 1209.5 577.981C1208.75 572.423 1209.17 559.287 1209.31 553.274C1213.26 547.868 1212.17 549.075 1212.99 542.81C1216.04 520.768 1227.33 501.054 1246.52 489.22C1255.75 483.525 1253.72 486.116 1261.5 483.914C1276.74 479.6 1266.74 479.923 1280.71 482.734C1301.88 486.995 1318.53 495.584 1335.36 509.086C1373.67 542.252 1437.23 618.57 1488.82 562.417C1509.64 537.999 1517.92 505.554 1521.81 474.377C1522.07 472.277 1524.77 469.18 1524.75 467.326C1524.63 457.497 1525.45 449.01 1526.94 439.331C1529.11 425.289 1527.9 409.792 1527.37 395.596C1527.2 390.74 1525.17 387.383 1524.31 382.744C1522.92 371.185 1526.9 365.923 1519.51 355.762C1519.8 341.712 1516.21 330.201 1512.52 316.547C1496.29 256.578 1464.18 195.117 1422.12 149.229C1416.09 142.65 1396.75 123.778 1389.85 118.145C1345.71 82.1212 1294.92 56.3762 1238.31 47.4936C1229.23 46.0698 1201.07 44.379 1191.32 44.1949C1183.47 44.0492 1175.61 44.0745 1167.76 44.2706C1166.91 44.4717 1163.21 45.7334 1163 45.7579C1142.27 48.1025 1121.1 51.3884 1101.2 58.3015C1069.08 69.1867 1039.32 86.046 1013.47 107.991C1006.28 114.201 995.379 126.842 988.336 131.413L988.012 132.471C985.517 140.468 980.732 143.439 975.845 149.942C953.99 179.001 940.331 213.065 930.849 247.932C928.867 255.215 928.583 264.169 926.775 271.238C920 297.773 921.232 324.542 921.816 351.677C921.895 355.604 924.58 359.985 924.572 364.038C925.124 381.782 926.38 401.005 929.988 418.479C933.746 436.654 939.178 456.31 944.184 474.27C963.591 543.958 991.755 611.33 1010.15 681.393C1016.93 707.2 1022.47 732.943 1025.41 759.569C1026.23 766.976 1025.82 783.718 1025.78 791.852C1033.54 802.442 1026.67 811.736 1031.53 822.792C1038.65 839.013 1046.95 853.511 1054.07 869.945C1075.68 919.641 1088.06 972.851 1090.61 1026.98C1090.77 1031.45 1093.67 1056.2 1093.05 1057.84C1088.17 1070.75 1091.85 1081.06 1089.8 1094.3C1085.92 1126.16 1079.94 1156.99 1069.15 1187.24C1067.24 1192.62 1060.91 1204.25 1061.99 1209.41C1065.2 1213.01 1070.97 1213.95 1075.63 1214.04C1091.59 1214.37 1108.28 1214.29 1124.23 1213.81L1130.18 1209.76C1162.88 1211.44 1210.48 1183.08 1234.85 1162.15C1260.53 1140.09 1278.48 1111.17 1291.59 1080.43C1294.03 1074.71 1300.26 1061.33 1301.12 1055.5ZM347.086 1296.26C343.696 1302.87 341.434 1307 333.899 1309.31C321.257 1313.2 306.829 1309.38 293.975 1308.46C276.56 1307.2 251.817 1312.63 238.03 1323.92C235.644 1325.87 230.15 1329.46 228.962 1332.17C228.402 1333.45 228.388 1334.3 228.483 1335.65C230.729 1338.1 234.012 1338.18 237.145 1338.32C245.463 1338.66 254.037 1338.02 262.365 1337.73L278.458 1337.5L284.773 1332.76C306.122 1332.49 327.894 1334.13 349.174 1332.95C355.451 1332.61 361.568 1331.34 367.799 1330.66C372.129 1330.2 376.521 1330.21 380.825 1329.53C385.436 1328.82 390.028 1327.48 394.684 1327.09C400.334 1326.63 406.889 1330.02 411.511 1326.03C411.006 1324.57 411.483 1325.1 410.185 1324.44C399.562 1318.98 389.424 1310.64 380.024 1303.28C334.446 1267.61 304.166 1225.07 287.12 1169.6C284.871 1162.29 283.073 1155.41 282.77 1147.73L278.935 1142.34C279.022 1135.24 277.291 1129.12 276.383 1122.2C275.726 1117.19 275.595 1112.14 275.024 1107.13C273.464 1093.44 271.338 1081.92 272.652 1067.9C273.18 1062.27 277.109 1050.05 273.839 1045.52L272.836 1045.14C255.943 1057.63 243.497 1110.94 240.532 1131.04C236.739 1156.74 253.77 1203.21 269.299 1223.92C280.635 1239.04 297.387 1251.95 313.393 1261.73C322.764 1267.46 334.487 1271.84 341.515 1280.57C345.3 1285.27 346.067 1290.51 347.086 1296.26ZM113.792 824.435C106.787 817.035 102.33 814.406 93.8427 822.326C87.8737 822.682 80.0295 823.377 74.2184 822.958C71.2268 820.739 60.2884 813.9 59.1917 812.171C57.3299 810.852 54.7434 808.238 53.0159 806.611C52.0369 802.758 52.771 803.073 50.3115 800.957C46.6924 800.333 43.7046 800.902 41.0144 803.366C14.8892 827.254 49.0486 849.745 72.0029 851.008C86.6262 851.814 103.79 847.991 112.872 837.173C113.36 832.695 113.843 828.952 113.792 824.435ZM451.21 1092.29C450.731 1095.54 449.395 1100.48 451.557 1103.29C451.724 1103.51 451.94 1103.69 452.131 1103.89C452.804 1100.61 453.79 1097.47 452.915 1094.16C452.386 1093.56 451.839 1092.79 451.21 1092.29ZM48.156 896.013C63.4608 896.416 97.4533 900.507 108.867 889.719C113.16 885.842 115.605 882.509 115.998 876.452C116.125 874.486 115.507 873.412 114.479 871.864C112.332 870.482 110.394 869.661 107.786 870.237C105.331 870.79 103.311 872.362 100.886 872.891C79.2463 877.566 59.2272 879.895 39.1206 868.5C36.7388 867.134 34.3806 865.728 32.0472 864.275C28.921 866.234 26.5139 868.153 25.7784 871.959C25.1572 875.181 26.3928 878.15 28.2428 880.725C33.593 888.187 41.6772 890.256 48.156 896.013ZM69.763 799.33C70.4112 801.944 72.8493 806.998 75.4177 808.301C77.7485 809.478 79.8408 809.731 82.2829 808.751C83.1703 808.388 84.0365 807.962 84.9058 807.559C85.7009 807.188 86.4628 806.927 87.31 806.706C89.4157 804.961 90.8503 804.203 91.8451 801.62C90.8487 799.954 90.1144 799.607 88.1935 799.196C82.6421 798.011 75.4596 799.062 69.763 799.33ZM30.7456 916.127C30.1709 921.173 29.6923 924.932 32.9391 929.283C37.1973 934.985 44.2997 937.157 51.0963 937.867C64.8741 939.305 87.9882 939.233 99.608 931.257C100.445 930.681 101.286 930.128 102.116 929.544C103.966 927.799 105.007 926.582 105.97 924.213L105.596 922.579C100.597 920.044 85.9693 926.235 79.2881 926.093C62.9499 925.745 46.1752 921.252 30.7456 916.127ZM430.42 327.155C424.595 331.738 410.449 359.439 410.466 367.095C413.777 370.201 422.608 367.475 427.152 366.704L427.945 366.377C432.325 364.616 447.197 363.921 447.63 360.413C448.596 352.576 438.823 328.272 430.42 327.155Z" fill="#864E93"/>
  <path d="M279.188 745.185C275.27 750.901 268.416 750.115 261.99 750.46C262.58 751.864 262.383 751.381 263.644 752.5C264.105 755.466 264.267 754.073 263.182 756.837C260.901 757.76 262.092 757.674 259.483 756.679C257.79 754.732 256.597 752.766 255.325 751.292C264.893 747.058 268.514 750.141 279.188 745.185Z" fill="#824F8E"/>
  <path d="M330.477 619.764C335.295 619.081 340.49 619.318 345.361 619.316C372.561 619.302 386.115 633.211 404.216 651.325C404.745 658.496 410.593 664.975 407.928 671.969C406.62 675.403 403.895 680.408 400.257 681.84C389.533 686.06 375.052 664.037 367.629 657.857C365.192 655.828 362.498 654.587 359.594 653.371L358.383 652.87C358.11 652.768 357.842 652.655 357.567 652.565C354.195 651.463 350.059 651.381 346.531 651.181C319.8 649.665 316.562 673.221 300.74 681.388C297.68 682.968 294.269 683.503 290.999 682.238C288.154 681.136 284.62 678.312 283.522 675.373C281.406 669.711 283.886 661.533 286.217 656.177C292.478 641.787 309.07 628.364 323.477 622.945C325.937 622.021 328.142 620.979 330.477 619.764Z" fill="#864E93"/>
  <path d="M431.157 492.028C432.189 491.978 432.096 491.962 433.277 492.015C441.954 492.404 447.858 504.23 453.129 510.132C459.322 517.064 467.971 522.033 477.41 522.37C485.632 522.664 495.748 519.613 501.915 514.049C506.729 513.899 511.465 514.187 516.268 514.501C518.427 517.821 520.747 520.786 523.299 523.803L523.476 533.789C518.964 540.821 517.042 546.384 509.022 550.503C508.861 550.632 508.704 550.766 508.54 550.89C500.089 557.282 480.861 560.65 470.453 559.2C452.721 556.729 436.118 547.334 425.699 532.807C417.66 521.6 414.812 513.079 417.006 499.248C421.762 494.903 424.579 492.856 431.157 492.028Z" fill="#864E93"/>
  <path d="M53.0159 806.611C53.9349 803.524 53.9625 802.11 56.3722 800.286L58.0326 800.42C62.072 806.477 58.0855 807.448 59.7088 811.207L59.1917 812.171C57.3299 810.852 54.7434 808.238 53.0159 806.611Z" fill="#824F8E"/>
  <path d="M451.21 1092.29C451.839 1092.79 452.386 1093.56 452.915 1094.16C453.79 1097.47 452.804 1100.61 452.131 1103.89C451.94 1103.69 451.724 1103.51 451.557 1103.29C449.395 1100.48 450.731 1095.54 451.21 1092.29Z" fill="#824F8E" fill-opacity="0.0117647"/>
</svg>
