<svg xmlns="http://www.w3.org/2000/svg" width="738" height="655" viewBox="0 0 738 655" fill="none">
  <path d="M555.854 0.15506C557.845 -0.0791637 560.385 0.0356997 562.425 0.0113742C668.255 -1.25117 741.326 102.814 736.926 202.217C735.266 239.735 721.485 294.968 672.14 286.803C643.812 282.115 631.922 259.214 609.111 245.483C606.191 243.721 601.702 243.088 598.39 242.901C595.834 244.319 593.898 245.357 593.333 248.411C589.667 268.311 603.347 295.248 610.744 312.35C625.52 346.514 638.87 379.723 641.79 417.003C642.278 423.252 643.696 429.216 643.37 435.526C641.64 490.018 617.269 547.592 565.915 572.333C545.51 582.136 515.136 586.624 493.432 579.319C490.9 582.578 488.171 587.051 485.8 590.467C466.571 618.178 438.104 635.648 405.717 643.837C401.694 644.863 397.601 646.4 393.482 647.031C364.031 651.527 333.611 654.828 303.804 654.224C296.466 654.075 289.806 654.643 282.516 653.798C267.023 651.996 250.845 643.914 260.687 625.81C257.268 624.926 241.689 621.594 238.865 621.614C234.211 621.644 223.299 626.971 216.787 628.12C203.403 630.479 189.183 632.305 175.652 633.415C169.053 633.957 160.848 633.834 154.062 634.061C141.848 634.464 128.167 635.098 116.053 633.861C111.901 633.204 105.195 631.367 102.127 628.396C95.0785 621.575 96.8669 607.645 103.258 601.024C111.405 592.585 121.48 588.377 132.998 587.796C130.835 585.36 126.967 582.24 124.348 579.938C88.7129 548.599 89.3643 474.285 132.684 450.271C132.999 447.692 133.195 444.814 133.429 442.209C134.252 431.994 134.999 428.739 137.457 418.882C116.802 418.083 96.792 411.465 79.7339 399.787C74.1419 405.663 65.124 411.369 56.6872 411.319C35.7887 411.193 1.72125 418.456 8.30361 385.368C-0.433243 379.17 -2.97263 365.332 4.06549 357.197C-3.92778 337.649 8.4592 326.18 27.5675 325.535C30.0599 325.451 32.6392 325.655 35.145 325.695C33.9284 310.065 36.9404 291.556 53.7506 285.857C57.4861 284.591 64.6825 285.094 67.907 287.308C80.1524 294.583 71.3478 316.782 75.5241 326.616C79.1237 335.091 85.4404 337.406 88.1442 349.055C109.458 350.996 123.045 350.731 143.901 344.852C150.472 342.999 156.85 340.713 163.518 339.56C144.207 330.911 126.452 319.527 116.542 300.194C107.725 282.992 106.485 269.004 112.58 250.768C114.704 242.902 119.016 237.324 123.155 230.568C136.562 208.685 156.12 192.343 178.96 180.934C182.104 179.364 185.611 178.641 188.948 176.856L189.422 176.599C190.256 172.345 190.097 167.396 191.197 163.175C195.542 145.963 215.453 112.566 236.531 129.861C244.82 136.662 245.331 157.97 245.272 167.796C250.293 167.552 259.457 168.262 264.512 169.555C269.694 170.88 273.492 172.247 278.987 173.233C284.653 158.406 300.638 141.848 316.126 137.728C333.737 133.044 341.777 150.802 344.874 164.714C348.346 180.318 343.941 200.072 335.608 213.394C349.093 229.48 356.912 247.281 370.706 262.029C387.491 279.979 411.205 292.503 430.418 307.454C437.862 313.249 444.775 319.252 451.465 325.918C455.642 330.082 459.777 335.631 464.143 339.417C463.313 332.443 461.184 325.652 459.524 318.862C455.819 303.69 451.02 288.891 445.866 274.158C442.4 264.251 439.318 253.483 436.14 243.446C427.456 216.012 419.843 188.573 418.11 159.732C415.585 117.661 425.826 76.8452 454.951 45.2867C482 15.9777 516.193 1.86188 555.854 0.15506ZM273.271 190.675C268.096 188.907 263.793 188.413 258.442 187.571C236.822 184.168 211.888 186.654 191.961 195.82C170.577 205.656 151.332 221.167 139.132 241.364C137.078 244.728 134.377 248.632 132.915 252.226C139.531 255.235 142.671 259.226 147.767 264.224C153.259 260.389 160.878 253.307 167.887 254.159C171.555 254.605 172.869 258.991 171.729 262.082C168.756 270.136 161.55 273.414 154.082 275.651C154.699 282.556 156.627 291.803 162.504 295.996C181.971 309.884 210.533 300.134 224.953 283.265C226.099 281.925 227.034 280.69 228.261 279.527C222.038 277.404 217.71 277.283 219.271 269.627C232.529 260.683 254.562 278.425 250.866 293.565C250.36 295.637 249.151 298.189 246.347 297.216C242.611 295.548 239.85 289.462 237.611 286.08C221.817 312.815 189.012 323.767 160.633 309.143C148.149 302.71 142.239 292.18 142.681 277.98C139.59 275.534 137.314 273.845 134.57 270.951C132.82 269.105 130.834 264.601 129.715 264.068C128.946 264.57 128.606 265.149 128.505 266.124C125.486 295.323 156.891 316.671 180.645 326.064C192.871 330.899 203.12 333.512 216.222 335.256C219.221 335.656 229.653 336.82 231.969 340.154C235.818 353.886 206.816 351.399 199.961 350.18C195.39 349.368 190.609 348.092 185.953 347.577C184.826 349.63 183.442 351.926 182.46 354.017C175.082 369.736 166.652 385.43 161.203 401.935C149.323 438.366 148.854 477.555 159.858 514.263C171.633 554.755 204.005 589.487 244.59 602.027C250.522 603.86 256.738 605.6 262.771 607.095C266.774 608.087 271.083 608.44 275.105 609.436C284.622 603.671 296.18 600.497 307.326 601.281C303.845 598.138 298.383 593.411 295.551 589.822C286.587 578.466 281.084 563.16 279.877 548.841C277.416 520.046 282.484 499.287 300.677 476.283C325.48 444.922 373.326 434.661 406.539 458.418C409.971 460.87 414.121 466.426 412.703 470.807C411.942 471.584 411.604 471.902 410.486 471.975C405.341 472.31 394.884 467.13 389.401 465.485C383.033 463.575 377.688 463.544 371.144 463.483C366.333 463.44 361.648 463.268 356.871 463.998C344.097 465.954 330.402 473.716 321.414 482.882C306.497 498.096 298.525 516.353 298.794 537.823C298.95 550.309 302.891 565.277 309.77 575.668C312.256 579.423 315.333 582.701 318.559 585.825C324.459 591.535 332.113 594.986 339.455 598.464C342.349 599.836 345.421 601.077 347.965 603.056C350.309 604.878 352.457 607.595 352.416 610.708C352.388 612.806 351.732 614.8 350.145 616.222C343.674 622.025 318.759 618.885 310.096 619.131C303.027 619.335 294.364 620.376 287.905 623.378C285.887 624.315 284.15 625.668 282.38 626.998C280.688 628.27 278.001 629.937 277.378 632.055C279.33 636.835 310.596 634.902 316.474 634.583C352.919 632.608 395.634 630.522 428.705 613.878C454.128 600.428 473.738 576.587 484.759 550.686C504.146 505.132 503.52 454.506 483.96 409.11C467.659 371.273 440.583 338.784 406.662 315.059C387.829 301.889 370.429 290.213 354.643 273.343C341.088 259.214 335.188 240.751 323.596 226.276C319.626 229.59 314.977 233.378 309.466 232.967C305.864 232.692 305.249 229.927 305.917 226.887C307.572 219.501 314.777 215.193 318.58 208.729C323.137 200.984 326.738 192.561 327.473 183.509C327.986 177.186 328.398 154.567 318.736 155.325C316.3 155.752 313.913 158.213 312.073 159.601C298.296 169.999 290.626 185.52 284.534 201.196C283.749 203.215 281.841 206.44 279.372 206.828C277.738 207.072 276.076 206.623 274.787 205.589C271.241 202.691 272.355 194.61 273.271 190.675ZM502.982 561.038C509.672 561.25 516.716 561.872 523.344 561.296C544.314 559.47 564.189 551.327 579.537 536.89C589.475 527.498 597.84 516.565 604.312 504.517C606.352 500.797 607.728 496.862 609.876 493.242C611.882 488.946 613.089 484.584 614.537 480.161C624.309 450.275 622.561 413.821 614.111 383.873C612.87 379.473 611.728 374.224 610.153 369.924C606.252 358.982 601.983 348.178 597.345 337.528C594.147 330.168 590.443 322.554 587.596 315.07C579.264 293.163 563.809 261.11 574.357 237.893C577.693 230.385 583.949 224.566 591.68 221.787C600.196 218.747 609.069 220.934 616.912 224.736C622.338 227.398 627.449 230.658 632.149 234.456C646.179 245.941 667.133 271.217 687.823 264.758C704.639 258.807 709.331 238.273 712.428 222.868C726.927 150.724 688.465 67.3798 621.527 35.0734C605.449 27.3131 575.31 18.9748 557.019 21.2782C525.039 23.3207 492.156 36.1898 470.233 60.6186C463.339 68.3002 455.727 79.1083 451.561 88.5268C410.482 181.436 484.909 271.596 487.699 364.094C488.018 374.674 491.83 377.498 496.453 386.617C500.564 394.818 504.273 403.211 507.574 411.769C508.915 415.285 510.241 420.3 511.32 424.051C521.066 457.653 521.999 493.2 514.033 527.271C512.262 534.561 509.887 542.473 507.566 549.629C506.336 553.41 504.104 557.43 502.982 561.038ZM28.4963 343.643C28.5143 341.85 28.7372 340.395 27.9368 338.847C26.9 337.832 26.2133 337.821 24.7692 337.831C24.1359 337.839 23.5022 337.86 22.8697 337.892C11.0945 341.001 11.0501 349.675 21.4302 354.966C27.539 358.08 34.8634 358.027 41.539 357.185C44.5633 356.638 51.1091 355.88 51.1486 351.766C48.1955 344.416 35.1227 343.666 28.4963 343.643ZM229.721 167.063C229.659 161.806 228.61 144.81 224.834 141.379C214.607 146.262 207.648 159.143 204.011 169.417C203.63 170.499 203.258 171.584 202.896 172.672C203.663 172.368 206.237 171.287 206.886 171.152C214.674 168.434 221.712 168.055 229.721 167.063ZM47.1956 376.645C49.3164 374.789 52.5609 371.903 50.1303 369.117C47.4123 368.16 42.1512 369.232 38.9878 369.54C28.9443 370.519 22.9262 367.388 13.6878 364.444C4.39255 380.726 38.109 380.934 47.1956 376.645ZM59.9743 381.395C62.4675 387.447 62.157 391.771 59.63 397.839C60.9861 398.027 64.241 396.336 65.1563 395.564C69.6155 391.924 74.7832 388.885 74.9685 382.386C75.2494 372.522 78.6053 357.688 74.1484 348.478C70.0985 340.109 64.9995 335.256 62.4779 325.296C60.4293 317.205 63.9666 304.765 62.496 298.026C61.4703 297.139 60.9189 297.11 59.351 297.159C43.0127 300.344 49.072 323.954 47.9857 335.413C60.7187 340.815 63.839 347.242 60.2326 360.536C63.1016 369.37 64.5061 372.502 60.1384 381.076L59.9743 381.395ZM16.9364 389.876C17.748 393.185 18.1181 394.234 20.6324 396.713C24.974 399.879 31.1927 400.333 36.3709 399.549C40.3647 398.907 44.2147 397.566 47.7436 395.587C48.74 393.865 52.2023 389.384 50.1284 388.089C35.1735 393.704 31.1459 391.044 16.9364 389.876ZM129.917 475.25C128.26 476.464 126.278 480.895 125.369 482.789C120.205 493.553 118.525 504.313 118.246 516.007C117.54 541.766 129.379 561.619 149.473 576.794C154.208 580.368 170.107 589.149 169.728 595.582C169.002 607.902 151.365 603.202 143.502 603.89C135.887 604.555 128.252 605.9 121.461 609.755C120.176 610.462 117.114 613.67 115.798 614.869C121.657 616.145 131.083 616.045 137.191 616.053C155.374 616.015 173.546 615.192 191.658 613.582C200.521 612.775 208.569 611.184 217.505 611.572C214.046 609.82 208.947 607.714 205.751 605.808C196.686 600.524 188.857 593.422 181.245 586.344C154.726 561.672 140.489 526.418 133.991 491.405C132.962 485.86 132.931 478.82 132.806 473.082L132.736 472.099C131.654 472.225 130.519 474.293 129.917 475.25ZM160.226 357.001C156.121 358.57 151.723 360.294 147.531 361.554C130.109 366.796 108.109 366.738 90.0906 364.352C89.4815 372.779 88.5469 377.291 86.7466 385.499C90.7381 388.32 93.4714 389.538 97.9129 391.505C107.987 397.112 129.466 401.824 141.123 403.284C145.451 392.662 146.828 381.233 152.961 370.904C154.211 368.798 160.868 358.09 160.831 357.265L160.226 357.001Z" fill="#874A97"/>
  <path d="M317.027 337.121C330.396 335.686 346.295 356.492 350.92 367.653C358.307 385.472 333.692 388.435 322.589 392.616C311.418 396.82 300.467 399.414 294.167 410.339C291.461 414.632 284.742 426.818 293.033 429.731C305.973 434.277 308.9 415.416 320.304 412.857C328.023 410.935 336.579 411.873 344.554 412.657C371.271 415.281 396.206 400.425 394.227 371.215C393.82 365.239 387.353 344.434 400.43 348.429C405.54 349.991 408.615 359.552 410.259 364.01C413.195 375.185 412.995 381.887 409.468 393.104C400.748 420.823 371.005 433.643 343.692 430.369C336.852 429.546 330.215 429.173 323.25 429.842C316.953 436.844 313.216 442.493 303.559 444.895C276.059 451.739 266.047 424.416 278.046 403.345C287.148 387.363 303.051 381.894 319.526 376.507C325.132 374.674 330.239 373.129 335.929 371.665C335.525 370.815 333.75 367.445 333.613 366.811C332.017 359.433 310.912 343.864 317.027 337.121Z" fill="#874A97"/>
  <path d="M237.983 218.784C250.524 217.421 262.429 227.369 263.403 240.05C260.421 247.906 254.635 246.514 249.976 240.914C247.746 238.233 246.296 235.729 243.215 233.907C241.674 233.509 239.906 233.158 238.334 232.806C237.156 233.152 235.626 233.554 234.524 234.173C230.622 236.364 225.824 247.811 220.331 243.798C214.416 239.476 219.16 230.825 222.741 226.543C226.967 221.488 231.47 219.368 237.983 218.784Z" fill="#874A97"/>
  <path d="M315.159 166.812C316.296 166.99 316.101 167.031 317.137 167.709C318.581 169.983 316.894 173.593 315.657 175.639C310.828 183.623 307.134 189.601 306.818 199.298C306.698 202.965 307.029 206.798 306.614 210.502L306.551 211.042C304.211 214.664 302.531 216.198 298.225 215.63C286.766 209.426 299.037 170.979 315.159 166.812Z" fill="#874A97"/>
  <path d="M129.917 475.25C130.519 474.293 131.654 472.225 132.736 472.099L132.806 473.082L131.841 475.181C130.866 475.377 130.909 475.369 129.917 475.25Z" fill="#874A97" fill-opacity="0.0117647"/>
</svg>
