<svg xmlns="http://www.w3.org/2000/svg" width="135" height="135" viewBox="0 0 135 135" fill="none">
  <path d="M0 67.5C0 49.3512 0 40.2767 2.42265 32.9433C7.1903 18.5114 18.5114 7.1903 32.9433 2.42265C40.2767 0 49.3512 0 67.5 0C85.6488 0 94.7233 0 102.057 2.42265C116.489 7.1903 127.81 18.5114 132.577 32.9433C135 40.2767 135 49.3512 135 67.5C135 85.6488 135 94.7233 132.577 102.057C127.81 116.489 116.489 127.81 102.057 132.577C94.7233 135 85.6488 135 67.5 135C49.3512 135 40.2767 135 32.9433 132.577C18.5114 127.81 7.1903 116.489 2.42265 102.057C0 94.7233 0 85.6488 0 67.5Z" fill="#30A3E6"/>
  <path d="M94.1566 41.2117C95.7133 41.3027 97.3417 41.8211 97.6379 43.5968C98.0193 45.883 97.589 48.2525 97.2953 50.5273C97.0321 52.5651 96.7191 54.6054 96.4043 56.6362C95.5184 62.2678 94.581 67.8912 93.5913 73.5055C92.6783 78.7514 91.7308 83.9913 90.7495 89.2249C90.25 91.854 89.71 94.7911 89.1295 97.3434C87.5298 104.373 83.4897 104.617 78.1528 100.656C77.0805 99.8603 75.721 98.8225 74.6074 98.0058L65.134 91.0955C62.7544 89.3523 60.1612 87.6918 57.9836 85.7098C55.0004 82.9933 56.8671 80.6532 59.1546 78.3926C60.3928 77.169 61.6779 75.885 62.9863 74.667C66.9505 71.0018 70.8709 67.2897 74.7469 63.5314C76.4297 61.882 78.1612 60.1944 79.6847 58.399C81.1083 56.7214 77.2639 57.0781 75.4161 58.2725C74.1687 59.0787 72.8912 59.9444 72.2644 60.3667C67.446 63.6129 62.5111 66.8164 57.7171 70.0912C55.88 71.3635 54.0331 72.6215 52.1765 73.8651C50.7227 74.8475 49.2713 75.8643 47.7104 76.6724C46.4457 77.3273 45.0772 77.84 43.6468 77.9436C42.6582 78.0152 41.6602 77.8802 40.6921 77.6843C38.021 77.1441 28.1202 74.1702 26.3053 72.5681C25.8244 72.1434 25.4528 71.5871 25.4272 70.9271C25.405 70.3543 25.6782 69.8444 26.0494 69.4279C26.6569 68.7461 27.5155 68.2239 28.3208 67.8104C30.6987 66.5895 33.2902 65.6172 35.7468 64.5567L49.4271 58.6447C58.3622 54.7724 67.3372 50.993 76.3509 47.3075C80.6519 45.5771 89.8366 41.4811 94.1566 41.2117Z" fill="#FEFEFE"/>
</svg>
