<svg width="56" height="36" viewBox="0 0 56 36" fill="none" xmlns="http://www.w3.org/2000/svg">
<path d="M10.9674 0H24.9444C26.8953 0 28.11 1.59086 27.6542 3.54933L21.1468 31.4861C20.6867 33.4392 18.7347 35.03 16.7827 35.03H2.80566C0.853641 35.03 -0.359921 33.4392 0.0958382 31.4861L6.60762 3.54933C7.06123 1.58978 9.01218 0 10.9685 0" fill="#ED171F"/>
<path d="M23.7814 0H39.8555C41.8064 0 40.9272 1.59086 40.4682 3.54933L33.9607 31.4861C33.506 33.4392 33.649 35.03 31.6927 35.03H15.6207C13.6665 35.03 12.4562 33.4392 12.9152 31.4861L19.4205 3.54933C19.8805 1.58978 21.8304 0 23.7825 0" fill="#082F67"/>
<path d="M39.2202 0H53.195C55.1471 0 56.3606 1.59086 55.9038 3.54933L49.3963 31.4861C48.9395 33.4392 46.9874 35.03 45.029 35.03H31.0584C29.1032 35.03 27.8918 33.4392 28.3497 31.4861L34.855 3.54933C35.3129 1.58978 37.2639 0 39.2202 0Z" fill="#006A65"/>
<path fill-rule="evenodd" clip-rule="evenodd" d="M36.8834 26.2824H38.2012L38.5817 25.0151H37.2639L36.8823 26.2824H36.8834ZM37.9389 22.7858L37.4864 24.2842C37.4864 24.2842 37.9862 24.0273 38.256 23.9478C38.5269 23.8854 38.9364 23.8338 38.9364 23.8338L39.2568 22.7858H37.9389ZM38.5935 20.6295L38.1561 22.0699C38.1561 22.0699 38.6451 21.8496 38.9139 21.7754C39.1847 21.7055 39.5921 21.6776 39.5921 21.6776L39.9081 20.6285L38.5935 20.6295ZM41.5076 20.6295L39.805 26.2653H40.2618L39.9081 27.4304H39.4502L39.3438 27.7916H37.7229L37.8336 27.4304H34.539L34.8701 26.3512H35.2022L36.9307 20.6285L37.2757 19.4719H38.9289L38.7559 20.0566C38.7559 20.0566 39.1966 19.7384 39.6136 19.6299C40.0318 19.5202 42.4288 19.4805 42.4288 19.4805L42.0741 20.6285L41.5076 20.6295Z" fill="white"/>
<path d="M42.2375 19.4816H44.0024L44.0229 20.1394C44.0121 20.2501 44.1078 20.3028 44.312 20.3028H44.671L44.3432 21.3884H43.3908C42.5642 21.4497 42.2525 21.0939 42.2708 20.6951L42.2396 19.4816H42.2375Z" fill="white"/>
<path d="M42.4696 24.6336H40.7874L41.0765 23.6651H42.9995L43.2747 22.7837H41.3754L41.7021 21.6927H46.9864L46.6553 22.7837H44.8838L44.6065 23.6651H46.3823L46.0899 24.6336H44.1669L43.8272 25.041H44.6065L44.7957 26.2589C44.8162 26.3793 44.8194 26.4577 44.857 26.5104C44.8967 26.5555 45.13 26.576 45.2654 26.576H45.5019L45.1429 27.7616H44.5431C44.4507 27.7616 44.3131 27.7541 44.125 27.7433C43.9433 27.7272 43.8143 27.6229 43.6939 27.5649C43.5832 27.5101 43.4188 27.3768 43.3812 27.15L43.193 25.9343L42.3202 27.1338C42.0429 27.5111 41.6667 27.7992 41.0336 27.7992H39.8082L40.1285 26.7415H40.5961C40.7315 26.7415 40.8508 26.6888 40.939 26.6426C41.0293 26.605 41.1088 26.5588 41.1991 26.4266L42.4707 24.6325L42.4696 24.6336Z" fill="white"/>
<path d="M24.0436 21.986H28.498L28.1691 23.0502H26.388L26.1106 23.9542H27.9326L27.6005 25.0527H25.7796L25.3378 26.5264C25.283 26.6898 25.7678 26.7124 25.944 26.7124L26.8566 26.5866L26.4912 27.8002H24.436C24.2747 27.8002 24.1479 27.7776 23.9684 27.7368C23.7953 27.6938 23.719 27.6164 23.6416 27.4981C23.5674 27.3777 23.4535 27.2799 23.5309 27.023L24.121 25.071H23.1095L23.4449 23.9542H24.4618L24.7316 23.0502H23.719L24.0436 21.986Z" fill="white"/>
<path d="M27.0437 20.076H28.871L28.5367 21.1874H26.0408L25.7699 21.4207C25.6549 21.5335 25.6141 21.4862 25.4636 21.5679C25.3228 21.6399 25.025 21.7797 24.6413 21.7797H23.8405L24.1662 20.7102H24.4069C24.6101 20.7102 24.7488 20.693 24.8186 20.6478C24.8982 20.5984 24.9863 20.4844 25.0895 20.3006L25.5474 19.4665H27.3651L27.0469 20.0749L27.0437 20.076Z" fill="white"/>
<path fill-rule="evenodd" clip-rule="evenodd" d="M30.5489 21.9044C30.5489 21.9044 31.0466 21.4497 31.9001 21.3014C32.0936 21.2638 33.3082 21.2756 33.3082 21.2756L33.492 20.665H30.9198L30.5489 21.9044ZM32.9599 22.3698H30.4071L30.2512 22.8858H32.459C32.7202 22.8535 32.774 22.8901 32.7955 22.8783L32.9599 22.3698ZM29.6546 19.4816H31.2111L30.9843 20.2652C30.9843 20.2652 31.4744 19.8739 31.8195 19.7331C32.1624 19.6041 32.9385 19.4891 32.9385 19.4891L35.4569 19.4762L34.5992 22.3344C34.4551 22.8245 34.2874 23.1416 34.1821 23.2857C34.0864 23.4329 33.9747 23.5565 33.7543 23.6758C33.5426 23.7898 33.3491 23.8554 33.1717 23.8726C33.004 23.8854 32.7493 23.8919 32.3956 23.8951H29.9706L29.2859 26.1567C29.2214 26.3803 29.1892 26.4856 29.2322 26.5458C29.2687 26.6007 29.3504 26.6619 29.4644 26.6619L30.5339 26.5609L30.1695 27.8013H28.9699C28.5894 27.8013 28.311 27.7927 28.1164 27.7787C27.9326 27.7648 27.7391 27.7787 27.6112 27.6788C27.4983 27.581 27.3285 27.4531 27.3328 27.3198C27.3457 27.1972 27.3952 26.993 27.4747 26.7146L29.6546 19.4837V19.4816Z" fill="white"/>
<path d="M34.1929 24.095L34.0499 24.7819C33.9865 24.9958 33.9338 25.1592 33.7715 25.2968C33.6038 25.4397 33.4018 25.5913 32.9342 25.5913L32.0721 25.6257L32.0646 26.4029C32.0527 26.6232 32.1119 26.6006 32.1484 26.6361C32.1882 26.6727 32.2226 26.6909 32.2624 26.7028L32.5343 26.6909L33.3598 26.6426L33.0202 27.7766H32.0732C31.4099 27.7766 30.9177 27.7626 30.7553 27.6326C30.5973 27.5326 30.5758 27.4047 30.5801 27.1875L30.6403 24.1617H32.1506L32.1312 24.7798H32.4956C32.6192 24.7798 32.7009 24.7669 32.7546 24.7346C32.7987 24.6981 32.8331 24.6508 32.8568 24.5755L33.004 24.0929H34.1929V24.095Z" fill="white"/>
<path d="M12.6217 8.92598C12.5669 9.16891 11.5973 13.6459 11.5941 13.648C11.3845 14.5531 11.2361 15.2013 10.7191 15.6151C10.4256 15.8559 10.0828 15.9741 9.6872 15.9741C9.05085 15.9741 8.67788 15.6581 8.61446 15.0572L8.60262 14.8519C8.60262 14.8519 8.79611 13.6373 8.79826 13.6319C8.79826 13.6319 9.81619 9.55265 9.99785 9.01519C10.0064 8.9851 10.0097 8.97005 10.014 8.95393C8.03186 8.9722 7.67927 8.95392 7.6567 8.9249C7.64487 8.96467 7.5922 9.21835 7.5922 9.21835L6.55279 13.8125L6.46249 14.2048L6.29266 15.4786C6.29266 15.8548 6.36683 16.1655 6.51409 16.4256C6.98812 17.2554 8.34034 17.3779 9.10353 17.3779C10.0892 17.3779 11.0104 17.1673 11.6339 16.7878C12.7174 16.1472 13.0022 15.1432 13.2548 14.2564L13.372 13.8017C13.372 13.8017 14.4211 9.56554 14.6006 9.01412C14.606 8.98402 14.6092 8.96897 14.6167 8.95285C13.1806 8.96897 12.7582 8.95285 12.6217 8.92383" fill="white"/>
<path d="M18.4219 17.3339C17.7178 17.3242 17.4716 17.3242 16.6493 17.3661L16.6171 17.3049C16.6902 16.9921 16.7676 16.6846 16.8364 16.3665L16.9374 15.9397C17.0901 15.2733 17.2395 14.4994 17.2567 14.265C17.2706 14.1221 17.3179 13.7684 16.9138 13.7684C16.7429 13.7684 16.5644 13.8523 16.3849 13.934C16.286 14.2887 16.085 15.2808 15.9926 15.7366C15.7873 16.6911 15.7744 16.7997 15.6841 17.2726L15.625 17.335C14.8994 17.3253 14.65 17.3253 13.8159 17.3672L13.7762 17.2984C13.9159 16.7298 14.0545 16.1579 14.1878 15.5915C14.5372 14.0533 14.6199 13.4642 14.7177 12.6828L14.7833 12.6366C15.597 12.5226 15.7937 12.5 16.673 12.3195L16.7472 12.4022L16.615 12.8913C16.7633 12.8042 16.9041 12.7139 17.0578 12.6366C17.4727 12.4323 17.9349 12.3721 18.1886 12.3721C18.5724 12.3721 18.9937 12.4807 19.17 12.9246C19.3377 13.3223 19.227 13.8125 19.0077 14.7767L18.8938 15.2668C18.668 16.3407 18.6304 16.5363 18.5046 17.2726L18.4219 17.3339Z" fill="white"/>
<path d="M21.2768 17.3338C20.8544 17.3317 20.5824 17.3242 20.3159 17.3317C20.0514 17.3338 19.7935 17.3478 19.4001 17.3661L19.3764 17.3317L19.3495 17.2973C19.457 16.8899 19.5183 16.748 19.5699 16.6029C19.6236 16.4599 19.6763 16.3148 19.7687 15.9021C19.8913 15.3635 19.9676 14.9873 20.0214 14.6584C20.0773 14.3391 20.1095 14.0683 20.1493 13.7533L20.1826 13.7286L20.217 13.6985C20.6373 13.6383 20.9071 13.5996 21.1779 13.5577C21.4542 13.5179 21.7326 13.4642 22.1679 13.3814L22.1851 13.4201L22.197 13.4588C22.1153 13.792 22.0336 14.1242 21.954 14.4638C21.8767 14.8003 21.7939 15.1314 21.7208 15.4667C21.5617 16.1751 21.4994 16.4384 21.4617 16.6276C21.4273 16.8082 21.4155 16.906 21.3531 17.2736L21.3145 17.307L21.2758 17.336L21.2768 17.3338Z" fill="white"/>
<path d="M25.7549 14.8358C25.7162 15.0175 25.5582 15.6958 25.34 15.9849C25.1895 16.1967 25.011 16.3246 24.8132 16.3246C24.7573 16.3246 24.4112 16.3246 24.4037 15.8086C24.3994 15.5549 24.4532 15.2905 24.5155 15.01C24.7004 14.1909 24.9196 13.504 25.4754 13.504C25.9139 13.504 25.943 14.0146 25.7538 14.8358M27.5919 14.9154C27.8391 13.834 27.6488 13.3288 27.4081 13.0193C27.0404 12.5517 26.3944 12.4012 25.7237 12.4012C25.3206 12.4012 24.3607 12.442 23.6093 13.1353C23.073 13.633 22.8215 14.3113 22.6699 14.9595C22.5183 15.6194 22.3442 16.8137 23.4395 17.2565C23.7792 17.3995 24.264 17.4393 24.5789 17.4393C25.3819 17.4393 26.2052 17.2178 26.8212 16.5621C27.3016 16.029 27.5188 15.2379 27.5929 14.9143" fill="white"/>
<path d="M44.7785 17.407C43.9315 17.3995 43.6875 17.3995 42.9028 17.4328L42.8501 17.3694C43.064 16.5632 43.279 15.7592 43.4682 14.9444C43.7133 13.8867 43.7703 13.4374 43.8519 12.8182L43.9154 12.7655C44.757 12.6452 44.9903 12.6118 45.8685 12.4495L45.8953 12.5215C45.7352 13.1848 45.574 13.849 45.4202 14.5144C45.0967 15.9096 44.9785 16.618 44.8548 17.3468L44.7774 17.407H44.7785Z" fill="white"/>
<path d="M43.5037 14.9294C43.4628 15.1024 43.3038 15.7882 43.0856 16.072C42.9415 16.2762 42.5997 16.4041 42.403 16.4041C42.3471 16.4041 42.0031 16.4041 41.9902 15.8936C41.9881 15.642 42.0407 15.3776 42.1063 15.0938C42.2912 14.292 42.5105 13.6083 43.0662 13.6083C43.5048 13.6083 43.6929 14.106 43.5037 14.9283M45.1816 15.01C45.4278 13.934 44.4367 14.9154 44.2776 14.5596C44.0336 14.0071 44.1863 12.8828 43.2092 12.5087C42.834 12.3625 41.9515 12.5517 41.198 13.2396C40.6649 13.7352 40.4101 14.4059 40.2618 15.0541C40.1102 15.7054 39.9361 16.8964 41.025 17.3243C41.3689 17.4704 41.6849 17.5124 41.9988 17.4995C43.0952 17.4393 43.9304 15.7861 44.5474 15.1304C45.0247 14.6123 45.1085 15.326 45.1805 15.01" fill="white"/>
<path d="M32.3935 17.3339C31.6883 17.3242 31.4497 17.3242 30.621 17.3661L30.5909 17.3049C30.6607 16.9921 30.7403 16.6846 30.8144 16.3665L30.9133 15.9397C31.066 15.2733 31.2154 14.4994 31.2315 14.265C31.2455 14.1221 31.2928 13.7684 30.8908 13.7684C30.7166 13.7684 30.5414 13.8523 30.3598 13.934C30.2619 14.2887 30.0599 15.2808 29.9631 15.7366C29.7621 16.6911 29.7492 16.7997 29.6579 17.2726L29.5977 17.335C28.8732 17.3253 28.6238 17.3253 27.7918 17.3672L27.7542 17.2984C27.8929 16.7298 28.0294 16.1579 28.1626 15.5915C28.512 14.0533 28.5948 13.4642 28.6915 12.6828L28.7571 12.6366C29.5697 12.5226 29.7675 12.5 30.6468 12.3195L30.7166 12.4022L30.5898 12.8913C30.7338 12.8042 30.8811 12.7139 31.0316 12.6366C31.4433 12.4323 31.9087 12.3721 32.1581 12.3721C32.544 12.3721 32.9653 12.4807 33.147 12.9246C33.3125 13.3223 33.2007 13.8125 32.9793 14.7767L32.8686 15.2668C32.6386 16.3407 32.6031 16.5363 32.4806 17.2726L32.3935 17.3339Z" fill="white"/>
<path d="M38.485 8.91744L37.9013 8.92496C36.3814 8.94216 35.773 8.93464 35.5225 8.90454C35.4967 9.01526 35.458 9.21304 35.458 9.21304L34.9152 11.7391C34.9152 11.7391 33.6135 17.1039 33.5522 17.3565C34.8776 17.3415 35.4226 17.3415 35.6494 17.3651C35.701 17.1136 36.0116 15.6152 36.0116 15.6152C36.0116 15.6152 36.276 14.5145 36.2922 14.4736C36.2922 14.4736 36.3738 14.3607 36.4588 14.3156H36.5792C37.7218 14.3156 39.016 14.3156 40.0275 13.5696C40.7143 13.059 41.1894 12.3045 41.3979 11.3897C41.4538 11.1651 41.4936 10.8953 41.4936 10.6287C41.4936 10.2783 41.4227 9.93107 41.2174 9.65805C40.7014 8.93464 39.6749 8.92496 38.485 8.91744ZM39.246 11.5445C39.1213 12.1013 38.7601 12.5753 38.2925 12.8032C37.9056 12.9967 37.4358 13.0117 36.9489 13.0117H36.6361L36.6598 12.8871C36.6598 12.8871 37.2402 10.3686 37.237 10.3761L37.2531 10.2471L37.2639 10.1471L37.495 10.1719C37.495 10.1719 38.687 10.275 38.7171 10.2783C39.189 10.4578 39.3814 10.9307 39.246 11.5445Z" fill="white"/>
<path d="M51.7235 12.4421L51.6558 12.3668C50.7905 12.5399 50.6314 12.57 49.8338 12.6753L49.7736 12.7334C49.7704 12.743 49.7682 12.7592 49.7661 12.771L49.7618 12.7592C49.1684 14.1318 49.1867 13.8351 48.703 14.9133C48.6998 14.8617 48.6987 14.8294 48.6976 14.7789L48.5772 12.4421L48.5009 12.3668C47.5937 12.5399 47.57 12.57 46.7305 12.6753L46.6639 12.7334C46.6574 12.7635 46.6553 12.7946 46.651 12.8269L46.6575 12.8398C46.7617 13.3783 46.7381 13.2579 46.8413 14.1017C46.8907 14.5156 46.9541 14.9358 47.0036 15.3454C47.0874 16.0312 47.1336 16.3708 47.2325 17.4167C46.6682 18.3551 46.5317 18.7088 45.991 19.5311L46.02 19.6052C46.8402 19.5751 47.0304 19.5751 47.6367 19.5751L47.771 19.4257C48.229 18.4368 51.7224 12.4431 51.7224 12.4431" fill="white"/>
<path d="M22.0497 13.0225C22.513 12.6989 22.5721 12.2518 22.1798 12.0185C21.7821 11.7853 21.0898 11.8584 20.6212 12.183C20.1504 12.5022 20.0977 12.9515 20.4911 13.1848C20.8845 13.4138 21.58 13.346 22.0486 13.0225" fill="white"/>
<path d="M47.7109 19.5062L47.0272 20.6757C46.8112 21.0745 46.4102 21.3744 45.7739 21.3766L44.6861 21.3583L45.0021 20.3049H45.2128C45.3246 20.3049 45.4063 20.2974 45.4697 20.2673C45.5235 20.2501 45.5632 20.2071 45.6073 20.1447L46.0082 19.5062H47.7109Z" fill="white"/>
</svg>
