<svg width="21" height="21" viewBox="0 0 21 21" fill="none" xmlns="http://www.w3.org/2000/svg">
<path d="M4.0425 15.855C4.935 15.1725 5.9325 14.6344 7.035 14.2406C8.1375 13.8469 9.2925 13.65 10.5 13.65C11.7075 13.65 12.8625 13.8469 13.965 14.2406C15.0675 14.6344 16.065 15.1725 16.9575 15.855C17.57 15.1375 18.0469 14.3238 18.3881 13.4137C18.7294 12.5037 18.9 11.5325 18.9 10.5C18.9 8.1725 18.0819 6.19063 16.4456 4.55438C14.8094 2.91813 12.8275 2.1 10.5 2.1C8.1725 2.1 6.19063 2.91813 4.55438 4.55438C2.91813 6.19063 2.1 8.1725 2.1 10.5C2.1 11.5325 2.27062 12.5037 2.61187 13.4137C2.95312 14.3238 3.43 15.1375 4.0425 15.855ZM10.5 11.55C9.4675 11.55 8.59688 11.1956 7.88812 10.4869C7.17938 9.77812 6.825 8.9075 6.825 7.875C6.825 6.8425 7.17938 5.97188 7.88812 5.26313C8.59688 4.55438 9.4675 4.2 10.5 4.2C11.5325 4.2 12.4031 4.55438 13.1119 5.26313C13.8206 5.97188 14.175 6.8425 14.175 7.875C14.175 8.9075 13.8206 9.77812 13.1119 10.4869C12.4031 11.1956 11.5325 11.55 10.5 11.55ZM10.5 21C9.0475 21 7.6825 20.7244 6.405 20.1731C5.1275 19.6219 4.01625 18.8738 3.07125 17.9288C2.12625 16.9838 1.37812 15.8725 0.826875 14.595C0.275625 13.3175 0 11.9525 0 10.5C0 9.0475 0.275625 7.6825 0.826875 6.405C1.37812 5.1275 2.12625 4.01625 3.07125 3.07125C4.01625 2.12625 5.1275 1.37812 6.405 0.826875C7.6825 0.275625 9.0475 0 10.5 0C11.9525 0 13.3175 0.275625 14.595 0.826875C15.8725 1.37812 16.9838 2.12625 17.9288 3.07125C18.8738 4.01625 19.6219 5.1275 20.1731 6.405C20.7244 7.6825 21 9.0475 21 10.5C21 11.9525 20.7244 13.3175 20.1731 14.595C19.6219 15.8725 18.8738 16.9838 17.9288 17.9288C16.9838 18.8738 15.8725 19.6219 14.595 20.1731C13.3175 20.7244 11.9525 21 10.5 21Z" fill="#341539"/>
</svg>
