<svg width="263" height="85" viewBox="0 0 263 85" fill="none" xmlns="http://www.w3.org/2000/svg">
<path d="M170.9 0C152.3 0 135.6 9.7 135.6 27.5C135.6 48 165.1 49.4 165.1 59.6C165.1 63.9 160.1 67.8 151.7 67.8C139.7 67.8 130.7 62.4 130.7 62.4L126.9 80.4C126.9 80.4 137.2 85 151 85C171.4 85 187.4 74.9 187.4 56.7C187.4 35.1 157.8 33.7 157.8 24.2C157.8 20.8 161.9 17.1 170.3 17.1C179.8 17.1 187.6 21 187.6 21L191.4 3.6C191.3 3.6 182.8 0 170.9 0ZM0.5 1.3L0 3.9C0 3.9 7.8 5.3 14.9 8.2C24 11.5 24.6 13.4 26.2 19.3L42.9 83.6H65.3L99.6 1.3H77.3L55.2 57.3L46.2 9.8C45.4 4.4 41.2 1.3 36 1.3H0.5ZM108.6 1.3L91.1 83.6H112.4L129.8 1.3H108.6ZM227.2 1.3C222.1 1.3 219.4 4 217.4 8.8L186.2 83.6H208.5L212.8 71.1H240L242.6 83.6H262.3L245.2 1.3H227.2ZM230.1 23.6L236.7 54.5H219L230.1 23.6Z" fill="#1434CB"/>
</svg>
