<svg xmlns="http://www.w3.org/2000/svg" width="13" height="13" viewBox="0 0 13 13" fill="none">
  <path d="M5.57143 8.02857C5.57143 7.6972 5.3028 7.42857 4.97143 7.42857H0.6C0.268629 7.42857 0 7.15994 0 6.82857V6.17143C0 5.84006 0.268629 5.57143 0.6 5.57143H4.97143C5.3028 5.57143 5.57143 5.3028 5.57143 4.97143V0.6C5.57143 0.268629 5.84006 0 6.17143 0H6.82857C7.15994 0 7.42857 0.268629 7.42857 0.6V4.97143C7.42857 5.3028 7.6972 5.57143 8.02857 5.57143H12.4C12.7314 5.57143 13 5.84006 13 6.17143V6.82857C13 7.15994 12.7314 7.42857 12.4 7.42857H8.02857C7.6972 7.42857 7.42857 7.6972 7.42857 8.02857V12.4C7.42857 12.7314 7.15994 13 6.82857 13H6.17143C5.84006 13 5.57143 12.7314 5.57143 12.4V8.02857Z" fill="#341539"/>
</svg>
