<svg xmlns="http://www.w3.org/2000/svg" width="51" height="32" viewBox="0 0 51 32" fill="none">
  <path d="M48.4468 19.0075L45.45 20.0169L42.8475 5.7269L49.5351 3.04555C49.7278 2.96891 49.9034 2.85508 50.0521 2.71056C50.2007 2.56604 50.3194 2.39365 50.4014 2.20325C50.4835 2.01285 50.5272 1.80816 50.5301 1.60086C50.533 1.39357 50.4951 1.18773 50.4184 0.995097C50.3418 0.802467 50.228 0.626817 50.0834 0.478178C49.9389 0.329538 49.7665 0.210819 49.5761 0.1288C49.3857 0.046781 49.181 0.00306806 48.9737 0.000155783C48.7664 -0.00275649 48.5606 0.0351896 48.368 0.111828L40.4816 3.26636C40.138 3.39669 39.8506 3.64295 39.6692 3.9626C39.4877 4.28226 39.4236 4.65524 39.488 5.01713V5.30104L35.7183 7.17798C35.4564 7.31085 35.1626 7.36795 34.87 7.34287C34.5774 7.31779 34.2976 7.21152 34.0622 7.03603L30.2294 4.10231C29.4103 3.48802 28.4141 3.15595 27.3903 3.15595H23.1159C22.535 3.15624 21.9655 3.31692 21.4701 3.62028C20.9747 3.92363 20.5727 4.35789 20.3084 4.87517L17.4851 4.73322C17.2116 4.72164 16.9398 4.78143 16.6964 4.90672L14.0624 6.21585L9.51987 5.08022V4.87517C9.55342 4.55517 9.48829 4.23256 9.33323 3.95063C9.17817 3.66871 8.94059 3.44094 8.65238 3.29791L2.34331 0.143373C1.97566 -0.00972428 1.5637 -0.0180759 1.19015 0.119995C0.816594 0.258067 0.5091 0.532338 0.3294 0.887745C0.1497 1.24315 0.111099 1.65338 0.221346 2.03607C0.331594 2.41876 0.582528 2.74558 0.923768 2.95091L6.2707 5.63226L4.97734 19.9223L2.13826 18.9759C1.93424 18.9097 1.71916 18.8842 1.5053 18.9011C1.29145 18.9179 1.083 18.9767 0.891866 19.0741C0.700732 19.1715 0.530654 19.3056 0.391341 19.4687C0.252029 19.6318 0.146211 19.8208 0.0799299 20.0248C0.0136484 20.2288 -0.0117988 20.4439 0.00504117 20.6578C0.0218812 20.8716 0.0806786 21.0801 0.178076 21.2712C0.275474 21.4624 0.409565 21.6324 0.572692 21.7717C0.73582 21.9111 0.92479 22.0169 1.12881 22.0832L5.86061 23.6604C6.02809 23.6832 6.19787 23.6832 6.36534 23.6604C6.67172 23.6544 6.97103 23.5673 7.23284 23.4081C7.43303 23.2775 7.60095 23.1032 7.72391 22.8983C7.84687 22.6934 7.92165 22.4632 7.94261 22.2251L8.06879 20.7583L10.1035 21.7677C10.2922 22.9384 10.9039 23.9991 11.8227 24.7487L20.9235 31.2786C21.247 31.5456 21.6205 31.7453 22.0222 31.8662C22.4238 31.987 22.8455 32.0266 23.2626 31.9825C23.6797 31.9385 24.0838 31.8117 24.4513 31.6096C24.8188 31.4075 25.1424 31.1341 25.403 30.8055C26.0032 31.0336 26.6447 31.1332 27.2859 31.0979C27.9271 31.0625 28.5537 30.8931 29.1253 30.6004L37.6583 26.3418C38.1734 26.0816 38.6192 25.7029 38.9593 25.2367C39.2993 24.7706 39.5237 24.2303 39.6141 23.6604C39.6299 23.4926 39.6299 23.3236 39.6141 23.1557L42.6109 22.162V22.3513C42.6509 22.5726 42.7377 22.7828 42.8656 22.9678C42.9934 23.1527 43.1594 23.3082 43.3523 23.4238C43.6123 23.5852 43.9138 23.6674 44.2198 23.6604C44.3908 23.6573 44.5606 23.6307 44.7245 23.5816L49.4563 22.0043C49.6531 21.938 49.8349 21.8336 49.9913 21.6971C50.1477 21.5605 50.2757 21.3945 50.368 21.2085C50.4603 21.0225 50.515 20.8202 50.5291 20.613C50.5431 20.4058 50.5162 20.1979 50.45 20.0012C50.3837 19.8044 50.2793 19.6226 50.1427 19.4662C50.0062 19.3097 49.8402 19.1817 49.6542 19.0895C49.4682 18.9972 49.2658 18.9425 49.0587 18.9284C48.8515 18.9143 48.6436 18.9412 48.4468 19.0075ZM13.747 22.2567C13.4975 22.049 13.3182 21.7694 13.2336 21.4561C13.1489 21.1428 13.1629 20.8109 13.2738 20.5059C13.2896 20.4512 13.3199 20.4017 13.3616 20.3628C13.4032 20.324 13.4547 20.2971 13.5104 20.2851C13.605 20.2851 13.7312 20.2851 13.9205 20.4113L23.4629 27.3039L22.9424 28.8812L13.747 22.2567ZM36.2388 23.5185L27.7058 27.7771C27.3344 27.9657 26.9034 27.9997 26.507 27.8717C26.6087 27.3115 26.5568 26.7341 26.3569 26.2009C26.1569 25.6678 25.8164 25.1987 25.3714 24.8434L15.9078 17.9507C15.4591 17.5937 14.9296 17.3524 14.3658 17.2478C13.8021 17.1433 13.2212 17.1789 12.6744 17.3514C11.9217 17.5691 11.2654 18.0363 10.8132 18.6763L8.66815 17.6037C8.57812 17.563 8.48237 17.5364 8.38424 17.5249L9.22019 8.32939L13.952 9.49657L14.2517 9.46502C14.4986 9.46354 14.7417 9.40411 14.9614 9.29152L17.7374 7.88775H18.7627L17.5797 10.2694C17.3926 10.6419 17.3606 11.0733 17.4907 11.4694C17.6207 11.8654 17.9022 12.1939 18.2737 12.383L18.6049 12.5565C19.6317 13.0717 20.8109 13.1958 21.9225 12.9055C23.034 12.6153 24.002 11.9306 24.6459 10.9792H26.2231L36.2861 22.4775C36.3275 22.5597 36.375 22.6388 36.4281 22.7141C36.4822 22.7627 36.5224 22.8248 36.5446 22.8941C36.5667 22.9634 36.5701 23.0374 36.5542 23.1084C36.5612 23.1908 36.5441 23.2735 36.5049 23.3463C36.4656 23.4191 36.4061 23.4789 36.3334 23.5185H36.2388ZM38.3839 20.2535L28.037 8.42403C27.891 8.25776 27.7116 8.12409 27.5105 8.03169C27.3094 7.9393 27.0911 7.89026 26.8698 7.88775H23.7153C23.424 7.88864 23.1387 7.97016 22.8909 8.12328C22.6431 8.2764 22.4426 8.49514 22.3115 8.75525L22.138 9.08648C21.9708 9.41887 21.6915 9.68144 21.3494 9.82779L23.1159 6.31049H27.3903C27.7316 6.31049 28.0637 6.42118 28.3367 6.62594L32.2483 9.55966C32.9515 10.0856 33.7873 10.4054 34.6619 10.4834C35.5366 10.5614 36.4157 10.3945 37.2009 10.0013L40.1504 8.53443L42.0589 19.039L38.3839 20.2535Z" fill="#341539"/>
</svg>
