<svg xmlns="http://www.w3.org/2000/svg" width="580" height="680" viewBox="0 0 580 680" fill="none">
  <path d="M23.3335 656.667V606.667C23.3335 505.413 105.414 423.333 206.667 423.333H373.333C474.587 423.333 556.667 505.413 556.667 606.667V656.667M156.667 656.667V573.333M423.333 656.667V567.777M173.333 173.333C240.467 230.877 339.533 230.877 406.667 173.333M423.333 190V120.918L472.19 49.4018C479.75 38.3395 471.827 23.3335 458.43 23.3335H121.571C108.173 23.3335 100.252 38.3395 107.809 49.4018L156.667 120.918V190M423.333 223.333C423.333 296.97 363.637 356.667 290 356.667C216.362 356.667 156.667 296.97 156.667 223.333V140H423.333V223.333Z" stroke="#341539" stroke-width="46.6667" stroke-linecap="round" stroke-linejoin="round"/>
</svg>
