<svg xmlns="http://www.w3.org/2000/svg" width="32" height="35" viewBox="0 0 32 35" fill="none">
    <path d="M1.33301 7.73301L6.2219 1.33301H25.7775L30.6663 7.73301M1.33301 7.73301V30.133C1.33301 30.9817 1.67639 31.7956 2.28762 32.3958C2.89885 32.9959 3.72786 33.333 4.59227 33.333H27.4071C28.2715 33.333 29.1005 32.9959 29.7117 32.3958C30.323 31.7956 30.6663 30.9817 30.6663 30.133V7.73301M1.33301 7.73301H30.6663M22.5182 14.133C22.5182 15.8304 21.8314 17.4583 20.609 18.6585C19.3865 19.8587 17.7285 20.533 15.9997 20.533C14.2709 20.533 12.6128 19.8587 11.3904 18.6585C10.1679 17.4583 9.48116 15.8304 9.48116 14.133" stroke="#341539" stroke-width="2.66667" stroke-linecap="round" stroke-linejoin="round"/>
</svg>
