<svg xmlns="http://www.w3.org/2000/svg" width="21" height="19" viewBox="0 0 21 19" fill="none">
  <path fill-rule="evenodd" clip-rule="evenodd" d="M11.1842 0.684881C11.1842 0.503239 11.112 0.329037 10.9836 0.200597C10.8551 0.0721568 10.6809 0 10.4993 0C10.3176 0 10.1434 0.0721568 10.015 0.200597C9.88655 0.329037 9.81439 0.503239 9.81439 0.684881V2.28294H8.01178C7.69098 2.28279 7.37756 2.37921 7.11231 2.55963L5.56447 3.61343C5.52648 3.63917 5.48161 3.65285 5.43572 3.6527H1.68987C1.50823 3.6527 1.33403 3.72486 1.20559 3.8533C1.07715 3.98174 1.00499 4.15594 1.00499 4.33758C1.00499 4.51922 1.07715 4.69343 1.20559 4.82187C1.33403 4.95031 1.50823 5.02246 1.68987 5.02246H3.12995L0.0552879 12.0356C-0.00278906 12.1725 -0.0155043 12.3244 0.0190054 12.469C0.0535152 12.6136 0.133436 12.7434 0.247055 12.8392C0.320109 12.8977 0.394076 12.9534 0.529226 13.0411C0.699076 13.1515 0.941981 13.2949 1.25246 13.4365C1.87342 13.7205 2.77016 14.0026 3.87875 14.0026C4.78465 14.0044 5.68032 13.8113 6.50504 13.4365C6.81552 13.2949 7.05843 13.1515 7.22828 13.0411C7.36525 12.9525 7.43831 12.8968 7.51136 12.8374C7.62589 12.7426 7.70646 12.6131 7.74089 12.4685C7.77532 12.3238 7.76174 12.1719 7.70222 12.0356L4.62664 5.02246H5.43572C5.75624 5.02246 6.06946 4.92567 6.33428 4.74577L7.88302 3.69197C7.92076 3.66641 7.96529 3.65273 8.01087 3.6527H9.81439V16.8937H5.71697C5.53533 16.8937 5.36113 16.9659 5.23269 17.0943C5.10425 17.2228 5.03209 17.397 5.03209 17.5786C5.03209 17.7603 5.10425 17.9345 5.23269 18.0629C5.36113 18.1913 5.53533 18.2635 5.71697 18.2635H15.2816C15.4632 18.2635 15.6374 18.1913 15.7659 18.0629C15.8943 17.9345 15.9664 17.7603 15.9664 17.5786C15.9664 17.397 15.8943 17.2228 15.7659 17.0943C15.6374 16.9659 15.4632 16.8937 15.2816 16.8937H11.1842V3.6527H12.9868C13.0324 3.6527 13.0781 3.6664 13.1146 3.69197L14.6643 4.74577C14.9291 4.92567 15.2423 5.02246 15.5628 5.02246H16.3719L13.2963 12.0356C13.2348 12.1759 13.2221 12.3327 13.2602 12.481C13.2982 12.6293 13.3849 12.7606 13.5064 12.8539C13.5173 12.8621 13.5064 12.8539 13.5082 12.8539C13.5988 12.9221 13.6933 12.9849 13.7913 13.042C13.9602 13.1442 14.2022 13.2757 14.5127 13.4072C15.3384 13.7524 16.2248 13.9287 17.1198 13.9259C18.0151 13.9286 18.9019 13.7519 19.7278 13.4063C20.0365 13.2757 20.2794 13.1442 20.4492 13.042C20.5469 12.9843 20.6414 12.9215 20.7323 12.8539C20.8537 12.7606 20.9404 12.6293 20.9785 12.481C21.0166 12.3327 21.0038 12.1759 20.9423 12.0356L17.8686 5.02246H19.3096C19.4912 5.02246 19.6654 4.95031 19.7939 4.82187C19.9223 4.69343 19.9945 4.51922 19.9945 4.33758C19.9945 4.15594 19.9223 3.98174 19.7939 3.8533C19.6654 3.72486 19.4912 3.6527 19.3096 3.6527H15.5637C15.5182 3.65267 15.4736 3.63899 15.4359 3.61343L13.8862 2.55963C13.6212 2.37938 13.3082 2.28298 12.9877 2.28294H11.1842V0.684881ZM1.54376 12.0521C2.26252 12.4346 3.06457 12.6337 3.87875 12.6319C4.69294 12.6337 5.49498 12.4346 6.21374 12.0521L3.87875 6.72827L1.54376 12.0521ZM14.7939 12.0302C14.8688 12.0667 14.9528 12.106 15.0451 12.1452C15.529 12.3489 16.2368 12.5562 17.1198 12.5562C17.9248 12.5584 18.7199 12.3786 19.4456 12.0302L17.1198 6.72736L14.7939 12.0302Z" fill="#341539"/>
</svg>
