<svg xmlns="http://www.w3.org/2000/svg" width="15" height="15" viewBox="0 0 15 15" fill="none">
  <path d="M15 2.04545C15 1.86463 14.9282 1.6912 14.8003 1.56334C14.6724 1.43547 14.499 1.36364 14.3182 1.36364H10.9091V0.681818C10.9091 0.500989 10.8373 0.327566 10.7094 0.1997C10.5815 0.0718342 10.4081 0 10.2273 0C10.0464 0 9.87302 0.0718342 9.74515 0.1997C9.61729 0.327566 9.54545 0.500989 9.54545 0.681818V1.08341C8.23438 0.547986 6.76562 0.547986 5.45455 1.08341V0.681818C5.45455 0.500989 5.38271 0.327566 5.25485 0.1997C5.12698 0.0718342 4.95356 0 4.77273 0C4.5919 0 4.41847 0.0718342 4.29061 0.1997C4.16274 0.327566 4.09091 0.500989 4.09091 0.681818V1.36364H0.681818C0.500989 1.36364 0.327566 1.43547 0.1997 1.56334C0.0718342 1.6912 0 1.86463 0 2.04545C0.0426902 2.69103 0.270188 3.3107 0.655355 3.83054C1.04052 4.35039 1.5671 4.74846 2.17227 4.97727C2.08875 5.358 2.04623 5.74658 2.04545 6.13636V8.08023C0.774545 8.80977 0 9.80045 0 10.9091C0 13.2027 3.29455 15 7.5 15C11.7055 15 15 13.2027 15 10.9091C15 9.80045 14.2255 8.80977 12.9545 8.08023V6.13636C12.9538 5.74658 12.9113 5.358 12.8277 4.97727C13.4329 4.74846 13.9595 4.35039 14.3446 3.83054C14.7298 3.3107 14.9573 2.69103 15 2.04545ZM2.62909 3.69136C2.17742 3.49635 1.80296 3.15737 1.56409 2.72727H3.24886C3.01552 3.01936 2.81243 3.33438 2.64273 3.6675C2.63864 3.67568 2.63318 3.68182 2.62909 3.69136ZM13.6364 10.9091C13.6364 12.1991 11.1136 13.6364 7.5 13.6364C3.88636 13.6364 1.36364 12.1991 1.36364 10.9091C1.36364 10.2757 1.97318 9.60818 3.01909 9.09136H3.02727C4.43345 8.46389 5.96043 8.15337 7.5 8.18182C9.03936 8.15251 10.5663 8.4621 11.9727 9.08864H11.9782C13.0227 9.60682 13.6364 10.275 13.6364 10.9091ZM7.5 6.81818C6.11098 6.81251 4.72996 7.02864 3.40909 7.45841V6.13636C3.40909 5.05139 3.8401 4.01085 4.60729 3.24365C5.37448 2.47646 6.41502 2.04545 7.5 2.04545C8.58498 2.04545 9.62552 2.47646 10.3927 3.24365C11.1599 4.01085 11.5909 5.05139 11.5909 6.13636V7.45841C10.2703 7.02749 8.88911 6.81133 7.5 6.81818ZM12.3709 3.69136C12.3668 3.68386 12.3627 3.67773 12.3593 3.67091C12.1889 3.33669 11.9851 3.02054 11.7511 2.72727H13.4352C13.1969 3.15751 12.8226 3.49657 12.3709 3.69136ZM6.13636 10.9091C6.13636 11.1788 6.05639 11.4424 5.90655 11.6667C5.75671 11.8909 5.54374 12.0657 5.29457 12.1689C5.0454 12.2721 4.77121 12.2991 4.5067 12.2465C4.24218 12.1939 3.9992 12.064 3.80849 11.8733C3.61778 11.6826 3.48791 11.4396 3.43529 11.1751C3.38268 10.9106 3.40968 10.6364 3.51289 10.3872C3.6161 10.1381 3.79088 9.92511 4.01513 9.77527C4.23938 9.62543 4.50303 9.54545 4.77273 9.54545C5.13439 9.54545 5.48123 9.68912 5.73696 9.94485C5.99269 10.2006 6.13636 10.5474 6.13636 10.9091ZM11.5909 10.9091C11.5909 11.1788 11.5109 11.4424 11.3611 11.6667C11.2113 11.8909 10.9983 12.0657 10.7491 12.1689C10.4999 12.2721 10.2258 12.2991 9.96124 12.2465C9.69672 12.1939 9.45374 12.064 9.26304 11.8733C9.07233 11.6826 8.94245 11.4396 8.88984 11.1751C8.83722 10.9106 8.86423 10.6364 8.96744 10.3872C9.07065 10.1381 9.24543 9.92511 9.46968 9.77527C9.69393 9.62543 9.95757 9.54545 10.2273 9.54545C10.5889 9.54545 10.9358 9.68912 11.1915 9.94485C11.4472 10.2006 11.5909 10.5474 11.5909 10.9091Z" fill="#341539"/>
</svg>
