<svg xmlns="http://www.w3.org/2000/svg" width="650" height="650" viewBox="0 0 650 650" fill="none">
  <path d="M343.45 475.203C338.713 480.383 332.02 483.333 325 483.333C317.98 483.333 311.287 480.383 306.55 475.203L173.216 329.37C163.899 319.18 164.607 303.367 174.797 294.05C184.988 284.733 200.801 285.44 210.117 295.63L300 393.94V25C300 11.193 311.193 0 325 0C338.807 0 350 11.193 350 25V393.94L439.883 295.63C449.2 285.44 465.013 284.733 475.203 294.05C485.393 303.367 486.1 319.18 476.783 329.37L343.45 475.203Z" fill="#341539"/>
  <path d="M50 425C50 411.193 38.8074 400 25 400C11.193 400 1.74651e-05 411.193 1.74651e-05 425V426.83C-0.000649201 472.417 -0.00131822 509.16 3.88401 538.06C7.91801 568.063 16.5477 593.323 36.6117 613.387C56.6757 633.453 81.938 642.083 111.942 646.117C140.841 650 177.585 650 223.171 650H426.83C472.417 650 509.16 650 538.06 646.117C568.063 642.083 593.323 633.453 613.39 613.387C633.453 593.323 642.083 568.063 646.117 538.06C650 509.16 650 472.417 650 426.83V425C650 411.193 638.807 400 625 400C611.193 400 600 411.193 600 425C600 472.847 599.947 506.217 596.563 531.397C593.273 555.857 587.26 568.807 578.033 578.033C568.807 587.26 555.857 593.273 531.397 596.563C506.217 599.947 472.847 600 425 600H225C177.153 600 143.782 599.947 118.604 596.563C94.145 593.273 81.1923 587.26 71.967 578.033C62.7417 568.807 56.7267 555.857 53.4383 531.397C50.053 506.217 50 472.847 50 425Z" fill="#341539"/>
</svg>
