<svg xmlns="http://www.w3.org/2000/svg" width="15" height="15" viewBox="0 0 15 15" fill="none">
  <path d="M10.49 1.1989C10.6622 1.0267 10.8666 0.89011 11.0916 0.796918C11.3166 0.703727 11.5577 0.655762 11.8013 0.655762C12.0448 0.655762 12.2859 0.703727 12.5109 0.796918C12.7359 0.89011 12.9403 1.0267 13.1125 1.1989C13.2847 1.37109 13.4213 1.57552 13.5145 1.8005C13.6077 2.02549 13.6556 2.26663 13.6556 2.51015C13.6556 2.75367 13.6077 2.99481 13.5145 3.21979C13.4213 3.44477 13.2847 3.6492 13.1125 3.8214L4.26157 12.6723L0.65564 13.6558L1.63908 10.0498L10.49 1.1989Z" stroke="#1E1E1E" stroke-width="1.31125" stroke-linecap="round" stroke-linejoin="round"/>
</svg>
