<svg xmlns="http://www.w3.org/2000/svg" width="600" height="734" viewBox="0 0 600 734" fill="none">
  <path d="M300 733.333C526.667 733.333 600 508.767 600 400C599.002 339.237 585.822 279.292 561.242 223.714C536.662 168.136 501.181 118.054 456.9 76.4333C416.059 32.1497 360.045 4.86252 300 0C239.955 4.86252 183.941 32.1497 143.1 76.4333C98.8186 118.054 63.3376 168.136 38.7577 223.714C14.1777 279.292 0.998429 339.237 0 400C0 508.767 73.3333 733.333 300 733.333ZM299.633 66.6667C381.467 67.8667 533.333 213.1 533.333 400C533.333 487 476.3 666.667 300 666.667C123.7 666.667 66.6667 487 66.6667 400C66.6667 212.7 218.633 68.4333 299.633 66.6667ZM160.4 516.267C158.135 512.441 156.659 508.2 156.058 503.795C155.456 499.39 155.743 494.909 156.899 490.616C158.056 486.323 160.06 482.304 162.793 478.797C165.526 475.291 168.933 472.366 172.813 470.195C176.694 468.025 180.969 466.653 185.388 466.16C189.806 465.667 194.279 466.063 198.542 467.324C202.806 468.585 206.774 470.687 210.213 473.505C213.652 476.323 216.492 479.801 218.567 483.733C226.015 498.891 237.634 511.61 252.058 520.395C266.483 529.181 283.114 533.669 300 533.333C308.841 533.333 317.319 536.845 323.57 543.096C329.821 549.348 333.333 557.826 333.333 566.667C333.333 575.507 329.821 583.986 323.57 590.237C317.319 596.488 308.841 600 300 600C271.258 600.346 242.985 592.7 218.335 577.915C193.685 563.13 173.627 541.787 160.4 516.267Z" fill="#341539"/>
</svg>
