<svg xmlns="http://www.w3.org/2000/svg" width="74" height="48" viewBox="0 0 74 48" fill="none">
  <path d="M73.7143 31.7812L73.7044 31.7341L73.6935 31.6858L69.8621 15.3934L69.8314 15.2727C67.4223 6.28001 59.2377 0 49.9269 0H24.0768C14.766 0 6.58128 6.28001 4.17228 15.2727L4.1558 15.3331L4.14149 15.3934L0.310238 31.6856L0.299253 31.7328L0.289424 31.7799C-1.11967 38.4907 2.73586 45.149 9.25595 47.2697L9.48518 47.3432C10.8207 47.7786 12.2155 48 13.6224 48C18.3442 48 22.7468 45.4845 25.1504 41.4251L28.4106 36.6058L28.4917 36.4851L28.5653 36.3591C28.6803 36.1585 28.8942 36.0335 29.1233 36.0335H44.8808C45.11 36.0335 45.324 36.1585 45.439 36.3591L45.5124 36.4851L45.5937 36.6058L48.8537 41.4251C51.2574 45.4845 55.66 48 60.3829 48C61.7898 48 63.1846 47.7786 64.5268 47.3409L64.7483 47.2697C71.267 45.1503 75.1213 38.4909 73.7143 31.7812ZM63.4978 43.4254L63.2752 43.4978C62.3201 43.8091 61.3452 43.9583 60.3824 43.9583C57.1092 43.9583 53.9819 42.2312 52.2756 39.2705L48.942 34.3417C48.1054 32.8886 46.556 31.9918 44.8804 31.9918H29.1229C27.4474 31.9918 25.898 32.8888 25.0613 34.3417L21.7278 39.2705C20.0217 42.2312 16.8953 43.9583 13.622 43.9583C12.6592 43.9583 11.6845 43.8091 10.7294 43.4978L10.5056 43.4254C5.96266 41.9484 3.264 37.2847 4.24556 32.6113L8.07695 16.3187C10.0166 9.07709 16.5795 4.0417 24.0767 4.0417H49.9267C57.4238 4.0417 63.9868 9.07709 65.9265 16.3187L69.7579 32.6113C70.7384 37.2847 68.0409 41.9484 63.4978 43.4254Z" fill="#25AD03"/>
  <path d="M22.7578 11.8677H17.9098V17.435H12.3415V22.2807H17.9098V27.85H22.7578V22.2807H28.3261V17.435H22.7578V11.8677Z" fill="#25AD03"/>
  <path d="M52.8603 16.8088C54.5467 16.8088 55.9119 15.4437 55.9119 13.7594C55.9119 12.0728 54.5467 10.7076 52.8603 10.7076C51.176 10.7076 49.8108 12.0728 49.8108 13.7594C49.8107 15.4437 51.176 16.8088 52.8603 16.8088Z" fill="#25AD03"/>
  <path d="M46.7591 16.8088C45.0748 16.8088 43.7085 18.1751 43.7085 19.8583C43.7085 21.5449 45.0748 22.9112 46.7591 22.9112C48.4445 22.9112 49.8097 21.5449 49.8097 19.8583C49.8097 18.1751 48.4445 16.8088 46.7591 16.8088Z" fill="#25AD03"/>
  <path d="M52.8603 22.91C51.176 22.91 49.8108 24.2752 49.8108 25.9618C49.8108 27.6461 51.176 29.0113 52.8603 29.0113C54.5467 29.0113 55.9119 27.6461 55.9119 25.9618C55.9119 24.2752 54.5466 22.91 52.8603 22.91Z" fill="#25AD03"/>
  <path d="M58.9615 16.8088C57.2772 16.8088 55.9119 18.1751 55.9119 19.8583C55.9119 21.5449 57.2772 22.9112 58.9615 22.9112C60.6468 22.9112 62.0131 21.5449 62.0131 19.8583C62.0131 18.1751 60.6468 16.8088 58.9615 16.8088Z" fill="#25AD03"/>
</svg>
