<svg xmlns="http://www.w3.org/2000/svg" width="800" height="800" viewBox="0 0 800 800" fill="none">
  <path fill-rule="evenodd" clip-rule="evenodd" d="M742.857 228.571C742.857 260.114 717.257 285.714 685.714 285.714H571.429C539.886 285.714 514.286 260.114 514.286 228.571V114.286C514.286 82.7429 539.886 57.1429 571.429 57.1429H685.714C717.257 57.1429 742.857 82.7429 742.857 114.286V228.571ZM685.714 0H571.429C508.314 0 457.143 51.1714 457.143 114.286V228.571C457.143 291.686 508.314 342.857 571.429 342.857H685.714C748.829 342.857 800 291.686 800 228.571V114.286C800 51.1714 748.829 0 685.714 0ZM742.857 685.714C742.857 717.257 717.257 742.857 685.714 742.857H571.429C539.886 742.857 514.286 717.257 514.286 685.714V571.429C514.286 539.886 539.886 514.286 571.429 514.286H685.714C717.257 514.286 742.857 539.886 742.857 571.429V685.714ZM685.714 457.143H571.429C508.314 457.143 457.143 508.314 457.143 571.429V685.714C457.143 748.829 508.314 800 571.429 800H685.714C748.829 800 800 748.829 800 685.714V571.429C800 508.314 748.829 457.143 685.714 457.143ZM285.714 228.571C285.714 260.114 260.114 285.714 228.571 285.714H114.286C82.7429 285.714 57.1429 260.114 57.1429 228.571V114.286C57.1429 82.7429 82.7429 57.1429 114.286 57.1429H228.571C260.114 57.1429 285.714 82.7429 285.714 114.286V228.571ZM228.571 0H114.286C51.1714 0 0 51.1714 0 114.286V228.571C0 291.686 51.1714 342.857 114.286 342.857H228.571C291.686 342.857 342.857 291.686 342.857 228.571V114.286C342.857 51.1714 291.686 0 228.571 0ZM285.714 685.714C285.714 717.257 260.114 742.857 228.571 742.857H114.286C82.7429 742.857 57.1429 717.257 57.1429 685.714V571.429C57.1429 539.886 82.7429 514.286 114.286 514.286H228.571C260.114 514.286 285.714 539.886 285.714 571.429V685.714ZM228.571 457.143H114.286C51.1714 457.143 0 508.314 0 571.429V685.714C0 748.829 51.1714 800 114.286 800H228.571C291.686 800 342.857 748.829 342.857 685.714V571.429C342.857 508.314 291.686 457.143 228.571 457.143Z" fill="#341539"/>
</svg>
