<svg xmlns="http://www.w3.org/2000/svg" width="42" height="42" viewBox="0 0 42 42" fill="none">
  <path d="M15.7929 8.52523C16.4635 6.82492 18.8698 6.82492 19.5404 8.52523L21.4381 13.3367C22.6665 16.4514 25.1319 18.9169 28.2467 20.1452L33.0581 22.0429C34.7583 22.7135 34.7583 25.1198 33.0581 25.7904L28.2467 27.6881C25.1319 28.9165 22.6665 31.3819 21.4381 34.4967L19.5404 39.3081C18.8698 41.0083 16.4635 41.0083 15.7929 39.3081L13.8953 34.4967C12.6669 31.3819 10.2014 28.9165 7.08667 27.6881L2.27523 25.7904C0.574922 25.1198 0.574922 22.7135 2.27523 22.0429L7.08667 20.1452C10.2014 18.9169 12.6669 16.4514 13.8953 13.3367L15.7929 8.52523Z" fill="url(#paint0_linear_1182_1734)"/>
  <path d="M33.6306 1.4782C33.8821 0.840599 34.7846 0.840599 35.036 1.4782L35.7475 3.28249C36.2083 4.45049 37.1329 5.37508 38.3008 5.83572L40.1052 6.54733C40.7427 6.79881 40.7427 7.70118 40.1052 7.95266L38.3008 8.66427C37.1329 9.12491 36.2083 10.0495 35.7475 11.2175L35.036 13.0218C34.7846 13.6594 33.8821 13.6594 33.6306 13.0218L32.9192 11.2175C32.4583 10.0495 31.5338 9.12491 30.3658 8.66427L28.5615 7.95266C27.924 7.70118 27.924 6.79881 28.5615 6.54733L30.3658 5.83572C31.5338 5.37508 32.4583 4.45049 32.9192 3.28249L33.6306 1.4782Z" fill="url(#paint1_linear_1182_1734)"/>
  <path d="M15.7929 8.52523C16.4635 6.82492 18.8698 6.82492 19.5404 8.52523L21.4381 13.3367C22.6665 16.4514 25.1319 18.9169 28.2467 20.1452L33.0581 22.0429C34.7583 22.7135 34.7583 25.1198 33.0581 25.7904L28.2467 27.6881C25.1319 28.9165 22.6665 31.3819 21.4381 34.4967L19.5404 39.3081C18.8698 41.0083 16.4635 41.0083 15.7929 39.3081L13.8953 34.4967C12.6669 31.3819 10.2014 28.9165 7.08667 27.6881L2.27523 25.7904C0.574922 25.1198 0.574922 22.7135 2.27523 22.0429L7.08667 20.1452C10.2014 18.9169 12.6669 16.4514 13.8953 13.3367L15.7929 8.52523Z" stroke="#341539" stroke-width="2"/>
  <path d="M33.6306 1.4782C33.8821 0.840599 34.7846 0.840599 35.036 1.4782L35.7475 3.28249C36.2083 4.45049 37.1329 5.37508 38.3008 5.83572L40.1052 6.54733C40.7427 6.79881 40.7427 7.70118 40.1052 7.95266L38.3008 8.66427C37.1329 9.12491 36.2083 10.0495 35.7475 11.2175L35.036 13.0218C34.7846 13.6594 33.8821 13.6594 33.6306 13.0218L32.9192 11.2175C32.4583 10.0495 31.5338 9.12491 30.3658 8.66427L28.5615 7.95266C27.924 7.70118 27.924 6.79881 28.5615 6.54733L30.3658 5.83572C31.5338 5.37508 32.4583 4.45049 32.9192 3.28249L33.6306 1.4782Z" stroke="#341539" stroke-width="2"/>
  <defs>
    <linearGradient id="paint0_linear_1182_1734" x1="20.7917" y1="1" x2="20.7917" y2="40.5833" gradientUnits="userSpaceOnUse">
      <stop stop-color="#913B9F"/>
      <stop offset="1" stop-color="#341539"/>
    </linearGradient>
    <linearGradient id="paint1_linear_1182_1734" x1="34.333" y1="1" x2="34.333" y2="13.5" gradientUnits="userSpaceOnUse">
      <stop stop-color="#341539"/>
      <stop offset="1" stop-color="#913B9F"/>
    </linearGradient>
  </defs>
</svg>
