<svg xmlns="http://www.w3.org/2000/svg" width="36" height="32" viewBox="0 0 36 32" fill="none">
  <path d="M31.2939 4.14215C30.5094 3.35738 29.5781 2.73484 28.553 2.3101C27.528 1.88536 26.4293 1.66675 25.3197 1.66675C24.2101 1.66675 23.1114 1.88536 22.0863 2.3101C21.0613 2.73484 20.1299 3.35738 19.3455 4.14215L17.7176 5.77007L16.0897 4.14215C14.5052 2.5577 12.3562 1.66757 10.1155 1.66757C7.87475 1.66757 5.72578 2.5577 4.14133 4.14215C2.55688 5.7266 1.66675 7.87557 1.66675 10.1163C1.66675 12.3571 2.55688 14.506 4.14133 16.0905L17.7176 29.6667L31.2939 16.0905C32.0786 15.3061 32.7012 14.3747 33.1259 13.3497C33.5506 12.3246 33.7693 11.2259 33.7693 10.1163C33.7693 9.00674 33.5506 7.90803 33.1259 6.88297C32.7012 5.8579 32.0786 4.92656 31.2939 4.14215Z" fill="#FF0000" stroke="#FF0000" stroke-width="3.33333" stroke-linecap="round" stroke-linejoin="round"/>
</svg>
