<svg xmlns="http://www.w3.org/2000/svg" width="57" height="57" viewBox="0 0 57 57" fill="none">
  <path fill-rule="evenodd" clip-rule="evenodd" d="M9.60174 9.57569C19.7226 -0.530925 36.1751 -0.423459 46.3578 9.75934C56.545 19.9465 56.6482 36.4087 46.5285 46.5285C36.4085 56.6482 19.9464 56.545 9.75923 46.3578C3.7223 40.321 1.22937 32.085 2.29985 24.2751C2.44985 23.1807 3.45859 22.4153 4.55291 22.5653C5.64726 22.7153 6.41278 23.7239 6.26281 24.8183C5.35619 31.4325 7.46611 38.4079 12.5877 43.5295C21.2396 52.1815 35.169 52.2309 43.6999 43.6999C52.2309 35.169 52.1813 21.2397 43.5293 12.5878C34.8818 3.94022 20.9623 3.8863 12.4302 12.4041L14.4241 12.4141C15.5286 12.4197 16.4195 13.3196 16.414 14.4242C16.4084 15.5287 15.5085 16.4196 14.404 16.4141L7.61582 16.38C6.5191 16.3745 5.63142 15.4868 5.6259 14.3901L5.59179 7.6019C5.58622 6.49737 6.47715 5.59745 7.58171 5.59188C8.68627 5.58633 9.58619 6.47726 9.59174 7.58182L9.60174 9.57569ZM28.0583 15.3917C29.1629 15.3917 30.0583 16.2872 30.0583 17.3917V27.2301L36.1391 33.3109C36.9202 34.0919 36.9202 35.3583 36.1391 36.1391C35.3581 36.9202 34.0917 36.9202 33.3109 36.1391L26.0583 28.8869V17.3917C26.0583 16.2872 26.9538 15.3917 28.0583 15.3917Z" stroke="#B36FC6" stroke-width="4.11667"/>
</svg>
