<svg xmlns="http://www.w3.org/2000/svg" width="20" height="22" viewBox="0 0 20 22" fill="none">
  <path d="M7 20.4663V12.4663C7 11.3617 7.89543 10.4663 9 10.4663H11C12.1046 10.4663 13 11.3617 13 12.4663V20.4663M19 18.4663V8.44448C19 7.8273 18.7151 7.24468 18.2279 6.86577L11.2279 1.42133C10.5057 0.8596 9.49434 0.859599 8.77212 1.42133L1.77212 6.86577C1.28495 7.24468 1 7.8273 1 8.44448V18.4663C1 18.9967 1.21071 19.5054 1.58579 19.8805C1.96086 20.2556 2.46957 20.4663 3 20.4663H17C17.5304 20.4663 18.0391 20.2556 18.4142 19.8805C18.7893 19.5054 19 18.9967 19 18.4663Z" stroke="#913B9F" stroke-width="2" stroke-linecap="round" stroke-linejoin="round"/>
</svg>
