<svg xmlns="http://www.w3.org/2000/svg" width="3" height="7" viewBox="0 0 3 7" fill="none">
  <path d="M1.7947 1.85164C2.30499 1.80703 2.68268 1.35707 2.63775 0.846791C2.59344 0.336503 2.14348 -0.0410316 1.6332 0.0035797C1.12291 0.0482046 0.745224 0.498009 0.789835 1.0083C0.834473 1.5189 1.28443 1.89627 1.7947 1.85164Z" fill="#808080"/>
  <path d="M2.07688 5.55562C1.85629 5.63637 1.48458 5.86387 1.48458 5.86387C1.48458 5.86387 1.76643 4.56098 1.77806 4.50426C1.89715 3.93238 2.23556 3.12531 1.77712 2.63467C1.45788 2.29375 1.04751 2.3855 0.685847 2.73146C0.447041 2.95972 0.320412 3.10568 0.0992151 3.35109C0.00966448 3.45053 -0.0242692 3.54339 0.0181409 3.68902C0.0636955 3.84645 0.247828 3.92453 0.410591 3.86499C0.631173 3.78439 1.00258 3.55691 1.00258 3.55691C1.00258 3.55691 0.830386 4.34983 0.744608 4.74636C0.732659 4.80292 0.251601 6.29527 0.71036 6.78593C1.0296 7.12702 1.43966 7.03511 1.80163 6.68932C2.04044 6.46103 2.16707 6.31508 2.38827 6.06952C2.47782 5.97022 2.51144 5.87738 2.46934 5.73174C2.42346 5.57448 2.23964 5.49623 2.07688 5.55562Z" fill="#808080"/>
</svg>
