<svg xmlns="http://www.w3.org/2000/svg" width="11" height="11" viewBox="0 0 11 11" fill="none">
  <path d="M11 5.50498C11 8.54118 8.53895 11 5.5 11C2.46105 11 0 8.54118 0 5.50498C0 2.46878 2.46105 0 5.5 0C8.53895 0 11 2.46878 11 5.50498ZM10.2527 5.50498C10.2527 2.87692 8.12047 0.756561 5.5 0.756561C2.87953 0.756561 0.747283 2.87692 0.747283 5.50498C0.747283 8.13303 2.87953 10.2534 5.5 10.2534C8.12047 10.2534 10.2527 8.12308 10.2527 5.50498Z" fill="#A38E50"/>
  <path d="M6.53623 8.01357H9.07699L6.1875 4.5991L8.52899 3.02624H6.85507L4.53351 4.58914V3.02624H2.60054V8.01357H4.53351L4.54348 5.66425L6.53623 8.01357Z" fill="#A38E50"/>
</svg>
