<svg xmlns="http://www.w3.org/2000/svg" width="52" height="61" viewBox="0 0 52 61" fill="none">
  <path d="M26 1.79297C32.4461 1.79297 38.0834 3.89747 42.9863 8.13867C47.7763 12.2822 50.207 17.836 50.207 24.9961C50.207 29.565 48.2666 34.726 44.0859 40.5215C40.0929 46.0569 34.0844 52.1038 26 58.6611C17.9156 52.1038 11.9071 46.0569 7.91406 40.5215C3.73337 34.726 1.79303 29.565 1.79297 24.9961C1.79297 17.836 4.22366 12.2822 9.01367 8.13867C13.9166 3.89747 19.5539 1.79297 26 1.79297ZM26 4.30371C20.1035 4.30371 15.0382 6.22234 10.9199 10.085C6.76556 13.9815 4.70703 19.0033 4.70703 24.9961C4.7071 29.1178 6.52242 33.6041 9.81641 38.3955C13.1334 43.2204 18.1612 48.5038 24.8301 54.2461L26 55.2539L27.1699 54.2461C33.8388 48.5038 38.8666 43.2204 42.1836 38.3955C45.4776 33.6041 47.2929 29.1178 47.293 24.9961C47.293 19.0033 45.2344 13.9815 41.0801 10.085C36.9618 6.22234 31.8965 4.30371 26 4.30371ZM26 20.083C27.3441 20.083 28.4325 20.5148 29.3643 21.3887C30.2921 22.2591 30.7069 23.2274 30.707 24.3857C30.707 25.5443 30.2922 26.5133 29.3643 27.3838C28.4325 28.2577 27.3441 28.6895 26 28.6895C24.6559 28.6895 23.5675 28.2577 22.6357 27.3838C21.7078 26.5133 21.293 25.5443 21.293 24.3857C21.2931 23.2274 21.7079 22.2591 22.6357 21.3887C23.5675 20.5148 24.6559 20.083 26 20.083Z" fill="#715CF6" stroke="#715CF6" stroke-width="3.58621"/>
</svg>
