<svg xmlns="http://www.w3.org/2000/svg" width="717" height="717" viewBox="0 0 717 717" fill="none">
  <path d="M483.275 191.527C483.351 205.334 472.221 216.589 458.414 216.666C444.607 216.743 433.352 205.613 433.275 191.806L458.275 191.667L483.275 191.527ZM429.044 54.2893L446.721 36.6114L446.721 36.6117L429.044 54.2893ZM54.29 54.2893L71.9684 71.9662L71.9675 71.9672L54.29 54.2893ZM54.29 662.377L71.9677 644.699L71.9686 644.7L54.29 662.377ZM429.044 662.377L446.722 680.054L446.721 680.054L429.044 662.377ZM433.275 524.861C433.352 511.054 444.607 499.923 458.414 500C472.221 500.077 483.351 511.332 483.275 525.139L458.275 525L433.275 524.861ZM258.34 383.333C244.533 383.333 233.34 372.14 233.34 358.333C233.34 344.526 244.533 333.333 258.34 333.333V358.333V383.333ZM691.673 358.333L707.943 339.352C713.484 344.101 716.673 351.035 716.673 358.333C716.673 365.631 713.484 372.565 707.943 377.315L691.673 358.333ZM558.737 277.315C548.254 268.329 547.04 252.547 556.025 242.064C565.011 231.58 580.793 230.366 591.276 239.352L575.007 258.333L558.737 277.315ZM591.276 477.315C580.793 486.3 565.011 485.086 556.025 474.603C547.04 464.12 548.254 448.337 558.737 439.352L575.007 458.333L591.276 477.315ZM458.275 191.667L433.275 191.806C433.072 155.356 432.126 129.52 428.524 109.911C425.054 91.0177 419.481 80.082 411.366 71.967L429.044 54.2893L446.721 36.6117C464.219 54.1093 473.06 75.6117 477.701 100.878C482.211 125.43 483.074 155.476 483.275 191.527L458.275 191.667ZM429.044 54.2893L411.366 71.9673C402.14 62.7416 389.187 56.7267 364.728 53.4382C339.55 50.0531 306.18 50 258.333 50V25V0C304.767 0 342.106 -0.053093 371.391 3.8841C401.394 7.91799 426.657 16.5478 446.721 36.6114L429.044 54.2893ZM258.333 25V50H225V25V0H258.333V25ZM225 25V50C177.153 50 143.782 50.0531 118.604 53.4382C94.1438 56.7267 81.1921 62.7417 71.9684 71.9662L54.29 54.2893L36.6115 36.6125C56.6745 16.5477 81.9378 7.91792 111.941 3.88409C141.226 -0.053093 178.567 0 225 0V25ZM54.29 54.2893L71.9675 71.9672C62.7418 81.1927 56.7268 94.145 53.4383 118.604C50.0531 143.782 50 177.153 50 225H25H0C0 178.566 -0.0531006 141.226 3.88416 111.942C7.91815 81.9378 16.5482 56.6753 36.6125 36.6115L54.29 54.2893ZM25 225H50V491.667H25H0V225H25ZM25 491.667H50C50 539.513 50.0531 572.883 53.4383 598.062C56.7268 622.521 62.7418 635.473 71.9677 644.699L54.29 662.377L36.6123 680.054C16.5482 659.99 7.91815 634.728 3.88416 604.724C-0.0531006 575.44 0 538.1 0 491.667H25ZM54.29 662.377L71.9686 644.7C81.1924 653.925 94.144 659.94 118.604 663.228C143.782 666.614 177.153 666.667 225 666.667V691.667V716.667C178.567 716.667 141.226 716.72 111.941 712.782C81.9376 708.749 56.6743 700.119 36.6113 680.053L54.29 662.377ZM225 691.667V666.667H258.333V691.667V716.667H225V691.667ZM258.333 691.667V666.667C306.18 666.667 339.55 666.614 364.728 663.228C389.187 659.94 402.14 653.925 411.366 644.699L429.044 662.377L446.721 680.054C426.657 700.118 401.395 708.748 371.391 712.782C342.106 716.72 304.767 716.667 258.333 716.667V691.667ZM429.044 662.377L411.366 644.699C419.481 636.584 425.054 625.648 428.524 606.754C432.126 587.146 433.072 561.31 433.275 524.861L458.275 525L483.275 525.139C483.074 561.19 482.211 591.236 477.701 615.787C473.06 641.054 464.219 662.556 446.722 680.054L429.044 662.377ZM258.34 358.333V333.333H691.673V358.333V383.333H258.34V358.333ZM691.673 358.333L675.403 377.315L558.737 277.315L575.007 258.333L591.276 239.352L707.943 339.352L691.673 358.333ZM691.673 358.333L707.943 377.315L591.276 477.315L575.007 458.333L558.737 439.352L675.403 339.352L691.673 358.333Z" fill="#1C274C"/>
</svg>
