<svg xmlns="http://www.w3.org/2000/svg" width="47" height="48" viewBox="0 0 47 48" fill="none">
  <path d="M33.3958 16.4362L23.084 21.6183L12.7721 16.4362L0 41.928L7.95638 41.1429L12.0393 48L23.084 26.0153L34.1287 48L38.2116 41.1429L46.1679 41.928L33.3958 16.4362Z" fill="#913B9F"/>
  <path d="M23.084 33.7099C32.3927 33.7099 39.9389 26.1637 39.9389 16.855C39.9389 7.54622 32.3927 0 23.084 0C13.7752 0 6.22901 7.54622 6.22901 16.855C6.22901 26.1637 13.7752 33.7099 23.084 33.7099Z" fill="#FFC54D"/>
  <path d="M23.084 30.0981C30.398 30.0981 36.3272 24.169 36.3272 16.855C36.3272 9.54095 30.398 3.61178 23.084 3.61178C15.77 3.61178 9.84079 9.54095 9.84079 16.855C9.84079 24.169 15.77 30.0981 23.084 30.0981Z" fill="#E8B04B"/>
  <path d="M23.7121 8.89858L25.9106 13.2955C26.0153 13.5049 26.2246 13.6619 26.434 13.7143L31.3021 14.4471C31.8779 14.5518 32.1396 15.2323 31.7208 15.651L28.2137 19.1058C28.0567 19.2628 27.952 19.5245 28.0044 19.7339L28.8419 24.602C28.9466 25.1778 28.3184 25.6489 27.795 25.3348L23.4504 23.0316C23.241 22.9269 22.9793 22.9269 22.7699 23.0316L18.373 25.3348C17.8495 25.5965 17.2214 25.1778 17.3261 24.602L18.1636 19.7339C18.2159 19.5245 18.1112 19.2628 17.9542 19.1058L14.4471 15.651C14.0284 15.2323 14.2377 14.4995 14.8659 14.4471L19.7339 13.7143C19.9433 13.6619 20.1527 13.5573 20.2574 13.2955L22.4558 8.89858C22.7176 8.37514 23.4504 8.37514 23.7121 8.89858Z" fill="white"/>
</svg>
