<svg xmlns="http://www.w3.org/2000/svg" width="27" height="34" viewBox="0 0 27 34" fill="none">
    <path d="M15.0527 31.9336C15.01 31.9837 14.9648 32.0338 14.916 32.083C14.5225 32.4794 14.0771 32.667 13.5 32.667C12.931 32.667 12.4667 32.4836 12.043 32.083C11.997 32.0337 11.9534 31.9842 11.9131 31.9336H15.0527ZM13.5 1.33301C13.8369 1.33301 14.0745 1.43757 14.2988 1.67676L14.3252 1.70508L14.3525 1.73145C14.5901 1.95749 14.6982 2.2011 14.6982 2.5498V4.7793L15.7061 5.0332C17.6639 5.52639 19.2331 6.56053 20.4561 8.16211L20.4619 8.16992C21.6819 9.74314 22.2919 11.5361 22.292 13.5996V26.833H25.667V27.5664H1.33301V26.833H4.70801V13.5996C4.70808 11.5361 5.3181 9.74313 6.53809 8.16992L6.54395 8.16211C7.76687 6.56053 9.33609 5.52639 11.2939 5.0332L12.3018 4.7793V2.5498C12.3018 2.17642 12.4135 1.92406 12.6318 1.7041C12.8939 1.44005 13.1609 1.33301 13.5 1.33301ZM13.5 5.4668C11.2841 5.4668 9.35528 6.27762 7.78613 7.8584C6.21758 9.43872 5.41709 11.3767 5.41699 13.5996V26.833H21.583V13.5996C21.5829 11.3767 20.7824 9.43872 19.2139 7.8584C17.6447 6.27762 15.7159 5.4668 13.5 5.4668Z" stroke="#341539" stroke-width="2.66667"/>
</svg>
