<svg xmlns="http://www.w3.org/2000/svg" width="13" height="15" viewBox="0 0 13 15" fill="none">
  <path fill-rule="evenodd" clip-rule="evenodd" d="M2.92489 1.86082C1.52539 2.66882 1.00857 4.32971 1.86561 5.81413C2.11744 6.25031 2.46189 6.50513 2.95937 6.87036C3.44444 7.22647 4.04724 7.67193 4.50615 8.46678C4.96504 9.26162 5.04947 10.0064 5.11531 10.6045C5.18281 11.218 5.23129 11.6437 5.48314 12.0799C6.34021 13.5643 8.03698 13.9472 9.43646 13.1392C10.8359 12.3312 11.3528 10.6703 10.4957 9.18587C10.2439 8.74967 9.89943 8.49485 9.40194 8.12962C8.91691 7.77358 8.31408 7.32805 7.85523 6.5332C7.39631 5.73835 7.31188 4.99357 7.24604 4.39544C7.17854 3.78202 7.13006 3.35629 6.87821 2.9201C6.02114 1.43568 4.3244 1.05281 2.92489 1.86082ZM0.612458 6.53762C-0.661616 4.33088 0.140413 1.79758 2.20139 0.607668C4.26236 -0.582235 6.8573 -0.0101568 8.13139 2.1966C8.53916 2.90292 8.61499 3.60004 8.67605 4.16097L8.68437 4.23711C8.7492 4.82571 8.81409 5.30007 9.10835 5.8097C9.4026 6.31933 9.78092 6.61279 10.2583 6.96318L10.3201 7.00848C10.7753 7.34179 11.3411 7.756 11.7489 8.46236C13.023 10.6691 12.2209 13.2024 10.16 14.3923C8.09898 15.5822 5.50405 15.0102 4.22999 12.8034C3.82219 12.097 3.74633 11.3999 3.6853 10.839L3.67698 10.7629C3.61219 10.1743 3.54724 9.69992 3.253 9.19028C2.95876 8.68064 2.58043 8.38726 2.10308 8.0368L2.0413 7.99158C1.58604 7.65819 1.02025 7.24398 0.612458 6.53762ZM4.01015 5.32942C4.01015 5.729 3.68623 6.05293 3.28665 6.05293C2.88707 6.05293 2.56314 5.729 2.56314 5.32942C2.56314 4.92983 2.88707 4.60591 3.28665 4.60591C3.68623 4.60591 4.01015 4.92983 4.01015 5.32942ZM3.28665 3.8824C3.68623 3.8824 4.01015 3.55848 4.01015 3.1589C4.01015 2.75931 3.68623 2.43539 3.28665 2.43539C2.88707 2.43539 2.56314 2.75931 2.56314 3.1589C2.56314 3.55848 2.88707 3.8824 3.28665 3.8824ZM6.18068 6.05293C6.18068 6.45253 5.85676 6.77645 5.45717 6.77645C5.05758 6.77645 4.73366 6.45253 4.73366 6.05293C4.73366 5.65334 5.05758 5.32942 5.45717 5.32942C5.85676 5.32942 6.18068 5.65334 6.18068 6.05293ZM7.62769 12.5645C8.02728 12.5645 8.3512 12.2406 8.3512 11.841C8.3512 11.4414 8.02728 11.1175 7.62769 11.1175C7.2281 11.1175 6.90418 11.4414 6.90418 11.841C6.90418 12.2406 7.2281 12.5645 7.62769 12.5645Z" fill="#341539"/>
</svg>
