<svg xmlns="http://www.w3.org/2000/svg" width="34" height="34" viewBox="0 0 34 34" fill="none">
  <path d="M18.3825 18.1724L11.7325 11.5224C11.5267 11.3166 11.3634 11.0722 11.252 10.8033C11.1407 10.5344 11.0833 10.2462 11.0833 9.95518C11.0833 9.66413 11.1407 9.37593 11.252 9.10703C11.3634 8.83813 11.5267 8.59381 11.7325 8.388C11.9383 8.18219 12.1826 8.01894 12.4515 7.90756C12.7204 7.79618 13.0086 7.73885 13.2997 7.73885C13.5907 7.73885 13.8789 7.79618 14.1478 7.90756C14.4167 8.01894 14.661 8.18219 14.8668 8.388L19.9497 13.4708L29.4658 3.95467C29.8815 3.53902 30.4452 3.30552 31.033 3.30552C31.3241 3.30552 31.6123 3.36284 31.8812 3.47423C32.1501 3.58561 32.3944 3.74886 32.6002 3.95467C32.806 4.16047 32.9692 4.4048 33.0806 4.6737C33.192 4.94259 33.2493 5.2308 33.2493 5.52185C33.2493 5.8129 33.192 6.1011 33.0806 6.37C32.9692 6.6389 32.806 6.88323 32.6002 7.08903L21.5168 18.1724C21.3115 18.3789 21.0673 18.5428 20.7983 18.6547C20.5294 18.7666 20.241 18.8241 19.9497 18.8241C19.6584 18.8241 19.37 18.7666 19.101 18.6547C18.8321 18.5428 18.5879 18.3789 18.3825 18.1724Z" fill="#5C5F62"/>
  <path d="M3.73333 3.73333V24.2667H10.2667C11.7133 24.2667 12.8576 25.5024 13.8619 26.5888L14.0672 26.8128C14.7504 27.5427 15.7211 28 16.8 28C17.8789 28 18.8496 27.5427 19.5309 26.8109L19.7363 26.5888H19.7381C20.7424 25.5024 21.8867 24.2667 23.3333 24.2667H29.8667V20.5333C29.8667 20.0383 30.0633 19.5635 30.4134 19.2134C30.7635 18.8633 31.2383 18.6667 31.7333 18.6667C32.2284 18.6667 32.7032 18.8633 33.0533 19.2134C33.4033 19.5635 33.6 20.0383 33.6 20.5333V30.8C33.6 31.5426 33.305 32.2548 32.7799 32.7799C32.2548 33.305 31.5426 33.6 30.8 33.6H2.8C2.05739 33.6 1.3452 33.305 0.820101 32.7799C0.294999 32.2548 0 31.5426 0 30.8V2.8C0 2.05739 0.294999 1.3452 0.820101 0.820101C1.3452 0.294999 2.05739 0 2.8 0H11.2C11.6951 0 12.1699 0.196666 12.5199 0.546734C12.87 0.896802 13.0667 1.3716 13.0667 1.86667C13.0667 2.36174 12.87 2.83653 12.5199 3.1866C12.1699 3.53667 11.6951 3.73333 11.2 3.73333H3.73333Z" fill="#5C5F62"/>
</svg>
