<svg xmlns="http://www.w3.org/2000/svg" width="61" height="66" viewBox="0 0 61 66" fill="none">
  <path d="M45.4932 3.16113C49.3771 3.20614 52.3099 5.27788 54.2207 7.99902C56.0855 10.6546 57.0798 14.0266 57.3643 17.2939C57.6493 20.5683 57.2483 24.0387 56.0127 26.9717C55.0854 29.1726 53.5884 31.2647 51.4033 32.5625L52.0215 55.4258L52.0234 55.7969C51.9552 59.6017 49.217 62.2674 45.9297 62.3564C44.2989 62.4006 42.636 61.7821 41.4023 60.4697C40.1628 59.151 39.5664 57.3666 39.5635 55.417L39.5225 32.2373C37.4018 30.4954 36.0185 28.1194 35.207 25.6533C34.2099 22.623 33.9978 19.2537 34.3955 16.1318C34.791 13.0276 35.8222 9.9239 37.5547 7.51465C39.309 5.07515 41.9876 3.11927 45.4912 3.16113H45.4922L45.4941 3.16016L45.4932 3.16113ZM24.4023 19.792C24.5032 22.308 24.2632 24.4692 23.4707 26.3281C22.6364 28.285 21.3194 29.6048 19.8281 30.6211L19.8291 30.6221C19.6826 30.7222 19.5293 30.8122 19.373 30.8955L20.0879 55.7793V56.1201C20.0029 59.5748 17.1564 62.3711 13.7158 62.3711H13.3574C10.0213 62.3711 7.23964 59.5752 7.34473 56.1455V56.1406L8.15723 30.917C4.12047 28.9089 3.21307 24.6426 3.15234 21.1592L3.15039 21.0801L3.15332 21.001L3.52637 9.67285L3.52734 9.6582C3.53605 9.42464 3.5296 9.27933 3.5332 8.8584C3.53609 8.52126 3.54701 8.04262 3.62305 7.5332C3.78365 6.45757 4.29214 4.92816 5.88184 3.91699L5.88965 3.91211L5.89844 3.90625C7.27678 3.04192 8.97176 2.92798 10.4043 3.52148C10.6856 3.63804 10.9558 3.78314 11.2109 3.95312C12.0968 3.34445 13.1036 3.12507 13.9922 3.15234C14.9641 3.18227 16.0988 3.5622 16.9893 4.32227C17.9092 3.7322 18.9322 3.53589 19.8135 3.56445C20.7525 3.5949 21.8036 3.88813 22.6963 4.5791C23.6546 5.32096 24.3831 6.50825 24.4023 7.98828V19.792Z" stroke="#77B573" stroke-width="6.30013"/>
</svg>
