<svg xmlns="http://www.w3.org/2000/svg" width="18" height="20" viewBox="0 0 18 20" fill="none">
  <path d="M11.7692 1.36646H14.5385C16.4769 1.36646 18 2.73292 18 4.47205V16.8944C18 18.6335 16.4769 20 14.5385 20H3.46154C1.52308 20 0 18.6335 0 16.8944V4.47205C0 2.73292 1.52308 1.36646 3.46154 1.36646H6.23077V2.6087H3.46154C2.35385 2.6087 1.38462 3.47826 1.38462 4.47205V16.8944C1.38462 17.8882 2.35385 18.7578 3.46154 18.7578H14.5385C15.6462 18.7578 16.6154 17.8882 16.6154 16.8944V4.47205C16.6154 3.47826 15.6462 2.6087 14.5385 2.6087H11.7692V1.36646Z" fill="#341539"/>
  <path d="M10.8 5.09317H7.06154C6.23077 5.09317 5.4 4.47205 5.4 3.60249V1.49068C5.4 0.745343 6.09231 0 7.06154 0H10.8C11.6308 0 12.4615 0.621119 12.4615 1.49068V3.60249C12.4615 4.47205 11.7692 5.09317 10.8 5.09317ZM7.2 1.36646C7.06154 1.36646 6.92308 1.49068 6.92308 1.61491V3.72671C6.92308 3.85093 7.06154 3.97516 7.2 3.97516H10.9385C11.0769 3.97516 11.2154 3.85093 11.2154 3.72671V1.61491C11.2154 1.49068 11.0769 1.36646 10.9385 1.36646H7.2Z" fill="#341539"/>
  <path d="M13.1538 16.2733H4.84615C4.43077 16.2733 4.15385 16.0248 4.15385 15.6522C4.15385 15.2795 4.43077 15.0311 4.84615 15.0311H13.1538C13.5692 15.0311 13.8462 15.2795 13.8462 15.6522C13.8462 16.0248 13.5692 16.2733 13.1538 16.2733Z" fill="#341539"/>
  <path d="M13.1538 12.5466H4.84615C4.43077 12.5466 4.15385 12.2981 4.15385 11.9255C4.15385 11.5528 4.43077 11.3043 4.84615 11.3043H13.1538C13.5692 11.3043 13.8462 11.5528 13.8462 11.9255C13.8462 12.2981 13.5692 12.5466 13.1538 12.5466Z" fill="#341539"/>
  <path d="M13.1538 8.81988H4.84615C4.43077 8.81988 4.15385 8.57143 4.15385 8.19876C4.15385 7.82609 4.43077 7.57764 4.84615 7.57764H13.1538C13.5692 7.57764 13.8462 7.82609 13.8462 8.19876C13.8462 8.57143 13.5692 8.81988 13.1538 8.81988Z" fill="#341539"/>
</svg>
