<svg xmlns="http://www.w3.org/2000/svg" width="42" height="21" viewBox="0 0 42 21" fill="none">
  <path d="M0 21V18.2437C0 16.9896 0.641667 15.9688 1.925 15.1813C3.20833 14.3938 4.9 14 7 14C7.37917 14 7.74375 14.0073 8.09375 14.0219C8.44375 14.0365 8.77917 14.0729 9.1 14.1312C8.69167 14.7437 8.38542 15.3854 8.18125 16.0562C7.97708 16.7271 7.875 17.4271 7.875 18.1562V21H0ZM10.5 21V18.1562C10.5 17.2229 10.7552 16.3698 11.2656 15.5969C11.776 14.824 12.4979 14.1458 13.4313 13.5625C14.3646 12.9792 15.4802 12.5417 16.7781 12.25C18.076 11.9583 19.4833 11.8125 21 11.8125C22.5458 11.8125 23.9677 11.9583 25.2656 12.25C26.5635 12.5417 27.6792 12.9792 28.6125 13.5625C29.5458 14.1458 30.2604 14.824 30.7563 15.5969C31.2521 16.3698 31.5 17.2229 31.5 18.1562V21H10.5ZM34.125 21V18.1562C34.125 17.3979 34.0302 16.6833 33.8406 16.0125C33.651 15.3417 33.3667 14.7146 32.9875 14.1312C33.3083 14.0729 33.6365 14.0365 33.9719 14.0219C34.3073 14.0073 34.65 14 35 14C37.1 14 38.7917 14.3865 40.075 15.1594C41.3583 15.9323 42 16.9604 42 18.2437V21H34.125ZM14.2188 17.5H27.825C27.5333 16.9167 26.724 16.4062 25.3969 15.9688C24.0698 15.5312 22.6042 15.3125 21 15.3125C19.3958 15.3125 17.9302 15.5312 16.6031 15.9688C15.276 16.4062 14.4813 16.9167 14.2188 17.5ZM7 12.25C6.0375 12.25 5.21354 11.9073 4.52813 11.2219C3.84271 10.5365 3.5 9.7125 3.5 8.75C3.5 7.75833 3.84271 6.92708 4.52813 6.25625C5.21354 5.58542 6.0375 5.25 7 5.25C7.99167 5.25 8.82292 5.58542 9.49375 6.25625C10.1646 6.92708 10.5 7.75833 10.5 8.75C10.5 9.7125 10.1646 10.5365 9.49375 11.2219C8.82292 11.9073 7.99167 12.25 7 12.25ZM35 12.25C34.0375 12.25 33.2135 11.9073 32.5281 11.2219C31.8427 10.5365 31.5 9.7125 31.5 8.75C31.5 7.75833 31.8427 6.92708 32.5281 6.25625C33.2135 5.58542 34.0375 5.25 35 5.25C35.9917 5.25 36.8229 5.58542 37.4938 6.25625C38.1646 6.92708 38.5 7.75833 38.5 8.75C38.5 9.7125 38.1646 10.5365 37.4938 11.2219C36.8229 11.9073 35.9917 12.25 35 12.25ZM21 10.5C19.5417 10.5 18.3021 9.98958 17.2812 8.96875C16.2604 7.94792 15.75 6.70833 15.75 5.25C15.75 3.7625 16.2604 2.51562 17.2812 1.50937C18.3021 0.503125 19.5417 0 21 0C22.4875 0 23.7344 0.503125 24.7406 1.50937C25.7469 2.51562 26.25 3.7625 26.25 5.25C26.25 6.70833 25.7469 7.94792 24.7406 8.96875C23.7344 9.98958 22.4875 10.5 21 10.5ZM21 7C21.4958 7 21.9115 6.83229 22.2469 6.49688C22.5823 6.16146 22.75 5.74583 22.75 5.25C22.75 4.75417 22.5823 4.33854 22.2469 4.00313C21.9115 3.66771 21.4958 3.5 21 3.5C20.5042 3.5 20.0885 3.66771 19.7531 4.00313C19.4177 4.33854 19.25 4.75417 19.25 5.25C19.25 5.74583 19.4177 6.16146 19.7531 6.49688C20.0885 6.83229 20.5042 7 21 7Z" fill="#341539"/>
</svg>
