<svg xmlns="http://www.w3.org/2000/svg" width="20" height="21" viewBox="0 0 20 21" fill="none">
  <path d="M13.9001 6.33186V2.83251C13.9001 2.00077 13.9001 1.5849 13.7249 1.32933C13.5718 1.10604 13.3347 0.954349 13.0679 0.908939C12.7624 0.856959 12.3848 1.03123 11.6296 1.37978L2.75916 5.47385C2.08566 5.7847 1.7489 5.94013 1.50226 6.18118C1.28421 6.39428 1.11777 6.65441 1.01565 6.94169C0.900146 7.26665 0.900146 7.63754 0.900146 8.37933V13.3318M14.4001 12.8318H14.4101M0.900146 9.53183V16.1318C0.900146 17.2519 0.900146 17.812 1.11814 18.2398C1.30988 18.6161 1.61584 18.9221 1.99217 19.1138C2.41999 19.3318 2.98004 19.3318 4.10015 19.3318H15.7001C16.8202 19.3318 17.3803 19.3318 17.8081 19.1138C18.1844 18.9221 18.4904 18.6161 18.6821 18.2398C18.9001 17.812 18.9001 17.2519 18.9001 16.1318V9.53183C18.9001 8.41173 18.9001 7.8517 18.6821 7.42388C18.4904 7.04755 18.1844 6.74159 17.8081 6.54985C17.3803 6.33186 16.8202 6.33186 15.7001 6.33186H4.10015C2.98005 6.33186 2.41999 6.33186 1.99217 6.54984C1.61585 6.74159 1.30988 7.04755 1.11814 7.42388C0.900146 7.8517 0.900146 8.41173 0.900146 9.53183ZM14.9001 12.8318C14.9001 13.108 14.6762 13.3318 14.4001 13.3318C14.124 13.3318 13.9001 13.108 13.9001 12.8318C13.9001 12.5557 14.124 12.3318 14.4001 12.3318C14.6762 12.3318 14.9001 12.5557 14.9001 12.8318Z" stroke="#341539" stroke-width="1.8" stroke-linecap="round" stroke-linejoin="round"/>
</svg>
