<svg width="25" height="26" viewBox="0 0 25 26" fill="none" xmlns="http://www.w3.org/2000/svg">
<path d="M18.582 15.0089C18.582 19.7535 14.7357 23.5998 9.99105 23.5998C5.24643 23.5998 1.40014 19.7535 1.40014 15.0089C1.40014 10.2642 5.24643 6.41797 9.99105 6.41797C14.7357 6.41797 18.582 10.2642 18.582 15.0089Z" fill="#FFE859" fill-opacity="0.45"/>
<path d="M16.6729 15.9635C16.6729 20.181 13.254 23.5999 9.03651 23.5999C4.81906 23.5999 1.40014 20.181 1.40014 15.9635C1.40014 11.7461 4.81906 8.32715 9.03651 8.32715C13.254 8.32715 16.6729 11.7461 16.6729 15.9635Z" fill="#FFE859"/>
<path d="M6.5002 21.9989C5.95043 23.9482 0.0142549 15.9365 0.000242106 13.9989L0 25.8989C-2.03448e-06 25.9542 0.0447712 25.9989 0.1 25.9989H24.9002C24.9554 25.9989 25.0002 25.9542 25.0002 25.8989L25.0002 11.0926C25.0002 11.0409 24.9641 10.9982 24.9125 10.9946C24.2027 10.9459 19.3884 10.7225 18.0002 13.4989C16.5002 16.4989 18.0002 18.4989 14.0002 18.9989C10.0002 19.4989 7.3565 18.9628 6.5002 21.9989Z" fill="#FFCACA" fill-opacity="0.8"/>
<path d="M25.0002 12.5C25.0002 19.4036 19.4038 25 12.5002 25C5.59668 25 0.000242106 19.4036 0.000242106 12.5C0.000242106 5.59644 5.59668 0 12.5002 0C19.4038 0 25.0002 5.59644 25.0002 12.5Z" fill="url(#paint0_linear_647_539)" fill-opacity="0.35"/>
<defs>
<linearGradient id="paint0_linear_647_539" x1="13.0955" y1="8.95844e-07" x2="7.1431" y2="22.0238" gradientUnits="userSpaceOnUse">
<stop offset="0.75907" stop-color="#FFE859"/>
<stop offset="1" stop-color="#FFE859" stop-opacity="0"/>
</linearGradient>
</defs>
</svg>
