<svg xmlns="http://www.w3.org/2000/svg" width="9" height="8" viewBox="0 0 9 8" fill="none">
  <path d="M0.638934 2.57845L0.319465 2.89792L0 2.57845L0.319465 2.25898L0.638934 2.57845ZM2.89791 8C2.6484 8 2.44612 7.79773 2.44612 7.5482C2.44612 7.29868 2.6484 7.09641 2.89791 7.09641V8ZM2.57844 5.15689L0.319465 2.89792L0.958404 2.25898L3.21738 4.51796L2.57844 5.15689ZM0.319465 2.25898L2.57844 0L3.21738 0.638939L0.958404 2.89792L0.319465 2.25898ZM0.5 2.12665H5.38279V3.03025H0.5V2.12665ZM5.38279 8H2.89791V7.09641H5.38279V8ZM8.31946 5.06333C8.31946 6.68518 7.00465 8 5.38279 8V7.09641C6.50564 7.09641 7.41587 6.18617 7.41587 5.06333H8.31946ZM5.38279 2.12665C7.00469 2.12665 8.31946 3.44145 8.31946 5.06333H7.41587C7.41587 3.94048 6.50564 3.03025 5.38279 3.03025V2.12665Z" fill="#341539"/>
</svg>
