<svg xmlns="http://www.w3.org/2000/svg" width="33" height="32" viewBox="0 0 33 32" fill="none">
  <path d="M7.82437 11.5C6.93206 11.5 6.20867 12.2234 6.20867 13.1157C6.20867 14.008 6.93206 14.7314 7.82437 14.7314V11.5ZM16.1235 14.7314C17.016 14.7314 17.7392 14.008 17.7392 13.1157C17.7392 12.2234 17.016 11.5 16.1235 11.5V14.7314ZM9.37114 16.0412C8.47882 16.0412 7.75544 16.7646 7.75544 17.6569C7.75544 18.5492 8.47882 19.2726 9.37114 19.2726V16.0412ZM18.6904 19.2726C19.5829 19.2726 20.3061 18.5492 20.3061 17.6569C20.3061 16.7646 19.5829 16.0412 18.6904 16.0412V19.2726ZM8.11951 5.54779L8.11619 7.16349H8.11951V5.54779ZM26.4652 13.9012L24.8495 13.8894V13.9012H26.4652ZM1.61578 12.1398H3.23152L3.23146 12.1312L1.61578 12.1398ZM1.61578 30.3843H7.6599e-05C7.6599e-05 30.958 0.304195 31.4886 0.799138 31.7784C1.29408 32.0683 1.90563 32.0741 2.40594 31.7937L1.61578 30.3843ZM8.11305 26.7415V25.1258C7.83633 25.1258 7.56427 25.1969 7.3229 25.3321L8.11305 26.7415ZM19.9614 26.7415V28.3572H19.9722L19.9614 26.7415ZM7.82437 14.7314H16.1235V11.5H7.82437V14.7314ZM9.37114 19.2726H18.6904V16.0412H9.37114V19.2726ZM7.30888 7.22969C7.57566 7.18507 7.8457 7.16293 8.11619 7.16349L8.12285 3.93209C7.67157 3.93116 7.22101 3.96811 6.77589 4.04254L7.30888 7.22969ZM8.11951 7.16349H18.099V3.93209H8.11951V5.54779V7.16349ZM24.8495 13.9012V20.1473H28.0809V13.9012H24.8495ZM24.8495 20.1473C24.8499 20.4484 24.8236 20.7511 24.771 21.0477L27.9527 21.6122C28.0386 21.1279 28.0815 20.6391 28.0809 20.1473H24.8495ZM6.77589 4.04254C2.84879 4.73565 -0.0213583 8.16081 0.000119743 12.1485L3.23146 12.1312C3.21847 9.71793 4.9467 7.64667 7.3232 7.22721L6.77589 4.04254ZM7.6599e-05 12.1398V30.3843H3.23148L3.23152 12.1398H7.6599e-05ZM2.40594 31.7937L8.90321 28.1508L7.3229 25.3321L0.825634 28.975L2.40594 31.7937ZM8.11305 28.3572H19.9614V25.1258H8.11305V28.3572ZM19.9722 28.3572C23.9091 28.3313 27.2758 25.4907 27.9527 21.6122L24.771 21.0477C24.3628 23.3871 22.3255 25.1103 19.9509 25.1258L19.9722 28.3572Z" fill="#341539"/>
  <path d="M23.3541 0C28.184 0 32.0994 3.91543 32.0994 8.74535C32.0994 13.5753 28.184 17.4907 23.3541 17.4907C18.5241 17.4907 14.6087 13.5753 14.6087 8.74535C14.6087 3.91543 18.5241 0 23.3541 0ZM27.5621 5.00302L21.055 11.5101L19.2199 9.06333C18.9565 8.71207 18.4581 8.64088 18.1069 8.90433C17.7556 9.16778 17.6844 9.66611 17.9479 10.0174L20.333 13.1975C20.6233 13.5846 21.1891 13.6248 21.5312 13.2827L28.6864 6.12737C28.9969 5.81689 28.9969 5.3135 28.6864 5.00302C28.376 4.69254 27.8726 4.69254 27.5621 5.00302Z" fill="#341539"/>
</svg>
