<svg xmlns="http://www.w3.org/2000/svg" width="23" height="15" viewBox="0 0 23 15" fill="none">
<path fill-rule="evenodd" clip-rule="evenodd" d="M0 0L6.01964 6.0893C6.11599 5.99961 6.22079 5.90304 6.33331 5.8004C6.97043 5.21922 7.86013 4.44198 8.8664 3.66224C9.86907 2.88527 11.008 2.08983 12.142 1.48432C13.2519 0.891771 14.4695 0.419005 15.6 0.419005C19.6252 0.419005 23 3.52877 23 7.49997C23 11.4712 19.6252 14.5809 15.6 14.5809C14.4695 14.5809 13.2519 14.1082 12.142 13.5157C11.008 12.9101 9.86907 12.1147 8.8664 11.3377C7.86013 10.558 6.97043 9.78071 6.33331 9.19967C6.22079 9.09703 6.11599 9.00032 6.01964 8.91063L0 15V0ZM7.45803 7.49997C7.52569 7.43738 7.59729 7.37156 7.67259 7.30291C8.28317 6.74601 9.13067 6.00595 10.0827 5.26831C11.0381 4.52794 12.0783 3.80602 13.0756 3.27351C14.0972 2.72805 14.9633 2.44214 15.6 2.44214C18.6441 2.44214 21 4.76713 21 7.49997C21 10.2328 18.6441 12.5578 15.6 12.5578C14.9633 12.5578 14.0972 12.2719 13.0756 11.7264C12.0783 11.1939 11.0381 10.4721 10.0827 9.73162C9.13067 8.99398 8.28317 8.25392 7.67259 7.69702C7.59729 7.62837 7.52569 7.56255 7.45803 7.49997ZM4.58579 7.49997L2 4.88432V10.1157L4.58579 7.49997Z" fill="#341539"/>
<path d="M19 5.98248C19 6.82046 18.3284 7.49983 17.5 7.49983C16.6716 7.49983 16 6.82046 16 5.98248C16 5.1445 16.6716 4.46513 17.5 4.46513C18.3284 4.46513 19 5.1445 19 5.98248Z" fill="#341539"/>
</svg>
