<svg xmlns="http://www.w3.org/2000/svg" width="23" height="16" viewBox="0 0 23 16" fill="none">
  <path d="M22.1538 13.5385C22.1538 14.1913 21.8945 14.8174 21.4329 15.279C20.9713 15.7407 20.3451 16 19.6923 16H2.46154C1.8087 16 1.1826 15.7407 0.720968 15.279C0.25934 14.8174 0 14.1913 0 13.5385V2.46154C0 1.8087 0.25934 1.1826 0.720968 0.720968C1.1826 0.25934 1.8087 0 2.46154 0H19.6923C20.3451 0 20.9713 0.25934 21.4329 0.720968C21.8945 1.1826 22.1538 1.8087 22.1538 2.46154V13.5385Z" fill="#EEEEEE"/>
  <path d="M22.1538 8V2.46154C22.1538 1.8087 21.8945 1.1826 21.4329 0.720968C20.9713 0.25934 20.3451 0 19.6923 0H2.46154C1.8087 0 1.1826 0.25934 0.720968 0.720968C0.25934 1.1826 0 1.8087 0 2.46154V8H22.1538Z" fill="#ED2939"/>
  <path d="M3.69231 4C3.69231 2.40923 4.69169 1.07815 6.03692 0.716308C5.77324 0.650408 5.50257 0.616523 5.23077 0.615385C4.33311 0.615385 3.47222 0.971977 2.83748 1.60672C2.20275 2.24145 1.84615 3.10234 1.84615 4C1.84615 4.89766 2.20275 5.75855 2.83748 6.39328C3.47222 7.02802 4.33311 7.38462 5.23077 7.38462C5.50892 7.38462 5.77785 7.34769 6.03692 7.28369C4.69169 6.92185 3.69231 5.59077 3.69231 4Z" fill="white"/>
  <path d="M7.38462 1.23077L7.52308 1.656H7.96985L7.608 1.91877L7.74646 2.344L7.38462 2.08123L7.02277 2.344L7.16123 1.91877L6.79938 1.656H7.24615L7.38462 1.23077ZM6.15385 5.53846L6.29231 5.96369H6.73908L6.37723 6.22646L6.51569 6.65169L6.15385 6.38892L5.792 6.65169L5.93046 6.22646L5.56861 5.96369H6.01538L6.15385 5.53846ZM8.61538 5.53846L8.75385 5.96369H9.20062L8.83877 6.22646L8.97723 6.65169L8.61538 6.38892L8.25354 6.65169L8.392 6.22646L8.03015 5.96369H8.47692L8.61538 5.53846ZM5.53846 3.07692L5.67692 3.50215H6.12369L5.76185 3.76492L5.90031 4.19015L5.53846 3.92738L5.17662 4.19015L5.31508 3.76492L4.95323 3.50215H5.4L5.53846 3.07692ZM9.23077 3.07692L9.36923 3.50215H9.816L9.45415 3.76492L9.59262 4.19015L9.23077 3.92738L8.86892 4.19015L9.00739 3.76492L8.64554 3.50215H9.09231L9.23077 3.07692Z" fill="#EEEEEE"/>
</svg>
