<svg xmlns="http://www.w3.org/2000/svg" width="840" height="528" viewBox="0 0 840 528" fill="none">
  <path d="M147.605 15.74C194.213 6.52706 229.668 9.25375 258.83 17.9148C287.803 26.5198 309.978 40.8446 329.665 53.5095C357.951 71.7058 380.358 85.9929 419.972 85.9929H420.029C459.66 85.9929 482.058 71.7085 510.345 53.5125C530.035 40.8462 552.211 26.5233 581.189 17.9197C610.356 9.26014 645.817 6.53296 692.435 15.74C745.006 26.1203 785.359 56.961 808.548 104.641H808.547C824.051 136.519 830.324 173.343 829.987 207.566C829.652 241.701 822.727 274.183 810.924 297.389L810.925 297.39C783.794 350.8 737.177 399.61 676.602 438.839C599.808 488.571 507.246 517.356 422.016 517.806L420.003 517.812H419.889C334.143 517.812 240.775 488.965 163.384 438.823V438.822C102.841 399.613 56.225 350.794 29.0654 297.34L28.5156 296.246C17.0527 273.14 10.3424 241.157 10.0127 207.569C9.67691 173.362 15.9473 136.55 31.4443 104.678C54.6389 56.9745 95.0066 26.1237 147.605 15.74ZM201.919 82.1824C190.26 82.1824 177.007 83.4901 161.589 86.5378H161.586C131.191 92.5378 109.523 109.128 96.3398 136.237C85.7869 157.942 81.8659 184.024 82.3193 208.134C82.7759 232.407 87.6319 253.318 93.3867 264.626L93.3906 264.633C113.812 304.828 151.553 344.701 200.283 376.736L202.612 378.256L202.613 378.257C268.833 421.159 348.134 445.646 419.881 445.646H419.992C491.792 445.646 571.14 421.16 637.375 378.266C687.259 345.964 725.877 305.476 746.59 264.699L746.593 264.693C752.356 253.363 757.217 232.43 757.675 208.139C758.13 184.011 754.207 157.915 743.646 136.207V136.206C730.469 109.115 708.813 92.5363 678.448 86.5398H678.447C644.796 79.8912 621.293 81.4874 602.219 87.0662C582.902 92.7159 567.405 102.612 549.384 114.206V114.207C518.353 134.169 481.343 158.067 420.388 158.159L420.377 158.16H419.961C358.802 158.162 321.712 134.204 290.621 114.203H290.62C263.159 96.5341 240.631 82.1825 201.919 82.1824ZM356.076 210.573C368.533 194.432 390.24 193.432 406.057 198.964C420.239 203.923 439.58 205.754 465.311 198.419C483.081 193.352 504.042 200.376 512.22 218.918C520.122 236.835 512.358 259.209 492.262 265.611C471.832 272.12 451.795 275.423 432.544 275.423C408.688 275.423 386.117 270.352 365.646 260.135C345.889 250.276 344.315 225.813 356.076 210.573Z" fill="#341539" stroke="#341539" stroke-width="20"/>
</svg>
