<svg xmlns="http://www.w3.org/2000/svg" width="12" height="8" viewBox="0 0 12 8" fill="none">
  <path d="M3.76278 7.664L0.334642 4.23586C0.228547 4.12977 0.144389 4.00382 0.0869705 3.8652C0.0295525 3.72658 1.11789e-09 3.57801 0 3.42797C-1.11789e-09 3.27793 0.0295525 3.12935 0.0869705 2.99074C0.144389 2.85212 0.228547 2.72616 0.334642 2.62007C0.440737 2.51397 0.566689 2.42981 0.705309 2.3724C0.843928 2.31498 0.9925 2.28543 1.14254 2.28543C1.29258 2.28543 1.44115 2.31498 1.57977 2.3724C1.71839 2.42981 1.84434 2.51397 1.95044 2.62007L4.57068 5.24031L9.47635 0.334642C9.69061 0.120375 9.98122 0 10.2842 0C10.4343 0 10.5829 0.029553 10.7215 0.086971C10.8601 0.144389 10.986 0.228548 11.0921 0.334642C11.1982 0.440737 11.2824 0.56669 11.3398 0.705309C11.3972 0.843929 11.4268 0.9925 11.4268 1.14254C11.4268 1.29258 11.3972 1.44115 11.3398 1.57977C11.2824 1.71839 11.1982 1.84434 11.0921 1.95044L5.37858 7.664C5.2727 7.77049 5.14682 7.85499 5.00817 7.91265C4.86952 7.97032 4.72084 8 4.57068 8C4.42052 8 4.27184 7.97032 4.13319 7.91265C3.99454 7.85499 3.86866 7.77049 3.76278 7.664Z" fill="#417C3D"/>
</svg>
