<svg xmlns="http://www.w3.org/2000/svg" width="20" height="20" viewBox="0 0 20 20" fill="none">
  <path d="M7.94897 3.83657C8.86852 3.30748 9.93741 3.09768 10.9887 3.23988C12.04 3.38209 13.0148 3.86831 13.7607 4.62268C14.5067 5.37705 14.9819 6.35714 15.1124 7.41001C15.2428 8.46291 15.021 9.52931 14.4816 10.4429L18.4129 14.3709C18.6316 14.5975 18.7527 14.9008 18.75 15.2157C18.7472 15.5306 18.621 15.8318 18.3982 16.0545C18.1756 16.2772 17.8743 16.4035 17.5594 16.4062C17.2445 16.409 16.9412 16.2879 16.7147 16.0692L12.7858 12.1411C12.2512 12.4566 11.6603 12.665 11.0463 12.7547H11.0117M5.554 6.07944V2.5515C5.554 2.07371 5.7438 1.6155 6.08165 1.27765C6.4195 0.939801 6.87771 0.75 7.3555 0.75C7.83329 0.75 8.29148 0.939801 8.62936 1.27765C8.96716 1.6155 9.157 2.07371 9.157 2.5515V3.16451M10.358 8.00164C10.3578 7.10319 10.1056 6.2228 9.63012 5.46047C9.1546 4.69815 8.47492 4.08443 7.66811 3.68905C6.86132 3.29366 5.95984 3.13245 5.06602 3.22371C4.17221 3.31498 3.3219 3.65506 2.61168 4.20534C1.90146 4.75562 1.35978 5.49405 1.04818 6.33673C0.736575 7.17943 0.667531 8.09261 0.848891 8.97261C1.03025 9.85254 1.45474 10.664 2.07415 11.3148C2.69357 11.9657 3.48308 12.4297 4.353 12.6543V17.5672C4.353 17.8857 4.47954 18.1913 4.70477 18.4165C4.93 18.6417 5.23548 18.7682 5.554 18.7682C5.87253 18.7682 6.17801 18.6417 6.40324 18.4165C6.62847 18.1913 6.755 17.8857 6.755 17.5672V12.6543C7.78641 12.388 8.70006 11.7865 9.35229 10.9443C10.0045 10.102 10.3582 9.06685 10.358 8.00164ZM5.554 8.60214C6.2173 8.60214 6.755 8.06444 6.755 7.40114C6.755 6.73784 6.2173 6.20014 5.554 6.20014C4.89071 6.20014 4.353 6.73784 4.353 7.40114C4.353 8.06444 4.89071 8.60214 5.554 8.60214Z" stroke="#341539" stroke-width="1.5" stroke-linecap="round" stroke-linejoin="round"/>
</svg>
