<svg xmlns="http://www.w3.org/2000/svg" width="749" height="723" viewBox="0 0 749 723" fill="none">
  <path d="M177.018 697.335C362.683 367.335 517.017 309.332 691.683 523.665M401 97.3348H158.333C122.971 97.3348 89.0573 111.38 64.0523 136.385C39.0473 161.39 25 195.306 25 230.668V564.001C25 599.365 39.0473 633.275 64.0523 658.281C89.0573 683.285 122.971 697.335 158.333 697.335H558.333C593.697 697.335 627.61 683.285 652.613 658.281C677.62 633.275 691.667 599.365 691.667 564.001V397.335M616.667 291.667V25M510.027 131.667L616.693 25L723.36 131.667M225 364.001C261.819 364.001 291.667 334.155 291.667 297.335C291.667 260.516 261.819 230.668 225 230.668C188.181 230.668 158.333 260.516 158.333 297.335C158.333 334.155 188.181 364.001 225 364.001Z" stroke="#341539" stroke-width="50" stroke-linecap="round" stroke-linejoin="round"/>
</svg>
