<svg xmlns="http://www.w3.org/2000/svg" width="650" height="650" viewBox="0 0 650 650" fill="none">
  <path d="M343.45 8.13067C338.713 2.95067 332.02 0 325 0C317.98 0 311.287 2.95067 306.55 8.13067L173.216 153.964C163.899 164.154 164.607 179.967 174.797 189.284C184.988 198.601 200.801 197.893 210.117 187.703L300 89.3933V458.333C300 472.14 311.193 483.333 325 483.333C338.807 483.333 350 472.14 350 458.333V89.3933L439.883 187.703C449.2 197.893 465.013 198.601 475.203 189.284C485.393 179.967 486.1 164.154 476.783 153.964L343.45 8.13067Z" fill="#341539"/>
  <path d="M50 425C50 411.193 38.8074 400 25 400C11.193 400 1.74651e-05 411.193 1.74651e-05 425V426.83C-0.000649201 472.417 -0.00131822 509.16 3.88401 538.06C7.91801 568.063 16.5477 593.323 36.6117 613.387C56.6757 633.453 81.938 642.083 111.942 646.117C140.841 650 177.585 650 223.171 650H426.83C472.417 650 509.16 650 538.06 646.117C568.063 642.083 593.323 633.453 613.39 613.387C633.453 593.323 642.083 568.063 646.117 538.06C650 509.16 650 472.417 650 426.83V425C650 411.193 638.807 400 625 400C611.193 400 600 411.193 600 425C600 472.847 599.947 506.217 596.563 531.397C593.273 555.857 587.26 568.807 578.033 578.033C568.807 587.26 555.857 593.273 531.397 596.563C506.217 599.947 472.847 600 425 600H225C177.153 600 143.782 599.947 118.604 596.563C94.145 593.273 81.1923 587.26 71.967 578.033C62.7417 568.807 56.7267 555.857 53.4383 531.397C50.053 506.217 50 472.847 50 425Z" fill="#341539"/>
</svg>
