<svg xmlns="http://www.w3.org/2000/svg" width="21" height="21" viewBox="0 0 21 21" fill="none">
  <path d="M6.3 2.1H3.15C2.87153 2.1 2.60445 2.21062 2.40754 2.40754C2.21063 2.60445 2.1 2.87152 2.1 3.15V5.25C2.1 5.52848 2.21063 5.79555 2.40754 5.99246C2.60445 6.18937 2.87153 6.3 3.15 6.3H5.25C5.52848 6.3 5.79555 6.18937 5.99246 5.99246C6.18938 5.79555 6.3 5.52848 6.3 5.25V2.1ZM3.1605 8.4V18.8632H5.25V13.65C5.25 13.093 5.47125 12.5589 5.86508 12.1651C6.2589 11.7712 6.79305 11.55 7.35 11.55H9.45C10.007 11.55 10.5411 11.7712 10.9349 12.1651C11.3288 12.5589 11.55 13.093 11.55 13.65V18.8632H17.8637V8.4H15.75C14.9436 8.4 14.2065 8.09655 13.65 7.5978C13.0731 8.11532 12.325 8.40107 11.55 8.4H9.45C8.6436 8.4 7.9065 8.09655 7.35 7.5978C6.77307 8.11532 6.02504 8.40107 5.25 8.4H3.1605ZM1.0605 7.6083C0.726572 7.31292 0.45931 6.94988 0.276466 6.54328C0.0936215 6.13667 -0.000619084 5.69582 3.06041e-06 5.25V3.15C3.06041e-06 2.31457 0.331877 1.51335 0.922617 0.922614C1.51336 0.331874 2.31457 0 3.15 0L17.85 0C18.6854 0 19.4867 0.331874 20.0774 0.922614C20.6681 1.51335 21 2.31457 21 3.15V5.25C21 6.1761 20.601 7.0098 19.9637 7.58625V18.8632C19.9637 19.4202 19.7424 19.9543 19.3486 20.3482C18.9548 20.742 18.4206 20.9632 17.8637 20.9632H9.84165C9.71253 20.9877 9.58141 21 9.45 21H7.35C7.21859 21 7.08747 20.9877 6.95835 20.9632H3.16155C2.6046 20.9632 2.07045 20.742 1.67663 20.3482C1.2828 19.9543 1.06155 19.4202 1.06155 18.8632V7.60725L1.0605 7.6083ZM9.45 18.8643V13.65H7.35V18.8632L9.45 18.8643ZM12.6 2.1H8.4V5.25C8.4 5.52848 8.51063 5.79555 8.70754 5.99246C8.90445 6.18937 9.17153 6.3 9.45 6.3H11.55C11.8285 6.3 12.0956 6.18937 12.2925 5.99246C12.4894 5.79555 12.6 5.52848 12.6 5.25V2.1ZM14.7 2.1V5.25C14.7 5.52848 14.8106 5.79555 15.0075 5.99246C15.2045 6.18937 15.4715 6.3 15.75 6.3H17.85C18.1285 6.3 18.3956 6.18937 18.5925 5.99246C18.7894 5.79555 18.9 5.52848 18.9 5.25V3.15C18.9 2.87152 18.7894 2.60445 18.5925 2.40754C18.3956 2.21062 18.1285 2.1 17.85 2.1H14.7ZM14.7 11.55H15.75C16.0285 11.55 16.2956 11.6606 16.4925 11.8575C16.6894 12.0545 16.8 12.3215 16.8 12.6V15.75C16.8 16.0285 16.6894 16.2955 16.4925 16.4925C16.2956 16.6894 16.0285 16.8 15.75 16.8H14.7C14.4215 16.8 14.1545 16.6894 13.9575 16.4925C13.7606 16.2955 13.65 16.0285 13.65 15.75V12.6C13.65 12.3215 13.7606 12.0545 13.9575 11.8575C14.1545 11.6606 14.4215 11.55 14.7 11.55Z" fill="#341539"/>
</svg>
